<svg width="57" height="56" viewBox="0 0 57 56" fill="none" xmlns="http://www.w3.org/2000/svg">
<g id="carbon:infrastructure-classic">
<path id="Vector" d="M32.4053 45.5H53.4053V49H32.4053V45.5ZM32.4053 36.75H53.4053V40.25H32.4053V36.75ZM32.4053 28H53.4053V31.5H32.4053V28Z" fill="#FFC876"/>
<path id="Vector_2" d="M25.4053 43.75H17.5303C14.2497 43.7537 11.0868 42.528 8.66526 40.3147C6.24377 38.1013 4.7395 35.061 4.44911 31.7932C4.15871 28.5255 5.10326 25.2675 7.09649 22.6618C9.08972 20.0562 11.9869 18.2919 15.2168 17.717C16.0349 13.4394 18.4185 9.62056 21.902 7.00667C25.3855 4.39278 29.7184 3.1717 34.0542 3.58204C38.3899 3.99239 42.4169 6.00467 45.3481 9.22566C48.2794 12.4467 49.9043 16.6449 49.9053 21H46.4053C46.4031 17.4209 45.03 13.9787 42.5683 11.3806C40.1066 8.7826 36.7432 7.22618 33.1695 7.03125C29.5957 6.83632 26.083 8.01768 23.3533 10.3325C20.6236 12.6474 18.8843 15.9199 18.4928 19.4775L18.3353 20.937L16.8706 21.035C14.378 21.1999 12.0473 22.3281 10.3718 24.1808C8.69621 26.0336 7.80724 28.4655 7.89296 30.9621C7.97868 33.4587 9.03237 35.8239 10.831 37.5574C12.6297 39.2909 15.0323 40.2565 17.5303 40.25H25.4053V43.75Z" fill="#FFC876"/>
</g>
</svg>
