<svg width="57" height="56" viewBox="0 0 57 56" fill="none" xmlns="http://www.w3.org/2000/svg">
<path d="M25.4482 4.66669V9.33335M32.4482 4.66669V9.33335M19.6149 15.1667H14.9482M19.6149 22.1667H14.9482M42.9482 15.1667H38.2816M42.9482 22.1667H38.2816M28.9482 44.3334C30.0356 44.3334 30.5792 44.3334 31.0086 44.513C31.5796 44.7493 32.0336 45.2024 32.2709 45.773C32.4482 46.2024 32.4482 46.746 32.4482 47.8334C32.4482 48.9207 32.4482 49.4644 32.2686 49.8937C32.0323 50.4647 31.5792 50.9187 31.0086 51.156C30.5792 51.3334 30.0356 51.3334 28.9482 51.3334C27.8609 51.3334 27.3172 51.3334 26.8879 51.156C26.3169 50.9198 25.8629 50.4643 25.6256 49.8937C25.4482 49.4644 25.4482 48.9207 25.4482 47.8334C25.4482 46.746 25.4482 46.2024 25.6279 45.773C25.8642 45.202 26.3173 44.748 26.8879 44.5107C27.3172 44.3334 27.8609 44.3334 28.9482 44.3334ZM28.9482 44.3334V28M32.0586 9.33335H25.8379C22.9049 9.33335 21.4349 9.33335 20.5249 10.2434C19.6149 11.158 19.6149 12.6234 19.6149 15.5587V21.7794C19.6149 24.7124 19.6149 26.18 20.5249 27.0924C21.4372 28.0024 22.9049 28.0024 25.8379 28.0024H32.0586C34.9916 28.0024 36.4592 28.0024 37.3716 27.0924C38.2816 26.18 38.2816 24.7124 38.2816 21.7794V15.5564C38.2816 12.6234 38.2816 11.1557 37.3716 10.2457C36.4592 9.33335 34.9916 9.33335 32.0586 9.33335ZM9.38791 51.156C9.81724 51.3334 10.3609 51.3334 11.4482 51.3334C12.5356 51.3334 13.0792 51.3334 13.5086 51.156C14.0792 50.9187 14.5323 50.4647 14.7686 49.8937C14.9482 49.4644 14.9482 48.9207 14.9482 47.8334C14.9482 46.746 14.9482 46.2024 14.7709 45.773C14.5336 45.2024 14.0796 44.7493 13.5086 44.513C13.0792 44.3334 12.5356 44.3334 11.4482 44.3334C10.3609 44.3334 9.81724 44.3334 9.38791 44.5107C8.81732 44.748 8.36417 45.202 8.12791 45.773C7.94824 46.2024 7.94824 46.746 7.94824 47.8334C7.94824 48.9207 7.94824 49.4644 8.12558 49.8937C8.3629 50.4643 8.81688 50.9198 9.38791 51.156Z" stroke="#FFC876" stroke-width="4" stroke-linecap="round" stroke-linejoin="round"/>
<path d="M11.4482 44.3334C11.4482 41.0574 11.4482 39.417 12.2346 38.241C12.5751 37.7313 13.0128 37.2936 13.5226 36.953C14.6986 36.1667 16.3389 36.1667 19.6149 36.1667H38.2816C41.5576 36.1667 43.1979 36.1667 44.3739 36.953C44.8826 37.2937 45.3212 37.7324 45.6619 38.241C46.4482 39.417 46.4482 41.0574 46.4482 44.3334M46.4482 44.3334C47.5356 44.3334 48.0792 44.3334 48.5086 44.513C49.0796 44.7493 49.5336 45.2024 49.7709 45.773C49.9482 46.2024 49.9482 46.746 49.9482 47.8334C49.9482 48.9207 49.9482 49.4644 49.7686 49.8937C49.5323 50.4647 49.0792 50.9187 48.5086 51.156C48.0792 51.3334 47.5356 51.3334 46.4482 51.3334C45.3609 51.3334 44.8172 51.3334 44.3879 51.156C43.8169 50.9198 43.3629 50.4643 43.1256 49.8937C42.9482 49.4644 42.9482 48.9207 42.9482 47.8334C42.9482 46.746 42.9482 46.2024 43.1279 45.773C43.3642 45.202 43.8173 44.748 44.3879 44.5107C44.8172 44.3334 45.3609 44.3334 46.4482 44.3334Z" stroke="#FFC876" stroke-width="4" stroke-linecap="round" stroke-linejoin="round"/>
</svg>
