<svg width="57" height="57" viewBox="0 0 57 57" fill="none" xmlns="http://www.w3.org/2000/svg">
<g id="ic:baseline-add-chart">
<path id="Vector" d="M14.9056 23.81H19.5723V40.1433H14.9056V23.81ZM33.5723 30.81H38.2389V40.1433H33.5723V30.81ZM24.2389 16.81H28.9056V40.1433H24.2389V16.81ZM47.5723 16.8333V9.83333H42.9056V16.8333H35.9056V21.5H42.9056V28.5H47.5723V21.5H54.5723V16.8333H47.5723ZM42.9056 44.8333H10.2389V12.1667H38.2389V7.5H10.2389C7.67227 7.5 5.57227 9.6 5.57227 12.1667V44.8333C5.57227 47.4 7.67227 49.5 10.2389 49.5H42.9056C45.4723 49.5 47.5723 47.4 47.5723 44.8333V33.1667H42.9056V44.8333Z" fill="#AC6AFF"/>
</g>
</svg>
