<svg width="57" height="56" viewBox="0 0 57 56" fill="none" xmlns="http://www.w3.org/2000/svg">
<g id="icon-park-outline:locking-web">
<g id="Group">
<path id="Vector" d="M28.9056 46.6668H9.07227C8.14401 46.6668 7.25377 46.2981 6.59739 45.6417C5.94101 44.9853 5.57227 44.0951 5.57227 43.1668V12.8335C5.57227 11.9052 5.94101 11.015 6.59739 10.3586C7.25377 9.70224 8.14401 9.3335 9.07227 9.3335H48.7389C49.6672 9.3335 50.5574 9.70224 51.2138 10.3586C51.8702 11.015 52.2389 11.9052 52.2389 12.8335V26.9023" stroke="#DD734F" stroke-width="4" stroke-linecap="round" stroke-linejoin="round"/>
<path id="Vector_2" d="M5.57227 12.8335C5.57227 11.9052 5.94101 11.015 6.59739 10.3586C7.25377 9.70224 8.14401 9.3335 9.07227 9.3335H48.7389C49.6672 9.3335 50.5574 9.70224 51.2138 10.3586C51.8702 11.015 52.2389 11.9052 52.2389 12.8335V23.3335H5.57227V12.8335Z" stroke="#DD734F" stroke-width="4"/>
<path id="Vector_3" d="M48.7393 38.5H41.7393C39.8063 38.5 38.2393 40.067 38.2393 42V44.3333C38.2393 46.2663 39.8063 47.8333 41.7393 47.8333H48.7393C50.6723 47.8333 52.2393 46.2663 52.2393 44.3333V42C52.2393 40.067 50.6723 38.5 48.7393 38.5Z" stroke="#DD734F" stroke-width="4" stroke-linejoin="round"/>
<path id="Vector_4" d="M45.2393 31.5C46.1675 31.5 47.0578 31.8687 47.7141 32.5251C48.3705 33.1815 48.7393 34.0717 48.7393 35V38.5H41.7393V35C41.7393 34.0717 42.108 33.1815 42.7644 32.5251C43.4208 31.8687 44.311 31.5 45.2393 31.5Z" stroke="#DD734F" stroke-width="4" stroke-linejoin="round"/>
<path id="Vector_5" d="M10.2386 16.3337C10.2386 15.045 11.2833 14.0003 12.5719 14.0003C13.8606 14.0003 14.9053 15.045 14.9053 16.3337C14.9053 17.6223 13.8606 18.667 12.5719 18.667C11.2833 18.667 10.2386 17.6223 10.2386 16.3337Z" fill="#DD734F"/>
<path id="Vector_6" d="M17.2386 16.3337C17.2386 15.045 18.2833 14.0003 19.5719 14.0003C20.8606 14.0003 21.9053 15.045 21.9053 16.3337C21.9053 17.6223 20.8606 18.667 19.5719 18.667C18.2833 18.667 17.2386 17.6223 17.2386 16.3337Z" fill="#DD734F"/>
</g>
</g>
</svg>
