<svg width="57" height="56" viewBox="0 0 57 56" fill="none" xmlns="http://www.w3.org/2000/svg">
<path d="M16.5604 49.7C16.1326 49.2722 15.9187 48.7278 15.9187 48.0667C15.9187 47.4056 16.1326 46.8611 16.5604 46.4333L27.7021 35.2333C28.5965 34.3389 29.7049 33.8917 31.0271 33.8917C32.3493 33.8917 33.4576 34.3389 34.3521 35.2333L39.1937 40.075L49.6354 29.6333C50.1021 29.1667 50.6465 28.9333 51.2687 28.9333C51.891 28.9333 52.4354 29.1667 52.9021 29.6333C53.3687 30.1 53.6021 30.6546 53.6021 31.297C53.6021 31.9394 53.3687 32.4932 52.9021 32.9583L42.5187 43.4C41.6243 44.2944 40.5261 44.7417 39.2241 44.7417C37.9221 44.7417 36.8231 44.2944 35.9271 43.4L31.0271 38.5L19.8271 49.7C19.3993 50.1278 18.865 50.3518 18.2241 50.372C17.5832 50.3922 17.0286 50.1682 16.5604 49.7ZM10.2604 49C8.97708 49 7.87886 48.5434 6.96575 47.6303C6.05264 46.7172 5.59531 45.6182 5.59375 44.3333V11.6667C5.59375 10.3833 6.05108 9.28511 6.96575 8.372C7.88042 7.45889 8.97864 7.00156 10.2604 7H42.9271C44.2104 7 45.3094 7.45733 46.2241 8.372C47.1387 9.28667 47.5953 10.3849 47.5938 11.6667V21C47.5938 21.6611 47.3697 22.2157 46.9217 22.6637C46.4737 23.1117 45.92 23.3349 45.2604 23.3333H10.2604V49ZM10.2604 18.6667H42.9271V11.6667H10.2604V18.6667Z" fill="#49B6FF"/>
</svg>
