<svg width="57" height="56" viewBox="0 0 57 56" fill="none" xmlns="http://www.w3.org/2000/svg">
<g id="tabler:database-cog">
<g id="Group">
<path id="Vector" d="M10.2383 14C10.2383 17.8663 18.5963 21 28.9049 21C39.2136 21 47.5716 17.8663 47.5716 14C47.5716 10.1337 39.2136 7 28.9049 7C18.5963 7 10.2383 10.1337 10.2383 14Z" stroke="#49B6FF" stroke-width="4" stroke-linecap="round" stroke-linejoin="round"/>
<path id="Vector_2" d="M10.2383 14V28C10.2383 31.8663 18.5963 35 28.9049 35C29.3965 35 29.8834 34.9922 30.3656 34.9767M47.5716 26.8333V14" stroke="#49B6FF" stroke-width="4" stroke-linecap="round" stroke-linejoin="round"/>
<path id="Vector_3" d="M10.2383 28V42C10.2383 45.8663 18.5963 49 28.9049 49M45.2406 49C44.0029 49 42.816 48.5083 41.9408 47.6332C41.0656 46.758 40.5739 45.571 40.5739 44.3333C40.5739 43.0957 41.0656 41.9087 41.9408 41.0335C42.816 40.1583 44.0029 39.6667 45.2406 39.6667M45.2406 49C46.4783 49 47.6653 48.5083 48.5404 47.6332C49.4156 46.758 49.9073 45.571 49.9073 44.3333C49.9073 43.0957 49.4156 41.9087 48.5404 41.0335C47.6653 40.1583 46.4783 39.6667 45.2406 39.6667M45.2406 49V52.5M45.2406 39.6667V36.1667M52.3129 40.25L49.282 42M41.2016 46.6667L38.1683 48.4167M38.1683 40.25L41.2016 42M49.282 46.6667L52.3153 48.4167" stroke="#49B6FF" stroke-width="4" stroke-linecap="round" stroke-linejoin="round"/>
</g>
</g>
</svg>
