<svg xmlns="http://www.w3.org/2000/svg" width="243" height="353" viewBox="0 0 243 353" fill="none">
    <path d="M237.16 4.05566L242.16 6.44242V0.668913L237.16 3.05566V4.05566ZM2.72656 347.48C1.2538 347.48 0.0598907 348.674 0.0598907 350.147C0.0598907 351.619 1.2538 352.813 2.72656 352.813C4.19931 352.813 5.39322 351.619 5.39322 350.147C5.39322 348.674 4.19931 347.48 2.72656 347.48ZM237.66 3.05566L228.88 3.05566V4.05566L237.66 4.05566V3.05566ZM128.38 103.556V250.147H129.38V103.556H128.38ZM28.8799 349.647H2.72656V350.647H28.8799V349.647ZM128.38 250.147C128.38 305.099 83.8323 349.647 28.8799 349.647V350.647C84.3846 350.647 129.38 305.651 129.38 250.147H128.38ZM228.88 3.05566C173.375 3.05566 128.38 48.0511 128.38 103.556H129.38C129.38 48.6033 173.928 4.05566 228.88 4.05566V3.05566Z" fill="url(#paint0_linear_1_1073)"/>
    <defs>
        <linearGradient id="paint0_linear_1_1073" x1="285.813" y1="-241.523" x2="-225.906" y2="21.6968" gradientUnits="userSpaceOnUse">
            <stop stop-color="#8FBDFB"/>
            <stop offset="1" stop-color="#8FBDFB" stop-opacity="0"/>
        </linearGradient>
    </defs>
</svg>