<svg xmlns="http://www.w3.org/2000/svg" width="156" height="287" viewBox="0 0 156 287" fill="none">
    <path d="M152.399 5L150.013 0H155.786L153.399 5H152.399ZM5.34625 283.648C5.34625 285.12 4.15234 286.314 2.67958 286.314C1.20682 286.314 0.0129089 285.12 0.0129089 283.648C0.0129089 282.175 1.20682 280.981 2.67958 280.981C4.15234 280.981 5.34625 282.175 5.34625 283.648ZM153.399 4.5V59.0887H152.399V4.5H153.399ZM3.17958 209.308V283.648H2.17958V209.308H3.17958ZM77.7894 134.699C36.5835 134.699 3.17958 168.103 3.17958 209.308H2.17958C2.17958 167.55 36.0313 133.699 77.7894 133.699V134.699ZM153.399 59.0887C153.399 100.847 119.548 134.699 77.7894 134.699V133.699C118.995 133.699 152.399 100.295 152.399 59.0887H153.399Z" fill="url(#paint0_linear_1_1075)"/>
    <defs>
        <linearGradient id="paint0_linear_1_1075" x1="259.122" y1="-51.7135" x2="-102.963" y2="205.822" gradientUnits="userSpaceOnUse">
            <stop stop-color="#8FBDFB"/>
            <stop offset="1" stop-color="#8FBDFB" stop-opacity="0"/>
        </linearGradient>
    </defs>
</svg>