<svg xmlns="http://www.w3.org/2000/svg" width="157" height="277" viewBox="0 0 157 277" fill="none">
    <path d="M3.72937 5L6.11612 0H0.342619L2.72937 5H3.72937ZM150.782 274.105C150.782 275.578 151.976 276.772 153.449 276.772C154.922 276.772 156.116 275.578 156.116 274.105C156.116 272.633 154.922 271.439 153.449 271.439C151.976 271.439 150.782 272.633 150.782 274.105ZM2.72937 4.5V54.5742H3.72937V4.5H2.72937ZM152.949 204.794V274.105H153.949V204.794H152.949ZM78.3392 130.184C119.545 130.184 152.949 163.588 152.949 204.794H153.949C153.949 163.036 120.097 129.184 78.3392 129.184V130.184ZM2.72937 54.5742C2.72937 96.3324 36.5811 130.184 78.3392 130.184V129.184C37.1333 129.184 3.72937 95.7801 3.72937 54.5742H2.72937Z" fill="url(#paint0_linear_1_1076)"/>
    <defs>
        <linearGradient id="paint0_linear_1_1076" x1="-102.993" y1="-49.9738" x2="250.675" y2="210.333" gradientUnits="userSpaceOnUse">
            <stop stop-color="#8FBDFB"/>
            <stop offset="1" stop-color="#8FBDFB" stop-opacity="0"/>
        </linearGradient>
    </defs>
</svg>