<svg xmlns="http://www.w3.org/2000/svg" width="239" height="394" viewBox="0 0 239 394" fill="none">
    <path d="M5.36426 4.16064L0.364258 6.5474L0.364258 0.773893L5.36426 3.16064V4.16064ZM236.306 387.884C237.778 387.884 238.972 389.077 238.972 390.55C238.972 392.023 237.778 393.217 236.306 393.217C234.833 393.217 233.639 392.023 233.639 390.55C233.639 389.077 234.833 387.884 236.306 387.884ZM4.86426 3.16064L11.9922 3.16064V4.16064L4.86426 4.16064V3.16064ZM112.492 103.661L112.492 290.55H111.492L111.492 103.661H112.492ZM211.992 390.05H236.306V391.05H211.992V390.05ZM112.492 290.55C112.492 345.503 157.04 390.05 211.992 390.05V391.05C156.488 391.05 111.492 346.055 111.492 290.55H112.492ZM11.9922 3.16064C67.4968 3.16064 112.492 48.156 112.492 103.661H111.492C111.492 48.7083 66.9445 4.16064 11.9922 4.16064V3.16064Z" fill="url(#paint0_linear_1_1074)"/>
    <defs>
        <linearGradient id="paint0_linear_1_1074" x1="-42.6517" y1="-269.914" x2="486.017" y2="-29.8535" gradientUnits="userSpaceOnUse">
            <stop stop-color="#8FBDFB"/>
            <stop offset="1" stop-color="#8FBDFB" stop-opacity="0"/>
        </linearGradient>
    </defs>
</svg>