<svg width="138" height="102" viewBox="0 0 138 102" fill="none" xmlns="http://www.w3.org/2000/svg">
<g filter="url(#filter0_d_1_1089)">
<rect x="5.1825" y="4" width="120" height="85.5" rx="8" fill="url(#paint0_linear_1_1089)" shape-rendering="crispEdges"/>
<rect x="5.6825" y="4.5" width="119" height="84.5" rx="7.5" stroke="#49B6FF" shape-rendering="crispEdges"/>
<path d="M16.3432 16.3827L8.77092 27.9337C8.64013 28.1332 8.78325 28.3982 9.02181 28.3982H13.5849C13.7506 28.3982 13.8849 28.5325 13.8849 28.6982V39.6699C13.8849 39.8356 14.0192 39.9699 14.1849 39.9699H19.0034C19.169 39.9699 19.3034 39.8356 19.3034 39.6699V28.6982C19.3034 28.5325 19.4377 28.3982 19.6034 28.3982H24.1664C24.405 28.3982 24.5481 28.1332 24.4173 27.9337L16.845 16.3827C16.7266 16.202 16.4617 16.202 16.3432 16.3827Z" fill="#41A5E8" stroke="#A0BEFA" stroke-width="0.5" stroke-linecap="round" stroke-linejoin="round"/>
<path d="M16.3432 16.3827L8.77092 27.9337C8.64013 28.1332 8.78325 28.3982 9.02181 28.3982H13.5849C13.7506 28.3982 13.8849 28.5325 13.8849 28.6982V39.6699C13.8849 39.8356 14.0192 39.9699 14.1849 39.9699H19.0034C19.169 39.9699 19.3034 39.8356 19.3034 39.6699V28.6982C19.3034 28.5325 19.4377 28.3982 19.6034 28.3982H24.1664C24.405 28.3982 24.5481 28.1332 24.4173 27.9337L16.845 16.3827C16.7266 16.202 16.4617 16.202 16.3432 16.3827Z" stroke="#A0BEFA" stroke-width="0.5" stroke-linecap="round" stroke-linejoin="round"/>
<path d="M64.6783 16.3082L54.8728 29.0289C54.7851 29.1426 54.7903 29.3026 54.8853 29.4103L64.6908 40.5409C64.8103 40.6765 65.0216 40.6765 65.141 40.5409L74.9466 29.4103C75.0415 29.3026 75.0467 29.1426 74.959 29.0289L65.1535 16.3082C65.0334 16.1524 64.7984 16.1524 64.6783 16.3082Z" fill="#8FBCFB" stroke="#A0BEFA" stroke-width="0.5" stroke-linecap="round" stroke-linejoin="round"/>
<path d="M113.489 39.5872L121.061 28.0361C121.192 27.8366 121.049 27.5717 120.81 27.5717L116.247 27.5717C116.081 27.5717 115.947 27.4374 115.947 27.2717L115.947 16.3C115.947 16.1343 115.813 16 115.647 16L110.829 16C110.663 16 110.529 16.1343 110.529 16.3L110.529 27.2717C110.529 27.4374 110.394 27.5717 110.229 27.5717L105.665 27.5717C105.427 27.5717 105.284 27.8366 105.415 28.0361L112.987 39.5872C113.105 39.7679 113.37 39.7679 113.489 39.5872Z" fill="#49B6FF" fill-opacity="0.3"/>
<path d="M113.489 39.5872L121.061 28.0361C121.192 27.8366 121.049 27.5717 120.81 27.5717L116.247 27.5717C116.081 27.5717 115.947 27.4374 115.947 27.2717L115.947 16.3C115.947 16.1343 115.813 16 115.647 16L110.829 16C110.663 16 110.529 16.1343 110.529 16.3L110.529 27.2717C110.529 27.4374 110.394 27.5717 110.229 27.5717L105.665 27.5717C105.427 27.5717 105.284 27.8366 105.415 28.0361L112.987 39.5872C113.105 39.7679 113.37 39.7679 113.489 39.5872Z" fill="#14446A" stroke="#A0BEFA" stroke-width="0.5" stroke-linecap="round" stroke-linejoin="round"/>
<path d="M15.4159 72V73.5H18.4159V72H15.4159ZM18.4159 60.8889C18.4159 60.0605 17.7443 59.3889 16.9159 59.3889C16.0875 59.3889 15.4159 60.0605 15.4159 60.8889H18.4159ZM18.4159 72V60.8889H15.4159V72H18.4159Z" fill="#A0BEFA"/>
<path d="M23.4159 72V73.5H26.4159V72H23.4159ZM26.4159 52.5556C26.4159 51.7271 25.7443 51.0556 24.9159 51.0556C24.0875 51.0556 23.4159 51.7271 23.4159 52.5556H26.4159ZM26.4159 72V52.5556H23.4159V72H26.4159Z" fill="#A0BEFA"/>
<path d="M31.4159 72V73.5H34.4159V72H31.4159ZM34.4159 55.3333C34.4159 54.5049 33.7443 53.8333 32.9159 53.8333C32.0875 53.8333 31.4159 54.5049 31.4159 55.3333H34.4159ZM34.4159 72V55.3333H31.4159V72H34.4159Z" fill="#A0BEFA"/>
<path d="M39.4159 72V73.5H42.4159V72H39.4159ZM42.4159 49.7778C42.4159 48.9493 41.7443 48.2778 40.9159 48.2778C40.0875 48.2778 39.4159 48.9493 39.4159 49.7778H42.4159ZM42.4159 72V49.7778H39.4159V72H42.4159Z" fill="#A0BEFA"/>
<path d="M47.4159 72V73.5H50.4159V72H47.4159ZM50.4159 47C50.4159 46.1716 49.7443 45.5 48.9159 45.5C48.0875 45.5 47.4159 46.1716 47.4159 47H50.4159ZM50.4159 72V47H47.4159V72H50.4159Z" fill="#A0BEFA"/>
<path d="M55.4159 72V73.5H58.4159V72H55.4159ZM58.4159 52.5556C58.4159 51.7271 57.7443 51.0556 56.9159 51.0556C56.0875 51.0556 55.4159 51.7271 55.4159 52.5556H58.4159ZM58.4159 72V52.5556H55.4159V72H58.4159Z" fill="#A0BEFA"/>
<path d="M63.4159 72V73.5H66.4159V72H63.4159ZM66.4159 66.4444C66.4159 65.616 65.7443 64.9444 64.9159 64.9444C64.0875 64.9444 63.4159 65.616 63.4159 66.4444H66.4159ZM66.4159 72V66.4444H63.4159V72H66.4159Z" fill="#A0BEFA"/>
<path d="M71.4159 72V73.5H74.4159V72H71.4159ZM74.4159 58.1111C74.4159 57.2827 73.7443 56.6111 72.9159 56.6111C72.0875 56.6111 71.4159 57.2827 71.4159 58.1111H74.4159ZM74.4159 72V58.1111H71.4159V72H74.4159Z" fill="#A0BEFA"/>
<path d="M79.4159 72V73.5H82.4159V72H79.4159ZM82.4159 60.8889C82.4159 60.0605 81.7443 59.3889 80.9159 59.3889C80.0875 59.3889 79.4159 60.0605 79.4159 60.8889H82.4159ZM82.4159 72V60.8889H79.4159V72H82.4159Z" fill="#A0BEFA"/>
<path d="M87.4159 72V73.5H90.4159V72H87.4159ZM90.4159 55.3333C90.4159 54.5049 89.7443 53.8333 88.9159 53.8333C88.0875 53.8333 87.4159 54.5049 87.4159 55.3333H90.4159ZM90.4159 72V55.3333H87.4159V72H90.4159Z" fill="#A0BEFA"/>
<path d="M95.4159 72L95.4159 73.5L98.4159 73.5L98.4159 72L95.4159 72ZM98.4159 58.1111C98.4159 57.2827 97.7443 56.6111 96.9159 56.6111C96.0875 56.6111 95.4159 57.2827 95.4159 58.1111L98.4159 58.1111ZM98.4159 72L98.4159 58.1111L95.4159 58.1111L95.4159 72L98.4159 72Z" fill="#A0BEFA"/>
<path d="M103.416 72V73.5H106.416V72H103.416ZM106.416 52.5556C106.416 51.7271 105.744 51.0556 104.916 51.0556C104.087 51.0556 103.416 51.7271 103.416 52.5556H106.416ZM106.416 72V52.5556H103.416V72H106.416Z" fill="#A0BEFA"/>
<path d="M111.416 72V73.5H114.416V72H111.416ZM114.416 63.6667C114.416 62.8382 113.744 62.1667 112.916 62.1667C112.087 62.1667 111.416 62.8382 111.416 63.6667H114.416ZM114.416 72V63.6667H111.416V72H114.416Z" fill="#A0BEFA"/>
<path d="M16.3392 80L113.492 80" stroke="#49B6FF" stroke-width="3.5" stroke-linecap="round"/>
</g>
<defs>
<filter id="filter0_d_1_1089" x="0.466431" y="0" width="136.899" height="102" filterUnits="userSpaceOnUse" color-interpolation-filters="sRGB">
<feFlood flood-opacity="0" result="BackgroundImageFix"/>
<feColorMatrix in="SourceAlpha" type="matrix" values="0 0 0 0 0 0 0 0 0 0 0 0 0 0 0 0 0 0 127 0" result="hardAlpha"/>
<feOffset dx="4" dy="4"/>
<feGaussianBlur stdDeviation="4"/>
<feComposite in2="hardAlpha" operator="out"/>
<feColorMatrix type="matrix" values="0 0 0 0 0.00392157 0 0 0 0 0.00392157 0 0 0 0 0.00392157 0 0 0 0.25 0"/>
<feBlend mode="normal" in2="BackgroundImageFix" result="effect1_dropShadow_1_1089"/>
<feBlend mode="normal" in="SourceGraphic" in2="effect1_dropShadow_1_1089" result="shape"/>
</filter>
<linearGradient id="paint0_linear_1_1089" x1="125.182" y1="4.00013" x2="5.38562" y2="89.7838" gradientUnits="userSpaceOnUse">
<stop stop-color="#0F3A5D"/>
<stop offset="1" stop-color="#0F3A5D" stop-opacity="0"/>
</linearGradient>
</defs>
</svg>
