<svg width="153" height="118" viewBox="0 0 153 118" fill="none" xmlns="http://www.w3.org/2000/svg">
<g filter="url(#filter0_d_1_1159)">
<rect x="12.6825" y="12.5" width="119" height="84.5" rx="7.5" fill="url(#paint0_linear_1_1159)" stroke="#49B6FF"/>
<path d="M90.5159 15.0536H125.494C127.076 15.0536 127.866 15.0536 128.358 15.5449C128.849 16.0363 128.849 16.8271 128.849 18.4088V91.0912C128.849 92.6729 128.849 93.4637 128.358 93.9551C127.866 94.4464 127.076 94.4464 125.494 94.4464H90.5159V15.0536Z" fill="#0F3A5D"/>
<path d="M99.3341 58.3701H116.678M99.3341 63.1201H113.209M99.3341 67.8701H114.944M99.3341 72.6202H116.678M99.3341 77.3702H111.475M99.3341 82.1202H108.006" stroke="#A0BEFA" stroke-width="3" stroke-linecap="round"/>
<circle cx="109.21" cy="36.4286" r="14.25" fill="#001B34"/>
<path d="M104.793 30.074V42.7832C104.793 43.132 105.165 43.3549 105.473 43.1905L117.365 36.8359C117.69 36.6619 117.69 36.1953 117.365 36.0213L105.473 29.6667C105.165 29.5023 104.793 29.7252 104.793 30.074Z" fill="#49B6FF"/>
<path d="M15.5159 56.7155C15.5159 55.7306 16.3143 54.9322 17.2991 54.9322C18.284 54.9322 19.0824 55.7306 19.0824 56.7155V76.0193C19.0824 77.0042 18.284 77.8026 17.2991 77.8026C16.3143 77.8026 15.5159 77.0042 15.5159 76.0193V56.7155Z" fill="#A0BEFA"/>
<path d="M21.7576 37.1122C21.7576 36.1273 22.556 35.3289 23.5408 35.3289C24.5257 35.3289 25.3241 36.1273 25.3241 37.1122V56.4161C25.3241 57.4009 24.5257 58.1993 23.5408 58.1993C22.556 58.1993 21.7576 57.4009 21.7576 56.4161V37.1122Z" fill="#A0BEFA"/>
<path d="M27.9987 30.5779C27.9987 29.593 28.7971 28.7946 29.7819 28.7946C30.7668 28.7946 31.5652 29.593 31.5652 30.5779V49.8818C31.5652 50.8666 30.7668 51.665 29.7819 51.665C28.7971 51.665 27.9987 50.8666 27.9987 49.8818V30.5779Z" fill="#A0BEFA"/>
<path d="M34.2401 42.0131C34.2401 41.0282 35.0385 40.2298 36.0234 40.2298C37.0082 40.2298 37.8066 41.0282 37.8066 42.0131V61.3169C37.8066 62.3018 37.0082 63.1002 36.0234 63.1002C35.0385 63.1002 34.2401 62.3018 34.2401 61.3169V42.0131Z" fill="#A0BEFA"/>
<path d="M40.4812 59.9828C40.4812 58.998 41.2796 58.1996 42.2645 58.1996C43.2493 58.1996 44.0477 58.998 44.0477 59.9828V79.2867C44.0477 80.2715 43.2493 81.0699 42.2645 81.0699C41.2796 81.0699 40.4812 80.2716 40.4812 79.2867V59.9828Z" fill="#A0BEFA"/>
<path d="M46.7229 56.7155C46.7229 55.7306 47.5213 54.9322 48.5062 54.9322C49.491 54.9322 50.2894 55.7306 50.2894 56.7155V76.0193C50.2894 77.0042 49.491 77.8026 48.5062 77.8026C47.5213 77.8026 46.7229 77.0042 46.7229 76.0193V56.7155Z" fill="#A0BEFA"/>
<path d="M52.9645 45.2803C52.9645 44.2954 53.7629 43.497 54.7477 43.497C55.7326 43.497 56.531 44.2954 56.531 45.2803V64.5842C56.531 65.569 55.7326 66.3674 54.7477 66.3674C53.7629 66.3674 52.9645 65.569 52.9645 64.5842V45.2803Z" fill="#A0BEFA"/>
<path d="M59.2056 42.0132C59.2056 41.0283 60.004 40.2299 60.9888 40.2299C61.9737 40.2299 62.7721 41.0283 62.7721 42.0132V61.3171C62.7721 62.3019 61.9737 63.1003 60.9888 63.1003C60.004 63.1003 59.2056 62.3019 59.2056 61.3171V42.0132Z" fill="#A0BEFA"/>
<path d="M65.4473 33.8451C65.4473 32.8602 66.2457 32.0618 67.2305 32.0618C68.2154 32.0618 69.0138 32.8602 69.0138 33.8451V53.1489C69.0138 54.1338 68.2154 54.9322 67.2305 54.9322C66.2457 54.9322 65.4473 54.1338 65.4473 53.1489V33.8451Z" fill="#A0BEFA"/>
<path d="M71.689 35.4786C71.689 34.4937 72.4874 33.6953 73.4722 33.6953C74.4571 33.6953 75.2555 34.4937 75.2555 35.4785V54.7824C75.2555 55.7673 74.4571 56.5657 73.4722 56.5657C72.4874 56.5657 71.689 55.7673 71.689 54.7824V35.4786Z" fill="#A0BEFA"/>
<path d="M77.9299 43.6465C77.9299 42.6616 78.7283 41.8633 79.7132 41.8633C80.6981 41.8633 81.4965 42.6616 81.4965 43.6465V62.9504C81.4965 63.9352 80.6981 64.7336 79.7132 64.7336C78.7283 64.7336 77.9299 63.9352 77.9299 62.9504V43.6465Z" fill="#A0BEFA"/>
<path d="M84.1715 53.4483C84.1715 52.4634 84.9699 51.665 85.9548 51.665C86.9396 51.665 87.738 52.4634 87.738 53.4483V72.7521C87.738 73.737 86.9396 74.5354 85.9548 74.5354C84.9699 74.5354 84.1715 73.737 84.1715 72.7521V53.4483Z" fill="#A0BEFA"/>
</g>
<defs>
<filter id="filter0_d_1_1159" x="0.182495" y="0" width="152" height="117.5" filterUnits="userSpaceOnUse" color-interpolation-filters="sRGB">
<feFlood flood-opacity="0" result="BackgroundImageFix"/>
<feColorMatrix in="SourceAlpha" type="matrix" values="0 0 0 0 0 0 0 0 0 0 0 0 0 0 0 0 0 0 127 0" result="hardAlpha"/>
<feOffset dx="4" dy="4"/>
<feGaussianBlur stdDeviation="8"/>
<feComposite in2="hardAlpha" operator="out"/>
<feColorMatrix type="matrix" values="0 0 0 0 0.00392157 0 0 0 0 0.00392157 0 0 0 0 0.00392157 0 0 0 0.25 0"/>
<feBlend mode="normal" in2="BackgroundImageFix" result="effect1_dropShadow_1_1159"/>
<feBlend mode="normal" in="SourceGraphic" in2="effect1_dropShadow_1_1159" result="shape"/>
</filter>
<linearGradient id="paint0_linear_1_1159" x1="132.182" y1="12" x2="20.2662" y2="107.021" gradientUnits="userSpaceOnUse">
<stop stop-color="#0F3A5D"/>
<stop offset="1" stop-color="#0F3A5D" stop-opacity="0"/>
</linearGradient>
</defs>
</svg>
