<svg width="153" height="118" viewBox="0 0 153 118" fill="none" xmlns="http://www.w3.org/2000/svg">
<g filter="url(#filter0_d_1_1138)">
<rect x="12.6825" y="12.5" width="119" height="84.5" rx="7.5" fill="url(#paint0_linear_1_1138)" stroke="#49B6FF"/>
<path d="M75.5158 49.6607C81.6523 49.6607 86.6269 45.1036 86.6269 39.4822C86.6269 33.8607 81.6523 29.3036 75.5158 29.3036C69.3793 29.3036 64.4047 33.8607 64.4047 39.4822C64.4047 45.1036 69.3793 49.6607 75.5158 49.6607Z" stroke="#49B6FF" stroke-width="4"/>
<path d="M97.7325 70.0179C97.738 69.6005 97.738 69.1756 97.738 68.7455C97.738 62.4221 87.788 57.2946 75.5158 57.2946C63.2436 57.2946 53.2936 62.4221 53.2936 68.7455C53.2936 75.069 53.2936 80.1964 75.5158 80.1964C81.713 80.1964 86.1825 79.7969 89.4047 79.0844" stroke="#49B6FF" stroke-width="4" stroke-linecap="round"/>
</g>
<defs>
<filter id="filter0_d_1_1138" x="0.182495" y="0" width="152" height="117.5" filterUnits="userSpaceOnUse" color-interpolation-filters="sRGB">
<feFlood flood-opacity="0" result="BackgroundImageFix"/>
<feColorMatrix in="SourceAlpha" type="matrix" values="0 0 0 0 0 0 0 0 0 0 0 0 0 0 0 0 0 0 127 0" result="hardAlpha"/>
<feOffset dx="4" dy="4"/>
<feGaussianBlur stdDeviation="8"/>
<feComposite in2="hardAlpha" operator="out"/>
<feColorMatrix type="matrix" values="0 0 0 0 0.00392157 0 0 0 0 0.00392157 0 0 0 0 0.00392157 0 0 0 0.25 0"/>
<feBlend mode="normal" in2="BackgroundImageFix" result="effect1_dropShadow_1_1138"/>
<feBlend mode="normal" in="SourceGraphic" in2="effect1_dropShadow_1_1138" result="shape"/>
</filter>
<linearGradient id="paint0_linear_1_1138" x1="132.182" y1="12" x2="20.2662" y2="107.021" gradientUnits="userSpaceOnUse">
<stop stop-color="#0F3A5D"/>
<stop offset="1" stop-color="#0F3A5D" stop-opacity="0"/>
</linearGradient>
</defs>
</svg>
