<svg width="153" height="164" viewBox="0 0 153 164" fill="none" xmlns="http://www.w3.org/2000/svg">
<g filter="url(#filter0_d_1_1183)">
<rect x="12.1825" y="31" width="120" height="85.5" rx="4" fill="url(#paint0_linear_1_1183)" shape-rendering="crispEdges"/>
<rect x="12.6825" y="31.5" width="119" height="84.5" rx="3.5" stroke="#49B6FF" shape-rendering="crispEdges"/>
<g clip-path="url(#clip0_1_1183)">
<path d="M16.9159 41.2578C16.3636 41.2578 15.9159 41.7055 15.9159 42.2578V107.3C15.9159 107.852 16.3636 108.3 16.9159 108.3H61.2264C61.7787 108.3 62.2264 107.852 62.2264 107.3V42.2578C62.2264 41.7055 61.7787 41.2578 61.2264 41.2578H16.9159ZM30.3879 102.831C30.3879 103.383 29.9402 103.831 29.3879 103.831H19.8103C19.258 103.831 18.8103 103.383 18.8103 102.831V95.8916C18.8103 95.3393 19.258 94.8916 19.8103 94.8916H29.3879C29.9402 94.8916 30.3879 95.3393 30.3879 95.8916V102.831ZM30.3879 89.4221C30.3879 89.9744 29.9402 90.4221 29.3879 90.4221H19.8103C19.258 90.4221 18.8103 89.9744 18.8103 89.4221V82.4831C18.8103 81.9309 19.258 81.4831 19.8103 81.4831H29.3879C29.9402 81.4831 30.3879 81.9309 30.3879 82.4831V89.4221ZM30.3879 76.0137C30.3879 76.5659 29.9402 77.0137 29.3879 77.0137H19.8103C19.258 77.0137 18.8103 76.5659 18.8103 76.0137V69.0747C18.8103 68.5224 19.258 68.0747 19.8103 68.0747H29.3879C29.9402 68.0747 30.3879 68.5224 30.3879 69.0747V76.0137ZM30.3879 62.6052C30.3879 63.1575 29.9402 63.6052 29.3879 63.6052H19.8103C19.258 63.6052 18.8103 63.1575 18.8103 62.6052V55.6663C18.8103 55.114 19.258 54.6663 19.8103 54.6663H29.3879C29.9402 54.6663 30.3879 55.114 30.3879 55.6663V62.6052ZM44.8599 102.831C44.8599 103.383 44.4122 103.831 43.8599 103.831H34.2823C33.73 103.831 33.2823 103.383 33.2823 102.831V95.8916C33.2823 95.3393 33.73 94.8916 34.2823 94.8916H43.8599C44.4122 94.8916 44.8599 95.3393 44.8599 95.8916V102.831ZM44.8599 89.4221C44.8599 89.9744 44.4122 90.4221 43.8599 90.4221H34.2823C33.73 90.4221 33.2823 89.9744 33.2823 89.4221V82.4831C33.2823 81.9309 33.73 81.4831 34.2823 81.4831H43.8599C44.4122 81.4831 44.8599 81.9309 44.8599 82.4831V89.4221ZM44.8599 76.0137C44.8599 76.5659 44.4122 77.0137 43.8599 77.0137H34.2823C33.73 77.0137 33.2823 76.5659 33.2823 76.0137V69.0747C33.2823 68.5224 33.73 68.0747 34.2823 68.0747H43.8599C44.4122 68.0747 44.8599 68.5224 44.8599 69.0747V76.0137ZM44.8599 62.6052C44.8599 63.1575 44.4122 63.6052 43.8599 63.6052H34.2823C33.73 63.6052 33.2823 63.1575 33.2823 62.6052V55.6663C33.2823 55.114 33.73 54.6663 34.2823 54.6663H43.8599C44.4122 54.6663 44.8599 55.114 44.8599 55.6663V62.6052ZM59.332 102.831C59.332 103.383 58.8843 103.831 58.332 103.831H48.7544C48.2021 103.831 47.7544 103.383 47.7544 102.831V95.8916C47.7544 95.3393 48.2021 94.8916 48.7544 94.8916H58.332C58.8843 94.8916 59.332 95.3393 59.332 95.8916V102.831ZM59.332 89.4221C59.332 89.9744 58.8843 90.4221 58.332 90.4221H48.7544C48.2021 90.4221 47.7544 89.9744 47.7544 89.4221V82.4831C47.7544 81.9309 48.2021 81.4831 48.7544 81.4831H58.332C58.8843 81.4831 59.332 81.9309 59.332 82.4831V89.4221ZM59.332 76.0137C59.332 76.5659 58.8843 77.0137 58.332 77.0137H48.7544C48.2021 77.0137 47.7544 76.5659 47.7544 76.0137V69.0747C47.7544 68.5224 48.2021 68.0747 48.7544 68.0747H58.332C58.8843 68.0747 59.332 68.5224 59.332 69.0747V76.0137ZM59.332 62.6052C59.332 63.1575 58.8843 63.6052 58.332 63.6052H48.7544C48.2021 63.6052 47.7544 63.1575 47.7544 62.6052V55.6663C47.7544 55.114 48.2021 54.6663 48.7544 54.6663H58.332C58.8843 54.6663 59.332 55.114 59.332 55.6663V62.6052Z" fill="#49B6FF"/>
</g>
<path d="M70.6265 35.8203V110.324" stroke="#49B6FF" stroke-width="4" stroke-linecap="round"/>
<path fill-rule="evenodd" clip-rule="evenodd" d="M113.849 66.4419L100.991 58.3719L100.617 58.1373L100.616 57.6959L100.587 42.515C98.2589 42.6423 95.9869 43.3037 93.949 44.4531C91.6376 45.7568 89.7077 47.6428 88.3512 49.9237C86.9948 52.2045 86.259 54.8007 86.2172 57.4541C86.1753 60.1075 86.8288 62.7257 88.1126 65.0482C89.3964 67.3707 91.2658 69.3167 93.535 70.6927C95.8041 72.0686 98.3939 72.8266 101.047 72.8912C103.7 72.9558 106.323 72.3248 108.657 71.0609C110.725 69.9409 112.501 68.3585 113.849 66.4419Z" fill="#49B6FF"/>
<path fill-rule="evenodd" clip-rule="evenodd" d="M116.569 58.9225C116.723 57.0307 116.52 55.1245 115.97 53.303C115.342 51.2202 114.273 49.2967 112.837 47.6624C111.401 46.028 109.631 44.721 107.647 43.8295C105.922 43.0548 104.07 42.6096 102.187 42.5141L102.215 56.995L116.569 58.9225Z" fill="#81BAFC"/>
<path fill-rule="evenodd" clip-rule="evenodd" d="M116.571 58.9227C117.157 51.7856 112.613 45.0132 105.456 43.0402C104.366 42.7397 103.271 42.5658 102.186 42.5098L102.215 56.995L116.571 58.9227ZM116.356 60.5082L104.967 58.9789L114.702 65.0889C115.279 64.0517 115.742 62.9299 116.071 61.7354C116.184 61.3267 116.278 60.9174 116.356 60.5082ZM113.852 66.4445C110.263 71.5459 103.734 74.1031 97.3757 72.3502C89.282 70.1189 84.5296 61.7487 86.7609 53.655C88.543 47.1907 94.2409 42.8579 100.586 42.512L100.616 57.6965L100.617 58.1379L100.991 58.3725L113.852 66.4445Z" fill="#49B6FF" fill-opacity="0.2"/>
<path d="M79.9159 105.39V106.89H82.9159V105.39H79.9159ZM82.9159 92.5206C82.9159 91.6922 82.2443 91.0206 81.4159 91.0206C80.5875 91.0206 79.9159 91.6922 79.9159 92.5206H82.9159ZM82.9159 105.39V92.5206H79.9159V105.39H82.9159Z" fill="#A0BEFA"/>
<path d="M87.9159 105.39V106.89H90.9159V105.39H87.9159ZM90.9159 95.0946C90.9159 94.2662 90.2443 93.5946 89.4159 93.5946C88.5875 93.5946 87.9159 94.2662 87.9159 95.0946H90.9159ZM90.9159 105.39V95.0946H87.9159V105.39H90.9159Z" fill="#A0BEFA"/>
<path d="M95.9159 105.39V106.89H98.9159V105.39H95.9159ZM98.9159 89.9467C98.9159 89.1182 98.2443 88.4467 97.4159 88.4467C96.5875 88.4467 95.9159 89.1182 95.9159 89.9467H98.9159ZM98.9159 105.39V89.9467H95.9159V105.39H98.9159Z" fill="#A0BEFA"/>
<path d="M103.916 105.39L103.916 106.89L106.916 106.89L106.916 105.39L103.916 105.39ZM106.916 92.5206C106.916 91.6922 106.244 91.0206 105.416 91.0206C104.587 91.0206 103.916 91.6922 103.916 92.5206L106.916 92.5206ZM106.916 105.39L106.916 92.5206L103.916 92.5206L103.916 105.39L106.916 105.39Z" fill="#A0BEFA"/>
<path d="M111.916 105.39V106.89H114.916V105.39H111.916ZM114.916 87.3727C114.916 86.5443 114.244 85.8727 113.416 85.8727C112.587 85.8727 111.916 86.5443 111.916 87.3727H114.916ZM114.916 105.39V87.3727H111.916V105.39H114.916Z" fill="#A0BEFA"/>
<path d="M119.916 105.39V106.89H122.916V105.39H119.916ZM122.916 97.6685C122.916 96.8401 122.244 96.1685 121.416 96.1685C120.587 96.1685 119.916 96.8401 119.916 97.6685H122.916ZM122.916 105.39V97.6685H119.916V105.39H122.916Z" fill="#A0BEFA"/>
<path d="M79.6644 109.39H123.167" stroke="#49B6FF" stroke-width="3" stroke-linecap="round"/>
</g>
<defs>
<filter id="filter0_d_1_1183" x="0.182495" y="0" width="152.733" height="163.39" filterUnits="userSpaceOnUse" color-interpolation-filters="sRGB">
<feFlood flood-opacity="0" result="BackgroundImageFix"/>
<feColorMatrix in="SourceAlpha" type="matrix" values="0 0 0 0 0 0 0 0 0 0 0 0 0 0 0 0 0 0 127 0" result="hardAlpha"/>
<feOffset dx="4" dy="4"/>
<feGaussianBlur stdDeviation="8"/>
<feComposite in2="hardAlpha" operator="out"/>
<feColorMatrix type="matrix" values="0 0 0 0 0.00392157 0 0 0 0 0.00392157 0 0 0 0 0.00392157 0 0 0 0.25 0"/>
<feBlend mode="normal" in2="BackgroundImageFix" result="effect1_dropShadow_1_1183"/>
<feBlend mode="normal" in="SourceGraphic" in2="effect1_dropShadow_1_1183" result="shape"/>
</filter>
<linearGradient id="paint0_linear_1_1183" x1="129.682" y1="33.2902" x2="20.0417" y2="125.813" gradientUnits="userSpaceOnUse">
<stop stop-color="#0F3A5D"/>
<stop offset="1" stop-color="#0F3A5D" stop-opacity="0"/>
</linearGradient>
<clipPath id="clip0_1_1183">
<rect width="49" height="72" fill="white" transform="translate(15.9159 39)"/>
</clipPath>
</defs>
</svg>
