<svg width="137" height="101" viewBox="0 0 137 101" fill="none" xmlns="http://www.w3.org/2000/svg">
<g filter="url(#filter0_d_1_1147)">
<rect x="4.4325" y="4.25" width="119.5" height="83.9068" rx="3.75" fill="url(#paint0_linear_1_1147)" stroke="#49B6FF" stroke-width="0.5"/>
<path d="M16.5023 47.1254C15.8461 48.0139 16.0344 49.2662 16.9229 49.9224C17.8114 50.5786 19.0637 50.3903 19.7199 49.5017L16.5023 47.1254ZM51.1228 17.2311C50.855 16.1595 49.7691 15.508 48.6975 15.7758L31.2348 20.1407C30.1632 20.4085 29.5116 21.4943 29.7794 22.5659C30.0473 23.6375 31.1331 24.2891 32.2047 24.0213L47.7272 20.1414L51.607 35.6639C51.8749 36.7355 52.9607 37.387 54.0323 37.1192C55.1039 36.8514 55.7555 35.7655 55.4877 34.6939L51.1228 17.2311ZM35.0062 40.806L34.1228 42.6003L35.0062 40.806ZM35.396 40.6912L37.1109 41.7203L35.396 40.6912ZM26.5336 36.9093L24.9248 35.7211L26.5336 36.9093ZM26.9074 36.8184L26.024 38.6127L26.9074 36.8184ZM19.7199 49.5017L28.1424 38.0975L24.9248 35.7211L16.5023 47.1254L19.7199 49.5017ZM26.024 38.6127L34.1228 42.6003L35.8897 39.0117L27.7909 35.0241L26.024 38.6127ZM37.1109 41.7203L50.8975 18.7452L47.4676 16.6871L33.6811 39.6622L37.1109 41.7203ZM34.1228 42.6003C35.1961 43.1288 36.4954 42.7462 37.1109 41.7203L33.6811 39.6622C34.1361 38.9039 35.0964 38.6211 35.8897 39.0117L34.1228 42.6003ZM28.1424 38.0975C27.6538 38.759 26.7618 38.976 26.024 38.6127L27.7909 35.0241C26.7927 34.5326 25.5858 34.8261 24.9248 35.7211L28.1424 38.0975Z" fill="#49B6FF"/>
<path d="M107.911 48.7853C107.651 49.8587 106.569 50.5176 105.496 50.257L88.0042 46.0103C86.9308 45.7497 86.2719 44.6683 86.5325 43.5949C86.7931 42.5215 87.8745 41.8626 88.9479 42.1232L104.496 45.8981L108.271 30.3497C108.532 29.2763 109.613 28.6174 110.686 28.878C111.76 29.1386 112.419 30.22 112.158 31.2934L107.911 48.7853ZM74.26 18.7566C73.6852 17.8134 73.984 16.5828 74.9273 16.0081C75.8705 15.4333 77.1011 15.7321 77.6758 16.6754L74.26 18.7566ZM82.584 28.2484L82.388 26.258L82.584 28.2484ZM82.2984 28.1059L80.5905 29.1466L82.2984 28.1059ZM93.2088 27.3727L91.5009 28.4133L93.2088 27.3727ZM104.26 49.3541L91.5009 28.4133L94.9167 26.3321L107.676 47.2728L104.26 49.3541ZM93.1192 29.2206L82.78 30.2388L82.388 26.258L92.7272 25.2399L93.1192 29.2206ZM80.5905 29.1466L74.26 18.7566L77.6758 16.6754L84.0064 27.0653L80.5905 29.1466ZM82.78 30.2388C81.901 30.3253 81.0501 29.9008 80.5905 29.1466L84.0064 27.0653C83.6667 26.5078 83.0377 26.194 82.388 26.258L82.78 30.2388ZM91.5009 28.4133C91.8406 28.9708 92.4695 29.2846 93.1192 29.2206L92.7272 25.2399C93.6062 25.1533 94.4572 25.5778 94.9167 26.3321L91.5009 28.4133Z" fill="#8FBCFB"/>
<rect x="10.6111" y="60.9745" width="51.4286" height="21.1017" rx="4" fill="#49B6FF"/>
<path d="M10.6111 14.3305C10.6111 12.1214 12.4019 10.3305 14.6111 10.3305H58.0397C60.2488 10.3305 62.0397 12.1214 62.0397 14.3305V78.0763C62.0397 80.2854 60.2488 82.0763 58.0397 82.0763H14.6111C12.4019 82.0763 10.6111 80.2854 10.6111 78.0763V14.3305Z" fill="#49B6FF" fill-opacity="0.1"/>
<path d="M22.0835 76.4491V66.6491H26.4515C27.0581 66.6491 27.5948 66.7564 28.0615 66.9711C28.5281 67.1858 28.8875 67.4891 29.1395 67.8811C29.4008 68.2638 29.5315 68.7118 29.5315 69.2251C29.5315 69.7291 29.3868 70.1724 29.0975 70.5551C28.8081 70.9284 28.4208 71.2084 27.9355 71.3951C28.5328 71.5724 29.0041 71.8664 29.3495 72.2771C29.6948 72.6784 29.8675 73.1591 29.8675 73.7191C29.8675 74.2604 29.7321 74.7364 29.4615 75.1471C29.1908 75.5578 28.8128 75.8798 28.3275 76.1131C27.8421 76.3371 27.2775 76.4491 26.6335 76.4491H22.0835ZM23.7635 70.7791H26.2695C26.7548 70.7791 27.1375 70.6531 27.4175 70.4011C27.7068 70.1491 27.8515 69.8131 27.8515 69.3931C27.8515 68.9731 27.7068 68.6418 27.4175 68.3991C27.1375 68.1471 26.7548 68.0211 26.2695 68.0211H23.7635V70.7791ZM23.7635 75.0771H26.4235C26.9555 75.0771 27.3801 74.9418 27.6975 74.6711C28.0148 74.3911 28.1735 74.0224 28.1735 73.5651C28.1735 73.1171 28.0148 72.7578 27.6975 72.4871C27.3895 72.2071 26.9648 72.0671 26.4235 72.0671H23.7635V75.0771ZM35.0515 76.6031C34.2209 76.6031 33.4929 76.4258 32.8675 76.0711C32.2515 75.7164 31.7755 75.2124 31.4395 74.5591C31.1035 73.9058 30.9355 73.1358 30.9355 72.2491V66.6491H32.6155V72.2491C32.6155 72.8278 32.7135 73.3271 32.9095 73.7471C33.1149 74.1671 33.3995 74.4984 33.7635 74.7411C34.1275 74.9744 34.5569 75.0911 35.0515 75.0911C35.5462 75.0911 35.9755 74.9744 36.3395 74.7411C36.7129 74.4984 36.9975 74.1671 37.1935 73.7471C37.3895 73.3271 37.4875 72.8278 37.4875 72.2491V66.6491H39.1675V72.2491C39.1675 73.1358 38.9995 73.9058 38.6635 74.5591C38.3369 75.2124 37.8655 75.7164 37.2495 76.0711C36.6335 76.4258 35.9009 76.6031 35.0515 76.6031ZM43.4171 76.4491V72.5851L39.5251 66.6491H41.4711L44.2991 71.1291L47.1551 66.6491H48.9891L45.0971 72.5851V76.4491H43.4171Z" fill="#001B34"/>
<rect x="66.3256" y="60.9744" width="51.4286" height="21.1017" rx="4" fill="#8FBCFB"/>
<path d="M66.3256 14.3304C66.3256 12.1212 68.1164 10.3304 70.3256 10.3304H113.754C115.963 10.3304 117.754 12.1212 117.754 14.3304V78.0761C117.754 80.2853 115.963 82.0761 113.754 82.0761H70.3256C68.1164 82.0761 66.3256 80.2853 66.3256 78.0761V14.3304Z" fill="#8FBCFB" fill-opacity="0.1"/>
<path d="M80.4199 76.6032C79.6546 76.6032 78.9312 76.4725 78.2499 76.2112C77.5779 75.9405 76.9292 75.5438 76.3039 75.0212L77.2139 73.7892C77.8486 74.3025 78.4132 74.6712 78.9079 74.8952C79.4119 75.1098 79.9486 75.2172 80.5179 75.2172C80.9472 75.2172 81.3252 75.1518 81.6519 75.0212C81.9879 74.8812 82.2446 74.6945 82.4219 74.4612C82.6086 74.2278 82.7019 73.9572 82.7019 73.6492C82.7019 73.2478 82.5666 72.9445 82.2959 72.7392C82.0346 72.5245 81.5772 72.3612 80.9239 72.2492L79.1179 71.9412C78.2686 71.7918 77.6339 71.5072 77.2139 71.0872C76.8032 70.6578 76.5979 70.1118 76.5979 69.4492C76.5979 68.8612 76.7472 68.3478 77.0459 67.9092C77.3446 67.4612 77.7599 67.1158 78.2919 66.8732C78.8332 66.6212 79.4726 66.4952 80.2099 66.4952C80.9472 66.4952 81.6472 66.6025 82.3099 66.8172C82.9726 67.0318 83.5839 67.3445 84.1439 67.7552L83.2899 69.0152C82.7952 68.6418 82.2866 68.3618 81.7639 68.1752C81.2412 67.9792 80.7046 67.8812 80.1539 67.8812C79.7619 67.8812 79.4166 67.9418 79.1179 68.0632C78.8286 68.1845 78.5999 68.3525 78.4319 68.5672C78.2732 68.7818 78.1939 69.0198 78.1939 69.2812C78.1939 69.6358 78.3106 69.9112 78.5439 70.1072C78.7866 70.2938 79.1739 70.4338 79.7059 70.5272L81.4559 70.8212C82.4452 70.9985 83.1732 71.3065 83.6399 71.7452C84.1159 72.1838 84.3539 72.7765 84.3539 73.5232C84.3539 74.1205 84.1859 74.6525 83.8499 75.1192C83.5232 75.5858 83.0659 75.9498 82.4779 76.2112C81.8899 76.4725 81.2039 76.6032 80.4199 76.6032ZM85.358 76.4492V66.6492H92.372V68.0772H87.038V70.8072H90.762V72.2072H87.038V75.0212H92.428V76.4492H85.358ZM93.6267 76.4492V66.6492H95.3067V74.9932H100.529V76.4492H93.6267ZM101.69 76.4492V66.6492H103.37V74.9932H108.592V76.4492H101.69Z" fill="#001B34"/>
</g>
<defs>
<filter id="filter0_d_1_1147" x="0.182495" y="0" width="136" height="100.407" filterUnits="userSpaceOnUse" color-interpolation-filters="sRGB">
<feFlood flood-opacity="0" result="BackgroundImageFix"/>
<feColorMatrix in="SourceAlpha" type="matrix" values="0 0 0 0 0 0 0 0 0 0 0 0 0 0 0 0 0 0 127 0" result="hardAlpha"/>
<feOffset dx="4" dy="4"/>
<feGaussianBlur stdDeviation="4"/>
<feComposite in2="hardAlpha" operator="out"/>
<feColorMatrix type="matrix" values="0 0 0 0 0.00392157 0 0 0 0 0.00392157 0 0 0 0 0.00392157 0 0 0 0.25 0"/>
<feBlend mode="normal" in2="BackgroundImageFix" result="effect1_dropShadow_1_1147"/>
<feBlend mode="normal" in="SourceGraphic" in2="effect1_dropShadow_1_1147" result="shape"/>
</filter>
<linearGradient id="paint0_linear_1_1147" x1="124.182" y1="7.16526" x2="5.37303" y2="90.1121" gradientUnits="userSpaceOnUse">
<stop stop-color="#0F3A5D"/>
<stop offset="1" stop-color="#0F3A5D" stop-opacity="0"/>
</linearGradient>
</defs>
</svg>
