<svg xmlns="http://www.w3.org/2000/svg" width="157" height="140" viewBox="0 0 157 140" fill="none">
    <path d="M3.67969 5L6.06644 0H0.292936L2.67969 5H3.67969ZM150.733 136.687C150.733 138.16 151.927 139.354 153.399 139.354C154.872 139.354 156.066 138.16 156.066 136.687C156.066 135.214 154.872 134.02 153.399 134.02C151.927 134.02 150.733 135.214 150.733 136.687ZM67.8487 65.169H81.3814V64.169H67.8487V65.169ZM81.3814 65.169C120.88 65.169 152.899 97.1887 152.899 136.687H153.899C153.899 96.6364 121.432 64.169 81.3814 64.169V65.169ZM2.67969 0C2.67969 35.9918 31.8568 65.169 67.8487 65.169V64.169C32.4091 64.169 3.67969 35.4395 3.67969 0H2.67969Z" fill="url(#paint0_linear_1_1067)"/>
    <defs>
        <linearGradient id="paint0_linear_1_1067" x1="-103.043" y1="-24.9202" x2="68.503" y2="228.277" gradientUnits="userSpaceOnUse">
            <stop stop-color="#8FBDFB"/>
            <stop offset="1" stop-color="#8FBDFB" stop-opacity="0"/>
        </linearGradient>
    </defs>
</svg>