<svg xmlns="http://www.w3.org/2000/svg" width="44" height="484" viewBox="0 0 44 484" fill="none">
    <path d="M40.5723 5L38.1855 0H43.959L41.5723 5H40.5723ZM5.77751 481C5.77751 482.473 4.5836 483.667 3.11084 483.667C1.63808 483.667 0.444172 482.473 0.444172 481C0.444172 479.527 1.63808 478.333 3.11084 478.333C4.5836 478.333 5.77751 479.527 5.77751 481ZM41.5723 4.5V208.589H40.5723V4.5H41.5723ZM3.61084 246.55V481H2.61084V246.55H3.61084ZM22.0916 228.069C11.8849 228.069 3.61084 236.344 3.61084 246.55H2.61084C2.61084 235.791 11.3327 227.069 22.0916 227.069V228.069ZM41.5723 208.589C41.5723 219.348 32.8505 228.069 22.0916 228.069V227.069C32.2982 227.069 40.5723 218.795 40.5723 208.589H41.5723Z" fill="url(#paint0_linear_162_217)"/>
    <defs>
        <linearGradient id="paint0_linear_162_217" x1="67.9153" y1="-87.6941" x2="-68.3442" y2="-73.2515" gradientUnits="userSpaceOnUse">
            <stop stop-color="#8FBDFB"/>
            <stop offset="1" stop-color="#8FBDFB" stop-opacity="0"/>
        </linearGradient>
    </defs>
</svg>