<svg xmlns="http://www.w3.org/2000/svg" width="44" height="298" viewBox="0 0 44 298" fill="none">
    <path d="M40.5 5L38.1132 0H43.8868L41.5 5H40.5ZM5.70524 295C5.70524 296.473 4.51133 297.667 3.03857 297.667C1.56581 297.667 0.371906 296.473 0.371906 295C0.371906 293.527 1.56581 292.333 3.03857 292.333C4.51133 292.333 5.70524 293.527 5.70524 295ZM41.5 4.5V120.589H40.5V4.5H41.5ZM3.53857 158.55V295H2.53857V158.55H3.53857ZM22.0193 140.07C11.8127 140.07 3.53857 148.344 3.53857 158.55H2.53857C2.53857 147.791 11.2604 139.07 22.0193 139.07V140.07ZM41.5 120.589C41.5 131.348 32.7782 140.07 22.0193 140.07V139.07C32.2259 139.07 40.5 130.796 40.5 120.589H41.5Z" fill="url(#paint0_linear_162_218)"/>
    <defs>
        <linearGradient id="paint0_linear_162_218" x1="67.843" y1="-53.7833" x2="-65.9512" y2="-30.6606" gradientUnits="userSpaceOnUse">
            <stop stop-color="#8FBDFB"/>
            <stop offset="1" stop-color="#8FBDFB" stop-opacity="0"/>
        </linearGradient>
    </defs>
</svg>