<svg xmlns="http://www.w3.org/2000/svg" width="126" height="468" viewBox="0 0 126 468" fill="none">
    <path d="M3.54492 5L5.93167 0H0.15817L2.54492 5H3.54492ZM120.26 464.687C120.26 466.16 121.454 467.354 122.927 467.354C124.4 467.354 125.593 466.16 125.593 464.687C125.593 463.214 124.4 462.02 122.927 462.02C121.454 462.02 120.26 463.214 120.26 464.687ZM2.54492 4.5V159.911H3.54492V4.5H2.54492ZM122.427 279.792V464.687H123.427V279.792H122.427ZM62.9858 220.352C95.8141 220.352 122.427 246.964 122.427 279.792H123.427C123.427 246.412 96.3664 219.352 62.9858 219.352V220.352ZM2.54492 159.911C2.54492 193.291 29.6052 220.352 62.9858 220.352V219.352C30.1575 219.352 3.54492 192.739 3.54492 159.911H2.54492Z" fill="url(#paint0_linear_1_879)"/>
    <defs>
        <linearGradient id="paint0_linear_1_879" x1="-81.7251" y1="-84.7199" x2="306.778" y2="49.8868" gradientUnits="userSpaceOnUse">
            <stop stop-color="#8FBDFB"/>
            <stop offset="1" stop-color="#8FBDFB" stop-opacity="0"/>
        </linearGradient>
    </defs>
</svg>