<svg xmlns="http://www.w3.org/2000/svg" width="44" height="1228" viewBox="0 0 44 1228" fill="none">
    <path d="M3.46143 5.09082L5.84818 0.0908203H0.0746744L2.46143 5.09082H3.46143ZM38.2562 1225C38.2562 1226.47 39.4501 1227.67 40.9229 1227.67C42.3956 1227.67 43.5895 1226.47 43.5895 1225C43.5895 1223.53 42.3956 1222.33 40.9229 1222.33C39.4501 1222.33 38.2562 1223.53 38.2562 1225ZM2.46143 4.59082V560.636H3.46143V4.59082H2.46143ZM40.4229 598.597V1225H41.4229V598.597H40.4229ZM21.9421 580.117C32.1488 580.117 40.4229 588.391 40.4229 598.597H41.4229C41.4229 587.838 32.701 579.117 21.9421 579.117V580.117ZM2.46143 560.636C2.46143 571.395 11.1832 580.117 21.9421 580.117V579.117C11.7355 579.117 3.46143 570.843 3.46143 560.636H2.46143Z" fill="url(#paint0_linear_162_214)"/>
    <defs>
        <linearGradient id="paint0_linear_162_214" x1="-23.8816" y1="-223.23" x2="113.67" y2="-217.505" gradientUnits="userSpaceOnUse">
            <stop stop-color="#8FBDFB"/>
            <stop offset="1" stop-color="#8FBDFB" stop-opacity="0"/>
        </linearGradient>
    </defs>
</svg>