<svg xmlns="http://www.w3.org/2000/svg" width="125" height="215" viewBox="0 0 125 215" fill="none">
    <path d="M121.384 5L118.997 0H124.771L122.384 5H121.384ZM5.57196 212C5.57196 213.473 4.37805 214.667 2.90529 214.667C1.43253 214.667 0.238625 213.473 0.238625 212C0.238625 210.527 1.43253 209.333 2.90529 209.333C4.37805 209.333 5.57196 210.527 5.57196 212ZM122.384 4.5V40.8116H121.384V4.5H122.384ZM3.40529 159.79V212H2.40529V159.79H3.40529ZM62.3945 100.801C29.8157 100.801 3.40529 127.211 3.40529 159.79H2.40529C2.40529 126.659 29.2634 99.8009 62.3945 99.8009V100.801ZM122.384 40.8116C122.384 73.9427 95.5257 100.801 62.3945 100.801V99.8009C94.9734 99.8009 121.384 73.3905 121.384 40.8116H122.384Z" fill="url(#paint0_linear_1_1070)"/>
    <defs>
        <linearGradient id="paint0_linear_1_1070" x1="206.015" y1="-38.651" x2="-69.3893" y2="168.928" gradientUnits="userSpaceOnUse">
            <stop stop-color="#8FBDFB"/>
            <stop offset="1" stop-color="#8FBDFB" stop-opacity="0"/>
        </linearGradient>
    </defs>
</svg>