<svg xmlns="http://www.w3.org/2000/svg" width="44" height="856" viewBox="0 0 44 856" fill="none">
    <path d="M40.6108 5L38.2241 0H43.9976L41.6108 5H40.6108ZM5.81608 853C5.81608 854.473 4.62217 855.667 3.14941 855.667C1.67665 855.667 0.482746 854.473 0.482746 853C0.482746 851.527 1.67665 850.333 3.14941 850.333C4.62217 850.333 5.81608 851.527 5.81608 853ZM41.6108 4.5V384.588H40.6108V4.5H41.6108ZM3.64941 422.55V853H2.64941V422.55H3.64941ZM22.1301 404.069C11.9235 404.069 3.64941 412.343 3.64941 422.55H2.64941C2.64941 411.791 11.3712 403.069 22.1301 403.069V404.069ZM41.6108 384.588C41.6108 395.347 32.889 404.069 22.1301 404.069V403.069C32.3367 403.069 40.6108 394.795 40.6108 384.588H41.6108Z" fill="url(#paint0_linear_162_216)"/>
    <defs>
        <linearGradient id="paint0_linear_162_216" x1="67.9539" y1="-155.516" x2="-69.346" y2="-147.309" gradientUnits="userSpaceOnUse">
            <stop stop-color="#8FBDFB"/>
            <stop offset="1" stop-color="#8FBDFB" stop-opacity="0"/>
        </linearGradient>
    </defs>
</svg>