<svg xmlns="http://www.w3.org/2000/svg" width="254" height="468" viewBox="0 0 254 468" fill="none">
    <path d="M250.388 5L248.001 0H253.774L251.388 5H250.388ZM6.03287 464.687C6.03287 466.16 4.83897 467.354 3.36621 467.354C1.89345 467.354 0.699539 466.16 0.699539 464.687C0.699539 463.214 1.89345 462.02 3.36621 462.02C4.83897 462.02 6.03287 463.214 6.03287 464.687ZM251.388 4.5V119.852H250.388V4.5H251.388ZM150.888 220.351H103.366V219.351H150.888V220.351ZM3.86621 319.852V464.687H2.86621V319.852H3.86621ZM103.366 220.351C48.4139 220.351 3.86621 264.899 3.86621 319.852H2.86621C2.86621 264.347 47.8616 219.351 103.366 219.351V220.351ZM251.388 119.852C251.388 175.356 206.392 220.351 150.888 220.351V219.351C205.84 219.351 250.388 174.804 250.388 119.852H251.388Z" fill="url(#paint0_linear_1_876)"/>
    <defs>
        <linearGradient id="paint0_linear_1_876" x1="425.913" y1="-84.7199" x2="-168.388" y2="340.427" gradientUnits="userSpaceOnUse">
            <stop stop-color="#8FBDFB"/>
            <stop offset="1" stop-color="#8FBDFB" stop-opacity="0"/>
        </linearGradient>
    </defs>
</svg>