<svg xmlns="http://www.w3.org/2000/svg" width="157" height="396" viewBox="0 0 157 396" fill="none">
    <path d="M3.78125 5L6.168 0H0.394499L2.78125 5H3.78125ZM150.834 392.687C150.834 394.16 152.028 395.354 153.501 395.354C154.974 395.354 156.168 394.16 156.168 392.687C156.168 391.214 154.974 390.02 153.501 390.02C152.028 390.02 150.834 391.214 150.834 392.687ZM2.78125 4.5V110.677H3.78125V4.5H2.78125ZM153.001 260.897V392.687H154.001V260.897H153.001ZM78.3911 186.287C119.597 186.287 153.001 219.691 153.001 260.897H154.001C154.001 219.139 120.149 185.287 78.3911 185.287V186.287ZM2.78125 110.677C2.78125 152.435 36.6329 186.287 78.3911 186.287V185.287C37.1852 185.287 3.78125 151.883 3.78125 110.677H2.78125Z" fill="url(#paint0_linear_1_878)"/>
    <defs>
        <linearGradient id="paint0_linear_1_878" x1="-102.941" y1="-71.5932" x2="328.452" y2="150.04" gradientUnits="userSpaceOnUse">
            <stop stop-color="#8FBDFB"/>
            <stop offset="1" stop-color="#8FBDFB" stop-opacity="0"/>
        </linearGradient>
    </defs>
</svg>