<svg xmlns="http://www.w3.org/2000/svg" width="44" height="1414" viewBox="0 0 44 1414" fill="none">
    <path d="M3.5 5.09082L5.88675 0.0908203H0.113249L2.5 5.09082H3.5ZM38.2948 1411C38.2948 1412.47 39.4887 1413.67 40.9614 1413.67C42.4342 1413.67 43.6281 1412.47 43.6281 1411C43.6281 1409.53 42.4342 1408.33 40.9614 1408.33C39.4887 1408.33 38.2948 1409.53 38.2948 1411ZM2.5 4.59082V648.636H3.5V4.59082H2.5ZM40.4614 686.597V1411H41.4614V686.597H40.4614ZM21.9807 668.116C32.1873 668.116 40.4614 676.391 40.4614 686.597H41.4614C41.4614 675.838 32.7396 667.116 21.9807 667.116V668.116ZM2.5 648.636C2.5 659.395 11.2218 668.116 21.9807 668.116V667.116C11.7741 667.116 3.5 658.842 3.5 648.636H2.5Z" fill="url(#paint0_linear_161_213)"/>
    <defs>
        <linearGradient id="paint0_linear_161_213" x1="-23.843" y1="-257.141" x2="113.768" y2="-252.168" gradientUnits="userSpaceOnUse">
            <stop stop-color="#8FBDFB"/>
            <stop offset="1" stop-color="#8FBDFB" stop-opacity="0"/>
        </linearGradient>
    </defs>
</svg>