<svg xmlns="http://www.w3.org/2000/svg" width="116" height="399" viewBox="0 0 116 399" fill="none">
    <path d="M111.668 5L109.281 0H115.055L112.668 5H111.668ZM5.47916 396C5.47916 397.473 4.28526 398.667 2.8125 398.667C1.33974 398.667 0.145828 397.473 0.145828 396C0.145828 394.527 1.33974 393.333 2.8125 393.333C4.28526 393.333 5.47916 394.527 5.47916 396ZM112.668 4.5V132.677H111.668V4.5H112.668ZM3.3125 242.032V396H2.3125V242.032H3.3125ZM57.4902 187.854C27.5687 187.854 3.3125 212.111 3.3125 242.032H2.3125C2.3125 211.558 27.0164 186.854 57.4902 186.854V187.854ZM112.668 132.677C112.668 163.151 87.9641 187.854 57.4902 187.854V186.854C87.4118 186.854 111.668 162.598 111.668 132.677H112.668Z" fill="url(#paint0_linear_1_877)"/>
    <defs>
        <linearGradient id="paint0_linear_1_877" x1="189.495" y1="-72.1972" x2="-159.443" y2="57.2143" gradientUnits="userSpaceOnUse">
            <stop stop-color="#8FBDFB"/>
            <stop offset="1" stop-color="#8FBDFB" stop-opacity="0"/>
        </linearGradient>
    </defs>
</svg>