<svg xmlns="http://www.w3.org/2000/svg" width="70" height="212" viewBox="0 0 70 212" fill="none">
    <path d="M4.05664 5L6.44339 0H0.669889L3.05664 5H4.05664ZM64.0921 208.687C64.0921 210.16 65.286 211.354 66.7588 211.354C68.2316 211.354 69.4255 210.16 69.4255 208.687C69.4255 207.214 68.2316 206.02 66.7588 206.02C65.286 206.02 64.0921 207.214 64.0921 208.687ZM3.05664 4.5V67.1324H4.05664V4.5H3.05664ZM66.2588 130.335V208.687H67.2588V130.335H66.2588ZM35.1577 99.2334C52.3344 99.2334 66.2588 113.158 66.2588 130.335H67.2588C67.2588 112.606 52.8867 98.2334 35.1577 98.2334V99.2334ZM3.05664 67.1324C3.05664 84.8613 17.4288 99.2334 35.1577 99.2334V98.2334C17.9811 98.2334 4.05664 84.309 4.05664 67.1324H3.05664Z" fill="url(#paint0_linear_1_1068)"/>
    <defs>
        <linearGradient id="paint0_linear_1_1068" x1="-41.1344" y1="-38.047" x2="155.708" y2="42.0167" gradientUnits="userSpaceOnUse">
            <stop stop-color="#8FBDFB"/>
            <stop offset="1" stop-color="#8FBDFB" stop-opacity="0"/>
        </linearGradient>
    </defs>
</svg>