<svg xmlns="http://www.w3.org/2000/svg" width="44" height="1042" viewBox="0 0 44 1042" fill="none">
    <path d="M3.42285 5.09082L5.8096 0.0908203H0.0361001L2.42285 5.09082H3.42285ZM38.2176 1039C38.2176 1040.47 39.4115 1041.67 40.8843 1041.67C42.357 1041.67 43.5509 1040.47 43.5509 1039C43.5509 1037.53 42.357 1036.33 40.8843 1036.33C39.4115 1036.33 38.2176 1037.53 38.2176 1039ZM2.42285 4.59082V472.636H3.42285V4.59082H2.42285ZM40.3843 510.597V1039H41.3843V510.597H40.3843ZM21.9036 492.117C32.1102 492.117 40.3843 500.391 40.3843 510.597H41.3843C41.3843 499.839 32.6625 491.117 21.9036 491.117V492.117ZM2.42285 472.636C2.42285 483.395 11.1447 492.117 21.9036 492.117V491.117C11.6969 491.117 3.42285 482.843 3.42285 472.636H2.42285Z" fill="url(#paint0_linear_162_215)"/>
    <defs>
        <linearGradient id="paint0_linear_162_215" x1="-23.9202" y1="-189.319" x2="113.539" y2="-182.573" gradientUnits="userSpaceOnUse">
            <stop stop-color="#8FBDFB"/>
            <stop offset="1" stop-color="#8FBDFB" stop-opacity="0"/>
        </linearGradient>
    </defs>
</svg>