<svg width="197" height="154" viewBox="0 0 197 154" fill="none" xmlns="http://www.w3.org/2000/svg">
<path d="M94.1593 148.769C135.222 148.769 168.51 115.466 168.51 74.3847C168.51 33.3032 135.222 0.00012207 94.1593 0.00012207C53.0966 0.00012207 19.8087 33.3032 19.8087 74.3847C19.8087 115.466 53.0966 148.769 94.1593 148.769Z" fill="#EED5D5"/>
<path d="M127.092 139.062H57.3878V38.7212H134.75V132.526C134.75 136.136 131.321 139.062 127.092 139.062Z" fill="#8CABEF"/>
<path d="M134.603 38.7212H57.3693V43.3794H134.603V38.7212Z" fill="#474EBB"/>
<path d="M115.242 93.9045C116.283 93.9045 116.283 92.7256 115.242 92.7256H76.4756C75.4341 92.7256 75.4341 93.9045 76.4756 93.9045H115.242Z" fill="#F7F7F7"/>
<path d="M94.302 46.6115C88.0906 46.6115 82.5313 49.3631 78.7617 53.7126L94.302 67.1844L109.842 53.7126C106.073 49.3645 100.513 46.6115 94.302 46.6115Z" fill="#F7F7F7"/>
<path d="M116.136 64.1686L95.7832 67.0962V87.6691C107.149 87.6691 116.347 78.4672 116.347 67.0962C116.347 66.1017 116.273 65.1254 116.136 64.1686Z" fill="#5D66D3"/>
<path d="M78.7844 53.7797C71.4589 62.4745 72.5632 75.4393 81.2541 82.7681C82.0136 83.4092 82.808 83.9818 83.6275 84.4945L94.5075 67.0391L78.7844 53.7797Z" fill="#EED5D5"/>
<path d="M94.4781 87.64C90.6248 87.64 86.759 86.5645 83.3622 84.373L94.4809 67.0685L94.4781 87.64Z" fill="#D67086"/>
<path d="M117.182 63.036C116.612 59.0329 114.894 55.4041 112.369 52.4918L96.8292 65.9636L117.182 63.036Z" fill="#3B3387"/>
<path d="M74.0379 116.35H66.4835V134.554H74.0379V116.35Z" fill="#353A85"/>
<path d="M74.0379 109.302H66.4835V117.856H74.0379V109.302Z" fill="#474EBB"/>
<path d="M123.767 117.172H116.213V135.376H123.767V117.172Z" fill="#353A85"/>
<path d="M123.816 101.809H116.213V118.677H123.816V101.809Z" fill="#474EBB"/>
<path d="M107.191 115.734H99.6368V134.965H107.191V115.734Z" fill="#353A85"/>
<path d="M107.191 114.023H99.6368V126.787H107.191V114.023Z" fill="#474EBB"/>
<path d="M90.6141 109.037H83.0597V134.862H90.6141V109.037Z" fill="#353A85"/>
<path d="M90.6141 99.0361H83.0597V119.693H90.6141V99.0361Z" fill="#474EBB"/>
<path d="M60.3203 42.3679C59.7731 42.3679 59.3263 41.9223 59.3263 41.3734C59.3263 40.8245 59.7717 40.3789 60.3203 40.3789C60.869 40.3789 61.3144 40.8245 61.3144 41.3734C61.3144 41.9223 60.869 42.3679 60.3203 42.3679ZM60.3203 40.5465C59.8638 40.5465 59.4924 40.9181 59.4924 41.3748C59.4924 41.8315 59.8638 42.2031 60.3203 42.2031C60.7769 42.2031 61.1482 41.8315 61.1482 41.3748C61.1482 40.9181 60.7769 40.5465 60.3203 40.5465Z" fill="white"/>
<path d="M63.3838 42.3679C62.8365 42.3679 62.3898 41.9223 62.3898 41.3734C62.3898 40.8245 62.8351 40.3789 63.3838 40.3789C63.9325 40.3789 64.3778 40.8245 64.3778 41.3734C64.3778 41.9223 63.9325 42.3679 63.3838 42.3679ZM63.3838 40.5465C62.9273 40.5465 62.5559 40.9181 62.5559 41.3748C62.5559 41.8315 62.9273 42.2031 63.3838 42.2031C63.8403 42.2031 64.2117 41.8315 64.2117 41.3748C64.2117 40.9181 63.8403 40.5465 63.3838 40.5465Z" fill="white"/>
<path d="M66.4451 42.3679C65.8978 42.3679 65.451 41.9223 65.451 41.3734C65.451 40.8245 65.8964 40.3789 66.4451 40.3789C66.9938 40.3789 67.4391 40.8245 67.4391 41.3734C67.4391 41.9223 66.9938 42.3679 66.4451 42.3679ZM66.4451 40.5465C65.9886 40.5465 65.6172 40.9181 65.6172 41.3748C65.6172 41.8315 65.9886 42.2031 66.4451 42.2031C66.9016 42.2031 67.273 41.8315 67.273 41.3748C67.273 40.9181 66.9016 40.5465 66.4451 40.5465Z" fill="white"/>
<path opacity="0.07" d="M59.4708 141.984H10.1583V65.7904H64.0501V137.402C64.0501 139.932 62.0006 141.984 59.4708 141.984Z" fill="#2E4661"/>
<path d="M55.4322 139.852H4.03528V60.0259H62.1042V133.177C62.1042 136.863 59.1165 139.852 55.4322 139.852Z" fill="#353A85"/>
<path d="M57.2067 66.4008H10.1992V96.1406H57.2067V66.4008Z" fill="white"/>
<path d="M39.977 76.7143C40.1725 77.1082 40.509 77.4435 41.1484 77.6823C42.3393 78.1265 43.9392 77.8066 44.6247 76.8093C45.7724 75.143 45.4498 72.7573 46.684 71.0253C47.1852 70.3228 47.9489 69.7529 48.8494 69.4959C49.7499 69.2389 50.783 69.3143 51.5844 69.7557C52.8898 70.475 53.3407 71.9612 53.3547 73.3104C53.3784 75.9014 53.0168 78.579 52.5505 81.1351C52.3244 82.3726 51.9767 83.6437 51.0818 84.62C49.8658 85.9456 47.8651 86.4973 45.9511 86.7934C41.1079 87.5407 36.1419 87.0839 31.2527 86.6258C27.3198 86.257 23.3869 85.8883 19.454 85.5195C18.3455 85.4162 15.0814 85.5838 14.4168 84.8142C13.769 84.0641 14.2786 81.5206 14.6569 80.7356C15.5016 78.9869 17.8094 78.0008 19.9762 78.1125C24.864 78.3625 22.9318 73.256 24.4968 70.8312C25.3275 69.5434 27.1578 68.6173 28.7341 69.1537C30.2377 69.6663 30.8645 71.1748 31.6059 72.4277C31.9912 73.0786 32.5371 73.7518 33.3594 73.8929C34.7569 74.1317 35.9241 72.7112 37.3467 72.7657C38.19 72.7978 38.9062 73.3663 39.2706 74.0326C39.7648 74.9377 39.5931 75.9364 39.9784 76.7143H39.977Z" fill="#EED5D5"/>
<path d="M54.1334 94.526C54.1334 94.526 54.1418 92.3862 54.1418 92.2674C54.1529 89.073 54.1529 85.8786 54.1571 82.6842C54.1613 79.6323 54.4126 76.5818 54.3624 73.5369C54.34 72.1289 53.7327 71.3928 52.25 71.77C50.7911 72.1415 49.455 73.0089 48.5363 74.2045C47.9137 75.0146 47.3971 76.0287 46.4296 76.3555C44.6998 76.938 43.2855 74.9895 41.7316 74.0313C40.0591 72.9991 37.7317 73.1723 36.2309 74.442C34.4173 75.9756 34.0013 78.6281 32.4669 80.4424C30.7776 82.4384 27.709 83.1144 25.3383 82.0124C24.3639 81.5599 23.5276 80.8545 22.567 80.3726C18.7598 78.4632 13.4671 81.2107 12.8361 85.4233V94.1419C12.8361 94.1419 54.2102 94.6028 54.1334 94.526Z" fill="#D67086"/>
<path d="M14.5006 100.673H10.967V104.208H14.5006V100.673Z" fill="#8CABEF"/>
<path d="M14.5006 105.898H10.967V109.434H14.5006V105.898Z" fill="#5D66D3"/>
<path d="M27.7103 101.749H17.4181V102.824H27.7103V101.749Z" fill="#F7F7F7"/>
<path d="M27.5571 107.436H17.2649V108.512H27.5571V107.436Z" fill="#F7F7F7"/>
<path d="M56.2852 115.461H11.4277V116.623H56.2852V115.461Z" fill="#F7F7F7"/>
<path d="M31.3979 118.838H11.4277V134.764H31.3979V118.838Z" fill="#F7F7F7"/>
<path d="M56.2853 118.992H34.4708V125.927H56.2853V118.992Z" fill="#F7F7F7"/>
<path d="M56.0548 127.752H34.2404V134.687H56.0548V127.752Z" fill="#F7F7F7"/>
<path d="M36.9569 27.0372H0.255613C0.114604 27.0372 0.00012207 27.1615 0.00012207 27.3166V46.7679C0.00012207 51.563 3.56582 55.4516 7.96501 55.4516H23.1828L29.4053 64.1855C29.5714 64.4188 29.94 64.3042 29.9442 64.0179L30.0726 55.453H36.9583C37.0993 55.453 37.2138 55.3286 37.2138 55.1736V27.318C37.2138 27.1643 37.0993 27.0386 36.9583 27.0386L36.9569 27.0372Z" fill="#292949"/>
<path d="M27.6671 31.6857H4.80554V32.6383H27.6671V31.6857Z" fill="#F7F7F7"/>
<path d="M32.0718 38.9517H4.80554V39.9043H32.0718V38.9517Z" fill="#F7F7F7"/>
<path d="M32.0718 46.2175H4.80554V47.1701H32.0718V46.2175Z" fill="#F7F7F7"/>
<path d="M60.8348 36.1567H33.6132V16.8521H59.1036L64.5624 22.6207V32.1703C64.5624 34.3716 62.8927 36.1567 60.8348 36.1567Z" fill="#5D66D3"/>
<path d="M64.5834 22.6668L59.1022 22.8037V16.8521L64.5834 22.6668Z" fill="#474EBB"/>
<path d="M58.4443 21.8622H41.0779V22.6891H58.4443V21.8622Z" fill="#F7F7F7"/>
<path d="M58.4446 25.8611H38.3279V26.688H58.4446V25.8611Z" fill="#F7F7F7"/>
<path d="M58.4446 29.86H38.3279V30.6869H58.4446V29.86Z" fill="#F7F7F7"/>
<path d="M115.665 74.7965C115.562 74.7965 115.472 74.7211 115.458 74.615C115.419 74.3314 115.394 74.0451 115.383 73.7602C115.379 73.6442 115.468 73.5464 115.584 73.5423C115.7 73.5381 115.798 73.6275 115.802 73.7434C115.813 74.0144 115.837 74.2881 115.875 74.5577C115.89 74.6722 115.81 74.7784 115.696 74.7937C115.686 74.7937 115.676 74.7951 115.666 74.7951L115.665 74.7965Z" fill="#353A85"/>
<path d="M115.686 72.2963C115.676 72.2963 115.665 72.2963 115.654 72.2935C115.539 72.2767 115.461 72.1692 115.478 72.0547C115.562 71.5043 115.697 70.947 115.881 70.3995C115.918 70.2891 116.036 70.2305 116.147 70.2682C116.257 70.3045 116.316 70.4232 116.278 70.5336C116.101 71.0588 115.971 71.5923 115.891 72.1175C115.876 72.2209 115.787 72.2963 115.685 72.2963H115.686ZM116.733 69.141C116.701 69.141 116.667 69.134 116.637 69.1173C116.533 69.0642 116.493 68.9385 116.546 68.8351C116.797 68.3462 117.092 67.8588 117.421 67.3825C117.487 67.2875 117.618 67.2638 117.713 67.3294C117.808 67.3951 117.832 67.5263 117.766 67.6213C117.448 68.0823 117.163 68.5544 116.919 69.0279C116.881 69.1005 116.808 69.141 116.733 69.141ZM118.621 66.395C118.572 66.395 118.523 66.3782 118.482 66.3433C118.396 66.2679 118.386 66.1352 118.463 66.0472C118.824 65.6323 119.22 65.2217 119.636 64.8306C119.719 64.751 119.852 64.7552 119.932 64.839C120.011 64.9228 120.007 65.0555 119.923 65.1351C119.517 65.5178 119.132 65.9173 118.778 66.3223C118.737 66.3698 118.679 66.3936 118.621 66.3936V66.395ZM121.046 64.1043C120.984 64.1043 120.923 64.0763 120.881 64.0247C120.81 63.9339 120.825 63.8026 120.916 63.7299C121.354 63.3849 121.816 63.0539 122.287 62.7452C122.383 62.6824 122.513 62.7089 122.577 62.8053C122.64 62.9017 122.614 63.0316 122.517 63.0958C122.056 63.3975 121.606 63.7216 121.176 64.0596C121.138 64.0903 121.092 64.1043 121.046 64.1043ZM123.835 62.2731C123.761 62.2731 123.69 62.234 123.651 62.1642C123.595 62.0622 123.633 61.9351 123.733 61.8792C124.22 61.6111 124.724 61.3541 125.231 61.1138C125.336 61.0649 125.46 61.1082 125.511 61.213C125.559 61.3177 125.516 61.4421 125.411 61.4923C124.912 61.7298 124.416 61.9826 123.936 62.2466C123.904 62.2647 123.869 62.2731 123.835 62.2731ZM126.849 60.8414C126.767 60.8414 126.689 60.7926 126.655 60.7101C126.612 60.6026 126.664 60.4811 126.771 60.4378C127.284 60.2297 127.813 60.0313 128.345 59.8483C128.454 59.8106 128.574 59.8693 128.611 59.9782C128.649 60.0872 128.59 60.2073 128.481 60.245C127.957 60.4252 127.434 60.6208 126.929 60.8261C126.904 60.8359 126.876 60.8414 126.851 60.8414H126.849ZM130.005 59.7548C129.914 59.7548 129.83 59.6947 129.804 59.6025C129.771 59.4908 129.836 59.3748 129.947 59.3427C130.477 59.1905 131.024 59.048 131.572 58.9181C131.686 58.8916 131.797 58.9614 131.824 59.0745C131.85 59.1877 131.781 59.2994 131.667 59.326C131.126 59.4545 130.585 59.5955 130.062 59.745C130.042 59.7506 130.023 59.7534 130.003 59.7534L130.005 59.7548ZM156.705 59.1611H156.535C156.419 59.1597 156.326 59.0648 156.327 58.9488C156.327 58.8329 156.418 58.7379 156.538 58.7407H156.705C157.223 58.7407 157.722 58.7226 158.19 58.6862C158.304 58.6779 158.406 58.7631 158.414 58.879C158.423 58.9949 158.338 59.0955 158.222 59.1039C157.744 59.1402 157.235 59.1597 156.705 59.1597V59.1611ZM154.87 59.0969C154.87 59.0969 154.86 59.0969 154.856 59.0969C154.357 59.0648 153.811 59.0187 153.184 58.9572C153.07 58.946 152.985 58.8427 152.996 58.7281C153.007 58.6136 153.11 58.5284 153.225 58.5396C153.846 58.601 154.388 58.6457 154.882 58.6793C154.998 58.6862 155.085 58.7868 155.078 58.9013C155.071 59.0117 154.978 59.0969 154.868 59.0969H154.87ZM133.252 58.9865C133.153 58.9865 133.065 58.9167 133.047 58.8161C133.026 58.703 133.1 58.5927 133.213 58.5717C133.752 58.4697 134.309 58.3762 134.867 58.2938C134.982 58.277 135.088 58.3566 135.105 58.4711C135.121 58.5857 135.042 58.6918 134.927 58.7086C134.374 58.7896 133.824 58.8818 133.29 58.9838C133.277 58.9865 133.263 58.9879 133.251 58.9879L133.252 58.9865ZM159.859 58.8874C159.762 58.8874 159.674 58.8175 159.654 58.717C159.632 58.6038 159.706 58.4935 159.82 58.4711C160.372 58.365 160.905 58.2225 161.403 58.0507C161.512 58.013 161.632 58.0717 161.67 58.1806C161.708 58.2896 161.651 58.4097 161.54 58.4474C161.022 58.6262 160.471 58.7728 159.9 58.8832C159.886 58.886 159.873 58.8874 159.859 58.8874ZM151.545 58.7812C151.538 58.7812 151.53 58.7812 151.522 58.7812L151.025 58.7267C150.639 58.6848 150.251 58.6457 149.864 58.608C149.75 58.5968 149.665 58.4949 149.676 58.379C149.687 58.2644 149.789 58.1792 149.905 58.1904C150.294 58.2281 150.683 58.2686 151.071 58.3105L151.568 58.365C151.682 58.3776 151.766 58.4809 151.753 58.5955C151.742 58.703 151.652 58.7826 151.545 58.7826V58.7812ZM136.552 58.4991C136.446 58.4991 136.356 58.4195 136.344 58.3119C136.332 58.1974 136.416 58.094 136.53 58.0814C137.075 58.0228 137.636 57.9711 138.2 57.9306C138.316 57.9222 138.416 58.0088 138.425 58.1247C138.433 58.2407 138.346 58.3398 138.231 58.3496C137.672 58.3901 137.115 58.4404 136.576 58.4991C136.568 58.4991 136.561 58.4991 136.554 58.4991H136.552ZM148.221 58.46C148.221 58.46 148.21 58.46 148.204 58.46C147.643 58.4153 147.085 58.3762 146.543 58.3426C146.427 58.3357 146.339 58.2365 146.346 58.1205C146.353 58.0046 146.452 57.918 146.568 57.9236C147.113 57.9571 147.674 57.9962 148.238 58.0409C148.354 58.0507 148.439 58.1513 148.431 58.2658C148.422 58.3748 148.33 58.4586 148.223 58.4586L148.221 58.46ZM144.889 58.2588C144.889 58.2588 144.883 58.2588 144.88 58.2588C144.319 58.2365 143.759 58.2225 143.216 58.2141C143.1 58.2127 143.008 58.1178 143.01 58.0018C143.011 57.8859 143.106 57.7895 143.222 57.7951C143.768 57.8035 144.33 57.8189 144.896 57.8398C145.012 57.844 145.101 57.9418 145.097 58.0577C145.093 58.1708 144.999 58.2588 144.887 58.2588H144.889ZM139.881 58.2546C139.769 58.2546 139.677 58.1666 139.671 58.0535C139.667 57.9376 139.757 57.8398 139.872 57.8356C140.42 57.8133 140.982 57.7993 141.548 57.7923C141.662 57.7937 141.759 57.8831 141.76 57.999C141.76 58.115 141.669 58.2099 141.553 58.2113C140.994 58.2183 140.434 58.2323 139.891 58.2546C139.888 58.2546 139.885 58.2546 139.882 58.2546H139.881ZM162.998 57.7895C162.924 57.7895 162.851 57.749 162.814 57.6792C162.759 57.5772 162.797 57.4501 162.899 57.3956C163.369 57.1414 163.833 56.8439 164.274 56.5101C164.366 56.4402 164.497 56.4584 164.567 56.5506C164.637 56.6428 164.619 56.7741 164.527 56.8439C164.069 57.1917 163.587 57.5018 163.098 57.7644C163.066 57.7811 163.033 57.7895 162.999 57.7895H162.998ZM165.656 55.788C165.603 55.788 165.549 55.767 165.508 55.7265C165.426 55.6441 165.427 55.5114 165.508 55.4304C165.884 55.0547 166.251 54.6412 166.6 54.2012C166.671 54.1104 166.804 54.0951 166.894 54.1677C166.985 54.2389 167.001 54.3716 166.928 54.4624C166.569 54.915 166.191 55.341 165.804 55.7279C165.764 55.7684 165.709 55.7894 165.656 55.7894V55.788ZM167.733 53.1816C167.694 53.1816 167.655 53.1704 167.62 53.1481C167.523 53.0852 167.495 52.9553 167.558 52.8589C167.847 52.4092 168.127 51.9301 168.391 51.4329C168.445 51.3309 168.573 51.2918 168.674 51.3463C168.776 51.4007 168.815 51.5278 168.761 51.6298C168.492 52.1382 168.205 52.6285 167.911 53.0866C167.87 53.1495 167.803 53.183 167.735 53.183L167.733 53.1816Z" fill="#353A85"/>
<path d="M169.309 50.2275C169.281 50.2275 169.251 50.2219 169.225 50.2094C169.119 50.1633 169.071 50.0389 169.117 49.9328C169.228 49.6842 169.337 49.4258 169.44 49.1674C169.483 49.0598 169.605 49.0081 169.712 49.0514C169.82 49.0947 169.871 49.2163 169.828 49.3238C169.722 49.5878 169.612 49.849 169.5 50.1018C169.465 50.18 169.388 50.2261 169.309 50.2261V50.2275Z" fill="#353A85"/>
<path d="M179.657 33.5266L178.782 53.3984L172.223 46.5095C172.223 46.5095 179.684 32.9693 179.736 33.1928L179.449 32.954C179.67 32.8911 171.469 45.9955 171.469 45.9955L162.265 43.6099L179.197 33.1858L179.656 33.5266H179.657Z" fill="#292949"/>
<path opacity="0.07" d="M168.057 97.8782H129.354V125.871H168.057V97.8782Z" fill="#2E4661"/>
<path d="M169.644 96.2538H130.677V124.33H169.644V96.2538Z" fill="#353A85"/>
<path d="M169.591 96.2538H130.677V98.4886H169.591V96.2538Z" fill="#D67086"/>
<path opacity="0.03" d="M169.562 103.314V103.228H164.779V98.5319H164.692V103.228H158.958V98.5319H158.872V103.228H153.138V98.5319H153.051V103.228H147.317V98.5319H147.231V103.228H141.497V98.5319H141.41V103.228H135.677V98.5319H135.59V103.228H130.814V103.314H135.59V108.621H130.814V108.707H135.59V114.014H130.814V114.1H135.59V119.406H130.814V119.493H135.59V124.431H135.677V119.493H141.41V124.431H141.497V119.493H147.231V124.431H147.317V119.493H153.051V124.431H153.138V119.493H158.872V124.431H158.958V119.493H164.692V124.431H164.779V119.493H169.562V119.406H164.779V114.1H169.562V114.014H164.779V108.707H169.562V108.621H164.779V103.314H169.562ZM158.872 103.314V108.621H153.138V103.314H158.872ZM147.317 108.707H153.051V114.014H147.317V108.707ZM147.231 114.014H141.497V108.707H147.231V114.014ZM153.138 108.707H158.872V114.014H153.138V108.707ZM153.051 103.314V108.621H147.317V103.314H153.051ZM147.231 103.314V108.621H141.497V103.314H147.231ZM135.677 103.314H141.41V108.621H135.677V103.314ZM135.677 108.707H141.41V114.014H135.677V108.707ZM135.677 119.405V114.099H141.41V119.405H135.677ZM141.497 119.405V114.099H147.231V119.405H141.497ZM147.317 119.405V114.099H153.051V119.405H147.317ZM153.138 119.405V114.099H158.872V119.405H153.138ZM164.692 119.405H158.958V114.099H164.692V119.405ZM164.692 114.012H158.958V108.706H164.692V114.012ZM164.692 108.619H158.958V103.313H164.692V108.619Z" fill="#272525"/>
<path d="M165.45 102.088C164.794 102.088 164.261 102.62 164.261 103.278C164.261 103.609 164.396 103.909 164.615 104.125C163.236 105.312 161.858 106.5 160.479 107.688C160.374 107.778 160.269 107.868 160.165 107.959C159.961 107.794 159.702 107.696 159.42 107.696C158.764 107.696 158.231 108.228 158.231 108.886C158.231 109.304 158.447 109.671 158.773 109.883C158.471 110.611 158.168 111.339 157.866 112.065C157.738 112.375 157.61 112.685 157.48 112.995C157.393 112.976 157.304 112.963 157.21 112.963C156.772 112.963 156.389 113.202 156.183 113.555C154.851 112.713 153.519 111.871 152.187 111.029C151.2 110.404 150.213 109.78 149.226 109.157C149.28 109.02 149.311 108.872 149.311 108.716C149.311 108.059 148.779 107.526 148.122 107.526C147.464 107.526 146.932 108.058 146.932 108.716C146.932 108.8 146.94 108.881 146.957 108.959C145.089 109.721 143.221 110.484 141.353 111.247C141.17 111.322 140.987 111.396 140.803 111.472C140.62 111.05 140.201 110.755 139.713 110.755C139.057 110.755 138.523 111.287 138.523 111.945C138.523 112.286 138.667 112.593 138.897 112.81C138.62 113.125 138.343 113.44 138.065 113.755C136.742 115.26 135.417 116.762 134.093 118.267C133.903 118.138 133.674 118.063 133.429 118.063C132.773 118.063 132.239 118.595 132.239 119.253C132.239 119.911 132.771 120.443 133.429 120.443C134.086 120.443 134.618 119.911 134.618 119.253C134.618 118.999 134.539 118.764 134.403 118.571C135.534 117.288 136.665 116.004 137.794 114.719C138.284 114.162 138.776 113.604 139.266 113.047C139.404 113.103 139.555 113.135 139.713 113.135C140.369 113.135 140.902 112.603 140.902 111.945C140.902 111.93 140.901 111.913 140.899 111.898C140.926 111.886 140.954 111.875 140.98 111.864C143.027 111.029 145.074 110.192 147.119 109.357C147.33 109.686 147.699 109.906 148.12 109.906C148.465 109.906 148.775 109.758 148.991 109.523C149.886 110.089 150.781 110.654 151.676 111.221C153.128 112.139 154.58 113.058 156.032 113.976C156.024 114.035 156.017 114.093 156.017 114.153C156.017 114.81 156.549 115.343 157.206 115.343C157.864 115.343 158.396 114.811 158.396 114.153C158.396 113.743 158.188 113.379 157.871 113.166C158.302 112.127 158.733 111.087 159.165 110.048C159.246 110.065 159.33 110.075 159.415 110.075C160.071 110.075 160.604 109.543 160.604 108.885C160.604 108.665 160.544 108.461 160.441 108.286C160.685 108.076 160.928 107.865 161.173 107.656C162.217 106.756 163.261 105.855 164.307 104.956C164.532 104.761 164.758 104.567 164.983 104.373C165.125 104.433 165.281 104.467 165.445 104.467C166.101 104.467 166.634 103.935 166.634 103.277C166.634 102.619 166.102 102.087 165.445 102.087L165.45 102.088Z" fill="#D67086"/>
<path d="M172.936 83.8697L168.273 91.341L141.814 74.6651L146.477 67.1924L172.936 83.8697Z" fill="#F7F7F7"/>
<path d="M182.051 94.6946L181.997 94.7812C180.525 97.139 177.901 98.1544 176.134 97.051L155.825 84.5793L161.162 75.5995L181.515 88.4301C183.283 89.5336 183.523 92.3397 182.051 94.696V94.6946Z" fill="#292949"/>
<g style="mix-blend-mode:multiply" opacity="0.2">
<path d="M143.665 75.7797L144.947 76.7128L156.54 73.7014L146.88 67.5347L143.665 75.7797Z" fill="#BBBCBF"/>
</g>
<path d="M138.279 35.5894C125.861 27.8346 109.513 31.617 101.762 44.0398C94.0102 56.4626 97.7909 72.8187 110.208 80.5735C122.625 88.3283 138.974 84.5459 146.725 72.1231C154.476 59.7003 150.696 43.3442 138.279 35.5894ZM143.584 70.1607C136.916 80.8473 122.85 84.1017 112.17 77.4308C101.488 70.7599 98.2349 56.6875 104.903 46.0023C111.571 35.3156 125.637 32.0612 136.317 38.7321C146.999 45.4031 150.252 59.4754 143.584 70.1607Z" fill="#292949"/>
<path opacity="0.5" d="M140.366 74.2106C149.27 65.3026 149.27 50.8598 140.366 41.9517C131.462 33.0436 117.026 33.0436 108.122 41.9517C99.2182 50.8598 99.2182 65.3026 108.122 74.2106C117.026 83.1187 131.462 83.1187 140.366 74.2106Z" fill="#D1E7F5"/>
<g opacity="0.22">
<path d="M107.813 57.1625C107.701 49.8895 112.424 43.308 119.438 41.2897C126.434 39.2755 134.058 42.3638 137.74 48.6464C138.777 50.4175 141.599 48.9369 140.56 47.1644C136.323 39.932 127.922 36.1887 119.731 37.9332C111.659 39.6513 105.703 46.5932 104.733 54.7056C104.639 55.4905 104.616 56.2811 104.628 57.0717C104.66 59.1179 107.845 59.2255 107.813 57.1639V57.1625Z" fill="white"/>
</g>
<path opacity="0.31" d="M142.499 51.7626C143.482 52.3758 143.781 53.6706 143.168 54.6539C142.555 55.6372 141.261 55.9362 140.278 55.323C139.295 54.7098 138.997 53.415 139.609 52.4317C140.222 51.4484 141.517 51.1494 142.499 51.7626Z" fill="white"/>
<path d="M156.093 84.2808L161.171 75.7368C161.345 75.4435 161.27 75.065 160.995 74.8624L160.905 74.7968C160.587 74.5607 160.133 74.6543 159.935 74.9965L154.934 83.6006C154.747 83.9232 154.86 84.3353 155.185 84.5169L155.197 84.5238C155.511 84.6984 155.907 84.5909 156.092 84.2822L156.093 84.2808Z" fill="#353A85"/>
<path d="M146.484 58.2449C146.464 63.7272 144.473 69.0419 140.855 73.1637C137.282 77.2339 132.309 79.8598 126.959 80.6197C121.49 81.3949 115.845 80.0079 111.274 76.942C106.823 73.9557 103.575 69.3492 102.151 64.1937C100.674 58.8483 101.286 53.0182 103.775 48.0709C106.172 43.3066 110.296 39.471 115.214 37.4108C120.347 35.2598 126.173 35.1313 131.421 36.9485C136.475 38.6986 140.767 42.34 143.457 46.9451C145.455 50.3658 146.47 54.2921 146.484 58.2449C146.487 59.0271 147.7 59.0271 147.697 58.2449C147.678 52.7529 145.777 47.4633 142.33 43.1948C138.964 39.0283 134.141 36.1132 128.915 34.986C123.495 33.8156 117.764 34.6313 112.857 37.1887C108.139 39.6484 104.334 43.7633 102.181 48.6198C99.9288 53.6957 99.5574 59.4922 101.072 64.8293C102.537 69.9861 105.809 74.4977 110.141 77.6236C114.595 80.8376 120.159 82.3447 125.623 81.9675C131.04 81.5946 136.192 79.3025 140.165 75.6137C144.965 71.1594 147.676 64.7734 147.7 58.2421C147.703 57.4599 146.489 57.4599 146.487 58.2421L146.484 58.2449Z" fill="#DDDAE8"/>
<path d="M178.911 99.6979C179.768 97.4477 181.009 92.999 181.722 90.8396C180.159 85.5794 176.942 76.7924 176.608 76.6946C174.658 76.1303 172.92 75.6135 170.976 75.052C170.887 75.0255 170.316 77.9349 170.227 77.9098C170.154 77.8888 170.125 77.3078 170.101 76.6429L169.727 72.8619C169.716 72.5462 169.499 72.2752 169.194 72.1956C168.054 71.8995 165.594 71.3226 165.487 71.5C165.448 71.5657 165.236 74.8481 165.058 75.7867L164.648 75.573L164.112 69.4468C164.112 69.4468 159.858 68.3741 159.774 68.571C159.676 68.8029 158.73 74.0002 158.73 74.0002C158.73 74.0002 157.084 86.4021 156.897 87.2848C156.623 88.5754 155.76 89.7334 155.884 91.0212C156.023 92.4584 156.652 93.7937 157.273 95.1025C158.774 98.2634 160.275 101.423 161.776 104.584C162.104 106.729 162.448 111.643 162.94 113.755C168.491 112.635 174.067 111.787 180.245 109.819C180.42 109.763 178.539 100.671 178.909 99.7006L178.911 99.6979Z" fill="#EAC5B0"/>
<path d="M161.415 121.827L160.134 110.554L182.328 102.332L186.185 116.077L161.492 123.453L161.415 121.827Z" fill="#F7F7F7"/>
<path d="M187.038 108.988C187.038 108.988 164.212 122.038 159.492 123.274L158.188 154H197L187.038 108.988Z" fill="#5D66D3"/>
<path d="M164.851 115.142C164.672 115.818 163.98 116.22 163.304 116.042C162.628 115.863 162.226 115.17 162.405 114.494C162.584 113.818 163.276 113.416 163.952 113.595C164.627 113.773 165.03 114.466 164.851 115.142Z" fill="#292949"/>
<path d="M154.611 91.4308L151.65 86.7601L147.365 82.7681C147.365 82.7681 146.533 80.3615 149.218 80.2944C151.903 80.2274 153.711 82.4734 154.899 84.257C155.422 85.0406 157.948 87.3229 159.909 88.7183C162.475 90.5439 159.795 98.585 159.795 98.585C159.795 98.585 154.908 91.8764 154.611 91.4308Z" fill="#EAC5B0"/>
</svg>
