<svg width="201" height="128" viewBox="0 0 201 128" fill="none" xmlns="http://www.w3.org/2000/svg">
<g clip-path="url(#clip0_1_1701)">
<path d="M177.102 93.1719H22.5035C21.4524 93.1719 20.6016 92.3178 20.6016 91.2626V16.3867H179.004V91.2626C179.004 92.3178 178.153 93.1719 177.102 93.1719Z" fill="#A0C0FC"/>
<path d="M179.004 16.4074H20.6016V14.2232C20.6016 11.2913 22.9716 8.91211 25.8921 8.91211H173.713C176.634 8.91211 179.004 11.2913 179.004 14.2232V16.4074Z" fill="#4C60FA"/>
<path d="M30.5288 14.0725C31.241 14.0725 31.8183 13.4929 31.8183 12.7779C31.8183 12.063 31.241 11.4834 30.5288 11.4834C29.8166 11.4834 29.2393 12.063 29.2393 12.7779C29.2393 13.4929 29.8166 14.0725 30.5288 14.0725Z" fill="#E79C88"/>
<path d="M36.2787 14.0725C36.9908 14.0725 37.5682 13.4929 37.5682 12.7779C37.5682 12.063 36.9908 11.4834 36.2787 11.4834C35.5665 11.4834 34.9891 12.063 34.9891 12.7779C34.9891 13.4929 35.5665 14.0725 36.2787 14.0725Z" fill="white"/>
<path d="M43.3183 12.7779C43.3183 13.4932 42.7413 14.0725 42.0288 14.0725C41.3163 14.0725 40.7393 13.4932 40.7393 12.7779C40.7393 12.0627 41.3163 11.4834 42.0288 11.4834C42.7413 11.4834 43.3183 12.0627 43.3183 12.7779Z" fill="white"/>
<path d="M154.67 22.5074C154.279 22.0286 153.681 21.7774 153.066 21.8276L142.832 22.6965C142.134 22.7557 141.525 23.2019 141.26 23.8522C140.992 24.5024 141.11 25.2501 141.563 25.7851L143.73 28.3446L128.235 39.9806L122.482 33.6675C121.711 32.8223 120.427 32.6922 119.503 33.3661L86.8258 57.2085L78.0288 50.9841C77.2045 50.4019 76.0975 50.4403 75.3143 51.0787L50.2864 71.5459C49.3236 72.3321 49.1794 73.7537 49.9625 74.7172C50.4071 75.264 51.0548 75.5477 51.7054 75.5477C52.203 75.5477 52.7064 75.3822 53.1216 75.0423L76.8276 55.6568L85.5452 61.8251C86.3312 62.3807 87.3823 62.3748 88.1595 61.8073L120.512 38.2014L126.286 44.5351C127.066 45.3893 128.364 45.5134 129.289 44.8188L146.636 31.7908L149.02 34.6074C149.38 35.033 149.904 35.2695 150.448 35.2695C150.581 35.2695 150.71 35.2547 150.843 35.2281C151.517 35.0833 152.056 34.5749 152.247 33.9099L155.015 24.2246C155.185 23.6305 155.053 22.9891 154.661 22.5133L154.67 22.5074Z" fill="url(#paint0_linear_1_1701)"/>
<path d="M75.8477 68.2977H67.3303V82.8893H75.8477V68.2977Z" fill="#7C9AFB"/>
<path d="M88.3455 72.4325H79.8281V82.8863H88.3455V72.4325Z" fill="#7C9AFB"/>
<path d="M100.844 64.3486H92.3262V82.8888H100.844V64.3486Z" fill="#7C9AFB"/>
<path d="M113.341 61.2285H104.823V82.8897H113.341V61.2285Z" fill="#7C9AFB"/>
<path d="M125.839 52.9521H117.321V82.8889H125.839V52.9521Z" fill="#7C9AFB"/>
<path d="M138.337 61.3906H129.819V82.8893H138.337V61.3906Z" fill="#7C9AFB"/>
<path d="M46.3652 24.9697V82.8305H158.613" stroke="white" stroke-width="1.43" stroke-miterlimit="10"/>
<path d="M194.493 29.2759C197.67 29.2759 200.246 26.6903 200.246 23.5007C200.246 20.3112 197.67 17.7256 194.493 17.7256C191.316 17.7256 188.74 20.3112 188.74 23.5007C188.74 26.6903 191.316 29.2759 194.493 29.2759Z" stroke="white" stroke-width="1.5" stroke-miterlimit="10"/>
<path d="M192.062 23.7965L194.064 25.2683L196.643 21.6123" stroke="white" stroke-width="1.5" stroke-linecap="round" stroke-linejoin="round"/>
<path d="M10.5102 102.293C12.7568 100.037 12.7568 96.3807 10.5102 94.1253C8.26359 91.87 4.62111 91.87 2.37449 94.1253C0.12788 96.3807 0.127882 100.037 2.37449 102.293C4.62111 104.548 8.26359 104.548 10.5102 102.293Z" stroke="white" stroke-width="1.5" stroke-miterlimit="10"/>
<path d="M4.8125 96.3789L8.06575 99.6448" stroke="white" stroke-width="1.5" stroke-linecap="round" stroke-linejoin="round"/>
<path d="M8.06575 96.3789L4.8125 99.6448" stroke="white" stroke-width="1.5" stroke-linecap="round" stroke-linejoin="round"/>
<path d="M193.089 76.7334H188.74V81.0988H193.089V76.7334Z" stroke="white" stroke-width="1.5" stroke-linecap="round" stroke-linejoin="round"/>
<path d="M97.5848 105.529H93.2363V109.895H97.5848V105.529Z" stroke="white" stroke-width="1.5" stroke-linecap="round" stroke-linejoin="round"/>
<path d="M161.227 41.0537C160.026 41.0537 159.052 40.0754 159.052 38.8696C159.052 37.6637 160.026 36.6854 161.227 36.6854C162.429 36.6854 163.403 37.6637 163.403 38.8696C163.403 40.0754 162.429 41.0537 161.227 41.0537Z" stroke="white" stroke-width="1.5" stroke-linecap="round" stroke-linejoin="round"/>
<path d="M6.70491 55.0361H2.35645V59.4015H6.70491V55.0361Z" stroke="white" stroke-width="1.5" stroke-linecap="round" stroke-linejoin="round"/>
<path d="M59.6705 28.8209C60.3957 28.8209 60.9836 28.2308 60.9836 27.5027C60.9836 26.7747 60.3957 26.1846 59.6705 26.1846C58.9453 26.1846 58.3574 26.7747 58.3574 27.5027C58.3574 28.2308 58.9453 28.8209 59.6705 28.8209Z" fill="white"/>
<path d="M63.4773 28.8209C64.2025 28.8209 64.7903 28.2308 64.7903 27.5027C64.7903 26.7747 64.2025 26.1846 63.4773 26.1846C62.7521 26.1846 62.1642 26.7747 62.1642 27.5027C62.1642 28.2308 62.7521 28.8209 63.4773 28.8209Z" fill="white"/>
<path d="M67.2811 28.8209C68.0063 28.8209 68.5942 28.2308 68.5942 27.5027C68.5942 26.7747 68.0063 26.1846 67.2811 26.1846C66.5559 26.1846 65.968 26.7747 65.968 27.5027C65.968 28.2308 66.5559 28.8209 67.2811 28.8209Z" fill="white"/>
<path d="M71.0875 26.625C71.5674 26.625 71.959 27.0181 71.959 27.4998C71.959 27.9816 71.5674 28.3747 71.0875 28.3747C70.6076 28.3747 70.216 27.9816 70.216 27.4998C70.216 27.0181 70.6076 26.625 71.0875 26.625ZM71.0875 26.1816C70.3632 26.1816 69.7744 26.7728 69.7744 27.4998C69.7744 28.2269 70.3632 28.818 71.0875 28.818C71.8117 28.818 72.4006 28.2269 72.4006 27.4998C72.4006 26.7728 71.8117 26.1816 71.0875 26.1816Z" fill="white"/>
<path d="M25.0273 72.8875C24.9978 75.8519 22.5837 78.2312 19.6307 78.2016C16.6778 78.172 14.3077 75.7485 14.3372 72.7841C14.3637 69.8197 16.7808 67.4404 19.7338 67.47C22.6867 67.4996 25.0567 69.9231 25.0273 72.8875Z" fill="#E79C88"/>
<path d="M17.6816 72.559L19.2302 74.0959L21.6798 71.2881" stroke="white" stroke-width="1.5" stroke-linecap="round" stroke-linejoin="round"/>
<path d="M6.40486 34.6729H30.1904C30.7432 34.6729 31.1914 34.2229 31.1914 33.668V27.0268C31.1914 26.4719 30.7432 26.022 30.1904 26.022L6.40486 26.022C5.85202 26.022 5.40386 26.4719 5.40386 27.0268V33.668C5.40386 34.2229 5.85202 34.6729 6.40486 34.6729Z" fill="#4C60FA"/>
<path d="M10.4531 29.3818H27.3435" stroke="white" stroke-width="1.1" stroke-miterlimit="10"/>
<path d="M10.4531 31.3115H15.4228" stroke="white" stroke-width="1.1" stroke-miterlimit="10"/>
<path d="M28.121 33.5195V37.4327L23.1514 33.5195H28.121Z" fill="#4C60FA"/>
<path d="M109.07 2.35059H82.3434C81.28 2.35059 80.418 3.21599 80.418 4.28352V26.7575C80.418 27.825 81.28 28.6904 82.3434 28.6904H109.07C110.134 28.6904 110.996 27.825 110.996 26.7575V4.28352C110.996 3.21599 110.134 2.35059 109.07 2.35059Z" fill="#E79C88"/>
<path d="M90.0543 8.74609H86.9395V11.8731H90.0543V8.74609Z" stroke="white" stroke-width="1.59" stroke-linecap="round" stroke-linejoin="round"/>
<path d="M92.3066 10.3096H98.3421" stroke="white" stroke-width="1.59" stroke-linecap="round" stroke-linejoin="round"/>
<path d="M90.0543 13.957H86.9395V17.084H90.0543V13.957Z" stroke="white" stroke-width="1.59" stroke-linecap="round" stroke-linejoin="round"/>
<path d="M92.3066 15.5205H104.478" stroke="white" stroke-width="1.59" stroke-linecap="round" stroke-linejoin="round"/>
<path d="M90.0543 19.1699H86.9395V22.2969H90.0543V19.1699Z" stroke="white" stroke-width="1.59" stroke-linecap="round" stroke-linejoin="round"/>
<path d="M92.3066 20.7334H104.478" stroke="white" stroke-width="1.59" stroke-linecap="round" stroke-linejoin="round"/>
<path d="M184.068 62.0635C189.355 59.919 191.909 53.8779 189.773 48.5703C187.637 43.2626 181.619 40.6983 176.332 42.8427C171.045 44.9872 168.49 51.0283 170.627 56.336C172.763 61.6436 178.781 64.2079 184.068 62.0635Z" fill="#4C60FA"/>
<path d="M177.8 52.2461H175.804V55.6804H177.8V52.2461Z" fill="white"/>
<path d="M180.855 47.9365H178.859V55.6771H180.855V47.9365Z" fill="white"/>
<path d="M183.912 49.541H181.916V55.6767H183.912V49.541Z" fill="white"/>
<path d="M173.749 55.6768H186.65" stroke="white" stroke-width="0.99" stroke-linecap="round" stroke-linejoin="round"/>
<path d="M1.47363 13.8477H11.3041" stroke="#E79C88" stroke-width="2" stroke-linecap="round" stroke-linejoin="round"/>
<path d="M187.248 96.0029H199.142" stroke="#E79C88" stroke-width="2" stroke-linecap="round" stroke-linejoin="round"/>
<path d="M132.693 0.795898H155.316" stroke="#A0C0FC" stroke-width="2" stroke-linecap="round" stroke-linejoin="round"/>
<path d="M67.5039 107.007H84.0852" stroke="#A0C0FC" stroke-width="2" stroke-linecap="round" stroke-linejoin="round"/>
<path d="M45.4502 122.479L46.0155 110.379H50.7025L49.4483 122.248L45.4502 122.479Z" fill="#E9A79A"/>
<path d="M45.197 120.64C46.2686 121.122 47.5287 121.338 49.0037 120.611C49.0037 120.611 49.5896 118.802 51.2236 119.854C51.2236 119.854 53.1108 121.973 55.9165 122.544C59.8057 123.336 59.9823 125.154 59.9823 125.154H43.4923C43.4923 125.154 44.0723 122.686 44.3314 121.125C44.3991 120.723 44.8231 120.469 45.194 120.638L45.197 120.64Z" fill="black"/>
<path d="M59.9853 125.156H43.4952V126.965H59.9853V125.156Z" fill="white"/>
<path d="M54.3708 122.053C54.3708 122.053 53.7467 122.044 53.255 122.904" stroke="white" stroke-width="0.79" stroke-linecap="round" stroke-linejoin="round"/>
<path d="M53.5788 121.628C53.5788 121.628 52.9547 121.619 52.463 122.479" stroke="white" stroke-width="0.79" stroke-linecap="round" stroke-linejoin="round"/>
<path d="M52.7693 121.122C52.7693 121.122 52.1451 121.113 51.6534 121.973" stroke="white" stroke-width="0.79" stroke-linecap="round" stroke-linejoin="round"/>
<path d="M32.3602 122.479L33.9677 110.379H38.6577L36.3554 122.248L32.3602 122.479Z" fill="#E9A79A"/>
<path d="M32.2016 120.64C33.2733 121.122 34.5333 121.338 36.0083 120.611C36.0083 120.611 36.5942 118.802 38.2282 119.854C38.2282 119.854 40.1154 121.973 42.9211 122.544C46.8103 123.336 46.987 125.154 46.987 125.154H30.4969C30.4969 125.154 31.0769 122.686 31.336 121.125C31.4037 120.723 31.8277 120.469 32.1986 120.638L32.2016 120.64Z" fill="black"/>
<path d="M46.9899 125.156H30.4999V126.965H46.9899V125.156Z" fill="white"/>
<path d="M41.3755 122.053C41.3755 122.053 40.7513 122.044 40.2596 122.904" stroke="white" stroke-width="0.79" stroke-linecap="round" stroke-linejoin="round"/>
<path d="M40.5805 121.628C40.5805 121.628 39.9564 121.619 39.4647 122.479" stroke="white" stroke-width="0.79" stroke-linecap="round" stroke-linejoin="round"/>
<path d="M39.771 121.122C39.771 121.122 39.1468 121.113 38.6552 121.973" stroke="white" stroke-width="0.79" stroke-linecap="round" stroke-linejoin="round"/>
<path d="M53.2874 61.4023C53.2874 61.4023 53.8085 63.0102 54.0264 70.4729C54.0705 72.0069 54.0322 74.1378 53.9292 75.6688L51.7358 118.255L43.7249 118.223L45.7946 74.8767L39.1085 118.202L31.3184 118.001L38.4637 63.5363L46.1214 62.8299L53.2815 61.4023H53.2874Z" fill="#1A246E"/>
<path d="M45.8008 74.8795L50.1198 74.1377" stroke="black" stroke-width="0.5" stroke-linecap="round" stroke-linejoin="round"/>
<path d="M50.5664 46.06C50.5664 46.06 56.9669 51.4687 63.0848 54.2351C63.8208 54.569 65.5814 54.1464 66.1555 53.576C67.0211 52.713 66.8916 51.2766 65.8906 50.579L54.6646 41.8809L50.5664 46.06Z" fill="#E9A79A"/>
<path d="M50.3076 39.3711C50.3076 39.3711 54.7738 39.3711 59.5845 45.2438L55.5363 51.1165L47.9258 47.4841L50.3046 39.3682L50.3076 39.3711Z" fill="white"/>
<path d="M66.4093 53.2655L74.0375 40.5271L71.4791 38.869L61.8165 50.7858C61.048 51.4744 61.9961 53.3157 62.897 54.1137C63.3886 54.563 65.4024 54.8467 66.4122 53.2655H66.4093Z" fill="#E9A79A"/>
<path d="M71.4766 38.8686L71.7091 36.8617C71.7592 36.5041 72.0124 36.2086 72.3569 36.1081L74.4796 35.4815C74.7887 35.3899 75.1184 35.5258 75.2745 35.8066C75.4629 36.1435 75.3392 36.5721 75.0007 36.7553L73.985 37.308C73.985 37.308 75.3893 38.4371 74.0232 39.9414L71.4766 38.8745V38.8686Z" fill="#E9A79A"/>
<path d="M72.3564 36.1085L75.1386 32.3313C75.3241 32.0771 75.6892 32.0417 75.9218 32.2545C76.1014 32.417 76.1485 32.6801 76.0366 32.8958L74.2819 36.2888L72.3564 36.1114V36.1085Z" fill="#E9A79A"/>
<path d="M74.5858 35.1921L75.6487 34.8344C75.8724 34.7783 76.1109 34.8315 76.2905 34.9763L76.5348 35.1743C76.8116 35.3989 76.8881 35.792 76.7174 36.1053L75.3513 38.5259L73.6113 37.2284L74.5829 35.1921H74.5858Z" fill="#E9A79A"/>
<path d="M76.5232 35.5527H76.9178C77.1062 35.5527 77.2887 35.6296 77.4241 35.7655L77.7509 36.0877C77.8893 36.2236 77.9659 36.4128 77.9659 36.6079C77.9659 36.7645 77.9129 36.9182 77.8187 37.0423L76.0728 39.3595L74.5713 38.2275L76.5232 35.5527Z" fill="#E9A79A"/>
<path d="M77.1531 36.4746H77.5476C77.7361 36.4746 77.9186 36.5515 78.054 36.6874L78.3808 37.0096C78.5192 37.1455 78.5957 37.3347 78.5957 37.5298C78.5957 37.6864 78.5427 37.8401 78.4485 37.9642L77.8362 38.777C77.2091 39.6075 76.0314 39.773 75.2012 39.1465L77.1531 36.4717V36.4746Z" fill="#E9A79A"/>
<path d="M76.9968 39.2503L76.1813 40.1488C75.404 41.0029 74.0851 41.065 73.2342 40.2847L71.4766 38.869L72.8485 36.8888L74.5738 36.8947L76.0753 37.9469L76.9968 39.2473V39.2503Z" fill="#E9A79A"/>
<path d="M72.504 36.0849L74.8122 35.3253C75.142 35.2248 75.4923 35.411 75.5924 35.745C75.669 35.9962 75.5836 36.2652 75.3804 36.4277L73.9849 37.3055C73.9849 37.3055 75.2362 37.9262 74.2087 39.3508" stroke="black" stroke-width="0.51" stroke-linecap="round" stroke-linejoin="round"/>
<path d="M44.8761 38.739C42.8623 38.9104 40.878 39.3538 39.0026 40.1074C38.5433 40.2907 38.0899 40.4946 37.6778 40.7104C36.3735 41.396 37.3097 42.8738 37.4717 44.3841L37.9574 65.3537C37.9574 65.3537 46.9488 69.2817 54.1089 65.1587L54.7595 45.058C54.9038 42.9536 54.0471 40.1547 52.0716 39.667C49.5779 39.0523 46.9694 38.7242 45.8271 38.6562L44.8791 38.736L44.8761 38.739Z" fill="white"/>
<path d="M49.5396 39.138C49.5396 39.138 48.0617 38.7331 45.8242 38.6562C45.8242 38.6562 43.9164 38.5941 42.1028 39.1557L47.9351 42.4511C49.3512 40.4148 49.5396 39.138 49.5396 39.138Z" fill="#E9A79A"/>
<path d="M54.5686 50.656L54.6893 46.0927" stroke="#171717" stroke-width="0.68" stroke-linecap="round" stroke-linejoin="round"/>
<path d="M28.5249 50.3213L36.2443 62.1553L34.1658 64.5227L25.6455 55.8304L28.5249 50.3213Z" fill="#E9A79A"/>
<path d="M43.3367 62.6932L40.0363 60.9435L40.3602 60.1899C40.478 59.915 40.4044 59.5928 40.1806 59.4007C39.951 59.2027 39.6183 59.1968 39.3828 59.386L36.1324 62.0459L34.1658 64.5197C35.9499 66.1098 37.1158 66.0891 37.787 65.7818C37.8665 65.8084 37.9431 65.8379 38.0226 65.8616L40.7665 66.6803C41.0197 66.7955 41.3141 66.6803 41.4407 66.4261C41.532 66.2399 41.5614 65.9414 41.0344 65.6606L41.5614 65.9414C41.8293 66.0625 42.1414 65.9414 42.268 65.6635C42.3858 65.4212 42.2415 65.099 41.9324 64.8892L42.3357 65.0547C42.6272 65.1877 42.9716 65.037 43.0835 64.7119C43.1777 64.4311 43.0364 64.1237 42.7832 63.9907L42.2003 63.6833L42.8921 63.8577C43.2101 63.9759 43.5663 63.7986 43.6723 63.4498C43.7607 63.1513 43.6076 62.8292 43.3397 62.6873L43.3367 62.6932Z" fill="#E9A79A"/>
<path d="M42.371 63.775L40.4191 62.8174" stroke="#171717" stroke-width="0.44" stroke-linecap="round" stroke-linejoin="round"/>
<path d="M41.847 64.8597L39.9657 64.0439" stroke="#171717" stroke-width="0.44" stroke-linecap="round" stroke-linejoin="round"/>
<path d="M41.208 65.7401L39.6123 65.084" stroke="#171717" stroke-width="0.44" stroke-linecap="round" stroke-linejoin="round"/>
<path d="M39.35 47.0584L29.5343 55.8748C28.6186 56.8383 27.1731 56.9861 26.0926 56.2265C24.7324 55.2689 24.4998 53.2799 25.598 52.009L34.8278 42.6192C35.9318 41.3424 37.8014 41.1828 39.085 42.2586C40.5217 43.4615 40.6454 45.693 39.347 47.0584H39.35Z" fill="#E9A79A"/>
<path d="M39.5678 39.8916C39.5678 39.8916 35.6257 40.6926 30.7325 46.7899L35.4078 52.0744L41.3108 47.6736L39.5708 39.8916H39.5678Z" fill="white"/>
<path d="M37.6105 50.428L40.796 48.0547" stroke="#171717" stroke-width="0.68" stroke-linecap="round" stroke-linejoin="round"/>
<path d="M52.154 26.1013C51.8654 29.0361 49.3423 32.3523 46.1804 32.3464C43.0184 32.3404 41.0782 29.8164 40.2303 26.9939C38.9231 22.6344 42.8388 20.4591 47.1872 21.2453C49.148 21.6 52.469 22.9122 52.154 26.1013Z" fill="black"/>
<path d="M44.593 31.2617L43.751 39.954L48.229 39.9806L47.9905 32.1868L44.593 31.2617Z" fill="#E9A79A"/>
<path d="M48.15 37.3619L45.2235 33.8655L47.9998 32.7365L48.15 37.3619Z" fill="black"/>
<path d="M45.2967 22.874C46.2683 22.611 47.2958 22.5519 48.2791 22.7617C49.6099 23.0455 51.3175 23.8907 51.5265 26.3379C51.8739 30.4136 51.3734 33.7002 49.3685 34.6164C47.8287 35.3199 46.707 35.045 44.9376 34.0046C44.2781 33.6175 43.651 31.9801 43.4743 31.1998L42.7177 29.0186C42.7177 29.0186 40.6627 24.1361 45.2967 22.874Z" fill="#E9A79A"/>
<path d="M43.5249 30.2002C43.5249 30.2002 45.4945 24.0112 42.6181 23.8428L41.0312 26.9225L41.8644 29.5027L43.5249 30.2002Z" fill="black"/>
<path d="M44.0219 31.5244C43.9042 30.9658 43.6892 30.4279 43.3654 29.9402C42.9208 29.2723 42.2849 28.6546 41.4841 29.1481C40.121 29.9875 41.7962 32.1835 43.2918 32.2101C43.7305 32.219 44.0955 31.8732 44.0219 31.5214V31.5244Z" fill="#E9A79A"/>
<path d="M43.2419 24.0058C43.2419 24.0058 53.1606 25.8826 53.0046 22.194C52.8574 18.7331 47.7758 19.9951 46.3891 21.3074L42.5088 23.3142L43.2448 24.0028L43.2419 24.0058Z" fill="black"/>
<path d="M49.3306 29.8877L49.6986 30.7418L49.2246 31.1142" stroke="black" stroke-width="0.39" stroke-linecap="round" stroke-linejoin="round"/>
<path d="M49.8544 26.6332C49.8544 26.6332 49.6896 27.2036 50.2961 27.316C50.7553 27.4017 51.0497 27.449 51.3059 27.579C51.4531 27.6529 51.6239 27.5908 51.7122 27.4342C51.7828 27.3071 51.7858 27.1445 51.7181 27.0204C51.5767 26.7662 51.2735 26.3731 50.7141 26.2579C49.9958 26.1101 49.8544 26.6303 49.8544 26.6303V26.6332Z" fill="black"/>
<path d="M47.8818 26.5893C47.8818 26.5893 48.0791 27.1627 47.2253 27.2691C46.5776 27.3489 45.8003 27.6178 45.4353 27.7449C45.2262 27.8159 44.9907 27.7538 44.8788 27.5971C44.7875 27.4701 44.7905 27.3075 44.8965 27.1834C45.1085 26.9321 45.9181 26.3174 46.7071 26.208C47.7169 26.0691 47.8848 26.5923 47.8848 26.5923L47.8818 26.5893Z" fill="black"/>
<path d="M48.0501 29.362C48.0501 29.362 47.6497 27.7926 45.5918 28.9305C45.5918 28.9305 46.4161 30.5619 48.0501 29.362Z" fill="white"/>
<mask id="mask0_1_1701" style="mask-type:luminance" maskUnits="userSpaceOnUse" x="45" y="28" width="4" height="2">
<path d="M48.0501 29.362C48.0501 29.362 47.6497 27.7926 45.5918 28.9305C45.5918 28.9305 46.4161 30.5619 48.0501 29.362Z" fill="white"/>
</mask>
<g mask="url(#mask0_1_1701)">
<path d="M47.6469 29.143C47.694 29.5479 47.4143 29.9114 47.0257 29.9587C46.637 30.006 46.2808 29.7134 46.2337 29.3085C46.1866 28.9036 46.4663 28.54 46.8549 28.4928C47.2465 28.4484 47.5998 28.7381 47.6469 29.143Z" fill="black"/>
</g>
<path d="M45.5621 28.892C45.7564 28.7472 45.9802 28.6379 46.2127 28.564C46.4453 28.493 46.6838 28.4458 46.934 28.4517C47.1784 28.4605 47.4316 28.5167 47.6495 28.6526C47.8644 28.7945 48.0351 29.0044 48.097 29.2763C48.1087 29.3265 48.0764 29.3768 48.0263 29.3886C47.9763 29.4004 47.9262 29.3679 47.9144 29.3176C47.9144 29.3176 47.9144 29.3176 47.9144 29.3147V29.3029C47.8762 29.1048 47.7407 28.9068 47.5611 28.7856C47.3786 28.6615 47.1549 28.5994 46.9282 28.5847C46.7044 28.5728 46.4659 28.6113 46.2451 28.6704C46.0214 28.7324 45.8064 28.83 45.618 28.963C45.5974 28.9778 45.5709 28.9718 45.5562 28.9541C45.5415 28.9334 45.5474 28.9068 45.565 28.892H45.5621Z" fill="black"/>
<path d="M49.7451 29.3498C49.7451 29.3498 50.3604 27.7981 51.4851 28.8739C51.4851 28.8739 51.0405 30.399 49.7451 29.3498Z" fill="white"/>
<mask id="mask1_1_1701" style="mask-type:luminance" maskUnits="userSpaceOnUse" x="49" y="28" width="3" height="2">
<path d="M49.7451 29.3498C49.7451 29.3498 50.3604 27.7981 51.4851 28.8739C51.4851 28.8739 51.0405 30.399 49.7451 29.3498Z" fill="white"/>
</mask>
<g mask="url(#mask1_1_1701)">
<path d="M50.1426 29.0482C50.0808 29.4206 50.2663 29.7605 50.5607 29.8108C50.8521 29.861 51.1407 29.6009 51.2025 29.2285C51.2643 28.8561 51.0788 28.5162 50.7844 28.466C50.493 28.4157 50.2044 28.6788 50.1426 29.0482Z" fill="black"/>
</g>
<path d="M51.4532 28.898C51.3678 28.7768 51.2559 28.6734 51.1234 28.6172C50.9939 28.5581 50.8378 28.5463 50.7053 28.5788H50.6965C50.5051 28.6142 50.3256 28.7 50.1813 28.8359C50.04 28.966 49.9222 29.1374 49.8545 29.3118V29.3177C49.8368 29.359 49.7897 29.3768 49.7485 29.362C49.7073 29.3443 49.6896 29.2999 49.7043 29.2586C49.7956 29.0517 49.9252 28.8802 50.09 28.7354C50.2549 28.5906 50.4639 28.499 50.6788 28.4694H50.67C50.8408 28.4369 51.0056 28.4606 51.1558 28.5315C51.3059 28.6024 51.4237 28.7206 51.512 28.8566C51.5238 28.8743 51.5179 28.898 51.5003 28.9098C51.4826 28.9216 51.459 28.9157 51.4473 28.9009L51.4532 28.898Z" fill="black"/>
<path d="M47.5344 31.6935C47.5344 31.6935 48.2322 32.4205 49.4599 31.992" stroke="black" stroke-width="0.39" stroke-linecap="round" stroke-linejoin="round"/>
<path d="M161.11 119.325H130.173V123.268H161.11V119.325Z" fill="#E2C64A"/>
<path d="M139.258 119.325H133.373V123.268H139.258V119.325Z" fill="#D9AD44"/>
<path d="M157.429 119.325H153.113V123.268H157.429V119.325Z" fill="#E9D47C"/>
<path d="M161.11 111.439H130.173V115.382H161.11V111.439Z" fill="#E2C64A"/>
<path d="M139.258 111.439H133.373V115.382H139.258V111.439Z" fill="#D9AD44"/>
<path d="M157.429 111.439H153.113V115.382H157.429V111.439Z" fill="#E9D47C"/>
<path d="M161.11 99.6143H130.173V103.557H161.11V99.6143Z" fill="#E2C64A"/>
<path d="M139.258 99.6143H133.373V103.557H139.258V99.6143Z" fill="#D9AD44"/>
<path d="M157.429 99.6143H153.113V103.557H157.429V99.6143Z" fill="#E9D47C"/>
<path d="M164.792 123.268H133.855V127.21H164.792V123.268Z" fill="#E2C64A"/>
<path d="M142.941 123.268H137.056V127.21H142.941V123.268Z" fill="#D9AD44"/>
<path d="M161.112 123.268H156.796V127.21H161.112V123.268Z" fill="#E9D47C"/>
<path d="M164.792 107.497H133.855V111.44H164.792V107.497Z" fill="#E2C64A"/>
<path d="M142.941 107.497H137.056V111.44H142.941V107.497Z" fill="#D9AD44"/>
<path d="M161.112 107.497H156.796V111.44H161.112V107.497Z" fill="#E9D47C"/>
<path d="M164.792 103.557H133.855V107.499H164.792V103.557Z" fill="#E2C64A"/>
<path d="M142.941 103.557H137.056V107.499H142.941V103.557Z" fill="#D9AD44"/>
<path d="M161.112 103.557H156.796V107.499H161.112V103.557Z" fill="#E9D47C"/>
<path d="M164.792 115.382H133.855V119.325H164.792V115.382Z" fill="#E2C64A"/>
<path d="M142.941 115.382H137.056V119.325H142.941V115.382Z" fill="#D9AD44"/>
<path d="M161.112 115.382H156.796V119.325H161.112V115.382Z" fill="#E9D47C"/>
<path d="M161.112 123.268H133.855" stroke="#D19734" stroke-width="0.84" stroke-miterlimit="10"/>
<path d="M161.112 119.325H133.855" stroke="#D19734" stroke-width="0.84" stroke-miterlimit="10"/>
<path d="M161.112 115.382H133.855" stroke="#D19734" stroke-width="0.84" stroke-miterlimit="10"/>
<path d="M161.112 111.439H133.855" stroke="#D19734" stroke-width="0.84" stroke-miterlimit="10"/>
<path d="M164.795 107.497H133.855" stroke="#D19734" stroke-width="0.84" stroke-miterlimit="10"/>
<path d="M164.795 103.557H133.855" stroke="#D19734" stroke-width="0.84" stroke-miterlimit="10"/>
<path d="M177.298 126.956C184.456 125.869 189.38 119.164 188.298 111.978C187.215 104.793 180.536 99.849 173.378 100.936C166.221 102.022 161.296 108.728 162.378 115.913C163.461 123.099 170.141 128.043 177.298 126.956Z" fill="#D19734"/>
<path d="M186.518 114.857C187.285 107.631 182.071 101.149 174.873 100.379C167.675 99.6093 161.218 104.843 160.451 112.069C159.684 119.296 164.898 125.778 172.096 126.547C179.294 127.317 185.751 122.083 186.518 114.857Z" fill="#E2C64A"/>
<path d="M177.082 123.358C182.537 121.362 185.347 115.304 183.358 109.828C181.369 104.351 175.335 101.53 169.88 103.527C164.425 105.523 161.614 111.581 163.603 117.057C165.592 122.534 171.626 125.355 177.082 123.358Z" fill="#DAB03C"/>
<path d="M163.933 111.472C165.452 105.845 171.226 102.52 176.831 104.045C178.93 104.615 180.706 105.786 182.028 107.32C180.668 105.405 178.666 103.933 176.228 103.268C170.622 101.743 164.849 105.068 163.33 110.695C162.47 113.881 163.159 117.12 164.937 119.609C164.204 118.3 163.748 116.834 163.621 115.306C163.492 114.052 163.586 112.755 163.933 111.469V111.472Z" fill="#D19734"/>
<path d="M170.957 120.345L171.352 118.882C169.727 118.359 169.055 117.573 169.594 115.584C169.73 115.078 169.886 114.656 170.033 114.334L172.109 114.898C172.05 115.043 171.979 115.226 171.914 115.468C171.682 116.332 171.605 116.834 172.447 117.064C173.268 117.289 173.445 117.014 173.742 115.906C173.89 115.362 173.94 115.173 173.713 114.83C173.254 114.079 171.826 113.27 171.24 112.545C170.707 111.916 170.731 111.239 171.202 109.492C171.743 107.486 172.524 106.971 174.455 107.397L174.767 106.235L175.945 106.555L175.633 107.716C177.37 108.269 177.82 109.055 177.337 110.84C177.202 111.345 177.066 111.694 176.955 111.963L174.9 111.405C174.964 111.242 175.014 111.053 175.091 110.772C175.303 109.983 175.297 109.56 174.514 109.345C173.84 109.161 173.592 109.336 173.339 110.276C173.077 111.251 173.107 111.36 173.666 111.815C174.272 112.324 174.888 112.711 175.412 113.157C176.142 113.799 176.651 114.138 176.13 116.071C175.397 118.793 174.637 119.594 172.541 119.184L172.141 120.664L170.963 120.345H170.957Z" fill="#D19734"/>
<path d="M125.815 124.071L122.768 125.718C122.444 125.892 122.247 126.297 122.344 126.684C122.421 126.988 122.677 127.225 123.351 127.243C124.85 127.287 133.502 126.255 133.502 126.255L133.65 127.21L136.944 127.148C136.944 127.148 136.42 122.732 135.49 122.147L125.815 124.068V124.071Z" fill="black"/>
<path d="M131.509 121.394L125.818 124.072C125.818 124.072 127.932 125.597 130.255 124.615C132.578 123.634 135.49 122.15 135.49 122.15L135.078 121.001L131.509 121.394Z" fill="#C67B5B"/>
<path d="M135.489 122.15L131.659 108.185L126.301 108.407L131.371 122.981L135.489 122.15Z" fill="#C67B5B"/>
<path d="M120.213 96.8751L127.55 119.163L136.691 117.271L129.169 93.2782L120.213 96.8751Z" fill="#3149D7"/>
<path d="M153.944 84.9904C153.944 84.9904 162.105 96.6855 151.9 99.9455L124.397 99.8036C122.533 99.7947 120.867 98.6273 120.213 96.8747C119.238 94.256 120.849 91.3862 123.587 90.869L148.079 87.5588L147.308 84.9579L153.941 84.9934L153.944 84.9904Z" fill="#3149D7"/>
<path d="M157.059 85.0051C157.059 85.0051 163.486 94.2176 157.801 98.5681C156.579 99.5021 155.062 99.9602 153.526 99.9513L127.511 99.8154C125.648 99.8065 123.981 98.6391 123.328 96.8864C122.353 94.2678 123.987 90.9576 126.725 90.4404L145.353 87.9223L146.545 84.949L157.059 85.0022V85.0051Z" fill="#4C60FA"/>
<path d="M108.825 123.985L105.778 125.631C105.454 125.806 105.257 126.211 105.354 126.598C105.431 126.902 105.687 127.139 106.361 127.157C107.859 127.201 116.106 126.169 116.106 126.169L116.097 127.024L119.194 127.059C119.194 127.059 119.43 122.646 118.497 122.061L108.822 123.982L108.825 123.985Z" fill="black"/>
<path d="M114.519 121.305L108.828 123.983C108.828 123.983 110.942 125.508 113.265 124.526C115.588 123.545 118.499 122.061 118.499 122.061L118.087 120.912L114.519 121.305Z" fill="#C67B5B"/>
<path d="M118.5 122.062L125.233 108.153L119.118 108.372L114.148 122.617L118.5 122.062Z" fill="#C67B5B"/>
<path d="M123.431 93.325L113.697 118.4L122.409 121.559L132.189 97.5632L123.431 93.325Z" fill="#4C60FA"/>
<path d="M142.449 68.094L141.898 84.9731C141.872 86.5159 143.162 87.7543 144.695 87.6627C146.047 87.5799 147.118 86.4864 147.174 85.1268L148.14 68.3423L142.446 68.094H142.449Z" fill="#C67B5B"/>
<path d="M141.319 74.4188C141.319 74.4188 140.515 65.4162 145.185 65.1117C150.475 64.7659 148.803 75.7695 148.835 74.9862L141.319 74.4158V74.4188Z" fill="#E79C88"/>
<path d="M131.886 86.5926L143.981 83.0371L144.696 87.6625L132.702 88.8182L131.886 86.5926Z" fill="#C67B5B"/>
<path d="M150.994 63.5686L157.02 64.541C157.02 64.541 158.166 64.3725 159.111 67.6857C159.914 70.5112 156.953 84.8811 156.953 84.8811H146.439L143.657 75.7987C143.407 75.0775 143.248 74.3268 143.195 73.5672C143.086 71.9565 143.283 70.2984 143.928 68.8472L144.522 65.2237L148.129 63.873L150.997 63.5686H150.994Z" fill="#E79C88"/>
<path d="M153.181 63.9203L150.993 63.5686L147.884 63.9558L146.521 64.473C146.521 64.473 145.238 66.4384 147.363 66.6838C149.945 66.9823 151.959 65.9922 153.181 63.9203Z" fill="#C67B5B"/>
<path d="M154.324 67.7451L155.961 84.5533C156.111 86.0902 157.53 87.1719 159.046 86.9059C160.38 86.6695 161.319 85.4607 161.222 84.1041L160.009 67.3431L154.324 67.7451Z" fill="#C67B5B"/>
<path d="M154.191 74.1317C154.191 74.1317 152.475 64.8365 156.426 64.538C161.713 64.1361 161.775 74.6223 161.722 73.8391L154.191 74.1317Z" fill="#E79C88"/>
<path d="M146.198 87.3051L157.809 82.39L159.046 86.9061L147.26 89.4242L146.198 87.3051Z" fill="#C67B5B"/>
<path d="M146.198 87.3054C146.198 87.3054 144.119 84.4858 140.233 88.328L141.537 89.4216H147.261L147.985 87.4768L146.198 87.3054Z" fill="#C67B5B"/>
<path d="M144.396 89.3145H155.086C155.749 89.3145 156.285 89.8524 156.285 90.5174H144.396V89.3145Z" fill="black"/>
<path d="M145.376 90.5143H127.131L123.104 77.8261C122.907 77.0991 123.454 76.3809 124.205 76.3809H140.085C140.601 76.3809 141.051 76.7267 141.187 77.2262L145.376 90.5143Z" fill="black"/>
<path d="M144.396 90.5143H125.48L121.452 77.8261C121.255 77.0991 121.803 76.3809 122.554 76.3809H139.105C139.621 76.3809 140.071 76.7267 140.206 77.2262L144.396 90.5143Z" fill="#2F313A"/>
<path d="M133.477 83.3857C133.477 84.1216 132.882 84.7157 132.152 84.7157C131.422 84.7157 130.827 84.1186 130.827 83.3857C130.827 82.6527 131.422 82.0557 132.152 82.0557C132.882 82.0557 133.477 82.6527 133.477 83.3857Z" fill="#D1E3FD"/>
<path d="M150.791 57.8703C150.964 59.815 152.675 61.2514 154.612 61.0771C156.549 60.9027 157.98 59.1855 157.807 57.2408C157.633 55.296 155.922 53.8596 153.985 54.034C152.048 54.2084 150.617 55.9255 150.791 57.8703Z" fill="black"/>
<path d="M152.127 48.5312C152.127 48.5312 153.113 47.875 154.338 49.341C155.563 50.8069 155.689 54.0965 153.525 54.8915L152.124 48.5312H152.127Z" fill="black"/>
<path d="M152.127 48.5307C152.127 48.5307 150.632 44.9929 146.107 46.0303C141.585 47.0707 138.832 51.5336 142.933 53.9069L152.125 48.5278L152.127 48.5307Z" fill="black"/>
<path d="M142.938 53.0737C143.162 56.0411 145.579 58.2725 148.762 58.0301C151.945 57.7907 154.344 55.1899 154.123 52.2225C153.899 49.2551 151.141 47.0444 147.955 47.2867C144.773 47.5261 142.715 50.1093 142.938 53.0766V53.0737Z" fill="black"/>
<path d="M149.507 56.5488L151.883 64.0352L149.251 66.2164L147.755 65.1702L146.919 57.8611L149.507 56.5488Z" fill="#C67B5B"/>
<path d="M147.541 63.2937L149.702 59.0761L146.993 58.4111L147.541 63.2937Z" fill="black"/>
<path d="M148.957 48.427C147.962 48.2319 146.919 48.2497 145.945 48.5363C144.626 48.9206 142.968 49.8989 142.939 52.3756C142.889 56.5045 143.613 59.5369 145.701 60.3142C147.302 60.9083 148.412 60.5507 150.117 59.3714C150.753 58.934 151.283 57.4739 151.403 56.6759L152.004 54.4238C152.004 54.4238 153.714 49.355 148.957 48.4299V48.427Z" fill="#C67B5B"/>
<path d="M151.365 55.6835C151.365 55.6835 148.332 50.2955 151.2 48.5074C151.2 48.5074 152.498 48.3123 153.214 50.8334C154.365 54.8796 151.362 55.6835 151.362 55.6835H151.365Z" fill="black"/>
<path d="M150.858 56.8037C150.935 56.2333 151.112 55.6747 151.403 55.1605C151.8 54.4541 152.395 53.7861 153.237 54.2235C154.671 54.9683 153.146 57.3003 151.644 57.4392C151.203 57.4806 150.811 57.1614 150.858 56.8008V56.8037Z" fill="#C67B5B"/>
<path d="M151.008 57.5874C151.038 57.9302 151.341 58.1844 151.682 58.1548C152.024 58.1253 152.277 57.8208 152.248 57.478C152.218 57.1352 151.915 56.881 151.573 56.9105C151.232 56.9401 150.979 57.2445 151.008 57.5874Z" fill="white"/>
<path d="M152.113 49.4174C152.113 49.4174 145.986 54.5631 142.221 51.643C142.221 51.643 140.807 48.2737 146.519 47.1919C152.231 46.1131 152.113 49.4174 152.113 49.4174Z" fill="black"/>
<path d="M145.507 56.5491L145.147 57.3884L145.61 57.752" stroke="black" stroke-width="0.38" stroke-linecap="round" stroke-linejoin="round"/>
<path d="M144.744 53.5374C144.744 53.5374 144.885 54.0221 144.37 54.1196C143.979 54.1935 143.728 54.2319 143.51 54.3413C143.387 54.4034 143.24 54.3531 143.166 54.2201C143.104 54.1137 143.101 53.9748 143.163 53.8684C143.284 53.6527 143.54 53.3187 144.017 53.2212C144.629 53.097 144.747 53.5374 144.747 53.5374H144.744Z" fill="black"/>
<path d="M147.07 53.4516C147.07 53.4516 146.902 53.9393 147.626 54.028C148.177 54.0959 148.836 54.3235 149.148 54.4329C149.325 54.4949 149.525 54.4388 149.622 54.3058C149.702 54.1964 149.696 54.0605 149.607 53.9541C149.428 53.7383 148.736 53.2152 148.068 53.1236C147.208 53.0053 147.067 53.4487 147.067 53.4487L147.07 53.4516Z" fill="black"/>
<path d="M146.764 55.8723C146.764 55.8723 147.155 54.3325 149.175 55.4467C149.175 55.4467 148.365 57.0486 146.764 55.8723Z" fill="white"/>
<mask id="mask2_1_1701" style="mask-type:luminance" maskUnits="userSpaceOnUse" x="146" y="55" width="4" height="2">
<path d="M146.764 55.8723C146.764 55.8723 147.155 54.3325 149.175 55.4467C149.175 55.4467 148.365 57.0486 146.764 55.8723Z" fill="white"/>
</mask>
<g mask="url(#mask2_1_1701)">
<path d="M147.159 55.6566C147.111 56.0527 147.385 56.4103 147.768 56.4576C148.151 56.5049 148.498 56.2182 148.545 55.8192C148.592 55.4231 148.319 55.0655 147.936 55.0182C147.553 54.9739 147.206 55.2576 147.159 55.6566Z" fill="black"/>
</g>
<path d="M149.151 55.4824C148.966 55.3524 148.757 55.2549 148.536 55.1957C148.318 55.1366 148.085 55.0982 147.864 55.11C147.641 55.1278 147.42 55.1869 147.243 55.3081C147.07 55.4263 146.934 55.6243 146.899 55.8164V55.8253C146.887 55.8755 146.84 55.908 146.79 55.8992C146.74 55.8903 146.707 55.843 146.716 55.7928C146.716 55.7928 146.716 55.7928 146.716 55.7898C146.775 55.5238 146.943 55.314 147.155 55.178C147.37 55.045 147.617 54.9889 147.856 54.98C148.103 54.9741 148.336 55.0214 148.565 55.0893C148.792 55.1603 149.01 55.2667 149.201 55.4115C149.222 55.4263 149.225 55.4529 149.21 55.4736C149.195 55.4943 149.169 55.4972 149.148 55.4824H149.151Z" fill="black"/>
<path d="M145.1 55.8638C145.1 55.8638 144.497 54.3417 143.393 55.3968C143.393 55.3968 143.828 56.8923 145.1 55.8638Z" fill="white"/>
<mask id="mask3_1_1701" style="mask-type:luminance" maskUnits="userSpaceOnUse" x="143" y="55" width="3" height="2">
<path d="M145.1 55.8638C145.1 55.8638 144.497 54.3417 143.393 55.3968C143.393 55.3968 143.828 56.8923 145.1 55.8638Z" fill="white"/>
</mask>
<g mask="url(#mask3_1_1701)">
<path d="M144.709 55.5653C144.77 55.9289 144.585 56.2628 144.299 56.3131C144.014 56.3604 143.731 56.1062 143.669 55.7427C143.608 55.3791 143.793 55.0452 144.079 54.9949C144.364 54.9476 144.647 55.2018 144.709 55.5653Z" fill="black"/>
</g>
<path d="M143.363 55.3761C143.449 55.246 143.567 55.1278 143.711 55.0569C143.858 54.9859 144.02 54.9623 144.188 54.9977H144.182C144.394 55.0243 144.597 55.116 144.759 55.2549C144.921 55.3967 145.048 55.5652 145.139 55.7662C145.156 55.8046 145.139 55.8519 145.101 55.8696C145.062 55.8874 145.015 55.8696 144.997 55.8312V55.8253C144.927 55.6539 144.812 55.4854 144.674 55.3583C144.535 55.2283 144.359 55.1396 144.17 55.1071H144.161C144.032 55.0746 143.879 55.0864 143.752 55.1426C143.623 55.1987 143.511 55.2992 143.428 55.4174C143.416 55.4352 143.393 55.4381 143.375 55.4263C143.358 55.4145 143.355 55.3908 143.366 55.3761H143.363Z" fill="black"/>
<path d="M147.362 58.1211C147.362 58.1211 146.908 58.8156 145.704 58.396" stroke="black" stroke-width="0.38" stroke-linecap="round" stroke-linejoin="round"/>
<path d="M12.5762 127.205H191.649" stroke="#A0C0FC" stroke-width="2" stroke-linecap="round" stroke-linejoin="round"/>
</g>
<defs>
<linearGradient id="paint0_linear_1_1701" x1="49.462" y1="48.6847" x2="155.094" y2="48.6847" gradientUnits="userSpaceOnUse">
<stop stop-color="#8DE2FD"/>
<stop offset="1" stop-color="#4C60FA"/>
</linearGradient>
<clipPath id="clip0_1_1701">
<rect width="200" height="127" fill="white" transform="translate(0.466797 0.5)"/>
</clipPath>
</defs>
</svg>
