<svg width="169" height="170" viewBox="0 0 169 170" fill="none" xmlns="http://www.w3.org/2000/svg">
<path d="M147.548 145.338C143.223 149.824 139.354 152.461 136.391 154.451C107.495 173.865 74.4647 168.27 64.2526 166.357C47.7767 163.271 33.8683 161.095 21.9185 150.231C-5.23436 125.546 -3.91399 74.0516 16.8348 42.1531C19.2949 38.3711 40.0119 7.47036 73.1138 3.11614C73.9235 3.00992 74.5275 2.94914 75.0565 2.89265C80.1775 2.34684 111.91 -0.532028 137.785 21.2808C141.488 24.4035 147.449 30.0353 152.976 38.6253C173.187 70.0338 173.251 118.679 147.548 145.338Z" fill="url(#paint0_linear_1_1991)"/>
<path d="M138.314 1.02352C138.355 0.136953 137.229 -0.271946 136.686 0.427971C131.179 7.53459 118.505 28.2172 127.305 59.5121C138.345 98.7756 132.32 114.678 123.386 125.203C123.386 125.203 136.901 118.794 143.519 102.579C159.767 62.7667 137.6 16.787 138.315 1.02413L138.314 1.02352Z" fill="#91B3FA"/>
<g style="mix-blend-mode:soft-light">
<path d="M135.339 14.2944C135.222 18.8764 135.194 23.4584 135.333 28.0349C135.448 32.6114 135.701 37.1817 136.095 41.7379C136.506 46.2923 137.003 50.8381 137.69 55.3562C138.357 59.8768 139.216 64.3637 140.095 68.8658C140.948 73.3699 141.833 77.9028 142.259 82.54C142.689 87.1675 142.576 91.9208 141.605 96.5126C141.361 97.657 141.096 98.8021 140.766 99.9195C140.457 101.044 140.098 102.154 139.72 103.258C138.952 105.462 138.038 107.619 136.969 109.697C134.819 113.849 132.043 117.669 128.854 121.032C128.519 121.387 127.962 121.4 127.609 121.062C127.264 120.73 127.245 120.183 127.563 119.828L127.565 119.826C128.317 118.985 129.06 118.138 129.761 117.26C130.12 116.826 130.458 116.377 130.804 115.935C131.134 115.48 131.481 115.038 131.796 114.574C133.087 112.738 134.248 110.813 135.262 108.811C137.307 104.822 138.771 100.505 139.708 96.1197C140.151 93.9211 140.433 91.6936 140.544 89.452C140.653 87.2098 140.591 84.956 140.401 82.7039C140.021 78.1975 139.182 73.7039 138.362 69.1937C137.546 64.6817 136.758 60.1414 136.156 55.576C135.85 53.2945 135.584 51.0075 135.358 48.7168C135.239 47.5724 135.142 46.4255 135.043 45.2792C134.954 44.1318 134.873 42.9843 134.8 41.8361C134.518 37.2431 134.375 32.6439 134.378 28.0459C134.402 23.4486 134.547 18.8531 134.868 14.2711C134.877 14.1403 134.99 14.0414 135.12 14.0506C135.246 14.0599 135.343 14.1679 135.339 14.2938L135.339 14.2944Z" fill="white"/>
</g>
<path d="M146.907 114.961C147.602 116.439 149.571 116.722 150.666 115.513C156.706 108.845 172.09 88.437 167.487 57.6358C163.599 31.6252 163.948 17.1498 164.559 10.5896C164.688 9.20268 162.982 8.45549 162.06 9.49432C151.88 20.9564 121.719 61.4024 146.907 114.96L146.907 114.961Z" fill="#BDD0FB"/>
<g style="mix-blend-mode:soft-light">
<path d="M149.099 114.765C149.134 114.784 149.172 114.8 149.212 114.813C149.547 114.916 149.902 114.727 150.005 114.39C150.122 114.008 161.641 75.77 157.86 39.3583C157.823 39.0078 157.511 38.7536 157.163 38.7898C156.815 38.8267 156.561 39.1404 156.598 39.4916C160.352 75.638 148.909 113.636 148.793 114.015C148.702 114.312 148.837 114.624 149.099 114.765H149.099Z" fill="white"/>
</g>
<g opacity="0.3">
<path d="M48.7204 136.358C48.4202 136.5 48.062 136.371 47.9211 136.069C47.6465 135.482 47.3426 134.899 47.0174 134.334C46.8527 134.049 46.9466 133.684 47.2261 133.514C47.2291 133.512 47.2328 133.51 47.2359 133.508C47.5226 133.34 47.8905 133.439 48.0571 133.728C48.3994 134.321 48.7191 134.936 49.0083 135.554C49.1407 135.836 49.0364 136.169 48.7765 136.328C48.7588 136.339 48.7399 136.349 48.721 136.358H48.7204ZM45.248 131.697C44.8496 131.183 44.4261 130.682 43.988 130.205C43.7629 129.96 43.7769 129.578 44.0204 129.351C44.2656 129.124 44.6439 129.14 44.8697 129.384C45.3304 129.884 45.777 130.413 46.1956 130.953C46.3993 131.217 46.353 131.597 46.0912 131.802C46.0723 131.816 46.0528 131.83 46.0326 131.842C45.7758 131.999 45.4377 131.94 45.2486 131.697L45.248 131.697ZM41.6847 128.029C41.1844 127.618 40.6597 127.224 40.1258 126.858C39.8518 126.67 39.781 126.294 39.9678 126.018C40.1545 125.743 40.5279 125.671 40.8024 125.859C41.365 126.245 41.9172 126.66 42.4437 127.092C42.7006 127.303 42.7391 127.684 42.5298 127.942C42.4852 127.998 42.4328 128.042 42.3754 128.077C42.1643 128.206 41.8867 128.195 41.6847 128.028V128.029ZM37.3954 125.255C36.8157 124.967 36.2165 124.701 35.6149 124.464C35.3062 124.342 35.1537 123.991 35.2745 123.68C35.3959 123.37 35.7443 123.216 36.053 123.338C36.6864 123.587 37.3173 123.867 37.9274 124.171C38.2246 124.319 38.3472 124.681 38.2001 124.981C38.1477 125.087 38.0677 125.172 37.9732 125.23C37.8036 125.333 37.5869 125.35 37.3954 125.255ZM32.599 123.511C31.9717 123.36 31.3286 123.234 30.6886 123.137C30.3603 123.086 30.1352 122.778 30.1846 122.449C30.234 122.118 30.5403 121.891 30.8686 121.941C31.5422 122.044 32.2182 122.177 32.8784 122.336C33.2012 122.413 33.4001 122.74 33.3226 123.064C33.2836 123.228 33.1823 123.36 33.0493 123.441C32.9187 123.52 32.7582 123.55 32.5984 123.511H32.599ZM27.539 122.879C26.8928 122.871 26.2388 122.891 25.5938 122.939C25.2631 122.964 24.9751 122.713 24.9507 122.38C24.9263 122.048 25.1747 121.758 25.506 121.733C26.1845 121.684 26.8733 121.662 27.553 121.67C27.8849 121.674 28.1504 121.948 28.1467 122.282C28.1443 122.498 28.0283 122.687 27.8569 122.792C27.7641 122.848 27.6555 122.88 27.539 122.879ZM7.63529 133.015C7.36133 132.826 7.29117 132.45 7.47848 132.174C7.86227 131.61 8.27595 131.054 8.70732 130.524C8.91782 130.266 9.29612 130.227 9.55238 130.439C9.80925 130.651 9.84647 131.032 9.63658 131.29C9.22656 131.793 8.83423 132.32 8.46997 132.856C8.41994 132.93 8.3571 132.989 8.28571 133.032C8.09046 133.151 7.83603 133.152 7.63529 133.014V133.015ZM22.4686 123.391C21.8371 123.528 21.2044 123.694 20.5876 123.885C20.2703 123.983 19.9341 123.804 19.8365 123.485C19.7388 123.166 19.9176 122.829 20.2343 122.73C20.8841 122.528 21.551 122.353 22.2154 122.209C22.5394 122.139 22.8591 122.346 22.9293 122.673C22.9848 122.932 22.8665 123.187 22.6535 123.317C22.598 123.351 22.5358 123.376 22.4686 123.391ZM10.9563 128.942C10.7312 128.697 10.7464 128.314 10.9905 128.088C11.4902 127.624 12.0162 127.176 12.5537 126.756C12.8149 126.55 13.1931 126.599 13.3969 126.863C13.6001 127.126 13.5531 127.506 13.2908 127.711C12.7795 128.111 12.2798 128.537 11.8051 128.977C11.7745 129.006 11.7422 129.03 11.7087 129.051C11.4695 129.196 11.1534 129.158 10.9563 128.943V128.942ZM17.6399 125.03C17.0554 125.305 16.4751 125.61 15.915 125.935C15.6276 126.102 15.2603 126.003 15.0944 125.714C14.9309 125.428 15.0248 125.065 15.3037 124.895C15.3073 124.892 15.311 124.89 15.3146 124.888C15.904 124.545 16.5154 124.225 17.1304 123.934C17.4312 123.793 17.7888 123.923 17.9291 124.225C18.0603 124.508 17.956 124.841 17.6967 124.998C17.6784 125.009 17.6594 125.02 17.6399 125.029V125.03Z" fill="#91B3FA"/>
<path d="M6.23 136.741C6.33129 136.679 6.41549 136.586 6.46735 136.47C6.59304 136.185 6.72727 135.898 6.86517 135.617C7.01221 135.318 6.89018 134.955 6.59304 134.807C6.2959 134.659 5.93469 134.781 5.78825 135.081C5.64304 135.376 5.50209 135.678 5.36969 135.978C5.23485 136.283 5.37091 136.641 5.67416 136.776C5.86086 136.86 6.0677 136.84 6.23 136.741Z" fill="#91B3FA"/>
</g>
<g opacity="0.3">
<path d="M5.90933 155.166C6.15705 155.015 6.26688 154.701 6.154 154.421C6.03746 154.133 5.92519 153.837 5.81964 153.542C5.70737 153.227 5.36385 153.064 5.05146 153.176C4.73784 153.289 4.57676 153.636 4.68903 153.949C4.80007 154.26 4.91844 154.572 5.04108 154.876C5.16616 155.185 5.51639 155.334 5.82391 155.209C5.8538 155.196 5.88248 155.182 5.90994 155.165L5.90933 155.166Z" fill="#91B3FA"/>
<path d="M38.6663 167.071C38.3746 167.23 38.0098 167.12 37.8524 166.826C37.6949 166.533 37.8035 166.166 38.0952 166.007C38.651 165.705 39.2026 165.374 39.7408 165.021C40.0166 164.838 40.3912 164.917 40.5724 165.197C40.7536 165.476 40.6755 165.851 40.3973 166.034C40.1642 166.187 39.9293 166.336 39.6926 166.479C39.3552 166.685 39.0098 166.884 38.6663 167.071ZM42.1643 163.989C41.9471 163.737 41.9745 163.355 42.2253 163.137C42.7067 162.717 43.1759 162.273 43.6195 161.815C43.8501 161.576 44.2315 161.571 44.4688 161.805C44.7062 162.038 44.7111 162.421 44.4792 162.659C44.0124 163.141 43.5188 163.609 43.0118 164.051C42.9855 164.073 42.9575 164.094 42.9288 164.111C42.6829 164.261 42.3589 164.216 42.1643 163.99V163.989ZM35.6863 168.434C35.0603 168.67 34.416 168.883 33.7705 169.065C33.4507 169.155 33.1194 168.968 33.0297 168.646C32.94 168.325 33.1267 167.992 33.4459 167.901C34.0591 167.728 34.6704 167.526 35.2647 167.302C35.5753 167.185 35.9218 167.343 36.0384 167.656C36.1415 167.933 36.0298 168.237 35.7876 168.385C35.7559 168.404 35.7223 168.421 35.6863 168.434ZM45.7593 160.276C45.4927 160.078 45.4353 159.699 45.6324 159.431C46.0101 158.915 46.3701 158.378 46.7026 157.834C46.8765 157.549 47.2462 157.46 47.5287 157.635C47.8112 157.81 47.8997 158.182 47.7258 158.467C47.3756 159.04 46.9961 159.606 46.5982 160.148C46.55 160.214 46.4915 160.267 46.4262 160.307C46.2242 160.429 45.96 160.426 45.7581 160.276H45.7593ZM30.5678 169.735C29.9058 169.826 29.2309 169.891 28.5616 169.926C28.2303 169.943 27.9478 169.687 27.9301 169.354C27.9124 169.021 28.1674 168.736 28.4988 168.719C29.1345 168.685 29.7758 168.624 30.4043 168.537C30.7331 168.491 31.0364 168.723 31.0809 169.054C31.1145 169.3 30.9955 169.532 30.7966 169.654C30.7282 169.695 30.6508 169.724 30.5672 169.735L30.5678 169.735ZM25.29 169.874C24.6231 169.818 23.9501 169.732 23.2911 169.621C22.9641 169.565 22.7438 169.253 22.7987 168.924C22.8543 168.594 23.1642 168.372 23.4913 168.428C24.1179 168.534 24.7567 168.615 25.3907 168.669C25.7214 168.697 25.9666 168.99 25.9392 169.323C25.9221 169.523 25.8104 169.692 25.6512 169.789C25.5462 169.853 25.4212 169.886 25.29 169.874ZM20.1074 168.852C19.4679 168.651 18.8297 168.42 18.211 168.167C17.9035 168.041 17.7565 167.688 17.8815 167.379C18.0066 167.069 18.3575 166.922 18.6644 167.047C19.2525 167.289 19.859 167.508 20.4667 167.699C20.7834 167.798 20.9597 168.138 20.8609 168.456C20.8151 168.603 20.72 168.719 20.5991 168.793C20.457 168.879 20.2794 168.906 20.1086 168.853L20.1074 168.852ZM15.2695 166.718C14.6892 166.381 14.1169 166.015 13.5678 165.63C13.2956 165.439 13.2285 165.062 13.4183 164.788C13.6074 164.515 13.9821 164.447 14.2548 164.638C14.7759 165.003 15.3195 165.35 15.8711 165.671C16.1585 165.838 16.2567 166.207 16.0907 166.497C16.0383 166.588 15.9657 166.66 15.8821 166.712C15.7009 166.822 15.4666 166.833 15.2701 166.718L15.2695 166.718ZM11.0137 163.564C10.5225 163.108 10.0448 162.624 9.59265 162.126C9.36872 161.88 9.38581 161.498 9.63048 161.272C9.87454 161.048 10.2553 161.064 10.4792 161.311C10.9087 161.783 11.3627 162.243 11.8288 162.676C12.0723 162.903 12.0876 163.285 11.8624 163.53C11.8234 163.573 11.7794 163.609 11.7324 163.637C11.5091 163.773 11.215 163.751 11.0137 163.564ZM7.55414 159.551C7.27408 159.143 7.00256 158.722 6.74813 158.299C6.656 158.146 6.56569 157.992 6.47722 157.837C6.31187 157.548 6.40339 157.175 6.6981 157.012C6.98548 156.845 7.35279 156.945 7.51875 157.234C7.60295 157.381 7.68837 157.528 7.77623 157.673C8.01846 158.076 8.27595 158.476 8.54258 158.863C8.73112 159.138 8.66339 159.514 8.39065 159.704C8.38028 159.712 8.36991 159.719 8.35954 159.725C8.08985 159.889 7.73657 159.816 7.55475 159.552L7.55414 159.551Z" fill="#91B3FA"/>
<path d="M49.0129 155.807C49.1148 155.745 49.1996 155.652 49.2515 155.533C49.3821 155.234 49.509 154.926 49.6286 154.617C49.7494 154.306 49.5968 153.956 49.2875 153.835C48.9781 153.713 48.6304 153.867 48.5095 154.178C48.3961 154.471 48.2753 154.763 48.1514 155.048C48.0178 155.354 48.1563 155.71 48.4595 155.844C48.6456 155.926 48.8512 155.906 49.0123 155.807H49.0129Z" fill="#91B3FA"/>
</g>
<path d="M45.2833 146.15C45.2998 146.03 45.2394 145.913 45.1332 145.859L42.0898 144.295C41.9464 142.695 41.548 141.108 40.886 139.596L42.7957 136.747C42.8629 136.647 42.8592 136.515 42.7872 136.419L40.3216 133.124C40.2496 133.027 40.1245 132.987 40.011 133.025L36.762 134.084C35.5008 133.026 34.0944 132.202 32.6068 131.621L31.9546 128.245C31.9314 128.127 31.8368 128.036 31.7179 128.019L27.6591 127.443C27.5408 127.427 27.4242 127.488 27.3699 127.594L25.8159 130.657C24.2264 130.801 22.6486 131.201 21.1458 131.868L18.3147 129.947C18.2152 129.879 18.0847 129.883 17.9889 129.955L14.7142 132.436C14.6184 132.509 14.5794 132.634 14.616 132.749L15.6685 136.018C14.6166 137.287 13.7978 138.702 13.2206 140.199L9.86595 140.855C9.74819 140.878 9.6585 140.974 9.64141 141.094L9.06909 145.178C9.05262 145.297 9.11302 145.414 9.21919 145.469L12.2626 147.032C12.406 148.632 12.8038 150.22 13.4664 151.732L11.5567 154.581C11.4896 154.681 11.4932 154.812 11.5652 154.908L14.0308 158.204C14.1028 158.3 14.2279 158.339 14.3414 158.302L17.5904 157.243C18.8516 158.302 20.258 159.126 21.7456 159.707L22.3978 163.082C22.4204 163.201 22.5156 163.291 22.6339 163.308L26.6927 163.883C26.811 163.9 26.9276 163.839 26.9819 163.732L28.5359 160.67C30.1254 160.526 31.7032 160.125 33.206 159.458L36.0371 161.38C36.1366 161.448 36.2671 161.444 36.3629 161.372L39.6376 158.891C39.7334 158.818 39.7731 158.692 39.7358 158.578L38.6833 155.309C39.7352 154.04 40.5541 152.625 41.1313 151.128L44.4859 150.472C44.6036 150.449 44.6933 150.353 44.7104 150.234L45.2827 146.15L45.2833 146.15Z" fill="#91B3FA"/>
<path d="M28.773 149.486C26.679 150.372 24.2585 149.379 23.3781 147.272C22.9516 146.251 22.9455 145.124 23.361 144.099C23.7765 143.073 24.5642 142.272 25.5789 141.843C27.6729 140.957 30.0934 141.95 30.9738 144.058C31.7749 145.975 31.0306 148.163 29.3124 149.21C29.1422 149.314 28.9622 149.406 28.773 149.486ZM24.2506 144.464C23.9321 145.25 23.9364 146.114 24.2634 146.897C24.9388 148.512 26.7943 149.274 28.4002 148.595C30.0067 147.916 30.7627 146.048 30.0873 144.432C29.4118 142.817 27.5564 142.055 25.9505 142.734C25.8046 142.796 25.6655 142.868 25.5331 142.949C24.9571 143.3 24.5093 143.825 24.25 144.464H24.2506Z" fill="#BDD0FB"/>
<path d="M32.322 154.375C32.6173 154.195 32.9047 153.999 33.1842 153.788C33.272 153.722 33.3587 153.654 33.4447 153.584C33.8675 153.242 34.2629 152.866 34.6241 152.463C34.629 152.458 34.6339 152.452 34.6388 152.447C34.6528 152.431 34.6668 152.415 34.6803 152.399C34.7071 152.369 34.734 152.338 34.7608 152.307C34.831 152.226 34.8371 152.111 34.7846 152.024C34.7718 152.003 34.7553 151.984 34.7358 151.966C34.6357 151.879 34.4838 151.89 34.3972 151.991C33.9505 152.511 33.4453 152.986 32.895 153.402C30.1633 155.472 26.6836 155.857 23.6963 154.732C22.0343 154.107 20.5248 153.015 19.3814 151.485C19.1806 151.217 18.9951 150.941 18.8249 150.658C17.6784 148.752 17.222 146.525 17.535 144.29C17.8944 141.721 19.227 139.447 21.2863 137.887C25.5396 134.666 31.5996 135.526 34.8005 139.803C34.9975 140.067 35.1812 140.34 35.3496 140.62C36.0812 141.836 36.54 143.2 36.6883 144.614C36.6919 144.651 36.7035 144.684 36.7218 144.714C36.7682 144.791 36.8573 144.839 36.9525 144.829C37.0843 144.814 37.18 144.697 37.166 144.563C37.0098 143.078 36.5284 141.646 35.7608 140.37C35.5839 140.075 35.3911 139.789 35.1842 139.512C31.8241 135.022 25.4585 134.12 20.997 137.5C18.8353 139.138 17.4368 141.525 17.0591 144.221C16.7303 146.569 17.2092 148.906 18.4131 150.907C18.5918 151.204 18.7871 151.494 18.9976 151.776C20.6255 153.951 22.9977 155.358 25.6769 155.738C28.0101 156.069 30.3336 155.586 32.322 154.374V154.375Z" fill="#BDD0FB"/>
<g opacity="0.3">
<path d="M74.5105 139.268C74.6477 139.185 74.7197 139.017 74.6764 138.853C74.5959 138.547 74.505 138.239 74.4061 137.937C74.3421 137.741 74.1322 137.635 73.9375 137.7C73.7423 137.764 73.6373 137.975 73.7014 138.171C73.7954 138.459 73.882 138.752 73.9595 139.044C74.012 139.243 74.2152 139.362 74.4128 139.31C74.4482 139.3 74.4806 139.286 74.5099 139.268L74.5105 139.268Z" fill="#91B3FA"/>
<path d="M73.4961 136.59C73.3106 136.679 73.0897 136.599 73.0018 136.413C72.7804 135.943 72.532 135.478 72.2642 135.033C72.2074 134.939 72.1501 134.846 72.0909 134.753C71.9811 134.579 72.0323 134.348 72.2056 134.238C72.3734 134.14 72.6077 134.179 72.7181 134.353C72.7797 134.451 72.8401 134.548 72.8993 134.646C73.18 135.113 73.4405 135.6 73.6724 136.093C73.7548 136.267 73.6907 136.474 73.5296 136.572C73.5186 136.579 73.5077 136.584 73.4961 136.59ZM70.9865 133.217C70.5887 132.729 70.1573 132.261 69.704 131.828C69.5557 131.685 69.5496 131.45 69.6912 131.3C69.8321 131.151 70.067 131.144 70.2159 131.287C70.6906 131.741 71.1433 132.231 71.5601 132.743C71.69 132.902 71.6668 133.137 71.5088 133.268C71.4948 133.28 71.4801 133.29 71.4649 133.299C71.3093 133.393 71.1049 133.361 70.9865 133.216V133.217ZM68.2604 130.609C67.757 130.235 67.2243 129.889 66.6776 129.58C66.4989 129.479 66.4354 129.252 66.5361 129.072C66.6368 128.891 66.8625 128.828 67.0413 128.929C67.6142 129.252 68.1725 129.616 68.7009 130.008C68.8656 130.131 68.901 130.364 68.779 130.53C68.7491 130.57 68.7131 130.603 68.6728 130.627C68.5484 130.704 68.3848 130.701 68.2604 130.608V130.609ZM64.9808 128.755C64.4006 128.517 63.7996 128.312 63.1967 128.148C62.999 128.094 62.8819 127.889 62.9356 127.69C62.9893 127.491 63.1931 127.373 63.3908 127.427C64.0235 127.599 64.6532 127.814 65.2621 128.065C65.4518 128.143 65.5428 128.361 65.4653 128.552C65.4335 128.628 65.3798 128.689 65.3139 128.729C65.2169 128.788 65.0943 128.802 64.9808 128.755ZM61.351 127.763C60.7305 127.674 60.099 127.622 59.4736 127.609C59.2692 127.605 59.1063 127.435 59.1099 127.229C59.1136 127.022 59.2832 126.858 59.4882 126.863C60.1435 126.876 60.8062 126.93 61.456 127.023C61.6585 127.053 61.7995 127.242 61.7708 127.446C61.7543 127.561 61.6872 127.656 61.5957 127.712C61.5249 127.755 61.4395 127.775 61.351 127.763V127.763ZM57.5919 127.688C56.9689 127.753 56.3447 127.857 55.7358 127.999C55.5363 128.046 55.3368 127.92 55.291 127.72C55.2452 127.519 55.3691 127.319 55.5686 127.272C56.2075 127.123 56.8628 127.013 57.5156 126.945C57.7194 126.924 57.9018 127.073 57.9226 127.278C57.9378 127.426 57.8646 127.563 57.7456 127.636C57.7005 127.663 57.648 127.682 57.5919 127.688ZM53.9304 128.539C53.344 128.755 52.7638 129.011 52.2055 129.301C52.023 129.395 51.7997 129.323 51.7058 129.139C51.6118 128.956 51.685 128.734 51.8662 128.636C52.452 128.334 53.0603 128.065 53.6753 127.839C53.8675 127.768 54.0811 127.868 54.1513 128.061C54.2135 128.231 54.1439 128.418 53.9951 128.509C53.9749 128.521 53.9536 128.531 53.9304 128.54V128.539ZM48.5726 131.396C48.4372 131.241 48.4531 131.006 48.6068 130.869C49.0333 130.493 49.4873 130.133 49.9552 129.802C50.026 129.751 50.0974 129.702 50.1688 129.652C50.3342 129.532 50.5691 129.581 50.6844 129.752C50.7997 129.923 50.7552 130.155 50.5855 130.271C50.5184 130.317 50.4513 130.363 50.3836 130.412C49.9357 130.729 49.5025 131.072 49.0955 131.431C49.0791 131.446 49.0608 131.459 49.0425 131.47C48.8911 131.562 48.6922 131.534 48.572 131.396H48.5726Z" fill="#91B3FA"/>
</g>
<g opacity="0.3">
<path d="M67.2928 156.895C66.7351 157.225 66.153 157.523 65.5618 157.782C65.3738 157.865 65.1554 157.778 65.0736 157.589C64.9919 157.4 65.0797 157.181 65.2658 157.098C65.8296 156.851 66.3849 156.567 66.9169 156.252C67.0932 156.148 67.3208 156.207 67.4246 156.384C67.5277 156.561 67.4703 156.787 67.297 156.893C67.2958 156.893 67.294 156.895 67.2928 156.895ZM68.3861 155.734C68.2617 155.57 68.2934 155.336 68.4563 155.211C68.9463 154.835 69.4191 154.425 69.8603 153.993C70.0067 153.851 70.2422 153.853 70.385 154C70.5278 154.148 70.5247 154.384 70.3777 154.528C69.9146 154.982 69.4197 155.411 68.906 155.805C68.895 155.814 68.884 155.821 68.8724 155.828C68.7126 155.925 68.5021 155.888 68.3855 155.734H68.3861ZM63.7356 158.452C63.1151 158.637 62.4781 158.784 61.8423 158.891C61.6403 158.925 61.4487 158.788 61.4152 158.585C61.381 158.382 61.5171 158.19 61.7197 158.155C62.3261 158.053 62.9332 157.911 63.5257 157.735C63.7222 157.677 63.9284 157.79 63.9864 157.987C64.0352 158.153 63.9638 158.326 63.8228 158.412C63.796 158.428 63.7673 158.442 63.7356 158.451V158.452ZM71.1636 153.138C71.0037 153.01 70.9781 152.774 71.1068 152.614C71.4924 152.13 71.8524 151.618 72.177 151.091C72.285 150.916 72.5138 150.862 72.6877 150.97C72.8622 151.079 72.9159 151.309 72.8079 151.484C72.4681 152.036 72.0904 152.574 71.6858 153.081C71.6578 153.116 71.6248 153.145 71.5888 153.166C71.4595 153.245 71.2892 153.239 71.1642 153.138L71.1636 153.138ZM59.9112 159.096C59.2662 159.125 58.6128 159.115 57.9691 159.065C57.7647 159.049 57.6115 158.87 57.6274 158.664C57.6432 158.458 57.8214 158.304 58.0258 158.32C58.6402 158.368 59.2632 158.378 59.8782 158.35C60.0826 158.341 60.2565 158.501 60.2651 158.707C60.2712 158.848 60.1985 158.975 60.0863 159.043C60.035 159.074 59.9752 159.093 59.9112 159.096ZM56.0446 158.799C55.4107 158.672 54.778 158.504 54.166 158.301C53.9714 158.237 53.8658 158.026 53.9299 157.83C53.9939 157.635 54.2032 157.528 54.3985 157.592C54.9824 157.786 55.5858 157.945 56.1911 158.067C56.3918 158.107 56.5224 158.304 56.4821 158.506C56.4608 158.613 56.3961 158.7 56.3101 158.753C56.2338 158.799 56.1398 158.818 56.0453 158.799H56.0446ZM52.3593 157.579C51.7736 157.302 51.1994 156.986 50.6534 156.641C50.4795 156.531 50.4276 156.301 50.5362 156.126C50.6448 155.952 50.8742 155.899 51.0475 156.008C51.568 156.337 52.1159 156.638 52.6742 156.902C52.8597 156.99 52.9396 157.212 52.8523 157.399C52.82 157.468 52.7694 157.523 52.709 157.56C52.6065 157.622 52.4759 157.634 52.3587 157.579H52.3593Z" fill="#91B3FA"/>
<path d="M73.5916 149.907C73.6526 149.869 73.7038 149.814 73.7362 149.743C73.8692 149.453 73.9936 149.158 74.1077 148.865C74.1822 148.673 74.0882 148.456 73.8972 148.381C73.7063 148.307 73.4915 148.401 73.4164 148.593C73.3085 148.872 73.1889 149.154 73.0626 149.431C72.9765 149.618 73.0583 149.84 73.2444 149.926C73.3603 149.98 73.4903 149.969 73.5922 149.906L73.5916 149.907Z" fill="#91B3FA"/>
</g>
<path d="M71.2267 143.21C71.2377 143.131 71.1974 143.053 71.126 143.016L69.0893 141.969C68.9935 140.899 68.7269 139.837 68.2833 138.825L69.561 136.918C69.6055 136.852 69.6037 136.764 69.5555 136.699L67.9056 134.494C67.8574 134.43 67.7739 134.404 67.6976 134.428L65.5236 135.137C64.6798 134.428 63.7389 133.877 62.7432 133.488L62.3069 131.229C62.2917 131.15 62.2282 131.089 62.1489 131.078L59.4331 130.693C59.3538 130.682 59.2757 130.723 59.2397 130.795L58.2 132.844C57.1365 132.941 56.0803 133.209 55.0748 133.655L53.1803 132.37C53.1138 132.325 53.0265 132.327 52.9625 132.375L50.7714 134.035C50.7074 134.084 50.6811 134.168 50.7055 134.245L51.4096 136.432C50.7055 137.281 50.1576 138.228 49.7714 139.23L47.5266 139.669C47.4479 139.684 47.3875 139.748 47.3765 139.828L46.994 142.561C46.983 142.641 47.0233 142.719 47.0947 142.755L49.1313 143.802C49.2271 144.872 49.4938 145.934 49.9373 146.946L48.6597 148.853C48.6151 148.92 48.617 149.007 48.6652 149.072L50.315 151.277C50.3632 151.341 50.4468 151.367 50.5231 151.343L52.6971 150.634C53.5409 151.343 54.4823 151.894 55.4775 152.283L55.9138 154.542C55.929 154.621 55.9925 154.682 56.0718 154.693L58.7876 155.078C58.8669 155.089 58.9444 155.048 58.981 154.976L60.0207 152.927C61.0842 152.831 62.1403 152.562 63.1459 152.116L65.0404 153.401C65.1069 153.446 65.1941 153.444 65.2582 153.396L67.4493 151.736C67.5133 151.687 67.5396 151.603 67.5152 151.526L66.811 149.339C67.5152 148.49 68.0631 147.542 68.4493 146.541L70.694 146.102C70.7727 146.087 70.8332 146.023 70.8441 145.943L71.2267 143.21Z" fill="#91B3FA"/>
<path d="M60.1986 145.489C59.5073 145.782 58.7446 145.786 58.0503 145.501C57.3565 145.216 56.8141 144.676 56.5231 143.98C55.9233 142.545 56.5951 140.889 58.0222 140.283C59.4487 139.679 61.0974 140.356 61.6972 141.791C61.9876 142.487 61.9919 143.254 61.7087 143.952C61.4787 144.52 61.0809 144.987 60.569 145.299C60.4512 145.37 60.3274 145.434 60.1986 145.489ZM57.2071 143.691C57.4206 144.203 57.8196 144.6 58.3303 144.81C58.841 145.019 59.4018 145.016 59.91 144.801C60.4183 144.586 60.813 144.185 61.0211 143.671C61.2298 143.158 61.2261 142.593 61.0126 142.081C60.5714 141.025 59.3591 140.528 58.3096 140.971C58.215 141.011 58.1247 141.058 58.0393 141.11C57.1784 141.634 56.805 142.732 57.2064 143.692L57.2071 143.691Z" fill="#BDD0FB"/>
<path d="M62.6686 148.892C62.8693 148.77 63.0658 148.636 63.2574 148.491C63.6375 148.203 63.989 147.876 64.3026 147.518C64.3166 147.502 64.3306 147.486 64.3447 147.47C64.4527 147.344 64.463 147.167 64.3819 147.033C64.3624 147 64.3367 146.969 64.3068 146.944C64.1519 146.808 63.9182 146.827 63.784 146.982C63.4941 147.319 63.1671 147.626 62.8114 147.895C62.7918 147.91 62.7723 147.925 62.7528 147.939C61.9059 148.568 60.9358 148.961 59.9199 149.102C59.3689 149.179 58.8039 149.181 58.2377 149.107C58.2328 149.107 58.2285 149.105 58.2237 149.105C58.2096 149.103 58.1956 149.101 58.1816 149.099C56.5293 148.864 55.0661 147.996 54.0624 146.655C53.9325 146.481 53.8123 146.303 53.7018 146.12C52.9599 144.886 52.664 143.445 52.8665 141.997C53.0996 140.334 53.9618 138.863 55.2949 137.853C56.6275 136.844 58.2725 136.415 59.9247 136.649C61.577 136.884 63.0402 137.751 64.0439 139.093C64.172 139.263 64.2904 139.44 64.3996 139.621C64.8731 140.408 65.1702 141.291 65.266 142.207C65.2721 142.263 65.2898 142.315 65.3173 142.361C65.3892 142.481 65.5259 142.555 65.6736 142.539C65.8774 142.517 66.025 142.334 66.0037 142.128C65.8963 141.104 65.5638 140.116 65.0341 139.235C64.9115 139.032 64.7791 138.834 64.6363 138.643C63.513 137.142 61.8766 136.172 60.0279 135.909C58.1791 135.647 56.3401 136.124 54.8483 137.255C53.3565 138.385 52.3918 140.032 52.1313 141.892C51.9043 143.512 52.235 145.124 53.0654 146.505C53.1887 146.71 53.3229 146.91 53.4681 147.104C55.6427 150.01 59.6398 150.738 62.6674 148.893L62.6686 148.892Z" fill="#BDD0FB"/>
<path d="M71.6075 131.03L68.0674 162.976H109.138L103.788 131.03H71.6075Z" fill="url(#paint1_linear_1_1991)"/>
<path d="M0.141602 50.0365V125.326C0.141602 131.519 5.0466 136.584 11.1993 136.743C38.528 137.453 134.11 139.172 160.125 138.786C164.596 138.72 168.218 135.119 168.347 130.622C168.849 113.131 169.663 71.0715 166.648 51.545C166.013 47.4327 162.564 44.358 158.431 44.2247C135.533 43.4874 34.2099 41.1469 8.20717 41.7345C3.72257 41.837 0.141602 45.5233 0.141602 50.0365Z" fill="url(#paint2_linear_1_1991)"/>
<path d="M4.83679 49.6704V121.201C4.83679 124.817 7.72158 127.763 11.3148 127.817L156.383 129.621C159.945 129.674 162.866 126.79 162.878 123.205L163.121 52.3141C163.131 49.7508 161.101 47.6504 158.554 47.5878L10.0316 44.5683C7.18343 44.4983 4.83679 46.8031 4.83679 49.6704Z" fill="#91B3FA"/>
<path d="M163.971 132.584H163.967L4.83296 129.856C4.70421 129.853 4.60171 129.746 4.60354 129.617C4.60537 129.487 4.71032 129.385 4.84089 129.386L163.975 132.114C164.103 132.117 164.206 132.224 164.204 132.353C164.202 132.482 164.098 132.584 163.971 132.584Z" fill="#7D97F4"/>
<path d="M117.985 169.514H57.8756C56.2429 169.514 55.0165 168.344 55.3319 167.087L56.1031 164.018C56.335 163.095 57.3442 162.417 58.5431 162.379L116.491 160.56C117.743 160.52 118.852 161.189 119.125 162.148L120.515 167.037C120.877 168.308 119.645 169.513 117.985 169.513V169.514Z" fill="url(#paint3_linear_1_1991)"/>
<g opacity="0.4">
<path d="M18.1323 99.0862H8.93555V120.462H18.1323V99.0862Z" fill="white"/>
<path d="M33.5004 80.2256H24.303V120.462H33.5004V80.2256Z" fill="white"/>
<path d="M48.8667 98.2209H39.6699V120.462H48.8667V98.2209Z" fill="white"/>
<path d="M64.2349 87.2512H55.0381V120.463H64.2349V87.2512Z" fill="white"/>
<path d="M79.6026 89.8362H70.4052V120.463H79.6026V89.8362Z" fill="white"/>
<path d="M94.9694 86.7466H85.7726V120.462H94.9694V86.7466Z" fill="white"/>
<path d="M110.336 65.1077H101.14V120.463H110.336V65.1077Z" fill="white"/>
<path d="M125.705 74.55H116.508V120.463H125.705V74.55Z" fill="white"/>
<path d="M141.072 84.5862H131.875V120.463H141.072V84.5862Z" fill="white"/>
<path d="M156.439 59.4465H147.242V120.463H156.439V59.4465Z" fill="white"/>
</g>
<path d="M152.111 63.6538C152.449 63.6581 152.722 63.6918 152.722 63.7299V83.5474C152.722 83.5854 152.449 83.6186 152.111 83.6223C151.773 83.6254 151.499 83.5977 151.499 83.5597V63.7152C151.499 63.6771 151.773 63.6495 152.111 63.6538Z" fill="url(#paint4_linear_1_1991)"/>
<path d="M147.156 49.0442L156.59 49.1743V69.3522L147.156 69.4314V49.0442Z" fill="url(#paint5_linear_1_1991)"/>
<path d="M136.499 61.7808C136.828 61.7857 137.095 61.814 137.095 61.8435V77.2011C137.095 77.2306 136.828 77.2552 136.499 77.2558C136.17 77.2564 135.902 77.233 135.902 77.2036V61.825C135.902 61.7956 136.17 61.7759 136.499 61.7814V61.7808Z" fill="url(#paint6_linear_1_1991)"/>
<path d="M131.876 57.6067L141.073 57.7823V69.7024L131.876 69.6551V57.6067Z" fill="url(#paint7_linear_1_1991)"/>
<path d="M121.119 85.052C121.45 85.0526 121.717 85.0766 121.717 85.1048V99.819C121.717 99.8473 121.45 99.8743 121.119 99.8792C120.789 99.8841 120.521 99.8651 120.521 99.8375V85.1024C120.521 85.0741 120.789 85.052 121.119 85.0526V85.052Z" fill="url(#paint8_linear_1_1991)"/>
<path d="M116.482 68.0322L125.703 67.9751V85.6155L116.482 85.8678V68.0322Z" fill="url(#paint9_linear_1_1991)"/>
<path d="M105.71 67.1956C106.006 67.1956 106.245 67.2183 106.245 67.2459V81.6857C106.245 81.7133 106.005 81.7403 105.71 81.7465C105.414 81.752 105.174 81.7342 105.174 81.7066V67.2459C105.174 67.2183 105.414 67.1956 105.71 67.1956Z" fill="url(#paint10_linear_1_1991)"/>
<path d="M101.14 62.7169L110.337 62.6389V74.2551L101.14 74.4638V62.7169Z" fill="url(#paint11_linear_1_1991)"/>
<path d="M90.2453 60.3147C90.5492 60.3166 90.795 60.3467 90.795 60.3817V78.8828C90.795 78.9184 90.5492 78.9516 90.2453 78.9577C89.9414 78.9639 89.6943 78.9399 89.6943 78.9043V60.3761C89.6943 60.3405 89.9408 60.3135 90.2453 60.3147Z" fill="url(#paint12_linear_1_1991)"/>
<path d="M85.9756 57.0612L94.9698 57.0403V70.386L85.9756 70.5591V57.0612Z" fill="url(#paint13_linear_1_1991)"/>
<path d="M75.2169 89.386C75.5323 89.386 75.7886 89.4044 75.7886 89.4271V101.523C75.7886 101.547 75.5329 101.57 75.2169 101.575C74.9008 101.581 74.6445 101.566 74.6445 101.543V89.4284C74.6445 89.405 74.9008 89.386 75.2169 89.386Z" fill="url(#paint14_linear_1_1991)"/>
<path d="M69.8984 74.4178L79.5992 74.2815V89.6778L69.8984 89.9965V74.4178Z" fill="url(#paint15_linear_1_1991)"/>
<path d="M55.0272 79.0962L64.2277 79.0557V87.9244L55.0272 88.0717V79.0962Z" fill="url(#paint16_linear_1_1991)"/>
<path d="M39.5117 76.1551L48.7152 75.8567V89.0778L39.5117 89.5413V76.1551Z" fill="url(#paint17_linear_1_1991)"/>
<path d="M28.2297 94.8285C28.5439 94.8205 28.7989 94.8359 28.7989 94.8629V109.058C28.7989 109.085 28.5439 109.12 28.2297 109.134C27.9148 109.149 27.6592 109.138 27.6592 109.111V94.8924C27.6592 94.8654 27.9148 94.8365 28.2297 94.8285Z" fill="url(#paint18_linear_1_1991)"/>
<path d="M24.0479 100.325L33.5973 99.8948V109.668L24.0479 110.223V100.325Z" fill="url(#paint19_linear_1_1991)"/>
<path d="M8.91602 75.249L18.0494 75.0452V84.1116L8.91602 84.4333V75.249Z" fill="url(#paint20_linear_1_1991)"/>
<path d="M13.5115 116.107C13.1845 116.135 12.9191 116.088 12.9191 116.002V71.1631C12.9191 71.0771 13.1845 71.0022 13.5115 70.9949C13.838 70.9881 14.1028 71.052 14.1028 71.1373V115.901C14.1028 115.987 13.838 116.079 13.5115 116.107Z" fill="url(#paint21_linear_1_1991)"/>
<path d="M18.0495 101.315L8.91614 101.935V84.0128L18.0495 83.6223V101.315Z" fill="url(#paint22_linear_1_1991)"/>
<path d="M29.2493 114.961C28.9345 114.989 28.6788 114.963 28.6788 114.903V83.378C28.6788 83.3178 28.9345 83.2577 29.2493 83.2442C29.5635 83.2307 29.8186 83.2687 29.8186 83.3289V114.802C29.8186 114.862 29.5635 114.933 29.2493 114.961Z" fill="url(#paint23_linear_1_1991)"/>
<path d="M33.6162 103.658L24.3029 104.296V93.7477L33.6162 93.2424V103.658Z" fill="url(#paint24_linear_1_1991)"/>
<path d="M44.2944 120.174C43.9911 120.209 43.7452 120.162 43.7452 120.067V70.7565C43.7452 70.6619 43.9911 70.5741 44.2944 70.5606C44.597 70.5471 44.8429 70.6122 44.8429 70.7061V119.938C44.8429 120.032 44.5976 120.137 44.2944 120.174Z" fill="url(#paint25_linear_1_1991)"/>
<path d="M48.7151 106.676L39.2804 107.483V85.9904L48.7151 85.4495V106.676Z" fill="url(#paint26_linear_1_1991)"/>
<path d="M59.1838 108.04C58.8573 108.086 58.5919 108.076 58.5919 108.016V77.0049C58.5919 76.9454 58.8573 76.8711 59.1838 76.8385C59.5102 76.806 59.7744 76.8281 59.7744 76.887V107.849C59.7744 107.909 59.5102 107.994 59.1838 108.04Z" fill="url(#paint27_linear_1_1991)"/>
<path d="M64.2277 93.8793L54.594 94.4533V87.669L64.2277 87.1772V93.8793Z" fill="url(#paint28_linear_1_1991)"/>
<path d="M75.1567 83.64C74.8363 83.6529 74.5764 83.605 74.5764 83.5332V46.111C74.5764 46.0391 74.8363 45.9839 75.1567 45.9869C75.4764 45.99 75.7357 46.0508 75.7357 46.122V83.4872C75.7357 83.559 75.4764 83.6272 75.1567 83.64Z" fill="url(#paint29_linear_1_1991)"/>
<path d="M79.6028 74.3665L70.2864 74.6318V55.7407L79.6028 55.6965V74.3665Z" fill="url(#paint30_linear_1_1991)"/>
<path d="M90.2796 101.816C89.9782 101.836 89.7335 101.772 89.7335 101.674V50.2563C89.7335 50.1581 89.9782 50.0795 90.2796 50.0813C90.581 50.0832 90.8251 50.1642 90.8251 50.2625V101.603C90.8251 101.701 90.581 101.797 90.2796 101.817V101.816Z" fill="url(#paint31_linear_1_1991)"/>
<path d="M94.9701 86.9574L85.7733 87.3448V64.1732L94.9701 64.0522V86.9574Z" fill="url(#paint32_linear_1_1991)"/>
<path d="M105.649 96.8031C105.357 96.8283 105.12 96.7853 105.12 96.7067V55.7628C105.12 55.6842 105.357 55.6142 105.649 55.6056C105.94 55.597 106.176 55.6535 106.176 55.7321V96.6152C106.176 96.6938 105.94 96.7773 105.649 96.8025V96.8031Z" fill="url(#paint33_linear_1_1991)"/>
<path d="M110.337 87.6529L101.14 88.1103V73.4728L110.337 73.1799V87.6529Z" fill="url(#paint34_linear_1_1991)"/>
<path d="M121.119 67.1954C120.788 67.2022 120.521 67.1635 120.521 67.1082V38.2514C120.521 38.1961 120.788 38.155 121.119 38.1587C121.449 38.163 121.716 38.2109 121.716 38.2661V67.0825C121.716 67.1377 121.449 67.1881 121.119 67.1948V67.1954Z" fill="url(#paint35_linear_1_1991)"/>
<path d="M125.705 68.4341L116.483 68.6232V46.4506L125.705 46.4997V68.4341Z" fill="url(#paint36_linear_1_1991)"/>
<path d="M136.498 96.3546C136.169 96.3589 135.901 96.2895 135.901 96.1999V49.1838C135.901 49.0936 136.169 49.0316 136.498 49.0451C136.827 49.0586 137.094 49.1427 137.094 49.2323V96.1833C137.094 96.2729 136.827 96.3497 136.498 96.354V96.3546Z" fill="url(#paint37_linear_1_1991)"/>
<path d="M141.072 85.6876L131.875 85.6771V68.178L141.072 68.3738V85.6876Z" fill="url(#paint38_linear_1_1991)"/>
<path d="M152.111 61.681C151.773 61.6883 151.499 61.6484 151.499 61.5907V31.6109C151.499 31.5538 151.773 31.5096 152.111 31.5133C152.449 31.517 152.722 31.5661 152.722 31.6232V61.5631C152.722 61.6202 152.449 61.673 152.111 61.681Z" fill="url(#paint39_linear_1_1991)"/>
<path d="M156.803 50.0552L147.369 50.1615V38.9622L156.803 38.9708V50.0552Z" fill="url(#paint40_linear_1_1991)"/>
<path d="M147.79 106.526L111.808 106.292C110.207 106.281 108.905 104.954 108.915 103.342C108.925 101.731 110.245 100.421 111.846 100.431L147.827 100.666C149.429 100.676 150.731 102.003 150.721 103.615C150.71 105.227 149.391 106.537 147.79 106.526Z" fill="url(#paint41_linear_1_1991)"/>
<path d="M144.427 74.2042L115.976 74.0188C109.207 73.9746 103.633 79.5113 103.589 86.3226L103.516 97.6619C103.499 100.229 105.573 102.343 108.125 102.36L151.913 102.645C154.465 102.662 156.565 100.575 156.582 98.0076L156.655 86.6683C156.699 79.857 151.197 74.2478 144.427 74.2036V74.2042Z" fill="url(#paint42_linear_1_1991)"/>
<path d="M150.013 104.197L110.004 103.936C106.414 103.913 103.456 106.85 103.433 110.463L103.399 115.745C103.304 130.429 115.081 155.806 129.675 155.901C144.267 155.996 156.37 130.775 156.465 116.091L156.499 110.809C156.522 107.196 153.603 104.22 150.013 104.197Z" fill="url(#paint43_linear_1_1991)"/>
<path d="M149.28 90.4794C149.268 92.4607 147.762 94.1141 145.8 94.2872C135.182 95.2235 124.174 95.1817 112.848 94.0619C110.883 93.8679 109.388 92.1942 109.4 90.2068L109.414 88.1236C109.427 86.1485 110.925 84.5 112.88 84.3177C123.899 83.2887 134.918 83.1677 145.934 84.4798C147.862 84.7094 149.307 86.3714 149.295 88.3244L149.28 90.4788V90.4794Z" fill="url(#paint44_linear_1_1991)"/>
<path d="M121.007 89.2525C120.998 90.5989 119.907 91.6832 118.569 91.674C117.231 91.6654 116.153 90.567 116.162 89.2206C116.171 87.8742 117.262 86.7899 118.6 86.7991C119.938 86.8077 121.016 87.9061 121.007 89.2525H121.007Z" fill="#91B3FA"/>
<path d="M142.53 89.3932C142.522 90.7396 141.43 91.8238 140.092 91.8146C138.754 91.806 137.676 90.7076 137.686 89.3612C137.694 88.0148 138.786 86.9305 140.124 86.9398C141.462 86.9484 142.539 88.0467 142.531 89.3932H142.53Z" fill="#91B3FA"/>
<path d="M118.637 92.6277C118.632 92.5467 118.692 92.4797 118.77 92.4748C118.85 92.4699 118.917 92.5307 118.922 92.6111C118.927 92.6891 118.866 92.7566 118.786 92.7615C118.786 92.7615 118.781 92.7615 118.778 92.7615C118.703 92.7615 118.639 92.7032 118.637 92.6277ZM117.909 92.7038C117.831 92.6879 117.783 92.6117 117.796 92.5338C117.812 92.4558 117.887 92.4042 117.965 92.4202C118.042 92.4361 118.091 92.5098 118.078 92.5902C118.064 92.6578 118.005 92.7069 117.938 92.7063C117.927 92.7063 117.919 92.7038 117.909 92.7038ZM119.471 92.508C119.448 92.4325 119.488 92.352 119.566 92.3287C119.641 92.3029 119.721 92.3453 119.744 92.4208C119.77 92.4963 119.728 92.5767 119.653 92.6025C119.637 92.6074 119.622 92.6074 119.609 92.6074C119.546 92.6074 119.493 92.5706 119.472 92.5074L119.471 92.508ZM117.075 92.4245C117.003 92.3901 116.975 92.3041 117.009 92.2342C117.041 92.1611 117.126 92.1304 117.198 92.1648C117.27 92.1992 117.298 92.2851 117.264 92.3551C117.24 92.4097 117.188 92.438 117.134 92.4374C117.116 92.4374 117.095 92.4343 117.075 92.4239V92.4245ZM120.252 92.1844C120.209 92.1163 120.23 92.0279 120.298 91.9843C120.362 91.9431 120.451 91.9646 120.494 92.0297C120.535 92.0978 120.516 92.1863 120.449 92.2298C120.425 92.2452 120.397 92.2501 120.371 92.2501C120.324 92.2501 120.278 92.2262 120.252 92.1844ZM116.335 91.945C116.275 91.8952 116.266 91.8038 116.318 91.7418C116.367 91.6822 116.458 91.6748 116.52 91.7246C116.579 91.7743 116.586 91.8658 116.536 91.9278C116.507 91.9616 116.466 91.9794 116.424 91.9794C116.393 91.9794 116.36 91.9689 116.334 91.945H116.335ZM120.926 91.6754C120.869 91.6202 120.867 91.5293 120.922 91.4698C120.977 91.4127 121.068 91.4108 121.124 91.4661C121.181 91.5213 121.183 91.6122 121.128 91.6693C121.099 91.7 121.063 91.7129 121.024 91.7129C120.988 91.7129 120.955 91.6994 120.926 91.6761V91.6754ZM115.735 91.2979C115.689 91.2322 115.706 91.1438 115.768 91.0977C115.833 91.051 115.923 91.0645 115.97 91.1302C116.016 91.1959 116 91.2843 115.935 91.3304C115.912 91.3488 115.881 91.3586 115.852 91.3586C115.808 91.3586 115.764 91.3372 115.736 91.2979H115.735ZM121.456 91.0124C121.386 90.9731 121.364 90.8865 121.4 90.8165C121.44 90.7465 121.528 90.7238 121.595 90.7606C121.664 90.7999 121.69 90.889 121.65 90.9565C121.624 91.0056 121.575 91.0314 121.523 91.0314C121.502 91.0314 121.476 91.0259 121.456 91.0124ZM115.316 90.5218C115.288 90.4487 115.324 90.3628 115.397 90.3352C115.47 90.3069 115.553 90.3438 115.584 90.4168C115.612 90.4899 115.575 90.5758 115.502 90.6041C115.484 90.609 115.466 90.6145 115.448 90.6139C115.394 90.6139 115.34 90.5795 115.317 90.5218H115.316ZM121.805 90.2388C121.727 90.2204 121.681 90.1418 121.702 90.0638C121.724 89.9883 121.801 89.9422 121.876 89.9606C121.954 89.9821 122 90.0601 121.979 90.1356V90.1381C121.963 90.2007 121.903 90.2443 121.838 90.2443C121.828 90.2443 121.815 90.2418 121.805 90.2388ZM115.101 89.6635C115.091 89.5855 115.149 89.5125 115.226 89.5026C115.304 89.4928 115.376 89.5505 115.386 89.6285C115.396 89.7065 115.338 89.7795 115.261 89.7893C115.256 89.7893 115.248 89.7893 115.242 89.7893C115.172 89.7893 115.111 89.7366 115.101 89.6635ZM121.808 89.2595C121.808 89.2595 121.808 89.257 121.808 89.2546C121.808 89.2546 121.808 89.2491 121.808 89.2441C121.808 89.1662 121.871 89.1011 121.952 89.1017C122.029 89.1017 122.094 89.168 122.093 89.246C122.093 89.246 122.093 89.2509 122.093 89.254C122.093 89.254 122.093 89.2589 122.093 89.262C122.093 89.3399 122.03 89.405 121.95 89.4044C121.872 89.4044 121.808 89.3381 121.808 89.2601V89.2595ZM115.23 88.9409C115.15 88.9298 115.095 88.8592 115.104 88.7812C115.115 88.7008 115.188 88.6462 115.265 88.6572C115.343 88.6658 115.399 88.7389 115.388 88.8168C115.38 88.8899 115.318 88.9439 115.245 88.9433C115.24 88.9433 115.235 88.9409 115.23 88.9409ZM121.71 88.4386C121.69 88.3631 121.737 88.2827 121.812 88.2649C121.889 88.2446 121.967 88.2919 121.988 88.3674C122.005 88.4454 121.961 88.5234 121.883 88.5436C121.87 88.5461 121.86 88.5461 121.847 88.5461C121.785 88.5461 121.725 88.5037 121.71 88.4386ZM115.406 88.1108C115.333 88.0813 115.298 87.9978 115.327 87.9229C115.355 87.8505 115.439 87.8142 115.513 87.8431C115.585 87.8719 115.621 87.9561 115.592 88.031C115.568 88.0856 115.514 88.1218 115.457 88.1212C115.441 88.1212 115.423 88.1157 115.405 88.1102L115.406 88.1108ZM121.414 87.6835C121.376 87.6129 121.403 87.5244 121.47 87.4882C121.54 87.4495 121.625 87.4735 121.664 87.5441C121.702 87.6147 121.678 87.7006 121.608 87.7393C121.585 87.7522 121.562 87.7571 121.538 87.7571C121.489 87.7571 121.44 87.7301 121.414 87.6835ZM115.786 87.3525C115.721 87.3028 115.707 87.2138 115.754 87.1493C115.801 87.0873 115.892 87.0719 115.953 87.1192C116.018 87.1665 116.033 87.2549 115.986 87.32C115.957 87.3587 115.913 87.3795 115.869 87.3789C115.84 87.3789 115.809 87.371 115.786 87.3525ZM120.94 87.0241C120.886 86.9663 120.889 86.8749 120.947 86.8208C121.007 86.7668 121.097 86.7699 121.151 86.8276C121.205 86.8853 121.202 86.9768 121.144 87.0308C121.116 87.0566 121.08 87.0695 121.046 87.0695C121.007 87.0695 120.968 87.056 120.94 87.0247V87.0241ZM116.34 86.7103C116.291 86.6502 116.299 86.5593 116.359 86.5071C116.421 86.458 116.509 86.4666 116.561 86.5267C116.61 86.5894 116.601 86.6809 116.542 86.73C116.513 86.7533 116.482 86.7631 116.448 86.7631C116.409 86.7631 116.368 86.7447 116.34 86.7103ZM120.32 86.5046C120.252 86.4623 120.235 86.3714 120.277 86.3063C120.319 86.2388 120.409 86.2185 120.474 86.2609C120.541 86.3057 120.561 86.3941 120.519 86.4617C120.49 86.5028 120.443 86.5261 120.397 86.5261C120.371 86.5261 120.345 86.5206 120.32 86.5046ZM117.034 86.2277C117.001 86.1547 117.033 86.0687 117.102 86.0356C117.175 86.0024 117.26 86.0344 117.293 86.1074C117.327 86.178 117.295 86.264 117.222 86.2971C117.204 86.3076 117.183 86.3125 117.162 86.3125C117.108 86.3125 117.056 86.2806 117.033 86.2284L117.034 86.2277ZM119.592 86.1559C119.517 86.1295 119.476 86.0485 119.5 85.973C119.524 85.8974 119.604 85.8563 119.682 85.8827H119.68C119.757 85.9066 119.798 85.9877 119.772 86.0632C119.753 86.1258 119.696 86.1645 119.636 86.1639C119.621 86.1639 119.605 86.1608 119.592 86.1559ZM117.826 85.9337C117.811 85.8557 117.863 85.7802 117.941 85.7679C118.018 85.7525 118.093 85.8029 118.108 85.8809C118.121 85.9594 118.071 86.0343 117.994 86.0497C117.983 86.0522 117.975 86.0522 117.965 86.0522C117.9 86.0522 117.839 86.0043 117.826 85.9343V85.9337ZM118.798 86.0024C118.721 85.9969 118.659 85.9288 118.665 85.8477C118.67 85.7697 118.738 85.7102 118.819 85.7132C118.896 85.7188 118.955 85.7869 118.952 85.868C118.947 85.9435 118.881 86.003 118.809 86.0024C118.803 86.0024 118.801 86.0024 118.798 86.0024Z" fill="#91B3FA"/>
<path d="M140.148 92.7672C140.143 92.6862 140.204 92.6193 140.281 92.6144C140.362 92.6094 140.428 92.6702 140.433 92.7506C140.438 92.8286 140.378 92.8962 140.298 92.9011C140.298 92.9011 140.292 92.9011 140.29 92.9011C140.215 92.9011 140.15 92.8427 140.148 92.7672ZM139.42 92.8434C139.343 92.8274 139.294 92.7513 139.307 92.6733C139.323 92.5953 139.399 92.5437 139.476 92.5597C139.554 92.5757 139.603 92.6493 139.589 92.7298C139.576 92.7973 139.516 92.8464 139.449 92.8458C139.439 92.8458 139.431 92.8434 139.42 92.8434ZM140.983 92.6475C140.96 92.572 140.999 92.4916 141.078 92.4682C141.153 92.4424 141.232 92.4848 141.256 92.5603C141.281 92.6358 141.239 92.7163 141.164 92.7421C141.148 92.747 141.133 92.747 141.12 92.747C141.058 92.747 141.004 92.7101 140.984 92.6469L140.983 92.6475ZM138.586 92.564C138.514 92.5296 138.486 92.4437 138.52 92.3737C138.552 92.3006 138.638 92.2699 138.71 92.3043C138.782 92.3387 138.81 92.4246 138.775 92.4946C138.752 92.5493 138.7 92.5775 138.645 92.5769C138.627 92.5769 138.606 92.5738 138.586 92.5634V92.564ZM141.764 92.3239C141.721 92.2558 141.742 92.1674 141.809 92.1238C141.874 92.0827 141.962 92.1041 142.006 92.1692C142.046 92.2374 142.028 92.3258 141.96 92.3694C141.937 92.3847 141.909 92.3896 141.882 92.3896C141.836 92.3896 141.79 92.3657 141.764 92.3239ZM137.846 92.0845C137.787 92.0348 137.777 91.9433 137.829 91.8813C137.878 91.8217 137.969 91.8144 138.031 91.8641C138.09 91.9138 138.098 92.0053 138.047 92.0673C138.019 92.1011 137.977 92.1189 137.936 92.1189C137.905 92.1189 137.871 92.1084 137.846 92.0845H137.846ZM142.438 91.815C142.381 91.7597 142.379 91.6688 142.434 91.6093C142.489 91.5522 142.579 91.5503 142.636 91.6056C142.693 91.6609 142.694 91.7517 142.639 91.8088C142.611 91.8395 142.574 91.8524 142.536 91.8524C142.5 91.8524 142.466 91.8389 142.438 91.8156V91.815ZM137.247 91.4374C137.201 91.3717 137.217 91.2833 137.279 91.2372C137.345 91.1906 137.435 91.2041 137.481 91.2698C137.528 91.3355 137.511 91.4239 137.446 91.4699C137.423 91.4883 137.392 91.4982 137.364 91.4982C137.32 91.4982 137.276 91.4767 137.248 91.4374H137.247ZM142.967 91.1519C142.898 91.1126 142.875 91.026 142.912 90.956C142.951 90.886 143.039 90.8633 143.106 90.9002C143.176 90.9395 143.201 91.0285 143.162 91.096C143.136 91.1451 143.086 91.1709 143.034 91.1709C143.013 91.1709 142.988 91.1654 142.967 91.1519ZM136.827 90.6613C136.799 90.5883 136.836 90.5023 136.909 90.4741C136.982 90.4458 137.065 90.4827 137.094 90.5557C137.123 90.6288 137.086 90.7148 137.013 90.743C136.995 90.7479 136.977 90.7534 136.959 90.7528C136.905 90.7528 136.85 90.7184 136.828 90.6607L136.827 90.6613ZM143.316 90.3783C143.239 90.3599 143.192 90.2813 143.214 90.2033C143.235 90.1278 143.312 90.0818 143.388 90.1002C143.465 90.1217 143.511 90.2003 143.49 90.2752V90.2776C143.474 90.3402 143.414 90.3838 143.35 90.3838C143.339 90.3838 143.327 90.3814 143.316 90.3783ZM136.612 89.803C136.603 89.725 136.66 89.652 136.737 89.6422C136.815 89.6323 136.888 89.69 136.897 89.768C136.907 89.846 136.85 89.9191 136.772 89.9289C136.767 89.9289 136.759 89.9289 136.754 89.9289C136.684 89.9289 136.622 89.8761 136.612 89.803ZM143.32 89.399C143.32 89.399 143.32 89.3966 143.32 89.3941C143.32 89.3941 143.32 89.3886 143.32 89.3837C143.32 89.3057 143.383 89.2406 143.463 89.2412C143.541 89.2412 143.605 89.3075 143.605 89.3855C143.605 89.3855 143.605 89.391 143.605 89.3935C143.605 89.3935 143.605 89.399 143.605 89.4015C143.605 89.4795 143.542 89.5445 143.461 89.5439C143.384 89.5439 143.319 89.4776 143.32 89.3996V89.399ZM136.741 89.0804C136.661 89.0693 136.607 88.9987 136.615 88.9207C136.626 88.8403 136.699 88.7857 136.777 88.7967C136.854 88.8053 136.911 88.8784 136.9 88.9564C136.892 89.0294 136.829 89.0834 136.756 89.0828C136.751 89.0828 136.746 89.0804 136.741 89.0804ZM143.222 88.5782C143.201 88.5026 143.248 88.4222 143.323 88.4044C143.401 88.3842 143.478 88.4314 143.499 88.5069C143.517 88.5849 143.472 88.6629 143.394 88.6831C143.381 88.6856 143.371 88.6856 143.358 88.6856C143.296 88.6856 143.237 88.6432 143.222 88.5782ZM136.917 88.2503C136.845 88.2208 136.81 88.1373 136.838 88.0624C136.867 87.99 136.95 87.9538 137.025 87.9826C137.097 88.0115 137.133 88.0956 137.104 88.1705C137.08 88.2251 137.025 88.2614 136.968 88.2607C136.953 88.2607 136.935 88.2552 136.916 88.2497L136.917 88.2503ZM142.926 87.823C142.887 87.7524 142.914 87.664 142.981 87.6277C143.051 87.5891 143.137 87.613 143.175 87.6836C143.214 87.7542 143.19 87.8402 143.12 87.8789C143.096 87.8917 143.073 87.8967 143.049 87.8967C143 87.8967 142.951 87.8696 142.926 87.823ZM137.298 87.4921C137.233 87.4423 137.218 87.3533 137.265 87.2888C137.312 87.2268 137.403 87.2115 137.465 87.2588C137.529 87.306 137.544 87.3944 137.497 87.4595C137.468 87.4982 137.425 87.5191 137.381 87.5185C137.352 87.5185 137.321 87.5105 137.298 87.4921ZM142.452 87.1636C142.398 87.1059 142.401 87.0144 142.458 86.9604C142.518 86.9063 142.608 86.9094 142.663 86.9671C142.716 87.0248 142.713 87.1163 142.656 87.1703C142.627 87.1961 142.591 87.209 142.557 87.209C142.518 87.209 142.48 87.1955 142.452 87.1642V87.1636ZM137.851 86.8492C137.802 86.7891 137.811 86.6982 137.871 86.646C137.933 86.5969 138.021 86.6055 138.073 86.6657C138.121 86.7283 138.113 86.8198 138.053 86.8689C138.024 86.8922 137.993 86.902 137.96 86.902C137.921 86.902 137.88 86.8836 137.851 86.8492ZM141.831 86.6436C141.764 86.6012 141.746 86.5103 141.788 86.4453C141.83 86.3777 141.921 86.3575 141.985 86.3998C142.053 86.4446 142.073 86.5331 142.031 86.6006C142.002 86.6417 141.955 86.6651 141.909 86.6651C141.883 86.6651 141.857 86.6595 141.831 86.6436ZM138.545 86.3667C138.512 86.2936 138.544 86.2076 138.614 86.1745C138.686 86.1413 138.772 86.1733 138.805 86.2463C138.838 86.3169 138.807 86.4029 138.733 86.436C138.715 86.4465 138.694 86.4514 138.674 86.4514C138.619 86.4514 138.567 86.4195 138.545 86.3673L138.545 86.3667ZM141.104 86.2948C141.029 86.2684 140.988 86.1874 141.012 86.1119C141.035 86.0364 141.116 85.9952 141.193 86.0216H141.191C141.268 86.0456 141.309 86.1266 141.283 86.2021C141.265 86.2648 141.207 86.3034 141.148 86.3028C141.132 86.3028 141.117 86.2997 141.104 86.2948ZM139.337 86.0726C139.322 85.9946 139.375 85.9191 139.452 85.9068C139.53 85.8915 139.605 85.9418 139.62 86.0198C139.633 86.0984 139.583 86.1733 139.505 86.1886C139.495 86.1911 139.487 86.1911 139.476 86.1911C139.412 86.1911 139.35 86.1432 139.337 86.0726ZM140.31 86.1413C140.232 86.1358 140.171 86.0677 140.176 85.9866C140.182 85.9087 140.25 85.8491 140.33 85.8522C140.408 85.8577 140.467 85.9258 140.464 86.0069C140.458 86.0824 140.393 86.142 140.32 86.1413C140.315 86.1413 140.312 86.1413 140.31 86.1413Z" fill="#91B3FA"/>
<path d="M107.382 68.2823C107.377 69.0295 106.771 69.6312 106.029 69.6263C105.286 69.6214 104.689 69.0117 104.693 68.2651C104.698 67.5179 105.304 66.9163 106.046 66.9212C106.789 66.9261 107.387 67.5358 107.382 68.2823Z" fill="url(#paint45_linear_1_1991)"/>
<path d="M105.966 79.4509C105.966 79.4509 109.174 79.885 110.957 75.6793L110.115 73.9037C109.828 73.2996 109.106 73.0473 108.509 73.3426L106.66 74.258C106.254 74.4588 105.996 74.8738 105.993 75.3287L105.966 79.4503L105.966 79.4509Z" fill="url(#paint46_linear_1_1991)"/>
<path d="M106.301 68.9007C106.266 68.8184 106.143 68.8553 106.159 68.943L107.226 74.8874C107.251 75.0225 107.341 75.1367 107.466 75.1907C107.592 75.2448 107.736 75.2319 107.85 75.1564L108.193 74.9292C108.479 74.7401 108.59 74.3736 108.457 74.0567L106.3 68.9007H106.301Z" fill="url(#paint47_linear_1_1991)"/>
<path d="M153.088 68.5815C153.083 69.3287 153.681 69.9384 154.424 69.9427C155.166 69.9476 155.772 69.3459 155.776 68.5987C155.781 67.8515 155.183 67.2419 154.441 67.2376C153.698 67.2327 153.092 67.8344 153.088 68.5815Z" fill="url(#paint48_linear_1_1991)"/>
<path d="M154.36 79.7668C154.36 79.7668 151.147 80.1592 149.418 75.9308L150.283 74.1663C150.577 73.5658 151.302 73.3227 151.895 73.626L153.732 74.5654C154.135 74.7716 154.388 75.1897 154.385 75.6447L154.358 79.7662L154.36 79.7668Z" fill="url(#paint49_linear_1_1991)"/>
<path d="M154.303 69.2581L153.163 75.162C153.136 75.3026 153.041 75.4198 152.909 75.4751C152.777 75.5297 152.627 75.5144 152.509 75.4346L152.191 75.2179C151.908 75.0251 151.801 74.6573 151.938 74.3423L154.162 69.2145C154.197 69.1323 154.32 69.1709 154.303 69.2587V69.2581Z" fill="url(#paint50_linear_1_1991)"/>
<path d="M115.131 80.9205C114.402 80.9156 113.784 80.3507 113.723 79.6054C113.658 78.817 114.241 78.1251 115.025 78.06C125.379 77.2036 134.837 77.2349 143.939 78.157C144.721 78.2362 145.291 78.9386 145.213 79.7257C145.134 80.5128 144.438 81.0875 143.654 81.0077C134.726 80.1039 125.438 80.0732 115.258 80.9156C115.216 80.9193 115.173 80.9205 115.131 80.9205Z" fill="#7D97F4"/>
<path d="M129.512 95.7295C123.759 95.692 117.961 95.3673 112.158 94.7557C110.031 94.5316 108.437 92.6278 108.452 90.3272L108.467 88.0058C108.482 85.7231 110.085 83.8419 112.196 83.6295C124.649 82.3789 135.912 82.4329 146.63 83.7947C148.704 84.0581 150.257 85.957 150.243 88.2121L150.227 90.6127C150.213 92.9077 148.603 94.7895 146.482 94.9909C140.897 95.5207 135.226 95.7669 129.513 95.7295H129.512ZM130.319 83.0027C124.537 82.9652 118.533 83.263 112.223 83.8972C110.249 84.0955 108.749 85.8625 108.735 88.0071L108.72 90.3285C108.705 92.4896 110.195 94.2775 112.186 94.4874C123.735 95.7043 135.266 95.7835 146.456 94.7226C148.439 94.5347 149.945 92.7671 149.959 90.6109L149.974 88.2103C149.988 86.0915 148.535 84.3086 146.596 84.0617C141.328 83.3919 135.927 83.0395 130.318 83.0027H130.319Z" fill="#91B3FA"/>
<path d="M139.094 120.276L120.456 120.154C118.672 120.143 117.23 118.673 117.242 116.877L117.276 111.537C117.287 109.742 118.748 108.291 120.533 108.302L139.17 108.424C140.954 108.436 142.397 109.905 142.385 111.701L142.351 117.041C142.339 118.836 140.879 120.287 139.094 120.276ZM120.531 108.563C118.89 108.553 117.545 109.888 117.534 111.539L117.5 116.879C117.49 118.53 118.816 119.883 120.458 119.894L139.095 120.016C140.737 120.026 142.081 118.691 142.092 117.04L142.126 111.7C142.136 110.048 140.81 108.696 139.168 108.685L120.531 108.563Z" fill="#7D97F4"/>
<path d="M122.279 111.57C122.245 111.57 122.212 111.567 122.178 111.559C122.145 111.554 122.114 111.543 122.083 111.53C122.051 111.516 122.021 111.5 121.992 111.479C121.964 111.461 121.938 111.44 121.915 111.414C121.82 111.317 121.763 111.181 121.765 111.045C121.766 110.907 121.823 110.775 121.92 110.676C122.112 110.485 122.46 110.487 122.652 110.681C122.676 110.707 122.696 110.733 122.717 110.762C122.734 110.791 122.75 110.82 122.762 110.851C122.775 110.885 122.785 110.916 122.79 110.95C122.798 110.984 122.8 111.018 122.8 111.052C122.8 111.086 122.797 111.12 122.789 111.153C122.784 111.187 122.773 111.218 122.76 111.25C122.747 111.284 122.731 111.312 122.713 111.341C122.692 111.369 122.671 111.395 122.648 111.418C122.624 111.444 122.596 111.465 122.567 111.482C122.538 111.503 122.51 111.519 122.479 111.532C122.447 111.544 122.414 111.554 122.38 111.56C122.349 111.567 122.313 111.57 122.279 111.57V111.57Z" fill="url(#paint51_linear_1_1991)"/>
<path d="M133.99 111.125C133.992 110.839 134.224 110.606 134.509 110.608C134.796 110.61 135.028 110.845 135.026 111.132C135.024 111.419 134.789 111.652 134.502 111.65C134.217 111.648 133.989 111.412 133.99 111.125ZM131.544 111.109C131.546 110.823 131.78 110.59 132.065 110.592C132.353 110.594 132.582 110.829 132.58 111.116C132.578 111.403 132.346 111.636 132.059 111.634C131.774 111.632 131.543 111.396 131.544 111.109ZM129.101 111.093C129.103 110.807 129.334 110.574 129.622 110.576C129.907 110.578 130.138 110.813 130.136 111.1C130.134 111.387 129.9 111.62 129.615 111.618C129.328 111.616 129.099 111.38 129.101 111.093ZM126.655 111.077C126.656 110.791 126.891 110.558 127.176 110.56C127.463 110.562 127.692 110.798 127.69 111.084C127.688 111.371 127.456 111.604 127.169 111.602C126.884 111.6 126.653 111.364 126.655 111.077ZM124.211 111.062C124.213 110.775 124.445 110.542 124.732 110.544C125.017 110.546 125.248 110.782 125.246 111.068C125.245 111.355 125.01 111.588 124.725 111.586C124.438 111.584 124.209 111.348 124.211 111.062Z" fill="url(#paint52_linear_1_1991)"/>
<path d="M136.949 111.666C136.811 111.665 136.679 111.61 136.584 111.51C136.559 111.487 136.538 111.46 136.52 111.432C136.503 111.403 136.484 111.374 136.471 111.343C136.459 111.309 136.449 111.277 136.443 111.243C136.436 111.209 136.434 111.176 136.434 111.142C136.434 111.004 136.49 110.871 136.589 110.775C136.612 110.749 136.638 110.729 136.667 110.711C136.695 110.69 136.724 110.675 136.758 110.662C136.789 110.649 136.82 110.639 136.853 110.633C137.022 110.6 137.2 110.657 137.321 110.779C137.416 110.877 137.47 111.01 137.468 111.148C137.468 111.182 137.465 111.215 137.457 111.249C137.452 111.283 137.442 111.314 137.428 111.348C137.415 111.379 137.399 111.408 137.378 111.436C137.36 111.465 137.339 111.491 137.315 111.514C137.289 111.54 137.263 111.561 137.235 111.579C137.206 111.6 137.177 111.615 137.146 111.628C137.113 111.641 137.082 111.651 137.047 111.656C137.014 111.664 136.98 111.666 136.947 111.666H136.949Z" fill="url(#paint53_linear_1_1991)"/>
<path d="M152.535 111.859L150.362 112.255C149.888 112.342 149.578 112.805 149.678 113.28L154.302 135.54C154.397 135.995 154.836 136.291 155.291 136.208L156.425 136.001L152.536 111.859L152.535 111.859Z" fill="url(#paint54_linear_1_1991)"/>
<path d="M161.187 140.441L158.896 140.859C157.972 141.027 157.084 140.421 156.897 139.494L151.56 112.037L157.95 110.872C158.468 110.777 158.962 111.131 159.043 111.655L162.584 138.459C162.732 139.392 162.112 140.273 161.188 140.442L161.187 140.441Z" fill="url(#paint55_linear_1_1991)"/>
<path d="M160.137 131.197L158.475 119.421C158.329 118.607 157.555 118.068 156.747 118.215C155.938 118.362 155.402 119.141 155.549 119.954L157.211 131.73C157.357 132.544 158.131 133.083 158.939 132.936C159.748 132.789 160.284 132.01 160.137 131.197Z" fill="#7D97F4"/>
<path opacity="0.39" d="M157.083 118.153L156.408 118.276L158.601 132.997L159.276 132.874L157.083 118.153Z" fill="white"/>
<path d="M158.555 116.19C160.933 113.798 160.933 109.919 158.555 107.527C156.178 105.134 152.323 105.134 149.946 107.527C147.568 109.919 147.568 113.798 149.946 116.19C152.323 118.583 156.178 118.583 158.555 116.19Z" fill="url(#paint56_linear_1_1991)"/>
<path d="M158.826 111.024C158.369 108.481 155.948 106.793 153.421 107.254C150.894 107.715 149.216 110.15 149.674 112.693C150.132 115.236 152.552 116.924 155.079 116.463C157.607 116.002 159.284 113.567 158.826 111.024Z" fill="#7D97F4"/>
<path d="M157.814 143.388C160.306 144.261 163.03 142.936 163.899 140.428C164.767 137.92 163.45 135.179 160.958 134.305C158.465 133.432 155.741 134.757 154.873 137.265C154.005 139.773 155.321 142.514 157.814 143.388Z" fill="url(#paint57_linear_1_1991)"/>
<path d="M158.186 142.316C160.09 142.984 162.171 141.972 162.834 140.056C163.497 138.14 162.492 136.046 160.588 135.379C158.683 134.711 156.603 135.723 155.94 137.639C155.276 139.555 156.282 141.649 158.186 142.316Z" fill="#7D97F4"/>
<path d="M150.72 129.918L157.842 130.805L156.351 140.888L149.418 139.953L149.58 138.24L154.386 138.334L155.056 132.132L150.72 131.386V129.918Z" fill="#91B3FA"/>
<path d="M148.42 144.903C156.645 136.626 156.645 123.208 148.42 114.932C140.195 106.655 126.86 106.655 118.635 114.932C110.41 123.208 110.41 136.626 118.635 144.903C126.86 153.179 140.195 153.179 148.42 144.903Z" fill="url(#paint58_linear_1_1991)"/>
<path d="M147.924 144.405C155.876 136.404 155.876 123.431 147.924 115.43C139.973 107.428 127.081 107.428 119.129 115.43C111.177 123.431 111.177 136.404 119.129 144.405C127.081 152.406 139.973 152.406 147.924 144.405Z" fill="url(#paint59_linear_1_1991)"/>
<path d="M116.737 121.611C116.707 121.611 116.675 121.604 116.646 121.589C116.546 121.538 116.505 121.414 116.556 121.314C119.809 114.828 126.312 110.799 133.527 110.799C134.678 110.799 135.831 110.903 136.955 111.11C137.065 111.13 137.138 111.236 137.118 111.348C137.098 111.459 136.994 111.535 136.881 111.512C135.783 111.311 134.654 111.209 133.527 111.209C126.466 111.209 120.102 115.152 116.918 121.499C116.882 121.57 116.811 121.611 116.737 121.611H116.737Z" fill="white"/>
<path opacity="0.78" d="M146.156 142.625C152.886 135.853 152.886 124.874 146.156 118.102C139.427 111.33 128.515 111.33 121.785 118.102C115.055 124.874 115.055 135.853 121.785 142.625C128.515 149.397 139.427 149.397 146.156 142.625Z" fill="white"/>
<path d="M142.485 131.775C141.612 130.957 140.409 130.464 138.93 130.297C138.923 130.296 138.918 130.29 138.918 130.283V130.254C138.918 130.248 138.922 130.242 138.928 130.24C140.109 129.943 140.756 129.416 141.506 128.659C142.257 127.899 142.661 127.013 142.661 126.001C142.661 124.604 142.014 123.522 140.778 122.754C139.735 122.105 138.537 121.73 136.807 121.629C136.692 121.623 136.602 121.527 136.602 121.411V117.945C136.602 117.824 136.504 117.726 136.384 117.726H134.801C134.681 117.726 134.583 117.824 134.583 117.945V121.45C134.583 121.57 134.486 121.669 134.366 121.669H132.545C132.425 121.669 132.328 121.57 132.328 121.45V117.945C132.328 117.824 132.23 117.726 132.11 117.726H130.527C130.407 117.726 130.309 117.824 130.309 117.945V121.45C130.309 121.57 130.212 121.669 130.091 121.669H125.481C125.36 121.669 125.263 121.767 125.263 121.888V123.66C125.263 123.781 125.36 123.879 125.481 123.879H128.073C128.193 123.879 128.291 123.977 128.291 124.098V137.761C128.291 137.882 128.193 137.98 128.073 137.98H125.481C125.36 137.98 125.263 138.078 125.263 138.199V140.21C125.263 140.331 125.36 140.429 125.481 140.429H130.091C130.212 140.429 130.309 140.527 130.309 140.648V144.272C130.309 144.393 130.407 144.492 130.527 144.492H132.11C132.23 144.492 132.328 144.393 132.328 144.272V140.648C132.328 140.527 132.425 140.429 132.545 140.429H134.366C134.486 140.429 134.583 140.527 134.583 140.648V144.272C134.583 144.393 134.681 144.492 134.801 144.492H136.384C136.504 144.492 136.602 144.393 136.602 144.272V140.583C136.602 140.465 136.694 140.369 136.811 140.364C138.855 140.283 140.553 139.784 141.786 138.863C143.136 137.855 143.805 136.491 143.805 134.771C143.805 133.593 143.361 132.594 142.485 131.773L142.485 131.775ZM134.76 124.776C137.02 124.776 138.151 125.437 138.151 126.816C138.151 127.558 137.876 128.14 137.325 128.563C136.774 128.987 136.02 129.197 135.062 129.197H132.545C132.425 129.197 132.328 129.099 132.328 128.978V124.995C132.328 124.874 132.425 124.776 132.545 124.776H134.76ZM138.058 136.675C137.449 137.128 136.608 137.384 135.536 137.384H132.545C132.425 137.384 132.328 137.285 132.328 137.165V132.584C132.328 132.463 132.425 132.365 132.545 132.365H135.565C136.638 132.365 137.474 132.553 138.072 132.981C138.671 133.409 138.97 134.065 138.97 134.815C138.97 135.565 138.666 136.221 138.058 136.675L138.058 136.675Z" fill="url(#paint60_linear_1_1991)"/>
<path d="M109.087 111.297L110.991 112.423C111.406 112.669 111.538 113.211 111.282 113.622L99.3151 132.914C99.0692 133.308 98.5567 133.434 98.1582 133.198L97.1643 132.611L109.087 111.297Z" fill="url(#paint61_linear_1_1991)"/>
<path d="M91.1734 135.126L93.1808 136.313C93.9905 136.791 95.032 136.53 95.5244 135.726L109.942 111.803L104.343 108.493C103.889 108.224 103.304 108.385 103.049 108.848L90.5419 132.78C90.0831 133.605 90.3631 134.647 91.1734 135.126V135.126Z" fill="url(#paint62_linear_1_1991)"/>
<path d="M95.3256 126.812L100.921 116.335C101.337 115.622 102.248 115.384 102.956 115.802C103.664 116.221 103.901 117.138 103.485 117.851L97.89 128.328C97.4739 129.041 96.5623 129.279 95.8546 128.86C95.1462 128.441 94.9095 127.524 95.3256 126.812Z" fill="#7D97F4"/>
<path opacity="0.39" d="M102.661 115.627L103.253 115.977L96.1517 129.036L95.5598 128.686L102.661 115.627Z" fill="white"/>
<path d="M109.156 116.595C112.388 115.661 114.255 112.268 113.327 109.016C112.399 105.764 109.027 103.885 105.795 104.818C102.564 105.752 100.696 109.145 101.624 112.397C102.552 115.649 105.924 117.529 109.156 116.595Z" fill="url(#paint63_linear_1_1991)"/>
<path d="M103.469 108.33C104.77 106.102 107.619 105.356 109.834 106.665C112.049 107.975 112.789 110.842 111.488 113.071C110.187 115.299 107.337 116.044 105.122 114.735C102.908 113.425 102.167 110.558 103.468 108.33H103.469Z" fill="#7D97F4"/>
<path d="M107.86 141.613L108.6 139.932C108.898 139.253 108.735 138.518 108.232 138.278L94.9088 131.558L92.8465 136.248C92.6793 136.629 92.78 137.039 93.0692 137.157L106.397 142.452C106.912 142.664 107.562 142.292 107.86 141.613Z" fill="url(#paint64_linear_1_1991)"/>
<path d="M92.739 139.06C90.3253 137.985 89.2343 135.145 90.3027 132.716C91.3705 130.287 94.193 129.189 96.6068 130.264C99.0205 131.339 100.111 134.179 99.0431 136.608C97.9753 139.037 95.1528 140.135 92.739 139.06Z" fill="url(#paint65_linear_1_1991)"/>
<path d="M93.1946 138.022C91.3508 137.201 90.5179 135.031 91.3337 133.176C92.1494 131.321 94.3057 130.483 96.149 131.304C97.9929 132.125 98.8257 134.294 98.0099 136.149C97.1942 138.004 95.0379 138.843 93.1946 138.022Z" fill="#7D97F4"/>
<path d="M110.665 138.331L108.907 137.54C108.84 137.51 108.761 137.54 108.731 137.608L106.279 143.125C106.249 143.193 106.279 143.272 106.346 143.302L108.105 144.093C108.172 144.123 108.251 144.093 108.281 144.026L110.732 138.508C110.762 138.441 110.732 138.362 110.665 138.331Z" fill="url(#paint66_linear_1_1991)"/>
<path d="M112.422 139.26C113.443 139.552 114.288 140.366 114.573 141.475C115.001 143.139 114.007 144.836 112.354 145.266C111.517 145.484 110.672 145.336 109.985 144.92L112.421 139.26H112.422Z" fill="url(#paint67_linear_1_1991)"/>
<path d="M110.529 138.432L110.928 137.534C111 137.372 111.198 137.303 111.37 137.381L113.025 138.126C113.198 138.203 113.279 138.398 113.207 138.56L110.024 145.724C109.952 145.886 109.754 145.955 109.582 145.877L107.926 145.132C107.753 145.055 107.672 144.86 107.744 144.698L108.11 143.875L110.528 138.433L110.529 138.432Z" fill="url(#paint68_linear_1_1991)"/>
<path d="M118.784 150.3L111.978 148.01L115.425 138.424L122.036 140.723L121.54 142.369L116.848 141.32L114.97 147.265L119.073 148.861L118.784 150.3Z" fill="#91B3FA"/>
<path d="M28.3634 17.3072C28.3665 17.2207 28.3689 17.1415 28.3713 17.0727C28.3774 16.8787 28.2993 16.6933 28.156 16.5637C27.3158 15.8043 24.1686 13.2004 19.7206 12.3888C19.4808 12.3452 19.2728 12.4539 19.1562 12.6264C19.5272 12.6718 20.0239 12.767 20.6932 12.9438C22.8916 13.5252 26.0882 15.0712 28.3628 17.3072H28.3634Z" fill="url(#paint69_linear_1_1991)"/>
<path d="M20.6924 12.9447C20.0231 12.7679 19.5258 12.6728 19.1555 12.6273C19.0383 12.8005 19.0127 13.0374 19.1408 13.248C19.2128 13.3665 19.3019 13.4942 19.4105 13.6318C20.1067 14.5085 25.7323 20.3166 25.7323 20.3166C25.7323 20.3166 27.5182 20.5358 28.0643 20.2177C28.2412 20.1146 28.3291 18.2494 28.362 17.3082C26.0874 15.0721 22.8908 13.5262 20.6924 12.9447Z" fill="url(#paint70_linear_1_1991)"/>
<path d="M28.1488 23.3403V19.8812C28.1488 19.5883 27.9639 19.3249 27.6869 19.2353C27.2604 19.0978 26.6045 18.9688 26.0078 19.1936C25.6575 19.3256 25.4226 19.6595 25.3927 20.0347L25.1365 23.2654L28.1488 23.3403Z" fill="url(#paint71_linear_1_1991)"/>
<path d="M14.5151 20.2779C14.4742 20.1416 14.3943 20.028 14.293 19.9426C13.5718 20.0863 12.0684 20.486 8.98959 21.5801C5.42021 22.8485 4.37563 23.9555 4.07422 24.548C5.60386 24.9986 9.07928 25.6875 14.0654 24.707L15.0508 24.2422C15.0508 24.2422 14.9819 21.825 14.5151 20.2785V20.2779Z" fill="url(#paint72_linear_1_1991)"/>
<path d="M8.98953 21.5794C12.0683 20.4854 13.5711 20.0857 14.293 19.942C14.1343 19.8094 13.9202 19.748 13.7042 19.7934C11.9317 20.1649 6.57517 21.4333 3.7758 23.7166C3.49635 23.9444 3.57811 24.3945 3.92223 24.5013C3.97044 24.516 4.02169 24.5314 4.07477 24.5473C4.37558 23.9549 5.42076 22.8479 8.99014 21.5794H8.98953Z" fill="url(#paint73_linear_1_1991)"/>
<path d="M16.8951 26.3299L14.7974 23.8004C14.593 23.5542 14.2611 23.4566 13.9578 23.5567C13.6222 23.6678 13.1756 23.8968 12.7442 24.3689C12.5429 24.5893 12.5032 24.9154 12.6399 25.1818L14.1659 28.1577L16.8951 26.3299Z" fill="url(#paint74_linear_1_1991)"/>
<path d="M24.6764 22.1352C24.6764 22.1352 27.2366 21.6404 28.657 22.1352C28.657 22.1352 30.5296 33.442 30.2074 37.0772L24.6764 38.2088C24.6764 38.2088 24.519 25.4696 24.6764 22.1352Z" fill="url(#paint75_linear_1_1991)"/>
<path d="M47.3774 41.9461C47.3774 41.9461 29.2901 42.9678 21.9488 42.4582C21.2294 42.4084 20.5918 41.9799 20.2696 41.3316C18.6961 38.1623 13.9778 28.6508 13.5635 27.7433C13.5635 27.7433 15.48 26.1323 16.8949 25.9094C16.8949 25.9094 23.5937 33.409 23.8744 37.2346C23.8744 37.2346 39.3881 32.7447 40.9202 32.7876C42.4523 32.83 47.151 34.9396 47.151 34.9396L47.3768 41.9461H47.3774Z" fill="url(#paint76_linear_1_1991)"/>
<path d="M71.4879 27.7607C71.4879 27.7607 70.8241 26.3725 71.4001 25.6394C71.9755 24.907 74.0506 22.639 74.0506 22.639L74.2916 21.0715L75.144 23.6244L73.3141 27.4758C73.3141 27.4758 72.2427 28.6417 71.4873 27.7607H71.4879Z" fill="url(#paint77_linear_1_1991)"/>
<path d="M76.1356 34.2178C75.465 31.8479 74.5431 29.5922 73.3148 27.4746L71.488 27.7595L72.3892 34.1312C73.0787 34.3412 74.9592 34.8194 76.1356 34.2178Z" fill="url(#paint78_linear_1_1991)"/>
<path d="M77.3179 40.4219C77.0842 38.281 76.6986 36.2095 76.1348 34.2178C74.959 34.8189 73.078 34.3406 72.3885 34.1312L72.6472 35.9608L71.9547 33.497C71.1127 30.5002 69.3213 27.8621 66.8532 25.9827L65.1344 24.6737C63.4455 23.3875 60.7444 23.832 59.0213 25.0716C55.1951 27.8234 49.5158 32.4367 47.5767 34.0238C47.16 34.3651 46.5889 34.4413 46.0971 34.2221L45.7737 34.0778C45.4681 33.9415 45.1306 34.1908 45.1679 34.5248L45.991 42.0986L59.1348 41.9457C60.7108 41.9457 65.276 41.7824 66.0027 40.3746L67.2181 37.3729C70.0663 39.8104 73.7198 41.4847 75.6772 41.9728C76.5796 42.1975 77.4247 41.4048 77.3179 40.4219Z" fill="url(#paint79_linear_1_1991)"/>
<path d="M68.0867 20.6106L64.0463 24.5602C63.7773 24.8236 63.7516 25.2534 63.9933 25.5426C65.2398 27.0369 66.3094 27.8204 67.1984 27.8793C67.5754 27.9045 67.933 27.7037 68.1356 27.3826L70.2833 23.9751L68.0874 20.6106H68.0867Z" fill="url(#paint80_linear_1_1991)"/>
<path d="M76.2419 40.0733L79.718 38.7122L83.759 41.9465L76.5226 41.9735L76.2419 40.0733Z" fill="url(#paint81_linear_1_1991)"/>
<path d="M74.8614 19.6976C74.8614 19.6976 74.3099 23.5987 72.8211 24.7984C71.3317 25.9981 68.4299 25.095 67.45 22.1535L69.403 17.1245L74.8621 19.697L74.8614 19.6976Z" fill="url(#paint82_linear_1_1991)"/>
<path d="M69.1829 20.3798C69.2964 20.4167 69.4147 20.3436 69.4324 20.2251C69.4861 19.8647 69.6203 19.1525 69.8919 18.6669C69.8919 18.6669 69.7497 18.1548 71.1774 18.9284C72.6052 19.7014 74.7493 20.8372 76.0117 20.1612C77.2423 19.5019 78.4895 16.1834 75.2362 16.798C75.1123 16.8213 74.9988 16.7218 75.008 16.596C75.0476 16.0508 74.9939 14.7958 73.7315 14.3931C72.5497 14.0161 71.9029 14.5527 71.6363 14.8769C71.5576 14.972 71.4123 14.9702 71.3373 14.872C70.9834 14.4072 70.0218 13.4169 68.6063 14.0443C67.4403 14.5613 67.2591 15.2839 67.2786 15.734C67.2847 15.8801 67.1376 15.9789 67.0058 15.9175C66.6489 15.7518 66.0748 15.6658 65.5244 16.3596C64.7642 17.3186 65.8508 18.1499 66.1767 18.3679C66.2303 18.4035 66.2633 18.463 66.2639 18.5275C66.267 19.026 66.3444 21.2013 67.4275 22.428C67.5214 22.5342 67.6947 22.5029 67.749 22.3721L68.5831 20.3725C68.6221 20.2797 68.7246 20.2319 68.8198 20.2626L69.1816 20.3798H69.1829Z" fill="url(#paint83_linear_1_1991)"/>
<path d="M69.2 20.7855C69.2 20.7855 68.6905 18.6981 67.9168 19.3759C67.1432 20.0537 68.1188 21.5456 69.0047 21.8299L69.2 20.7855Z" fill="url(#paint84_linear_1_1991)"/>
<path d="M63.3816 29.5919C63.3816 29.5919 63.5372 24.7619 61.5658 24.6649C59.1173 24.5446 55.1818 26.33 57.5242 33.409C58.8183 37.3199 60.769 40.2215 66.1249 41.4513C66.3854 39.4694 67.278 38.0886 67.9382 37.3095C65.7563 35.7623 63.9082 33.3519 63.3822 29.5919H63.3816Z" fill="url(#paint85_linear_1_1991)"/>
<path d="M67.6923 37.323C67.6538 37.323 67.6154 37.3113 67.5818 37.288C65.0692 35.5063 63.6744 33.0695 63.1918 29.619C63.1906 29.608 63.19 29.5969 63.19 29.5859C63.2315 28.2953 63.0179 24.9302 61.5566 24.8577C60.85 24.8233 60.1081 24.9572 59.4687 25.2359C59.3716 25.2783 59.2588 25.2335 59.2161 25.1352C59.174 25.0376 59.2185 24.924 59.3161 24.8811C60.0086 24.5796 60.811 24.4353 61.5749 24.4715C63.6695 24.5747 63.5841 29.2089 63.5737 29.5809C64.043 32.9098 65.3871 35.2589 67.8027 36.9718C67.8893 37.0332 67.9101 37.1536 67.8491 37.2407C67.8119 37.2942 67.7527 37.3224 67.6923 37.3224V37.323Z" fill="url(#paint86_linear_1_1991)"/>
<path d="M64.4195 41.1579C64.3987 41.1579 64.3774 41.1542 64.3566 41.1475C59.9141 39.6046 58.3595 36.5452 57.3411 33.4692C57.1105 32.7724 56.9323 32.1013 56.8121 31.4739C56.792 31.3695 56.8597 31.2682 56.9641 31.2479C57.0684 31.2277 57.1691 31.2964 57.1886 31.4008C57.3057 32.0117 57.4796 32.6662 57.7048 33.3471C58.692 36.3291 60.196 39.2939 64.4811 40.7822C64.5812 40.8171 64.6343 40.927 64.6001 41.0277C64.5726 41.1076 64.4982 41.1579 64.4189 41.1579H64.4195Z" fill="url(#paint87_linear_1_1991)"/>
<path d="M77.2259 41.9462L77.218 40.073C77.218 40.073 72 40.1891 67.9382 37.3096C67.2781 38.0881 66.3854 39.4695 66.1249 41.4514C68.8346 42.0733 72.4155 42.2679 77.2259 41.9468V41.9462Z" fill="url(#paint88_linear_1_1991)"/>
<path d="M70.5374 42.6007C70.5502 42.6013 70.563 42.6019 70.5758 42.6013L87.1731 42.5829C87.5831 42.5829 87.9157 42.2477 87.915 41.8345C87.915 41.4213 87.5807 41.0805 87.1713 41.0879L70.574 41.1063C70.1639 41.1063 69.8314 41.4415 69.832 41.8547C69.832 42.255 70.145 42.581 70.5374 42.6007Z" fill="url(#paint89_linear_1_1991)"/>
<path d="M102.093 27.4366H88.2708C87.2512 27.4366 86.3232 28.0285 85.8881 28.9568L79.498 42.5911H96.6756C97.3327 42.5911 97.9234 42.1871 98.1644 41.5719L103.119 28.9556C103.406 28.2268 102.872 27.4366 102.093 27.4366H102.093Z" fill="url(#paint90_linear_1_1991)"/>
<path d="M92.3552 34.4275C92.0556 35.3638 92.2771 36.273 92.8494 36.4591C93.4218 36.6445 94.1289 36.0354 94.4285 35.0991C94.7281 34.1629 94.5066 33.2536 93.9343 33.0675C93.362 32.8821 92.6548 33.4912 92.3552 34.4275Z" fill="#91B3FA"/>
<defs>
<linearGradient id="paint0_linear_1_1991" x1="182.723" y1="195.685" x2="64.7942" y2="70.9272" gradientUnits="userSpaceOnUse">
<stop stop-color="#DAE3FE"/>
<stop offset="1" stop-color="#E9EFFD"/>
</linearGradient>
<linearGradient id="paint1_linear_1_1991" x1="78.7481" y1="161.864" x2="127.627" y2="100.15" gradientUnits="userSpaceOnUse">
<stop stop-color="#09005D"/>
<stop offset="1" stop-color="#1A0F91"/>
</linearGradient>
<linearGradient id="paint2_linear_1_1991" x1="85.6962" y1="32.3667" x2="83.225" y2="129.985" gradientUnits="userSpaceOnUse">
<stop stop-color="#09005D"/>
<stop offset="1" stop-color="#1A0F91"/>
</linearGradient>
<linearGradient id="paint3_linear_1_1991" x1="90.3417" y1="220.055" x2="88.4884" y2="180.149" gradientUnits="userSpaceOnUse">
<stop stop-color="#09005D"/>
<stop offset="1" stop-color="#1A0F91"/>
</linearGradient>
<linearGradient id="paint4_linear_1_1991" x1="151.499" y1="73.638" x2="152.722" y2="73.638" gradientUnits="userSpaceOnUse">
<stop stop-color="#FEBBBA"/>
<stop offset="1" stop-color="#FF928E"/>
</linearGradient>
<linearGradient id="paint5_linear_1_1991" x1="147.156" y1="59.2378" x2="156.59" y2="59.2378" gradientUnits="userSpaceOnUse">
<stop stop-color="#FEBBBA"/>
<stop offset="1" stop-color="#FF928E"/>
</linearGradient>
<linearGradient id="paint6_linear_1_1991" x1="135.902" y1="69.5174" x2="137.095" y2="69.5174" gradientUnits="userSpaceOnUse">
<stop stop-color="#FEBBBA"/>
<stop offset="1" stop-color="#FF928E"/>
</linearGradient>
<linearGradient id="paint7_linear_1_1991" x1="131.876" y1="63.6548" x2="141.073" y2="63.6548" gradientUnits="userSpaceOnUse">
<stop stop-color="#FEBBBA"/>
<stop offset="1" stop-color="#FF928E"/>
</linearGradient>
<linearGradient id="paint8_linear_1_1991" x1="120.521" y1="92.4662" x2="121.717" y2="92.4662" gradientUnits="userSpaceOnUse">
<stop stop-color="#FEBBBA"/>
<stop offset="1" stop-color="#FF928E"/>
</linearGradient>
<linearGradient id="paint9_linear_1_1991" x1="116.482" y1="76.9212" x2="125.703" y2="76.9212" gradientUnits="userSpaceOnUse">
<stop stop-color="#FEBBBA"/>
<stop offset="1" stop-color="#FF928E"/>
</linearGradient>
<linearGradient id="paint10_linear_1_1991" x1="105.174" y1="74.471" x2="106.245" y2="74.471" gradientUnits="userSpaceOnUse">
<stop stop-color="#FEBBBA"/>
<stop offset="1" stop-color="#FF928E"/>
</linearGradient>
<linearGradient id="paint11_linear_1_1991" x1="101.14" y1="68.5514" x2="110.337" y2="68.5514" gradientUnits="userSpaceOnUse">
<stop stop-color="#FEBBBA"/>
<stop offset="1" stop-color="#FF928E"/>
</linearGradient>
<linearGradient id="paint12_linear_1_1991" x1="89.6943" y1="69.6371" x2="90.795" y2="69.6371" gradientUnits="userSpaceOnUse">
<stop stop-color="#FEBBBA"/>
<stop offset="1" stop-color="#FF928E"/>
</linearGradient>
<linearGradient id="paint13_linear_1_1991" x1="85.9756" y1="63.8" x2="94.9698" y2="63.8" gradientUnits="userSpaceOnUse">
<stop stop-color="#FEBBBA"/>
<stop offset="1" stop-color="#FF928E"/>
</linearGradient>
<linearGradient id="paint14_linear_1_1991" x1="74.6445" y1="95.4814" x2="75.788" y2="95.4814" gradientUnits="userSpaceOnUse">
<stop stop-color="#FEBBBA"/>
<stop offset="1" stop-color="#FF928E"/>
</linearGradient>
<linearGradient id="paint15_linear_1_1991" x1="69.8984" y1="82.139" x2="79.5992" y2="82.139" gradientUnits="userSpaceOnUse">
<stop stop-color="#FEBBBA"/>
<stop offset="1" stop-color="#FF928E"/>
</linearGradient>
<linearGradient id="paint16_linear_1_1991" x1="55.0272" y1="83.5634" x2="64.2277" y2="83.5634" gradientUnits="userSpaceOnUse">
<stop stop-color="#FEBBBA"/>
<stop offset="1" stop-color="#FF928E"/>
</linearGradient>
<linearGradient id="paint17_linear_1_1991" x1="39.5117" y1="82.6987" x2="48.7152" y2="82.6987" gradientUnits="userSpaceOnUse">
<stop stop-color="#FEBBBA"/>
<stop offset="1" stop-color="#FF928E"/>
</linearGradient>
<linearGradient id="paint18_linear_1_1991" x1="27.6598" y1="101.983" x2="28.7989" y2="101.983" gradientUnits="userSpaceOnUse">
<stop stop-color="#FEBBBA"/>
<stop offset="1" stop-color="#FF928E"/>
</linearGradient>
<linearGradient id="paint19_linear_1_1991" x1="24.0479" y1="105.059" x2="33.5973" y2="105.059" gradientUnits="userSpaceOnUse">
<stop stop-color="#FEBBBA"/>
<stop offset="1" stop-color="#FF928E"/>
</linearGradient>
<linearGradient id="paint20_linear_1_1991" x1="8.91602" y1="79.7389" x2="18.0494" y2="79.7389" gradientUnits="userSpaceOnUse">
<stop stop-color="#FEBBBA"/>
<stop offset="1" stop-color="#FF928E"/>
</linearGradient>
<linearGradient id="paint21_linear_1_1991" x1="104.11" y1="-61.863" x2="86.0452" y2="-31.2618" gradientUnits="userSpaceOnUse">
<stop stop-color="#FF928E"/>
<stop offset="1" stop-color="#FE7062"/>
</linearGradient>
<linearGradient id="paint22_linear_1_1991" x1="103.712" y1="-62.098" x2="85.6476" y2="-31.4969" gradientUnits="userSpaceOnUse">
<stop stop-color="#FF928E"/>
<stop offset="1" stop-color="#FE7062"/>
</linearGradient>
<linearGradient id="paint23_linear_1_1991" x1="118.229" y1="-53.5289" x2="100.164" y2="-22.9278" gradientUnits="userSpaceOnUse">
<stop stop-color="#FF928E"/>
<stop offset="1" stop-color="#FE7062"/>
</linearGradient>
<linearGradient id="paint24_linear_1_1991" x1="117.846" y1="-53.7544" x2="99.781" y2="-23.1533" gradientUnits="userSpaceOnUse">
<stop stop-color="#FF928E"/>
<stop offset="1" stop-color="#FE7062"/>
</linearGradient>
<linearGradient id="paint25_linear_1_1991" x1="127.798" y1="-47.8783" x2="109.734" y2="-17.2772" gradientUnits="userSpaceOnUse">
<stop stop-color="#FF928E"/>
<stop offset="1" stop-color="#FE7062"/>
</linearGradient>
<linearGradient id="paint26_linear_1_1991" x1="128.005" y1="-47.7571" x2="109.941" y2="-17.156" gradientUnits="userSpaceOnUse">
<stop stop-color="#FF928E"/>
<stop offset="1" stop-color="#FE7062"/>
</linearGradient>
<linearGradient id="paint27_linear_1_1991" x1="137.609" y1="-42.0873" x2="119.544" y2="-11.4861" gradientUnits="userSpaceOnUse">
<stop stop-color="#FF928E"/>
<stop offset="1" stop-color="#FE7062"/>
</linearGradient>
<linearGradient id="paint28_linear_1_1991" x1="137.061" y1="-42.4113" x2="118.996" y2="-11.8101" gradientUnits="userSpaceOnUse">
<stop stop-color="#FF928E"/>
<stop offset="1" stop-color="#FE7062"/>
</linearGradient>
<linearGradient id="paint29_linear_1_1991" x1="137.509" y1="-42.1468" x2="119.444" y2="-11.5457" gradientUnits="userSpaceOnUse">
<stop stop-color="#FF928E"/>
<stop offset="1" stop-color="#FE7062"/>
</linearGradient>
<linearGradient id="paint30_linear_1_1991" x1="137.461" y1="-42.1746" x2="119.396" y2="-11.5741" gradientUnits="userSpaceOnUse">
<stop stop-color="#FF928E"/>
<stop offset="1" stop-color="#FE7062"/>
</linearGradient>
<linearGradient id="paint31_linear_1_1991" x1="153.587" y1="-32.6557" x2="135.522" y2="-2.05514" gradientUnits="userSpaceOnUse">
<stop stop-color="#FF928E"/>
<stop offset="1" stop-color="#FE7062"/>
</linearGradient>
<linearGradient id="paint32_linear_1_1991" x1="153.498" y1="-32.7083" x2="135.433" y2="-2.10714" gradientUnits="userSpaceOnUse">
<stop stop-color="#FF928E"/>
<stop offset="1" stop-color="#FE7062"/>
</linearGradient>
<linearGradient id="paint33_linear_1_1991" x1="165.133" y1="-25.839" x2="147.068" y2="4.76205" gradientUnits="userSpaceOnUse">
<stop stop-color="#FF928E"/>
<stop offset="1" stop-color="#FE7062"/>
</linearGradient>
<linearGradient id="paint34_linear_1_1991" x1="167.097" y1="-24.6796" x2="149.032" y2="5.92153" gradientUnits="userSpaceOnUse">
<stop stop-color="#FF928E"/>
<stop offset="1" stop-color="#FE7062"/>
</linearGradient>
<linearGradient id="paint35_linear_1_1991" x1="166.44" y1="-25.0672" x2="148.375" y2="5.53339" gradientUnits="userSpaceOnUse">
<stop stop-color="#FF928E"/>
<stop offset="1" stop-color="#FE7062"/>
</linearGradient>
<linearGradient id="paint36_linear_1_1991" x1="168.493" y1="-23.8562" x2="150.428" y2="6.74497" gradientUnits="userSpaceOnUse">
<stop stop-color="#FF928E"/>
<stop offset="1" stop-color="#FE7062"/>
</linearGradient>
<linearGradient id="paint37_linear_1_1991" x1="186.564" y1="-13.1887" x2="168.498" y2="17.4125" gradientUnits="userSpaceOnUse">
<stop stop-color="#FF928E"/>
<stop offset="1" stop-color="#FE7062"/>
</linearGradient>
<linearGradient id="paint38_linear_1_1991" x1="188.388" y1="-12.1106" x2="170.323" y2="18.49" gradientUnits="userSpaceOnUse">
<stop stop-color="#FF928E"/>
<stop offset="1" stop-color="#FE7062"/>
</linearGradient>
<linearGradient id="paint39_linear_1_1991" x1="186.859" y1="-13.0131" x2="168.795" y2="17.5874" gradientUnits="userSpaceOnUse">
<stop stop-color="#FF928E"/>
<stop offset="1" stop-color="#FE7062"/>
</linearGradient>
<linearGradient id="paint40_linear_1_1991" x1="185.94" y1="-13.5562" x2="167.875" y2="17.0449" gradientUnits="userSpaceOnUse">
<stop stop-color="#FF928E"/>
<stop offset="1" stop-color="#FE7062"/>
</linearGradient>
<linearGradient id="paint41_linear_1_1991" x1="101.56" y1="48.3919" x2="131.657" y2="106.325" gradientUnits="userSpaceOnUse">
<stop stop-color="#09005D"/>
<stop offset="1" stop-color="#1A0F91"/>
</linearGradient>
<linearGradient id="paint42_linear_1_1991" x1="136.793" y1="62.0582" x2="142.968" y2="35.0592" gradientUnits="userSpaceOnUse">
<stop stop-color="#4F52FF"/>
<stop offset="1" stop-color="#4042E2"/>
</linearGradient>
<linearGradient id="paint43_linear_1_1991" x1="132.107" y1="157.475" x2="129.532" y2="105.8" gradientUnits="userSpaceOnUse">
<stop stop-color="#4F52FF"/>
<stop offset="1" stop-color="#4042E2"/>
</linearGradient>
<linearGradient id="paint44_linear_1_1991" x1="109.4" y1="89.2349" x2="149.295" y2="89.2349" gradientUnits="userSpaceOnUse">
<stop stop-color="#09005D"/>
<stop offset="1" stop-color="#1A0F91"/>
</linearGradient>
<linearGradient id="paint45_linear_1_1991" x1="106.05" y1="68.1674" x2="104.224" y2="83.5902" gradientUnits="userSpaceOnUse">
<stop stop-color="#4F52FF"/>
<stop offset="1" stop-color="#4042E2"/>
</linearGradient>
<linearGradient id="paint46_linear_1_1991" x1="105.987" y1="76.3242" x2="110.953" y2="76.3561" gradientUnits="userSpaceOnUse">
<stop stop-color="#09005D"/>
<stop offset="1" stop-color="#1A0F91"/>
</linearGradient>
<linearGradient id="paint47_linear_1_1991" x1="107.517" y1="70.0975" x2="105.776" y2="84.799" gradientUnits="userSpaceOnUse">
<stop stop-color="#4F52FF"/>
<stop offset="1" stop-color="#4042E2"/>
</linearGradient>
<linearGradient id="paint48_linear_1_1991" x1="154.458" y1="68.3624" x2="152.632" y2="83.7846" gradientUnits="userSpaceOnUse">
<stop stop-color="#4F52FF"/>
<stop offset="1" stop-color="#4042E2"/>
</linearGradient>
<linearGradient id="paint49_linear_1_1991" x1="149.414" y1="76.6062" x2="154.38" y2="76.638" gradientUnits="userSpaceOnUse">
<stop stop-color="#09005D"/>
<stop offset="1" stop-color="#1A0F91"/>
</linearGradient>
<linearGradient id="paint50_linear_1_1991" x1="153.232" y1="70.709" x2="151.474" y2="85.5608" gradientUnits="userSpaceOnUse">
<stop stop-color="#4F52FF"/>
<stop offset="1" stop-color="#4042E2"/>
</linearGradient>
<linearGradient id="paint51_linear_1_1991" x1="102.829" y1="91.5695" x2="148.896" y2="137.099" gradientUnits="userSpaceOnUse">
<stop stop-color="#4F52FF"/>
<stop offset="1" stop-color="#4042E2"/>
</linearGradient>
<linearGradient id="paint52_linear_1_1991" x1="103.579" y1="88.3417" x2="155.315" y2="133.007" gradientUnits="userSpaceOnUse">
<stop stop-color="#4F52FF"/>
<stop offset="1" stop-color="#4042E2"/>
</linearGradient>
<linearGradient id="paint53_linear_1_1991" x1="110.075" y1="84.2371" x2="156.143" y2="129.767" gradientUnits="userSpaceOnUse">
<stop stop-color="#4F52FF"/>
<stop offset="1" stop-color="#4042E2"/>
</linearGradient>
<linearGradient id="paint54_linear_1_1991" x1="153.482" y1="152.341" x2="152.864" y2="113.762" gradientUnits="userSpaceOnUse">
<stop stop-color="#4F52FF"/>
<stop offset="1" stop-color="#4042E2"/>
</linearGradient>
<linearGradient id="paint55_linear_1_1991" x1="184.261" y1="119.765" x2="163.096" y2="124.619" gradientUnits="userSpaceOnUse">
<stop stop-color="#4F52FF"/>
<stop offset="1" stop-color="#4042E2"/>
</linearGradient>
<linearGradient id="paint56_linear_1_1991" x1="153.189" y1="118.963" x2="150.204" y2="138.708" gradientUnits="userSpaceOnUse">
<stop stop-color="#4F52FF"/>
<stop offset="1" stop-color="#4042E2"/>
</linearGradient>
<linearGradient id="paint57_linear_1_1991" x1="162.835" y1="131.787" x2="153.795" y2="150.06" gradientUnits="userSpaceOnUse">
<stop stop-color="#4F52FF"/>
<stop offset="1" stop-color="#4042E2"/>
</linearGradient>
<linearGradient id="paint58_linear_1_1991" x1="104.706" y1="163.578" x2="133.159" y2="130.758" gradientUnits="userSpaceOnUse">
<stop stop-color="#E1473D"/>
<stop offset="1" stop-color="#E9605A"/>
</linearGradient>
<linearGradient id="paint59_linear_1_1991" x1="148.919" y1="106.518" x2="64.6575" y2="233.022" gradientUnits="userSpaceOnUse">
<stop stop-color="#FF928E"/>
<stop offset="1" stop-color="#FE7062"/>
</linearGradient>
<linearGradient id="paint60_linear_1_1991" x1="134.666" y1="112.561" x2="134.46" y2="136.814" gradientUnits="userSpaceOnUse">
<stop stop-color="#FF928E"/>
<stop offset="1" stop-color="#FE7062"/>
</linearGradient>
<linearGradient id="paint61_linear_1_1991" x1="128.157" y1="115.693" x2="94.0939" y2="124.864" gradientUnits="userSpaceOnUse">
<stop stop-color="#09005D"/>
<stop offset="1" stop-color="#1A0F91"/>
</linearGradient>
<linearGradient id="paint62_linear_1_1991" x1="93.1155" y1="138.355" x2="102.055" y2="118.442" gradientUnits="userSpaceOnUse">
<stop stop-color="#4F52FF"/>
<stop offset="1" stop-color="#4042E2"/>
</linearGradient>
<linearGradient id="paint63_linear_1_1991" x1="110.427" y1="113.629" x2="94.3626" y2="97.8675" gradientUnits="userSpaceOnUse">
<stop stop-color="#4F52FF"/>
<stop offset="1" stop-color="#4042E2"/>
</linearGradient>
<linearGradient id="paint64_linear_1_1991" x1="92.5646" y1="133.893" x2="109.88" y2="140.472" gradientUnits="userSpaceOnUse">
<stop stop-color="#4F52FF"/>
<stop offset="1" stop-color="#4042E2"/>
</linearGradient>
<linearGradient id="paint65_linear_1_1991" x1="95.3407" y1="129.62" x2="93.8997" y2="140.363" gradientUnits="userSpaceOnUse">
<stop stop-color="#4F52FF"/>
<stop offset="1" stop-color="#4042E2"/>
</linearGradient>
<linearGradient id="paint66_linear_1_1991" x1="109.459" y1="134.148" x2="112.302" y2="114.475" gradientUnits="userSpaceOnUse">
<stop stop-color="#4F52FF"/>
<stop offset="1" stop-color="#4042E2"/>
</linearGradient>
<linearGradient id="paint67_linear_1_1991" x1="111.181" y1="142.081" x2="114.412" y2="143.502" gradientUnits="userSpaceOnUse">
<stop stop-color="#09005D"/>
<stop offset="1" stop-color="#1A0F91"/>
</linearGradient>
<linearGradient id="paint68_linear_1_1991" x1="115.955" y1="130.97" x2="124.171" y2="115.184" gradientUnits="userSpaceOnUse">
<stop stop-color="#4F52FF"/>
<stop offset="1" stop-color="#4042E2"/>
</linearGradient>
<linearGradient id="paint69_linear_1_1991" x1="19.1562" y1="14.8434" x2="28.3713" y2="14.8434" gradientUnits="userSpaceOnUse">
<stop stop-color="#4F52FF"/>
<stop offset="1" stop-color="#4042E2"/>
</linearGradient>
<linearGradient id="paint70_linear_1_1991" x1="19.056" y1="16.5082" x2="28.3626" y2="16.5082" gradientUnits="userSpaceOnUse">
<stop stop-color="#09005D"/>
<stop offset="1" stop-color="#1A0F91"/>
</linearGradient>
<linearGradient id="paint71_linear_1_1991" x1="25.9388" y1="16.7002" x2="28.3989" y2="33.4276" gradientUnits="userSpaceOnUse">
<stop stop-color="#FEBBBA"/>
<stop offset="1" stop-color="#FF928E"/>
</linearGradient>
<linearGradient id="paint72_linear_1_1991" x1="4.07422" y1="22.5741" x2="15.0508" y2="22.5741" gradientUnits="userSpaceOnUse">
<stop stop-color="#09005D"/>
<stop offset="1" stop-color="#1A0F91"/>
</linearGradient>
<linearGradient id="paint73_linear_1_1991" x1="3.6074" y1="22.1633" x2="14.293" y2="22.1633" gradientUnits="userSpaceOnUse">
<stop stop-color="#4F52FF"/>
<stop offset="1" stop-color="#4042E2"/>
</linearGradient>
<linearGradient id="paint74_linear_1_1991" x1="13.6936" y1="18.5007" x2="16.1537" y2="35.228" gradientUnits="userSpaceOnUse">
<stop stop-color="#FEBBBA"/>
<stop offset="1" stop-color="#FF928E"/>
</linearGradient>
<linearGradient id="paint75_linear_1_1991" x1="35.0953" y1="13.9376" x2="31.1239" y2="21.9683" gradientUnits="userSpaceOnUse">
<stop stop-color="#4F52FF"/>
<stop offset="1" stop-color="#4042E2"/>
</linearGradient>
<linearGradient id="paint76_linear_1_1991" x1="38.1165" y1="28.978" x2="18.0937" y2="44.1393" gradientUnits="userSpaceOnUse">
<stop stop-color="#4F52FF"/>
<stop offset="1" stop-color="#4042E2"/>
</linearGradient>
<linearGradient id="paint77_linear_1_1991" x1="71.1652" y1="24.5809" x2="75.1446" y2="24.5809" gradientUnits="userSpaceOnUse">
<stop stop-color="#FEBBBA"/>
<stop offset="1" stop-color="#FF928E"/>
</linearGradient>
<linearGradient id="paint78_linear_1_1991" x1="71.488" y1="30.9926" x2="76.1356" y2="30.9926" gradientUnits="userSpaceOnUse">
<stop stop-color="#FEBBBA"/>
<stop offset="1" stop-color="#FF928E"/>
</linearGradient>
<linearGradient id="paint79_linear_1_1991" x1="115.396" y1="-55.2016" x2="97.3304" y2="-24.6004" gradientUnits="userSpaceOnUse">
<stop stop-color="#FF928E"/>
<stop offset="1" stop-color="#FE7062"/>
</linearGradient>
<linearGradient id="paint80_linear_1_1991" x1="63.8267" y1="24.2459" x2="70.2827" y2="24.2459" gradientUnits="userSpaceOnUse">
<stop stop-color="#FEBBBA"/>
<stop offset="1" stop-color="#FF928E"/>
</linearGradient>
<linearGradient id="paint81_linear_1_1991" x1="84.5351" y1="37.2178" x2="67.131" y2="51.5909" gradientUnits="userSpaceOnUse">
<stop stop-color="#FEBBBA"/>
<stop offset="1" stop-color="#FF928E"/>
</linearGradient>
<linearGradient id="paint82_linear_1_1991" x1="72.034" y1="23.8419" x2="69.7037" y2="16.2043" gradientUnits="userSpaceOnUse">
<stop stop-color="#FEBBBA"/>
<stop offset="1" stop-color="#FF928E"/>
</linearGradient>
<linearGradient id="paint83_linear_1_1991" x1="69.9553" y1="9.80308" x2="72.123" y2="22.0913" gradientUnits="userSpaceOnUse">
<stop stop-color="#09005D"/>
<stop offset="1" stop-color="#1A0F91"/>
</linearGradient>
<linearGradient id="paint84_linear_1_1991" x1="69.6478" y1="24.5694" x2="67.3181" y2="16.9318" gradientUnits="userSpaceOnUse">
<stop stop-color="#FEBBBA"/>
<stop offset="1" stop-color="#FF928E"/>
</linearGradient>
<linearGradient id="paint85_linear_1_1991" x1="84.9608" y1="19.9073" x2="119.852" y2="-0.776179" gradientUnits="userSpaceOnUse">
<stop stop-color="#FF928E"/>
<stop offset="1" stop-color="#FE7062"/>
</linearGradient>
<linearGradient id="paint86_linear_1_1991" x1="97.4597" y1="10.5119" x2="57.363" y2="34.5425" gradientUnits="userSpaceOnUse">
<stop stop-color="#FF928E"/>
<stop offset="1" stop-color="#FE7062"/>
</linearGradient>
<linearGradient id="paint87_linear_1_1991" x1="114.357" y1="-55.8144" x2="96.2927" y2="-25.2133" gradientUnits="userSpaceOnUse">
<stop stop-color="#FF928E"/>
<stop offset="1" stop-color="#FE7062"/>
</linearGradient>
<linearGradient id="paint88_linear_1_1991" x1="80.8295" y1="32.7306" x2="63.426" y2="47.1037" gradientUnits="userSpaceOnUse">
<stop stop-color="#FEBBBA"/>
<stop offset="1" stop-color="#FF928E"/>
</linearGradient>
<linearGradient id="paint89_linear_1_1991" x1="-515.412" y1="-1144.67" x2="-523.279" y2="-1160.19" gradientUnits="userSpaceOnUse">
<stop stop-color="#09005D"/>
<stop offset="1" stop-color="#1A0F91"/>
</linearGradient>
<linearGradient id="paint90_linear_1_1991" x1="84.0858" y1="49.3508" x2="92.7086" y2="34.2523" gradientUnits="userSpaceOnUse">
<stop stop-color="#09005D"/>
<stop offset="1" stop-color="#1A0F91"/>
</linearGradient>
</defs>
</svg>
