<svg width="225" height="116" viewBox="0 0 225 116" fill="none" xmlns="http://www.w3.org/2000/svg">
<path d="M143.492 37.742L148.207 14.8975L152.923 37.742H143.492Z" fill="#E07243"/>
<path d="M153.919 37.7422L158.634 4.61938L163.35 37.7422H153.919Z" fill="#7EBDB8"/>
<path d="M174.103 37.9762H164.022L169.061 22.8655L174.101 37.9762H174.103ZM164.672 37.508H173.453L169.063 24.3445L164.674 37.508H164.672Z" fill="#E07243"/>
<path d="M178.788 39.6005H141.202V4.61938H141.574V39.2273H178.788V39.6005Z" fill="white"/>
<path d="M180.828 39.2273H179.424V39.6026H180.828V39.2273Z" fill="white"/>
<path d="M182.874 39.2273H181.47V39.6026H182.874V39.2273Z" fill="white"/>
<path d="M141.576 0.503174H141.202V1.91154H141.576V0.503174Z" fill="white"/>
<path d="M141.576 2.55713H141.202V3.96549H141.576V2.55713Z" fill="white"/>
<path d="M146.101 45.8513L145.823 46.1297L145.079 45.7807L145.425 46.5292L145.147 46.8077L144.622 45.6071L143.433 45.0906L143.719 44.8041L144.439 45.1431L144.099 44.4227L144.385 44.1362L144.9 45.3287L146.097 45.8553L146.101 45.8513Z" fill="#E07243"/>
<path d="M147.231 44.7173L146.954 44.9958L146.209 44.6467L146.556 45.3953L146.278 45.6737L145.753 44.4732L144.564 43.9566L144.85 43.6701L145.57 44.0091L145.23 43.2868L145.515 43.0002L146.03 44.1927L147.227 44.7193L147.231 44.7173Z" fill="#E07243"/>
<path d="M147.773 43.3917C147.887 43.5067 147.944 43.6439 147.942 43.8033C147.942 43.9627 147.883 44.0999 147.773 44.2129C147.658 44.3279 147.521 44.3844 147.362 44.3844C147.203 44.3844 147.067 44.3279 146.954 44.2149L146.018 43.2767C145.904 43.1617 145.847 43.0245 145.847 42.8651C145.847 42.7057 145.904 42.5685 146.018 42.4535C146.133 42.3385 146.27 42.282 146.429 42.284C146.588 42.284 146.725 42.3425 146.837 42.4555L147.773 43.3937V43.3917ZM146.564 42.7178C146.523 42.6774 146.473 42.6552 146.415 42.6552C146.356 42.6552 146.306 42.6754 146.266 42.7178C146.226 42.7582 146.206 42.8086 146.206 42.8671C146.206 42.9256 146.228 42.974 146.268 43.0164L147.205 43.9567C147.246 43.997 147.296 44.0192 147.354 44.0192C147.413 44.0192 147.461 43.999 147.503 43.9587C147.543 43.9183 147.565 43.8679 147.565 43.8094C147.565 43.7509 147.545 43.7004 147.503 43.6601L146.566 42.7198L146.564 42.7178Z" fill="#E07243"/>
<path d="M148.593 43.3535L147.274 42.0298L147.054 42.2498L146.873 42.0682C146.928 41.9996 146.964 41.9169 146.98 41.82C146.996 41.7232 146.988 41.6344 146.956 41.5537L147.137 41.3721L148.851 43.0912L148.593 43.3494V43.3535Z" fill="#E07243"/>
<path d="M156.53 45.8513L156.252 46.1298L155.508 45.7807L155.854 46.5273L155.576 46.8057L155.051 45.6052L153.862 45.0887L154.148 44.8021L154.868 45.1411L154.528 44.4208L154.814 44.1343L155.329 45.3267L156.526 45.8534L156.53 45.8513Z" fill="#E07243"/>
<path d="M157.661 44.7175L157.383 44.9959L156.639 44.6469L156.985 45.3955L156.707 45.6739L156.182 44.4734L154.993 43.9568L155.279 43.6703L155.999 44.0093L155.659 43.289L155.945 43.0024L156.46 44.1949L157.657 44.7215L157.661 44.7175Z" fill="#E07243"/>
<path d="M158.2 43.3917C158.314 43.5067 158.371 43.6439 158.369 43.8033C158.369 43.9627 158.31 44.0999 158.2 44.2129C158.085 44.3279 157.948 44.3844 157.789 44.3844C157.63 44.3844 157.494 44.3279 157.381 44.2149L156.445 43.2767C156.331 43.1617 156.274 43.0245 156.274 42.8651C156.274 42.7057 156.331 42.5685 156.445 42.4535C156.56 42.3385 156.697 42.282 156.856 42.284C157.015 42.286 157.152 42.3425 157.264 42.4555L158.2 43.3937V43.3917ZM156.991 42.7178C156.95 42.6774 156.9 42.6552 156.842 42.6552C156.783 42.6552 156.733 42.6754 156.693 42.7178C156.653 42.7582 156.633 42.8086 156.633 42.8671C156.633 42.9256 156.655 42.974 156.695 43.0164L157.632 43.9567C157.673 43.997 157.723 44.0192 157.781 44.0192C157.84 44.0192 157.888 43.999 157.93 43.9587C157.97 43.9183 157.992 43.8679 157.992 43.8094C157.992 43.7509 157.972 43.7004 157.93 43.6601L156.993 42.7198L156.991 42.7178Z" fill="#E07243"/>
<path d="M157.57 42.3385C157.407 42.1751 157.327 42.0076 157.329 41.8341C157.329 41.6828 157.391 41.5456 157.514 41.4205C157.626 41.3075 157.765 41.253 157.93 41.257C158.095 41.2631 158.234 41.3216 158.347 41.4346C158.463 41.5516 158.55 41.6909 158.606 41.8523C158.638 41.941 158.675 42.1105 158.719 42.3628C158.731 42.4314 158.751 42.5363 158.781 42.6775L158.805 42.7945C158.821 42.8712 158.833 42.9297 158.846 42.9721C158.852 42.9923 158.856 43.0044 158.86 43.0084L159.367 42.5L159.62 42.7542L158.799 43.5774L158.562 43.3393C158.562 43.3393 158.544 43.2828 158.524 43.188C158.516 43.1436 158.506 43.0952 158.495 43.0407L158.465 42.8753C158.451 42.7824 158.427 42.6331 158.391 42.4314C158.359 42.2397 158.318 42.0803 158.266 41.9491C158.224 41.8422 158.172 41.7574 158.107 41.6949C158.055 41.6424 157.997 41.6122 157.93 41.6061C157.86 41.6001 157.799 41.6223 157.749 41.6727C157.677 41.7453 157.667 41.8381 157.721 41.9511C157.739 41.9895 157.765 42.0258 157.803 42.0641L157.87 42.1307L157.616 42.3849L157.572 42.3406L157.57 42.3385Z" fill="#E07243"/>
<path d="M166.957 45.8513L166.679 46.1298L165.935 45.7807L166.281 46.5273L166.003 46.8057L165.478 45.6052L164.289 45.0887L164.575 44.8021L165.295 45.1411L164.955 44.4208L165.241 44.1343L165.756 45.3267L166.953 45.8534L166.957 45.8513Z" fill="#E07243"/>
<path d="M168.088 44.7174L167.81 44.9958L167.066 44.6468L167.412 45.3933L167.134 45.6718L166.609 44.4712L165.42 43.9547L165.706 43.6682L166.426 44.0071L166.086 43.2848L166.372 42.9983L166.887 44.1908L168.084 44.7174H168.088Z" fill="#E07243"/>
<path d="M168.629 43.3917C168.744 43.5067 168.8 43.6439 168.798 43.8033C168.798 43.9627 168.74 44.0999 168.629 44.2129C168.514 44.3279 168.377 44.3844 168.218 44.3844C168.06 44.3844 167.923 44.3279 167.81 44.2149L166.875 43.2767C166.76 43.1617 166.704 43.0245 166.704 42.8651C166.704 42.7057 166.76 42.5685 166.875 42.4535C166.989 42.3385 167.126 42.282 167.285 42.284C167.444 42.284 167.581 42.3425 167.693 42.4555L168.629 43.3937V43.3917ZM167.42 42.7178C167.38 42.6774 167.329 42.6552 167.271 42.6552C167.213 42.6552 167.162 42.6754 167.122 42.7178C167.082 42.7582 167.06 42.8086 167.062 42.8671C167.062 42.9256 167.084 42.974 167.124 43.0164L168.062 43.9567C168.102 43.997 168.152 44.0192 168.21 44.0192C168.269 44.0192 168.317 43.999 168.359 43.9587C168.4 43.9183 168.422 43.8679 168.422 43.8094C168.422 43.7509 168.402 43.7004 168.359 43.6601L167.422 42.7198L167.42 42.7178Z" fill="#E07243"/>
<path d="M169.353 42.9558C169.472 42.8368 169.476 42.7218 169.365 42.6108L169.265 42.5099C169.09 42.3344 168.909 42.3384 168.725 42.522L168.504 42.3001C168.603 42.2012 168.649 42.0983 168.641 41.9954C168.635 41.9006 168.587 41.8098 168.496 41.719L168.456 41.6786C168.343 41.5656 168.239 41.5596 168.14 41.6584C168.086 41.7129 168.066 41.7734 168.082 41.8421C168.094 41.8925 168.126 41.945 168.176 41.9954L168.22 42.0398L167.967 42.294L167.927 42.2537C167.804 42.1306 167.736 41.9994 167.722 41.8622C167.703 41.7048 167.76 41.5616 167.887 41.4325C168.007 41.3114 168.146 41.2549 168.301 41.263C168.44 41.271 168.565 41.3316 168.675 41.4405L168.748 41.5132C168.854 41.6201 168.915 41.7452 168.929 41.8864C168.935 41.947 168.929 42.0075 168.917 42.066C169.035 42.0317 169.16 42.0378 169.291 42.0842C169.357 42.1064 169.422 42.1508 169.486 42.2153L169.621 42.3505C169.747 42.4776 169.808 42.6249 169.802 42.7944C169.798 42.9558 169.737 43.0951 169.621 43.2121C169.504 43.3291 169.369 43.3836 169.21 43.3816C169.051 43.3816 168.915 43.3231 168.802 43.2121L168.76 43.1697L168.987 42.9034L169.053 42.9578C169.1 42.9982 169.15 43.0164 169.204 43.0184C169.259 43.0184 169.307 42.9982 169.349 42.9538L169.353 42.9558Z" fill="#E07243"/>
<path d="M56.3249 45.0783L55.3653 44.5214L55.5343 44.2289L56.4939 44.7858L56.3249 45.0783ZM54.8221 44.2087L53.8625 43.6518L54.0315 43.3592L54.9911 43.9161L54.8221 44.2087ZM53.3193 43.3391L52.3597 42.7822L52.5287 42.4896L53.4883 43.0465L53.3193 43.3391ZM51.8165 42.4694L50.8569 41.9125L51.0259 41.62L51.9855 42.1768L51.8165 42.4694ZM50.3137 41.5998L49.3541 41.0429L49.5231 40.7503L50.4827 41.3072L50.3137 41.5998ZM48.8109 40.7301L47.8513 40.1733L48.0203 39.8807L48.9799 40.4376L48.8109 40.7301ZM47.3081 39.8605L46.3485 39.3036L46.5175 39.0111L47.4771 39.5679L47.3081 39.8605ZM45.8053 38.9909L44.8457 38.434L45.0147 38.1414L45.9743 38.6983L45.8053 38.9909ZM44.3025 38.1212L43.3429 37.5643L43.5119 37.2718L44.4715 37.8287L44.3025 38.1212ZM42.7997 37.2516L41.8401 36.6947L42.0091 36.4021L42.9687 36.959L42.7997 37.2516ZM41.2969 36.382L40.3373 35.8251L40.5062 35.5325L41.4659 36.0894L41.2969 36.382ZM39.7941 35.5123L38.8345 34.9554L39.0034 34.6629L39.9631 35.2198L39.7941 35.5123ZM38.2913 34.6427L37.3317 34.0858L37.5006 33.7932L38.4603 34.3501L38.2913 34.6427ZM36.7885 33.7731L35.8288 33.2162L35.9978 32.9236L36.9575 33.4805L36.7885 33.7731ZM35.2857 32.9034L34.326 32.3465L34.495 32.054L35.4547 32.6109L35.2857 32.9034ZM33.7829 32.0338L32.8232 31.4769L32.9922 31.1843L33.9519 31.7412L33.7829 32.0338Z" fill="white"/>
<path d="M56.5281 72.362L56.3591 72.0694L57.2644 71.5428L57.4334 71.8354L56.5281 72.362ZM57.9746 71.5206L57.8056 71.2281L58.7652 70.6691L58.9342 70.9617L57.9746 71.5206ZM59.4754 70.6469L59.3064 70.3544L60.266 69.7955L60.435 70.088L59.4754 70.6469ZM60.9762 69.7733L60.8072 69.4807L61.7668 68.9218L61.9358 69.2144L60.9762 69.7733ZM62.477 68.8996L62.308 68.607L63.2676 68.0481L63.4366 68.3407L62.477 68.8996ZM63.9778 68.0259L63.8088 67.7334L64.7684 67.1745L64.9374 67.467L63.9778 68.0259ZM65.4786 67.1523L65.3096 66.8597L66.2692 66.3008L66.4382 66.5934L65.4786 67.1523ZM66.9793 66.2786L66.8104 65.986L67.77 65.4271L67.939 65.7197L66.9793 66.2786ZM68.4801 65.4049L68.3111 65.1124L69.2708 64.5534L69.4398 64.846L68.4801 65.4049ZM69.9809 64.5313L69.8119 64.2387L70.7716 63.6798L70.9405 63.9723L69.9809 64.5313ZM71.4817 63.6576L71.3127 63.365L72.2723 62.8061L72.4413 63.0987L71.4817 63.6576ZM72.9825 62.7839L72.8135 62.4913L73.7731 61.9324L73.9421 62.225L72.9825 62.7839ZM74.4833 61.9102L74.3143 61.6177L75.2739 61.0588L75.4429 61.3513L74.4833 61.9102ZM75.9841 61.0366L75.8151 60.744L76.7747 60.1851L76.9437 60.4777L75.9841 61.0366ZM77.4849 60.1629L77.3159 59.8703L78.2755 59.3114L78.4445 59.604L77.4849 60.1629ZM78.9857 59.2892L78.8167 58.9967L79.7763 58.4377L79.9453 58.7303L78.9857 59.2892Z" fill="white"/>
<path d="M1.05112 45.1067L0.922363 44.794L1.94636 44.3662L2.07512 44.679L1.05112 45.1067ZM2.65451 44.4389L2.52576 44.1261L3.54975 43.6984L3.67851 44.0111L2.65451 44.4389ZM4.2579 43.771L4.12915 43.4582L5.15315 43.0305L5.2819 43.3432L4.2579 43.771ZM5.86129 43.1031L5.73254 42.7904L6.75654 42.3626L6.88529 42.6754L5.86129 43.1031ZM7.46469 42.4353L7.33593 42.1225L8.35993 41.6948L8.48869 42.0075L7.46469 42.4353ZM9.06808 41.7674L8.93933 41.4547L9.96332 41.0269L10.0921 41.3396L9.06808 41.7674ZM10.6715 41.0995L10.5427 40.7868L11.5667 40.359L11.6955 40.6718L10.6715 41.0995ZM12.2749 40.4317L12.1461 40.1189L13.1701 39.6912L13.2989 40.0039L12.2749 40.4317ZM13.8783 39.7638L13.7495 39.4511L14.7735 39.0233L14.9023 39.3361L13.8783 39.7638ZM15.4816 39.0959L15.3529 38.7832L16.3769 38.3554L16.5056 38.6682L15.4816 39.0959ZM17.085 38.4281L16.9563 38.1153L17.9803 37.6876L18.109 38.0003L17.085 38.4281ZM18.6884 37.7602L18.5597 37.4475L19.5837 37.0197L19.7124 37.3325L18.6884 37.7602ZM20.2918 37.0924L20.1631 36.7796L21.1871 36.3519L21.3158 36.6646L20.2918 37.0924ZM21.8952 36.4245L21.7665 36.1117L22.7905 35.684L22.9192 35.9967L21.8952 36.4245ZM23.4986 35.7566L23.3699 35.4439L24.3939 35.0161L24.5226 35.3289L23.4986 35.7566ZM25.102 35.0888L24.9732 34.776L25.9972 34.3483L26.126 34.661L25.102 35.0888ZM26.7054 34.4209L26.5766 34.1082L27.6006 33.6804L27.7294 33.9931L26.7054 34.4209ZM28.3088 33.753L28.18 33.4403L29.204 33.0125L29.3328 33.3253L28.3088 33.753ZM29.9122 33.0852L29.7834 32.7724L30.8074 32.3447L30.9362 32.6574L29.9122 33.0852ZM31.5156 32.4173L31.3868 32.1046L32.4108 31.6768L32.5396 31.9895L31.5156 32.4173ZM33.119 31.7494L32.9902 31.4367L33.6179 31.1744L33.9659 30.9666L34.1389 31.2571L33.7587 31.4831L33.121 31.7494H33.119ZM78.6457 31.2531L77.6941 30.6821L77.8671 30.3915L78.8187 30.9625L78.6457 31.2531ZM34.6761 30.9343L34.5031 30.6437L35.4546 30.0727L35.6277 30.3633L34.6761 30.9343ZM77.1569 30.3592L76.2054 29.7882L76.3784 29.4977L77.3299 30.0687L77.1569 30.3592ZM36.1668 30.0404L35.9938 29.7499L36.9454 29.1789L37.1184 29.4694L36.1668 30.0404ZM75.6682 29.4654L74.7166 28.8944L74.8896 28.6038L75.8412 29.1748L75.6682 29.4654ZM37.6555 29.1466L37.4825 28.856L38.4341 28.285L38.6071 28.5756L37.6555 29.1466ZM74.1775 28.5715L73.2259 28.0005L73.3989 27.71L74.3505 28.281L74.1775 28.5715ZM39.1443 28.2527L38.9712 27.9622L39.9228 27.3912L40.0958 27.6817L39.1443 28.2527ZM72.6888 27.6777L71.7372 27.1067L71.9102 26.8161L72.8618 27.3871L72.6888 27.6777ZM40.635 27.3589L40.462 27.0683L41.4136 26.4973L41.5866 26.7879L40.635 27.3589ZM71.2 26.7838L70.2485 26.2128L70.4215 25.9223L71.373 26.4933L71.2 26.7838ZM42.1237 26.465L41.9507 26.1745L42.9023 25.6035L43.0753 25.894L42.1237 26.465ZM69.7093 25.89L68.7577 25.319L68.9307 25.0284L69.8823 25.5994L69.7093 25.89ZM43.6124 25.5712L43.4394 25.2806L44.391 24.7096L44.564 25.0002L43.6124 25.5712ZM68.2206 24.9961L67.269 24.4251L67.442 24.1346L68.3936 24.7056L68.2206 24.9961ZM45.1012 24.6773L44.9281 24.3868L45.8797 23.8158L46.0527 24.1063L45.1012 24.6773ZM66.7299 24.1023L65.7783 23.5313L65.9513 23.2407L66.9029 23.8117L66.7299 24.1023ZM46.5899 23.7835L46.4169 23.4929L47.3684 22.9219L47.5414 23.2125L46.5899 23.7835ZM65.2411 23.2084L64.2896 22.6374L64.4626 22.3469L65.4141 22.9179L65.2411 23.2084ZM48.0806 22.8896L47.9076 22.5991L48.8592 22.0281L49.0322 22.3186L48.0806 22.8896ZM63.7524 22.3146L62.8008 21.7436L62.9739 21.453L63.9254 22.024L63.7524 22.3146ZM49.5693 21.9958L49.3963 21.7052L50.3479 21.1342L50.5209 21.4248L49.5693 21.9958ZM62.2617 21.4207L61.3101 20.8497L61.4831 20.5592L62.4347 21.1302L62.2617 21.4207ZM51.058 21.1019L50.885 20.8114L51.8366 20.2404L52.0096 20.5309L51.058 21.1019ZM60.773 20.5269L59.8214 19.9559L59.9944 19.6653L60.946 20.2363L60.773 20.5269ZM52.5488 20.2081L52.3758 19.9175L53.3273 19.3465L53.5004 19.6371L52.5488 20.2081ZM59.2842 19.6331L58.3327 19.062L58.5057 18.7715L59.4573 19.3425L59.2842 19.6331ZM54.0375 19.3143L53.8645 19.0237L54.8161 18.4527L54.9891 18.7432L54.0375 19.3143ZM57.7935 18.7392L56.8419 18.1682L57.0149 17.8776L57.9665 18.4487L57.7935 18.7392ZM55.5262 18.4204L55.3532 18.1299L56.3048 17.5588L56.4778 17.8494L55.5262 18.4204Z" fill="white"/>
<path d="M130.139 45.0683L129.886 44.8101L130.125 44.572L130.379 44.8303L130.139 45.0683ZM129.445 44.3621L128.667 43.5712L128.906 43.3331L129.685 44.1241L129.445 44.3621ZM103.608 44.1624H103.27V43.0506H103.608V44.1624ZM128.226 43.1212L127.448 42.3303L127.687 42.0922L128.465 42.8832L128.226 43.1212ZM103.608 42.4211H103.27V41.3093H103.608V42.4211ZM127.007 41.8824L126.228 41.0914L126.468 40.8533L127.246 41.6443L127.007 41.8824ZM103.608 40.6798H103.27V39.5681H103.608V40.6798ZM125.788 40.6435L125.009 39.8525L125.249 39.6145L126.027 40.4054L125.788 40.6435ZM124.569 39.4046L123.79 38.6137L124.03 38.3756L124.808 39.1665L124.569 39.4046ZM103.608 38.9405H103.27V37.8288H103.608V38.9405ZM123.35 38.1657L122.571 37.3748L122.81 37.1367L123.589 37.9276L123.35 38.1657ZM103.608 37.1992H103.27V36.0875H103.608V37.1992ZM122.13 36.9269L121.352 36.1359L121.591 35.8978L122.37 36.6888L122.13 36.9269ZM120.911 35.688L120.133 34.897L120.372 34.6589L121.151 35.4499L120.911 35.688ZM103.608 35.46H103.27V34.3482H103.608V35.46ZM119.692 34.4491L118.914 33.6582L119.153 33.4201L119.931 34.211L119.692 34.4491ZM103.608 33.7187H103.27V32.6069H103.608V33.7187ZM118.473 33.2102L117.694 32.4193L117.934 32.1812L118.712 32.9721L118.473 33.2102ZM103.608 31.9774H103.27V30.8656H103.608V31.9774ZM117.254 31.9693L116.475 31.1784L116.715 30.9403L117.493 31.7312L117.254 31.9693ZM116.035 30.7305L115.256 29.9395L115.496 29.7014L116.274 30.4924L116.035 30.7305ZM103.608 30.2361H103.27V29.1244H103.608V30.2361ZM114.816 29.4916L114.037 28.7006L114.276 28.4625L115.055 29.2535L114.816 29.4916ZM103.608 28.4948H103.27V27.3831H103.608V28.4948ZM113.596 28.2507L112.818 27.4597L113.057 27.2216L113.836 28.0126L113.596 28.2507ZM112.377 27.0118L111.599 26.2209L111.838 25.9828L112.617 26.7737L112.377 27.0118ZM103.608 26.7535H103.27V25.6418H103.608V26.7535ZM111.158 25.7729L110.38 24.982L110.619 24.7439L111.398 25.5348L111.158 25.7729ZM103.608 25.0122H103.27V23.9005H103.608V25.0122ZM109.939 24.532L109.16 23.7411L109.4 23.503L110.178 24.2939L109.939 24.532ZM108.72 23.2931L107.941 22.5022L108.181 22.2641L108.959 23.0551L108.72 23.2931ZM103.608 23.271H103.27V22.1592H103.608V23.271ZM107.501 22.0543L106.722 21.2633L106.962 21.0252L107.74 21.8162L107.501 22.0543ZM103.608 21.5297H103.27V20.4179H103.608V21.5297ZM106.282 20.8134L105.503 20.0224L105.742 19.7843L106.521 20.5753L106.282 20.8134ZM103.608 19.7884H103.27V18.6766H103.608V19.7884ZM105.062 19.5745L104.284 18.7836L104.523 18.5455L105.302 19.3364L105.062 19.5745ZM103.843 18.3356L103.56 18.0471H103.27V17.2703L104.083 18.0975L103.843 18.3356Z" fill="white"/>
<path d="M25.0516 17.7423H23.9432V17.4033H25.0516V17.7423ZM23.3155 17.7423H22.207V17.4033H23.3155V17.7423ZM21.5793 17.7423H20.4708V17.4033H21.5793V17.7423ZM19.8431 17.7423H18.7346V17.4033H19.8431V17.7423ZM18.107 17.7423H16.9985V17.4033H18.107V17.7423ZM16.3708 17.7423H15.2623V17.4033H16.3708V17.7423ZM14.6346 17.7423H13.5261V17.4033H14.6346V17.7423ZM12.8985 17.7423H11.79V17.4033H12.8985V17.7423ZM11.1623 17.7423H10.0538V17.4033H11.1623V17.7423ZM9.42612 17.7423H8.31763V17.4033H9.42612V17.7423Z" fill="white"/>
<path d="M32.1976 58.7304L32.0326 58.4358L33.0003 57.893L33.1652 58.1876L32.1976 58.7304ZM33.7124 57.8809L33.5475 57.5863L34.5151 57.0436L34.6801 57.3381L33.7124 57.8809ZM35.2273 57.0314L35.0623 56.7369L36.03 56.1941L36.195 56.4887L35.2273 57.0314ZM36.7422 56.182L36.5772 55.8874L37.5449 55.3446L37.7098 55.6392L36.7422 56.182ZM38.2571 55.3325L38.0921 55.0379L39.0598 54.4952L39.2247 54.7898L38.2571 55.3325ZM39.7719 54.4831L39.607 54.1885L40.5746 53.6457L40.7396 53.9403L39.7719 54.4831ZM41.2868 53.6336L41.1218 53.339L42.0895 52.7963L42.2545 53.0908L41.2868 53.6336ZM42.8017 52.7842L42.6367 52.4896L43.6044 51.9468L43.7693 52.2414L42.8017 52.7842ZM44.3165 51.9347L44.1516 51.6401L45.1192 51.0973L45.2842 51.3919L44.3165 51.9347ZM45.8314 51.0852L45.6665 50.7906L46.6341 50.2479L46.7991 50.5425L45.8314 51.0852ZM47.3463 50.2358L47.1813 49.9412L48.149 49.3984L48.314 49.693L47.3463 50.2358ZM48.8612 49.3863L48.6962 49.0917L49.6639 48.549L49.8288 48.8436L48.8612 49.3863ZM50.376 48.5369L50.2111 48.2423L51.1787 47.6995L51.3437 47.9941L50.376 48.5369ZM51.8909 47.6874L51.7259 47.3928L52.6936 46.85L52.8586 47.1446L51.8909 47.6874ZM53.4058 46.8379L53.2408 46.5434L54.2085 46.0006L54.3735 46.2952L53.4058 46.8379ZM54.9207 45.9885L54.7557 45.6939L55.7234 45.1511L55.8883 45.4457L54.9207 45.9885ZM56.4355 45.139L56.2706 44.8444L56.351 44.8L56.516 45.0946L56.4355 45.139Z" fill="white"/>
<path d="M48.5956 31.5597H32.7608L24.774 17.6839L32.6904 3.93115L33.1089 4.17328L25.3293 17.6839L33.0385 31.0755H48.5956V31.5597Z" fill="#E07243"/>
<path d="M56.2348 72.0922L48.3868 85.7253L48.805 85.9675L56.653 72.3343L56.2348 72.0922Z" fill="#E07243"/>
<path d="M72.22 45.1915H56.2464L48.2596 31.3177L56.2464 17.4438H72.22L80.2068 31.3177L72.22 45.1915ZM56.5241 44.7072H71.9404L79.6495 31.3157L71.9404 17.9241H56.5241L48.8149 31.3157L56.5241 44.7072Z" fill="#E07243"/>
<path d="M72.22 72.457H56.2464L48.328 58.7042L48.7465 58.4621L56.524 71.9747H71.9403L79.6495 58.5831L71.8719 45.0705L72.2884 44.8284L80.2067 58.5831L72.22 72.457Z" fill="#E07243"/>
<path d="M48.7344 58.8251H32.7608L24.774 44.9493L32.7608 31.0754H48.5956V31.5597H33.0385L25.3293 44.9493L33.0385 58.3408H48.4548L56.2343 44.8282L56.6508 45.0703L48.7344 58.8251Z" fill="#E07243"/>
<path d="M95.7981 58.704L95.3816 58.4619L103.159 44.9493L95.45 31.5597H79.8949V31.0754H95.7297L103.716 44.9493L95.7981 58.704Z" fill="#E07243"/>
<path d="M103.23 17.5646L95.3817 31.1978L95.7999 31.4399L103.648 17.8067L103.23 17.5646Z" fill="#E07243"/>
<path d="M130.26 44.7092H103.439V45.1935H130.26V44.7092Z" fill="#E07243"/>
<path d="M25.0517 44.7092H0.986694V45.1935H25.0517V44.7092Z" fill="#E07243"/>
<path d="M48.5956 59.37C49.029 59.37 49.3802 59.0176 49.3802 58.5831C49.3802 58.1485 49.029 57.7961 48.5956 57.7961C48.1623 57.7961 47.811 58.1485 47.811 58.5831C47.811 59.0176 48.1623 59.37 48.5956 59.37Z" fill="#7EBDB8"/>
<path d="M32.8997 59.37C33.333 59.37 33.6843 59.0176 33.6843 58.5831C33.6843 58.1485 33.333 57.7961 32.8997 57.7961C32.4664 57.7961 32.1151 58.1485 32.1151 58.5831C32.1151 59.0176 32.4664 59.37 32.8997 59.37Z" fill="#7EBDB8"/>
<path d="M49.3782 85.8484C49.3782 86.2822 49.0281 86.6353 48.5936 86.6353C48.159 86.6353 47.809 86.2843 47.809 85.8484C47.809 85.4126 48.159 85.0615 48.5936 85.0615C49.0281 85.0615 49.3782 85.4126 49.3782 85.8484Z" fill="#7EBDB8"/>
<path d="M56.4437 45.7362C56.877 45.7362 57.2282 45.3839 57.2282 44.9493C57.2282 44.5147 56.877 44.1624 56.4437 44.1624C56.0103 44.1624 55.6591 44.5147 55.6591 44.9493C55.6591 45.3839 56.0103 45.7362 56.4437 45.7362Z" fill="#7EBDB8"/>
<path d="M57.2262 72.2146C57.2262 72.6485 56.8761 73.0016 56.4416 73.0016C56.007 73.0016 55.657 72.6505 55.657 72.2146C55.657 71.7788 56.007 71.4277 56.4416 71.4277C56.8761 71.4277 57.2262 71.7788 57.2262 72.2146Z" fill="#7EBDB8"/>
<path d="M72.2079 45.7362C72.6413 45.7362 72.9925 45.3839 72.9925 44.9493C72.9925 44.5147 72.6413 44.1624 72.2079 44.1624C71.7746 44.1624 71.4233 44.5147 71.4233 44.9493C71.4233 45.3839 71.7746 45.7362 72.2079 45.7362Z" fill="#7EBDB8"/>
<path d="M72.2079 18.4708C72.6413 18.4708 72.9925 18.1185 72.9925 17.6839C72.9925 17.2493 72.6413 16.897 72.2079 16.897C71.7746 16.897 71.4233 17.2493 71.4233 17.6839C71.4233 18.1185 71.7746 18.4708 72.2079 18.4708Z" fill="#7EBDB8"/>
<path d="M56.3853 18.4708C56.8186 18.4708 57.1699 18.1185 57.1699 17.6839C57.1699 17.2493 56.8186 16.897 56.3853 16.897C55.952 16.897 55.6007 17.2493 55.6007 17.6839C55.6007 18.1185 55.952 18.4708 56.3853 18.4708Z" fill="#7EBDB8"/>
<path d="M104.221 44.9493C104.221 45.3831 103.871 45.7362 103.437 45.7362C103.002 45.7362 102.652 45.3851 102.652 44.9493C102.652 44.5134 103.002 44.1624 103.437 44.1624C103.871 44.1624 104.221 44.5134 104.221 44.9493Z" fill="#7EBDB8"/>
<path d="M130.258 45.7362C130.691 45.7362 131.043 45.3839 131.043 44.9493C131.043 44.5147 130.691 44.1624 130.258 44.1624C129.825 44.1624 129.473 44.5147 129.473 44.9493C129.473 45.3839 129.825 45.7362 130.258 45.7362Z" fill="#7EBDB8"/>
<path d="M25.0517 45.7362C25.485 45.7362 25.8363 45.3839 25.8363 44.9493C25.8363 44.5147 25.485 44.1624 25.0517 44.1624C24.6184 44.1624 24.2671 44.5147 24.2671 44.9493C24.2671 45.3839 24.6184 45.7362 25.0517 45.7362Z" fill="#7EBDB8"/>
<path d="M0.986744 45.7362C1.42006 45.7362 1.77134 45.3839 1.77134 44.9493C1.77134 44.5147 1.42006 44.1624 0.986744 44.1624C0.553424 44.1624 0.202148 44.5147 0.202148 44.9493C0.202148 45.3839 0.553424 45.7362 0.986744 45.7362Z" fill="#7EBDB8"/>
<path d="M49.3782 31.3177C49.3782 31.7515 49.0281 32.1046 48.5936 32.1046C48.159 32.1046 47.809 31.7535 47.809 31.3177C47.809 30.8818 48.159 30.5308 48.5936 30.5308C49.0281 30.5308 49.3782 30.8818 49.3782 31.3177Z" fill="#7EBDB8"/>
<path d="M33.6822 31.3177C33.6822 31.7515 33.3322 32.1046 32.8976 32.1046C32.4631 32.1046 32.113 31.7535 32.113 31.3177C32.113 30.8818 32.4631 30.5308 32.8976 30.5308C33.3322 30.5308 33.6822 30.8818 33.6822 31.3177Z" fill="#7EBDB8"/>
<path d="M96.3493 31.3177C96.3493 31.7515 95.9993 32.1046 95.5647 32.1046C95.1302 32.1046 94.7802 31.7535 94.7802 31.3177C94.7802 30.8818 95.1302 30.5308 95.5647 30.5308C95.9993 30.5308 96.3493 30.8818 96.3493 31.3177Z" fill="#7EBDB8"/>
<path d="M104.221 17.6839C104.221 18.1177 103.871 18.4708 103.437 18.4708C103.002 18.4708 102.652 18.1197 102.652 17.6839C102.652 17.2481 103.002 16.897 103.437 16.897C103.871 16.897 104.221 17.2481 104.221 17.6839Z" fill="#7EBDB8"/>
<path d="M80.6534 31.3177C80.6534 31.7515 80.3034 32.1046 79.8688 32.1046C79.4343 32.1046 79.0842 31.7535 79.0842 31.3177C79.0842 30.8818 79.4343 30.5308 79.8688 30.5308C80.3034 30.5308 80.6534 30.8818 80.6534 31.3177Z" fill="#7EBDB8"/>
<path d="M72.9906 72.2146C72.9906 72.6485 72.6405 73.0016 72.206 73.0016C71.7714 73.0016 71.4214 72.6505 71.4214 72.2146C71.4214 71.7788 71.7714 71.4277 72.206 71.4277C72.6405 71.4277 72.9906 71.7788 72.9906 72.2146Z" fill="#7EBDB8"/>
<path d="M80.6534 58.5831C80.6534 59.0169 80.3034 59.37 79.8688 59.37C79.4343 59.37 79.0842 59.0189 79.0842 58.5831C79.0842 58.1472 79.4343 57.7961 79.8688 57.7961C80.3034 57.7961 80.6534 58.1472 80.6534 58.5831Z" fill="#7EBDB8"/>
<path d="M96.3493 58.5831C96.3493 59.0169 95.9993 59.37 95.5647 59.37C95.1302 59.37 94.7802 59.0189 94.7802 58.5831C94.7802 58.1472 95.1302 57.7961 95.5647 57.7961C95.9993 57.7961 96.3493 58.1472 96.3493 58.5831Z" fill="#7EBDB8"/>
<path d="M25.8363 17.6839C25.8363 18.1177 25.4862 18.4708 25.0517 18.4708C24.6171 18.4708 24.2671 18.1197 24.2671 17.6839C24.2671 17.2481 24.6171 16.897 25.0517 16.897C25.4862 16.897 25.8363 17.2481 25.8363 17.6839Z" fill="#7EBDB8"/>
<path d="M33.6822 4.27421C33.6822 4.70802 33.3322 5.06112 32.8976 5.06112C32.4631 5.06112 32.113 4.71004 32.113 4.27421C32.113 3.83839 32.4631 3.4873 32.8976 3.4873C33.3322 3.4873 33.6822 3.83839 33.6822 4.27421Z" fill="#7EBDB8"/>
<path d="M44.2864 19.3324C44.2864 17.474 42.9103 16.2251 41.1158 16.1383C40.5666 16.1101 40.0013 16.0374 39.6532 15.644C39.4943 15.4402 39.3937 15.194 39.3937 14.9317C39.3937 14.3224 39.8866 13.828 40.4942 13.828C41.1601 13.828 41.7817 14.0318 42.2887 14.3647L43.8659 12.7829C43.2563 12.3047 42.5401 11.9536 41.7576 11.7679V9.93384H39.786V11.6973C38.3134 12.0242 37.2069 13.3458 37.2069 14.9297C37.2069 16.5136 38.2772 17.7747 39.7116 18.1379C40.2608 18.269 41.1299 18.1823 41.6509 18.4869C41.9547 18.6605 42.0855 18.9954 42.0855 19.3283C42.0855 19.9377 41.5926 20.432 40.9991 20.432C40.13 20.432 39.3495 20.0991 38.756 19.5462L37.2069 21.0999C37.913 21.7758 38.7982 22.2661 39.786 22.4901V23.8581H41.7576V22.5365C43.204 22.1915 44.2864 20.884 44.2864 19.3303V19.3324Z" fill="white"/>
<g opacity="0.8">
<path d="M89.1432 42.4799C89.107 41.35 88.1634 40.4662 87.0368 40.5025C85.9102 40.5389 85.0291 41.4852 85.0653 42.6131C85.0874 43.3011 85.363 43.8984 85.878 44.2515V42.9601C85.878 42.2479 86.4534 41.6728 87.1616 41.6728C87.8697 41.6728 88.4451 42.2499 88.4451 42.9601V44.1909C88.938 43.8055 89.1633 43.178 89.1412 42.4779L89.1432 42.4799Z" fill="#E07243"/>
</g>
<g opacity="0.4">
<path d="M91.7645 45.7909L92.183 46.2287C92.2635 46.3134 92.4043 46.3034 92.4707 46.2065C93.215 45.0947 93.6013 43.7752 93.557 42.4011C93.4403 38.8338 90.4508 36.0271 86.894 36.1442C86.6506 36.1522 86.4031 36.1744 86.1597 36.2087C83.2024 36.6385 80.8949 39.1203 80.6715 42.1105C80.5508 43.7368 81.0296 45.3046 81.9893 46.5536C82.0597 46.6464 82.2025 46.6464 82.277 46.5576L82.6652 46.0935C82.7216 46.0269 82.7216 45.9321 82.6713 45.8635C81.9933 44.9353 81.6151 43.8135 81.6111 42.6331C81.599 39.77 83.818 37.3487 86.6626 37.1207C89.8071 36.8604 92.4948 39.3079 92.5974 42.4314C92.6336 43.5492 92.3298 44.6347 91.7424 45.5608C91.6961 45.6335 91.7042 45.7283 91.7645 45.7888V45.7909Z" fill="#E07243"/>
</g>
<g opacity="0.6">
<path d="M90.2497 44.1162L90.7506 44.6408C90.8532 44.7497 91.0323 44.7175 91.0946 44.5823C91.3803 43.9669 91.5191 43.295 91.497 42.6009C91.4286 40.5307 89.9036 38.7692 87.8697 38.4121C87.2763 38.3072 86.6566 38.3274 86.0712 38.4706C84.0654 38.9609 82.6592 40.8192 82.7276 42.8894C82.7497 43.5835 82.9328 44.2453 83.2587 44.8405C83.3311 44.9717 83.5102 44.9899 83.6068 44.8769L84.0715 44.322C84.1238 44.2594 84.1338 44.1727 84.0996 44.1C83.9246 43.7086 83.824 43.2869 83.81 42.8571C83.7637 41.473 84.5966 40.1937 85.8781 39.6732C86.5943 39.3846 87.407 39.3564 88.1393 39.5985C89.453 40.0323 90.3664 41.253 90.4126 42.6392C90.4267 43.069 90.3543 43.4967 90.2074 43.8983C90.1793 43.9749 90.1954 44.0597 90.2497 44.1182V44.1162Z" fill="#E07243"/>
</g>
<path d="M121.477 29.3424C121.477 28.8098 121.082 28.4526 120.569 28.4284C120.412 28.4203 120.249 28.4002 120.151 28.2872C120.105 28.2287 120.076 28.158 120.076 28.0834C120.076 27.9079 120.217 27.7666 120.392 27.7666C120.583 27.7666 120.76 27.8251 120.905 27.92L121.356 27.468C121.181 27.3308 120.976 27.2299 120.752 27.1774V26.6528H120.189V27.1573C119.769 27.2501 119.451 27.6294 119.451 28.0834C119.451 28.5374 119.756 28.8986 120.167 29.0015C120.324 29.0398 120.573 29.0136 120.722 29.1003C120.809 29.1508 120.847 29.2456 120.847 29.3404C120.847 29.514 120.706 29.6572 120.537 29.6572C120.288 29.6572 120.064 29.5624 119.895 29.403L119.453 29.8469C119.654 30.0406 119.907 30.1818 120.191 30.2444V30.6358H120.754V30.2565C121.169 30.1576 121.479 29.7823 121.479 29.3384L121.477 29.3424Z" fill="white"/>
<path d="M120.404 25.7871C118.743 25.7871 117.389 27.143 117.389 28.8117C117.389 30.4803 118.743 31.8362 120.404 31.8362C122.066 31.8362 123.42 30.4803 123.42 28.8117C123.42 27.143 122.068 25.7871 120.404 25.7871ZM121.744 30.8213C120.64 31.5618 119.139 31.2632 118.401 30.1555C117.662 29.0477 117.96 27.5425 119.064 26.802C120.169 26.0615 121.67 26.3601 122.408 27.4679C123.146 28.5756 122.849 30.0808 121.744 30.8213Z" fill="#E07243"/>
<path d="M129.457 24.0701H111.47V33.4303H129.457V24.0701ZM128.58 30.6599H128.457C127.926 30.6599 127.448 30.8758 127.1 31.2249C126.751 31.574 126.536 32.0542 126.536 32.5868V32.7099H114.276V32.5868C114.276 32.0542 114.061 31.574 113.713 31.2249C113.365 30.8758 112.886 30.6599 112.355 30.6599H112.232V26.9594H112.355C112.886 26.9594 113.365 26.7435 113.713 26.3945C114.061 26.0454 114.276 25.5652 114.276 25.0325V24.9094H126.536V25.0325C126.536 25.5652 126.751 26.0454 127.1 26.3945C127.448 26.7435 127.926 26.9594 128.457 26.9594H128.58V30.6599Z" fill="#E07243"/>
<path d="M128.91 23.8623L128.916 23.8735C128.916 23.8735 128.914 23.866 128.91 23.8623Z" fill="#E07243"/>
<path d="M70.51 58.9524C70.51 58.9524 70.5281 58.9524 70.5382 58.9524V55.0723C70.5382 54.7091 70.2445 54.4146 69.8823 54.4146H58.4132C58.051 54.4146 57.7573 54.7091 57.7573 55.0723V62.1384C57.7573 62.5016 58.051 62.7961 58.4132 62.7961H67.4722C67.4179 62.5661 67.3877 62.3301 67.3877 62.0839C67.3877 60.3567 68.7899 58.9504 70.512 58.9504L70.51 58.9524ZM57.9484 57.7579V55.6211H70.3471V57.7579H57.9484Z" fill="#F1CCB6"/>
<path d="M70.1982 61.5514C70.1982 61.6422 70.2485 61.7067 70.3471 61.743V61.3657C70.3471 61.3657 70.335 61.3698 70.329 61.3718C70.2405 61.4141 70.1982 61.4727 70.1982 61.5493V61.5514Z" fill="#E07243"/>
<path d="M70.8159 62.7639C70.832 62.7559 70.8501 62.7478 70.8641 62.7377C70.9527 62.6853 70.9969 62.6086 70.9969 62.5117C70.9969 62.4068 70.9366 62.3362 70.8138 62.2979V62.7639H70.8159Z" fill="#E07243"/>
<path d="M67.9551 62.086C67.9551 63.4984 69.1018 64.6485 70.5121 64.6485C71.9223 64.6485 73.069 63.4984 73.069 62.086C73.069 60.6736 71.9223 59.5215 70.5121 59.5215C69.1018 59.5215 67.9551 60.6716 67.9551 62.086ZM70.8178 60.609V60.8491C71.0653 60.8915 71.2685 61.0045 71.4254 61.1821C71.4475 61.2022 71.4596 61.2265 71.4576 61.2547C71.4576 61.289 71.4395 61.3173 71.4053 61.3374L71.1538 61.4968C71.1538 61.4968 71.1096 61.519 71.0774 61.519C71.0371 61.519 71.0029 61.5069 70.9728 61.4807C70.9245 61.4383 70.8722 61.404 70.8199 61.3798V61.8055C71.1216 61.8479 71.3429 61.9549 71.4858 62.1243C71.5743 62.2313 71.6165 62.3604 71.6125 62.5138C71.6085 62.7579 71.4998 62.9496 71.2906 63.0888C71.1578 63.1756 71.0009 63.2321 70.8199 63.2603V63.4702C70.8199 63.5388 70.7655 63.5932 70.6971 63.5932H70.4718C70.4034 63.5932 70.3491 63.5388 70.3491 63.4702V63.2603C70.1459 63.228 69.9628 63.1493 69.7999 63.0242C69.6993 62.9476 69.6188 62.8669 69.5605 62.7841C69.5424 62.764 69.5343 62.7438 69.5343 62.7176C69.5343 62.6812 69.5524 62.651 69.5927 62.6268L69.822 62.4916C69.822 62.4916 69.8663 62.4714 69.8884 62.4714C69.9306 62.4714 69.9628 62.4875 69.987 62.5198C70.0996 62.6429 70.2203 62.7276 70.3491 62.772V62.2414C70.0534 62.195 69.8401 62.084 69.7094 61.9084C69.6309 61.8055 69.5907 61.6845 69.5886 61.5493C69.5826 61.2749 69.7315 61.0671 70.0353 60.9299C70.1298 60.8875 70.2344 60.8572 70.3511 60.8411V60.607C70.3511 60.5384 70.4054 60.4839 70.4738 60.4839H70.6991C70.7675 60.4839 70.8219 60.5384 70.8219 60.607L70.8178 60.609Z" fill="#E07243"/>
<path d="M64.0462 24.7965C64.0019 24.7622 63.9396 24.7582 63.8893 24.7844C63.837 24.8106 63.8048 24.8631 63.8048 24.9196V26.2069C60.9742 26.3844 58.7532 28.7331 58.7532 31.5114C58.7532 32.8189 59.24 34.074 60.1292 35.0546C60.1574 35.0848 60.1956 35.101 60.2338 35.103C60.266 35.103 60.2962 35.0929 60.3244 35.0727L61.5717 34.0921C61.6039 34.0659 61.624 34.0296 61.626 33.9872C61.628 33.9468 61.6139 33.9065 61.5838 33.8762C60.9561 33.2366 60.61 32.3992 60.61 31.5135C60.61 29.7439 62.0163 28.2549 63.8027 28.1237V29.413C63.8027 29.4695 63.8349 29.52 63.8872 29.5442C63.9396 29.5684 63.9999 29.5603 64.0442 29.526L65.5047 28.3699C65.5047 28.3699 65.5248 28.3598 65.5329 28.3517L66.0942 27.9038L66.9613 27.2157C66.9975 27.1875 67.0196 27.1431 67.0196 27.0967C67.0196 27.0503 66.9975 27.0079 66.9613 26.9817L64.0442 24.7985L64.0462 24.7965Z" fill="#E07243"/>
<path d="M67.7599 27.7564L66.4302 28.8137C66.396 28.8419 66.3758 28.8823 66.3738 28.9246C66.3718 28.967 66.3879 29.0094 66.4201 29.0376C67.1222 29.6873 67.5105 30.5671 67.5105 31.5134C67.5105 33.3838 65.9815 34.887 64.1106 34.9112V33.5795C64.1106 33.523 64.0784 33.4706 64.0261 33.4463C63.9738 33.4221 63.9134 33.4282 63.8692 33.4625L62.4448 34.5642C62.4187 34.5722 62.3965 34.5884 62.3804 34.6106C62.3784 34.6126 62.3764 34.6166 62.3744 34.6186L61.0426 35.6497C61.0084 35.6759 60.9883 35.7183 60.9883 35.7627C60.9883 35.8071 61.0084 35.8494 61.0426 35.8777L63.8692 38.188C63.8953 38.2102 63.9295 38.2223 63.9617 38.2223C63.9838 38.2223 64.006 38.2182 64.0261 38.2102C64.0784 38.188 64.1106 38.1375 64.1106 38.081V36.8301C67.08 36.8522 69.5444 34.4895 69.5444 31.5134C69.5444 30.101 68.9831 28.7673 67.9712 27.7665C67.9149 27.712 67.8243 27.708 67.762 27.7564H67.7599Z" fill="#7EBDB8"/>
<path d="M40.9409 72.5579C40.9409 72.0575 40.5365 71.6499 40.0356 71.6499C39.5346 71.6499 39.1302 72.0555 39.1302 72.5579C39.1302 72.8605 39.2771 73.1269 39.5044 73.2903L39.261 75.0235H40.8121L40.5687 73.2903C40.794 73.1249 40.9429 72.8585 40.9429 72.5579H40.9409Z" fill="white"/>
<path d="M38.9552 68.0886C38.5408 68.3529 38.2933 68.8149 38.2933 69.3093V70.6248H41.7677V69.2972C41.6269 68.0906 40.2588 67.2573 38.9552 68.0865V68.0886Z" fill="white"/>
<path d="M46.1896 61.3252H33.8815L27.7274 72.0151L33.8815 82.7049H46.1896L52.3436 72.0151L46.1896 61.3252ZM43.8096 76.5025H36.2594V70.6249H36.9293V69.3053C36.9293 68.2641 37.4906 67.2956 38.408 66.8114C40.7658 65.5664 43.1397 67.2633 43.1397 69.503H43.1196V70.6249H43.8096V76.5025Z" fill="white"/>
<path d="M87.9441 42.863C87.93 42.4615 87.596 42.1467 87.1957 42.1609H87.1434C86.6364 42.179 86.2381 42.6048 86.2542 43.1152V44.3602L86.2602 47.1022C86.2441 47.187 86.2944 49.0917 86.2944 49.0917C86.1294 48.9323 85.9443 48.7507 85.7774 48.5772C85.3891 48.1696 84.691 47.9093 84.2303 47.873C83.9889 47.8528 83.8058 47.8932 83.6851 47.988C83.6469 48.0203 83.6087 48.0546 83.5745 48.0909C83.3451 48.333 83.1802 48.7144 83.3532 48.9848C83.4276 49.1038 83.5543 49.1785 83.6871 49.2592C83.8642 49.3661 84.1579 49.4771 84.3852 49.7495C84.7675 50.2075 85.6486 51.2285 86.1878 51.7712C86.2984 51.8358 86.5358 52.0578 86.6444 52.1122C86.9804 52.312 87.254 52.5016 87.3506 52.6046C87.427 52.6853 87.8636 52.8931 87.8636 52.8931C88.2177 53.1029 88.8574 53.2886 89.5897 53.2644C90.32 53.2401 90.9839 53.2623 91.4586 52.8144H91.4848L91.4969 52.7801C91.9797 52.3059 92.2694 51.6603 92.2473 50.9601C92.2412 50.7866 92.2211 50.147 92.2171 50.0259L92.1386 47.6067C92.1326 47.4432 92.0783 46.8924 91.6115 46.7431C91.3862 46.6705 91.179 46.7088 91.002 46.7915L90.9597 46.7956H90.9477C90.8571 46.4969 90.6499 46.3073 90.3522 46.2669C89.9921 46.2165 89.7466 46.3315 89.6018 46.4465C89.4428 46.1317 89.1391 45.9743 88.7367 46.0208C88.4349 46.0571 88.2157 46.2124 88.0587 46.4142L87.9903 44.3501L87.9421 42.865L87.9441 42.863Z" fill="white"/>
<path d="M81.7842 100.442L64.9901 113.999L65.342 114.438L82.1362 100.881L81.7842 100.442Z" fill="#E07243"/>
<path d="M82.8081 106.837C86.1497 109.436 90.3463 110.983 94.9009 110.983C101.16 110.983 106.738 108.064 110.357 103.51L94.9009 91.1692L82.8081 106.837Z" fill="#7EBDB8"/>
<path d="M94.6595 69.5435C83.7476 69.5435 74.9038 78.4154 74.9038 89.3574C74.9038 92.7492 75.7528 95.9392 77.2516 98.7297L94.6615 89.3574V69.5435H94.6595Z" fill="#E07243"/>
<path d="M95.5044 89.9607L110.961 102.301C113.653 98.9153 115.26 94.6277 115.26 89.9607H95.5044Z" fill="#F1CCB6"/>
<path d="M80.6896 107.838L80.4683 107.664C78.2614 105.947 76.3965 103.74 75.0767 101.28L74.944 101.032L93.7642 90.8989L80.6916 107.836L80.6896 107.838ZM75.7064 101.262C76.9336 103.471 78.6155 105.463 80.5911 107.047L91.7041 92.6503L75.7064 101.264V101.262Z" fill="white"/>
<path d="M65.8728 113.655C66.1887 114.048 66.1263 114.625 65.734 114.942C65.3417 115.259 64.7664 115.196 64.4505 114.803C64.1347 114.409 64.197 113.832 64.5893 113.516C64.9816 113.199 65.557 113.261 65.8728 113.655Z" fill="#7EBDB8"/>
<path d="M117.204 87.4405H115.914V87.0471H116.831L117.204 87.043C117.204 87.1096 117.204 87.1762 117.204 87.2448V87.4425V87.4405ZM115.184 87.4405H113.892V87.0471H115.184V87.4405ZM113.162 87.4405H111.87V87.0471H113.162V87.4405ZM111.14 87.4405H109.848V87.0471H111.14V87.4405ZM109.118 87.4405H107.827V87.0471H109.118V87.4405ZM107.096 87.4405H105.805V87.0471H107.096V87.4405ZM105.074 87.4405H103.783V87.0471H105.074V87.4405ZM103.053 87.4405H101.761V87.0471H103.053V87.4405ZM101.031 87.4405H99.7392V87.0471H101.031V87.4405ZM99.0089 87.4405H97.7174V87.0471H99.0089V87.4405ZM97.4498 86.9764H97.0575V85.6811H97.4498V86.9764ZM116.791 86.3207C116.771 85.8949 116.737 85.4652 116.69 85.0435L117.081 84.9991C117.129 85.4309 117.163 85.8687 117.183 86.3025L116.791 86.3207ZM97.4498 84.9466H97.0575V83.6513H97.4498V84.9466ZM116.598 84.3231C116.536 83.9014 116.457 83.4777 116.369 83.0621L116.753 82.9793C116.845 83.4031 116.924 83.8369 116.988 84.2667L116.6 84.3252L116.598 84.3231ZM97.4498 82.9188H97.0575V81.6234H97.4498V82.9188ZM116.202 82.3559C116.097 81.9443 115.976 81.5286 115.844 81.1251L116.218 81.002C116.353 81.4136 116.475 81.8373 116.584 82.257L116.204 82.3559H116.202ZM97.4498 80.889H97.0575V79.5936H97.4498V80.889ZM115.604 80.437C115.457 80.0375 115.294 79.638 115.121 79.2486L115.479 79.0872C115.656 79.4847 115.821 79.8922 115.972 80.2998L115.604 80.437ZM97.4498 78.8612H97.0575V77.5658H97.4498V78.8612ZM114.814 78.5908C114.626 78.2095 114.423 77.8281 114.212 77.4589L114.552 77.2611C114.769 77.6385 114.974 78.0279 115.166 78.4173L114.814 78.5908ZM113.838 76.8374C113.612 76.4762 113.373 76.1191 113.124 75.7721L113.441 75.542C113.695 75.8951 113.94 76.2604 114.17 76.6276L113.836 76.8374H113.838ZM97.4478 76.8334H97.0555V75.538H97.4478V76.8334ZM112.689 75.193C112.428 74.858 112.152 74.5251 111.87 74.2083L112.164 73.946C112.452 74.2709 112.733 74.6078 112.999 74.9509L112.689 75.193ZM97.4478 74.8056H97.0555V73.5102H97.4478V74.8056ZM111.379 73.6736C111.086 73.3669 110.778 73.0643 110.466 72.7758L110.732 72.4852C111.051 72.7778 111.363 73.0865 111.663 73.3992L111.379 73.6716V73.6736ZM97.4478 72.7758H97.0555V71.4804H97.4478V72.7758ZM109.925 72.2955C109.603 72.0191 109.265 71.7508 108.925 71.4965L109.16 71.1797C109.508 71.44 109.85 71.7144 110.18 71.9949L109.925 72.2955ZM108.338 71.0748C107.988 70.8327 107.627 70.6007 107.263 70.3827L107.464 70.0438C107.837 70.2657 108.205 70.5038 108.561 70.75L108.338 71.0748ZM97.4458 70.748H97.0535V69.4526H97.4458V70.748ZM106.636 70.0236C106.263 69.8198 105.881 69.6241 105.497 69.4445L105.662 69.0874C106.054 69.271 106.444 69.4687 106.825 69.6765L106.636 70.0216V70.0236ZM104.837 69.1519C104.447 68.9865 104.044 68.8331 103.646 68.6939L103.775 68.3206C104.183 68.4619 104.592 68.6193 104.99 68.7888L104.837 69.1519ZM97.4458 68.7201H97.0535V67.4248H97.4458V68.7201ZM102.958 68.4699C102.552 68.3469 102.137 68.2339 101.723 68.137L101.813 67.7537C102.236 67.8525 102.658 67.9675 103.073 68.0926L102.958 68.4699ZM101.017 67.9857C100.6 67.905 100.176 67.8364 99.7553 67.7819L99.8056 67.3905C100.236 67.4449 100.669 67.5156 101.093 67.5983L101.019 67.9857H101.017ZM99.0371 67.7032C98.6146 67.6649 98.1861 67.6407 97.7616 67.6286L97.7717 67.2351C98.2042 67.2472 98.6428 67.2714 99.0733 67.3118L99.0371 67.7052V67.7032Z" fill="white"/>
<path d="M55.5585 115.428V112.258H55.0314V111.825C55.1802 111.806 55.3211 111.75 55.4559 111.655C55.5906 111.56 55.6872 111.445 55.7456 111.308H56.1781V115.426H55.5585V115.428Z" fill="white"/>
<path d="M56.6951 112.472C56.6951 112.083 56.7997 111.784 57.009 111.579C57.19 111.397 57.4274 111.306 57.7231 111.306C57.9947 111.306 58.2241 111.407 58.4152 111.611C58.6063 111.815 58.7009 112.053 58.7009 112.323C58.7009 112.593 58.6385 112.874 58.5138 113.134C58.4454 113.279 58.2884 113.528 58.039 113.879C57.9706 113.976 57.87 114.125 57.7372 114.329L57.6266 114.496C57.5541 114.605 57.4998 114.692 57.4636 114.756C57.4455 114.789 57.4375 114.809 57.4375 114.815H58.6526V115.422H56.6851V114.853C56.6851 114.839 56.7293 114.765 56.8198 114.625C56.8621 114.563 56.9084 114.492 56.9607 114.415L57.1216 114.183C57.2162 114.054 57.363 113.848 57.5642 113.562C57.7533 113.296 57.8962 113.053 57.9907 112.836C58.0672 112.658 58.1054 112.493 58.1054 112.339C58.1054 112.214 58.0712 112.109 58.0008 112.02C57.9243 111.928 57.8257 111.883 57.707 111.883C57.534 111.883 57.4133 111.982 57.3409 112.182C57.3168 112.248 57.3047 112.327 57.3047 112.418V112.575H56.6951V112.466V112.472Z" fill="white"/>
<path d="M60.5819 112.823C60.5819 112.963 60.5316 113.084 60.429 113.185C60.3284 113.286 60.2077 113.336 60.0669 113.336C59.9261 113.336 59.8034 113.286 59.7028 113.185C59.6022 113.084 59.5519 112.963 59.5519 112.823V111.647C59.5519 111.504 59.6022 111.383 59.7028 111.282C59.8034 111.181 59.9241 111.131 60.0669 111.131C60.2097 111.131 60.3304 111.181 60.431 111.284C60.5316 111.385 60.5819 111.506 60.5819 111.647V112.823ZM60.1132 115.497H59.749L61.8453 111.143H62.2054L60.1132 115.497ZM59.8718 112.817C59.8718 112.87 59.8899 112.914 59.9261 112.951C59.9623 112.987 60.0065 113.005 60.0588 113.005C60.1112 113.005 60.1554 112.987 60.1916 112.951C60.2278 112.914 60.2459 112.87 60.2459 112.817V111.641C60.2459 111.589 60.2278 111.544 60.1916 111.508C60.1554 111.472 60.1112 111.453 60.0588 111.453C60.0065 111.453 59.9623 111.472 59.9261 111.508C59.8899 111.544 59.8718 111.589 59.8718 111.641V112.817ZM61.8916 113.247C62.0344 113.247 62.1531 113.298 62.2537 113.401C62.3523 113.501 62.4026 113.622 62.4026 113.764V114.94C62.4026 115.083 62.3523 115.202 62.2517 115.301C62.1511 115.4 62.0304 115.449 61.8916 115.449C61.7528 115.449 61.628 115.398 61.5274 115.299C61.4269 115.2 61.3766 115.079 61.3766 114.94V113.764C61.3766 113.62 61.4269 113.499 61.5274 113.399C61.628 113.298 61.7487 113.247 61.8916 113.247ZM62.0686 113.756C62.0686 113.703 62.0505 113.659 62.0143 113.622C61.9781 113.586 61.9338 113.568 61.8815 113.568C61.8292 113.568 61.785 113.586 61.7487 113.622C61.7125 113.659 61.6944 113.703 61.6944 113.756V114.932C61.6944 114.984 61.7125 115.029 61.7487 115.065C61.785 115.101 61.8292 115.12 61.8815 115.12C61.9338 115.12 61.9781 115.101 62.0143 115.065C62.0505 115.029 62.0686 114.984 62.0686 114.932V113.756Z" fill="white"/>
<path d="M160.66 89.8518H148.189L141.882 78.8956L148.117 68.0645L148.547 68.3126L142.455 78.8956L148.475 89.3534H160.66V89.8518Z" fill="#E07243"/>
<path d="M179.247 100.56H166.633L160.326 89.6037L166.633 78.6475H179.247L185.554 89.6037L179.247 100.56ZM166.921 100.061H178.961L184.98 89.6037L178.961 79.1458H166.921L160.901 89.6037L166.921 100.061Z" fill="#E07243"/>
<path d="M179.322 100.186L178.891 100.435L185.054 111.142L185.485 110.892L179.322 100.186Z" fill="#E07243"/>
<path d="M197.784 111.141L197.353 110.893L203.445 100.31L197.353 89.7267L197.784 89.4785L204.02 100.31L197.784 111.141Z" fill="#E07243"/>
<path d="M203.517 78.7683L197.354 89.4746L197.784 89.7238L203.947 79.0175L203.517 78.7683Z" fill="#E07243"/>
<path d="M224.798 100.062H203.732V100.56H224.798V100.062Z" fill="#E07243"/>
<path d="M141.812 78.6172H104.439V79.1156H141.812V78.6172Z" fill="#E07243"/>
<path d="M155.043 75.2294L154.665 74.9045L163.742 64.2369L167.963 69.6625L175.682 59.8968L179.327 64.253L186.336 56.9065L186.695 57.2515L179.303 64.9996L175.694 60.6857L167.959 70.4676L163.724 65.0258L155.043 75.2294Z" fill="white"/>
<path d="M184.938 56.5413L188.093 55.4961L187.051 58.6619L184.938 56.5413Z" fill="white"/>
<path d="M188.177 102.482H186.107V104.655H188.177V102.482Z" fill="#E07243"/>
<path d="M190.968 98.3198H188.898V104.655H190.968V98.3198Z" fill="#E07243"/>
<path d="M193.756 94.793H191.686V104.656H193.756V94.793Z" fill="#F1CCB6"/>
<path d="M196.544 96.9177H194.474V104.654H196.544V96.9177Z" fill="#E07243"/>
<g opacity="0.8">
<path d="M193.756 93.199H191.686V94.458H193.756V93.199Z" fill="#F1CCB6"/>
</g>
<g opacity="0.5">
<path d="M196.544 93.9639H194.474V95.2229H196.544V93.9639Z" fill="#E07243"/>
</g>
<g opacity="0.5">
<path d="M190.968 95.3501H188.897V96.6092H190.968V95.3501Z" fill="#E07243"/>
</g>
<path d="M197.647 105.54H185.003V105.788H197.647V105.54Z" fill="white"/>
<path d="M196.542 95.4287H194.474V96.6878H196.542V95.4287Z" fill="#E07243"/>
<path d="M190.968 96.8208H188.897V98.0799H190.968V96.8208Z" fill="#E07243"/>
<path d="M188.177 100.947H186.107V102.206H188.177V100.947Z" fill="#E07243"/>
<g opacity="0.5">
<path d="M188.177 99.3088H186.107V100.568H188.177V99.3088Z" fill="#E07243"/>
</g>
<g opacity="0.6">
<path d="M193.756 91.6958H191.686V92.9549H193.756V91.6958Z" fill="#F1CCB6"/>
</g>
<path d="M214.654 95.013L214.63 88.3425C214.793 88.2597 214.924 88.1286 215.004 87.9631L218.416 87.951L218.519 87.7452C218.541 87.7008 218.587 87.6726 218.638 87.6726C218.688 87.6726 218.734 87.7008 218.756 87.7452L218.861 87.949H219.046C219.255 87.949 219.422 87.7775 219.422 87.5677C219.422 87.3598 219.251 87.1903 219.044 87.1903L215 87.2065C214.918 87.0431 214.787 86.9119 214.624 86.8312V86.472C214.624 86.2642 214.453 86.0947 214.244 86.0947C214.035 86.0947 213.868 86.2662 213.868 86.4741V86.8332C213.707 86.9159 213.576 87.0471 213.496 87.2105L209.452 87.2267C209.243 87.2267 209.076 87.3982 209.076 87.606C209.076 87.8158 209.247 87.9833 209.454 87.9833H209.639L209.742 87.7775C209.764 87.7331 209.81 87.7049 209.86 87.7049C209.911 87.7049 209.957 87.7331 209.979 87.7775L210.084 87.9813L213.496 87.9692C213.578 88.1326 213.709 88.2638 213.872 88.3445L213.896 95.015H214.65L214.654 95.013Z" fill="#7EBDB8"/>
<path d="M218.756 87.7433C218.734 87.6989 218.688 87.6707 218.638 87.6707C218.587 87.6707 218.541 87.6989 218.519 87.7433L218.416 87.9491L216.503 91.7646C216.493 91.7848 216.491 91.805 216.491 91.8251H216.773L218.642 88.0984L220.537 91.811H220.818C220.818 91.7888 220.814 91.7686 220.804 91.7485L218.863 87.9471L218.758 87.7433H218.756Z" fill="#7EBDB8"/>
<path d="M216.771 91.825H216.489H216.322C216.326 93.1163 217.374 94.1595 218.662 94.1554C219.949 94.1514 220.989 93.1002 220.983 91.8088H220.816H220.535L216.771 91.823V91.825Z" fill="#7EBDB8"/>
<path d="M209.981 87.7775C209.959 87.7331 209.913 87.7048 209.862 87.7048C209.812 87.7048 209.766 87.7331 209.744 87.7775L209.641 87.9833L207.728 91.7988C207.718 91.819 207.716 91.8391 207.716 91.8593H207.997L209.866 88.1326L211.761 91.8452H212.043C212.043 91.823 212.039 91.8028 212.029 91.7826L210.086 87.9813L209.981 87.7775Z" fill="#7EBDB8"/>
<path d="M207.995 91.8594H207.714H207.545C207.549 93.1507 208.597 94.1939 209.884 94.1899C211.172 94.1858 212.212 93.1346 212.208 91.8433H212.041H211.759L207.995 91.8574V91.8594Z" fill="#7EBDB8"/>
<path d="M214.654 95.013L213.9 95.015L211.9 95.023L211.902 95.5638L210.689 95.5678L210.691 96.1086L217.851 96.0803L217.849 95.5416L216.636 95.5456L216.634 95.0049L214.654 95.013Z" fill="#7EBDB8"/>
<path d="M127.94 64.6384C127.478 64.6384 127.105 65.0137 127.105 65.4758C127.105 65.9378 127.48 66.3131 127.94 66.3131C128.401 66.3131 128.775 65.9378 128.775 65.4758C128.775 65.0137 128.401 64.6384 127.94 64.6384Z" fill="white"/>
<path d="M140.132 54.2673H127.452L121.112 65.28L127.452 76.2927H140.132L146.471 65.28L140.132 54.2673ZM140.601 66.0932H140.152L139.685 65.504H139.309L138.913 65.9681H138.492L137.989 65.3426L137.565 65.9681H137.366L137.166 65.6473H136.901L136.738 66.1033H136.239L136.018 65.8389H135.467L135.312 66.3635L133.68 66.3837L133.62 66.8175H132.829C132.306 68.0604 131.081 68.9341 129.65 68.9341C127.745 68.9341 126.202 67.3865 126.202 65.4757C126.202 63.565 127.745 62.0174 129.65 62.0174C131.081 62.0174 132.306 62.8911 132.829 64.134H140.599L141.379 64.9168V65.2094L140.599 66.0952L140.601 66.0932Z" fill="white"/>
<path d="M142.777 78.8672C142.777 79.3151 142.415 79.6763 141.971 79.6763C141.526 79.6763 141.164 79.3131 141.164 78.8672C141.164 78.4213 141.526 78.0581 141.971 78.0581C142.415 78.0581 142.777 78.4213 142.777 78.8672Z" fill="#7EBDB8"/>
<path d="M167.754 78.8672C167.754 79.3151 167.391 79.6763 166.947 79.6763C166.502 79.6763 166.14 79.3131 166.14 78.8672C166.14 78.4213 166.502 78.0581 166.947 78.0581C167.391 78.0581 167.754 78.4213 167.754 78.8672Z" fill="#7EBDB8"/>
<path d="M204.539 78.8672C204.539 79.3151 204.177 79.6763 203.732 79.6763C203.288 79.6763 202.926 79.3131 202.926 78.8672C202.926 78.4213 203.288 78.0581 203.732 78.0581C204.177 78.0581 204.539 78.4213 204.539 78.8672Z" fill="#7EBDB8"/>
<path d="M186.075 111.31C186.075 111.758 185.713 112.119 185.268 112.119C184.824 112.119 184.461 111.756 184.461 111.31C184.461 110.864 184.824 110.501 185.268 110.501C185.713 110.501 186.075 110.864 186.075 111.31Z" fill="#7EBDB8"/>
<path d="M167.585 100.31C167.585 100.758 167.223 101.119 166.778 101.119C166.333 101.119 165.971 100.756 165.971 100.31C165.971 99.8637 166.333 99.5005 166.778 99.5005C167.223 99.5005 167.585 99.8637 167.585 100.31Z" fill="#7EBDB8"/>
<path d="M224.798 100.31C224.798 100.758 224.436 101.119 223.991 101.119C223.546 101.119 223.184 100.756 223.184 100.31C223.184 99.8637 223.546 99.5005 223.991 99.5005C224.436 99.5005 224.798 99.8637 224.798 100.31Z" fill="#7EBDB8"/>
<path d="M204.539 100.31C204.539 100.758 204.177 101.119 203.732 101.119C203.288 101.119 202.926 100.756 202.926 100.31C202.926 99.8637 203.288 99.5005 203.732 99.5005C204.177 99.5005 204.539 99.8637 204.539 100.31Z" fill="#7EBDB8"/>
<path d="M160.399 89.6783L159.415 89.0952L159.592 88.7945L160.576 89.3776L160.399 89.6783ZM158.86 88.7643L157.876 88.1811L158.053 87.8805L159.037 88.4636L158.86 88.7643ZM157.32 87.8502L156.337 87.2671L156.514 86.9665L157.498 87.5496L157.32 87.8502ZM155.781 86.9362L154.798 86.3531L154.975 86.0524L155.959 86.6356L155.781 86.9362ZM154.242 86.0222L153.259 85.4391L153.436 85.1384L154.42 85.7215L154.242 86.0222ZM152.703 85.1082L151.72 84.525L151.897 84.2244L152.88 84.8075L152.703 85.1082ZM151.164 84.1941L150.181 83.611L150.358 83.3104L151.341 83.8935L151.164 84.1941ZM149.625 83.2801L148.642 82.697L148.819 82.3963L149.802 82.9795L149.625 83.2801ZM148.086 82.3661L147.103 81.783L147.28 81.4823L148.263 82.0654L148.086 82.3661ZM146.547 81.452L145.564 80.8689L145.741 80.5683L146.724 81.1514L146.547 81.452ZM145.008 80.538L144.025 79.9549L144.202 79.6543L145.185 80.2374L145.008 80.538ZM143.469 79.624L142.486 79.0409L142.663 78.7402L143.646 79.3234L143.469 79.624Z" fill="white"/>
<path d="M166.864 100.461L166.691 100.158L167.681 99.5852L167.854 99.8878L166.864 100.461ZM168.413 99.563L168.24 99.2603L169.23 98.6873L169.403 98.9899L168.413 99.563ZM169.963 98.6651L169.79 98.3624L170.779 97.7894L170.952 98.0921L169.963 98.6651ZM171.512 97.7672L171.339 97.4645L172.328 96.8915L172.501 97.1942L171.512 97.7672ZM173.061 96.8693L172.888 96.5667L173.877 95.9936L174.051 96.2963L173.061 96.8693ZM174.61 95.9714L174.437 95.6688L175.427 95.0957L175.6 95.3984L174.61 95.9714ZM176.159 95.0736L175.986 94.7709L176.976 94.1979L177.149 94.5005L176.159 95.0736ZM177.708 94.1757L177.535 93.873L178.525 93.3L178.698 93.6026L177.708 94.1757ZM179.257 93.2778L179.084 92.9751L180.074 92.4021L180.247 92.7048L179.257 93.2778ZM180.806 92.3799L180.633 92.0772L181.623 91.5042L181.796 91.8069L180.806 92.3799ZM182.355 91.482L182.182 91.1794L183.172 90.6063L183.345 90.909L182.355 91.482ZM183.904 90.5841L183.731 90.2815L184.721 89.7084L184.894 90.0111L183.904 90.5841ZM185.453 89.6862L185.28 89.3836L186.27 88.8106L186.443 89.1132L185.453 89.6862ZM187.002 88.7884L186.829 88.4857L187.819 87.9127L187.992 88.2153L187.002 88.7884ZM188.551 87.8905L188.378 87.5878L189.368 87.0148L189.541 87.3174L188.551 87.8905ZM190.101 86.9926L189.928 86.6899L190.917 86.1169L191.09 86.4196L190.101 86.9926ZM191.65 86.0947L191.477 85.7921L192.466 85.219L192.639 85.5217L191.65 86.0947ZM193.199 85.1968L193.026 84.8942L194.015 84.3211L194.188 84.6238L193.199 85.1968ZM194.748 84.2989L194.575 83.9963L195.565 83.4233L195.738 83.7259L194.748 84.2989ZM196.297 83.4011L196.124 83.0984L197.114 82.5254L197.287 82.828L196.297 83.4011ZM197.846 82.5032L197.673 82.2005L198.663 81.6275L198.836 81.9301L197.846 82.5032ZM199.395 81.6053L199.222 81.3026L200.212 80.7296L200.385 81.0323L199.395 81.6053ZM200.944 80.7074L200.771 80.4047L201.761 79.8317L201.934 80.1344L200.944 80.7074ZM202.493 79.8095L202.32 79.5069L203.31 78.9338L203.483 79.2365L202.493 79.8095Z" fill="white"/>
</svg>
