<svg width="199" height="148" viewBox="0 0 199 148" fill="none" xmlns="http://www.w3.org/2000/svg">
<g clip-path="url(#clip0_1_2345)">
<path d="M193.28 84.8389C192.719 78.2886 186.318 78.3508 186.421 71.7798C186.509 65.9133 199.496 61.3416 198.196 55.6132C195.924 45.6203 180.157 50.5546 178.569 45.8241C177.379 42.2779 179.739 40.6205 182.702 38.2449C195.927 27.634 169.292 18.9705 153.227 24.6886C147.161 26.8467 141.082 25.9179 135.113 23.5422C132.519 22.5098 130.368 20.6728 127.973 19.2606C122.349 15.9423 115.261 15.0791 108.969 16.9471C105.008 18.1211 101.409 20.3034 97.4064 21.3254C91.8541 22.7446 85.7032 21.7502 80.9206 18.6632L72.2005 18.9084C65.923 17.8103 59.3513 18.3594 53.3577 20.4795C51.117 21.2736 48.801 22.42 47.7131 24.4849C46.745 26.3218 46.9229 28.5766 45.965 30.4205C44.6924 32.8617 41.7982 33.9839 39.1469 34.9024C34.5799 36.4839 30.0163 38.0653 25.4493 39.6468C20.1262 41.4906 14.5056 43.5382 11.0572 47.8924C7.60885 52.2465 7.63622 59.66 12.5659 62.3498C14.485 63.3961 16.7908 63.5687 18.751 64.5356C20.7112 65.5024 22.3088 67.9125 21.156 69.7322C20.6565 70.523 19.767 70.9822 18.9323 71.4311C14.4406 73.8378 10.3183 76.8971 6.74676 80.4778C4.05445 83.178 1.6016 86.3029 0.763453 89.9768C-0.0746893 93.6508 1.05766 97.9531 4.29049 100.018C6.92123 101.7 10.2909 101.62 13.4348 101.658C20.7626 101.744 28.0766 102.784 35.1273 104.731C39.5096 105.943 44.0903 107.732 46.5705 111.454C48.0894 113.737 48.6744 116.564 50.467 118.657C52.9233 121.526 57.1448 122.372 60.9694 122.062C64.7941 121.754 68.4682 120.494 72.2587 119.921C81.6869 118.491 91.1597 121.33 100.526 123.097C117.994 126.388 136.197 125.939 153.473 121.792C155.608 121.278 158.252 119.973 157.855 117.863C157.479 115.853 154.681 115.373 153.387 113.764C151.304 111.171 154.027 107.532 156.75 105.581C161.088 102.473 165.932 100.039 171.047 98.3951C177.752 96.2405 180.208 95.8986 186.609 92.9912C190.057 91.4236 193.601 88.5404 193.286 84.8492L193.28 84.8389Z" fill="#0F3A5D"/>
<path d="M91.707 147.997C140.723 147.997 180.458 143.86 180.458 138.756C180.458 133.653 140.723 129.516 91.707 129.516C42.6913 129.516 2.9563 133.653 2.9563 138.756C2.9563 143.86 42.6913 147.997 91.707 147.997Z" fill="#1F5278"/>
<path d="M138.126 92.29C138.119 94.386 137.709 106.872 131.626 109.707C125.157 112.721 97.9739 114.786 94.3477 109.275C93.8311 108.488 93.3556 107.614 93.229 106.685C93.1572 106.167 93.1708 105.639 93.3008 105.142C93.359 104.914 93.4411 104.686 93.5472 104.472C93.9166 103.73 94.5427 103.15 95.1653 102.607C98.1347 100.021 101.385 98.0737 104.734 96.0572C107.128 94.6173 109.694 92.6457 110.108 89.6623C110.922 83.8131 106.386 76.8554 109.078 71.0648C109.568 70.0082 110.471 69.2036 111.401 68.5131C116.83 64.5111 130.685 66.7072 131.705 67.125C139.498 70.3051 138.143 83.9339 138.123 92.29H138.126Z" fill="#FFD386"/>
<path d="M119.58 107.203H116.909V133.456H119.58V107.203Z" fill="#0C2D41"/>
<path d="M122.369 132.948L118.243 131.101L114.062 132.938C112.845 133.473 111.582 133.894 110.282 134.163C107.439 134.75 105.619 135.645 105.619 136.653C105.619 138.417 111.22 139.85 118.13 139.85C125.04 139.85 130.641 138.417 130.641 136.653C130.641 135.669 128.899 134.788 126.162 134.201C124.856 133.922 123.583 133.493 122.362 132.948H122.369Z" fill="#0C2D41"/>
<path d="M138.126 92.2905C138.119 94.3864 137.709 106.872 131.626 109.707C125.157 112.722 97.9739 114.786 94.3477 109.276C93.8311 108.488 93.3556 107.615 93.229 106.686C93.1572 106.168 93.1708 105.64 93.3008 105.142C93.944 105.229 94.6111 105.408 95.2884 105.688C105.155 109.731 127.152 106.53 130.795 102.487C134.442 98.4436 135.831 82.9434 131.708 75.8683C127.589 68.7932 131.708 67.1289 131.708 67.1289C139.501 70.3091 138.147 83.9378 138.126 92.2939V92.2905Z" fill="#EDBE72"/>
<path d="M51.7406 133.456H54.4124V107.203H51.7406V133.456Z" fill="#0C2D41"/>
<path d="M33.1988 92.29C33.2056 94.386 33.6162 106.872 39.6987 109.707C46.1678 112.721 73.351 114.786 76.9772 109.275C77.4938 108.488 77.9693 107.614 78.0959 106.685C78.1677 106.167 78.154 105.639 78.024 105.142C77.9659 104.914 77.8838 104.686 77.7777 104.472C77.4082 103.73 76.7822 103.15 76.1596 102.607C73.1867 100.021 69.9402 98.0737 66.5911 96.0572C64.1964 94.6173 61.6306 92.6457 61.2167 89.6623C60.4025 83.8131 64.9387 76.8554 62.2464 71.0648C61.7572 70.0082 60.8541 69.2036 59.9236 68.5131C54.4945 64.5111 40.6395 66.7072 39.62 67.125C31.827 70.3051 33.1817 83.9339 33.2022 92.29H33.1988Z" fill="#FFD386"/>
<path d="M33.1983 92.2905C33.2052 94.3864 33.6157 106.872 39.6982 109.707C46.1673 112.722 73.3505 114.786 76.9767 109.276C77.4933 108.488 77.9688 107.615 78.0954 106.686C78.1672 106.168 78.1535 105.64 78.0235 105.142C77.3804 105.229 76.7133 105.408 76.0359 105.688C66.1698 109.731 44.1728 106.53 40.5295 102.487C36.8827 98.4436 35.4938 82.9434 39.6161 75.8683C43.735 68.7932 39.6161 67.1289 39.6161 67.1289C31.8231 70.3091 33.1778 83.9378 33.1983 92.2939V92.2905Z" fill="#EDBE72"/>
<path d="M48.9519 132.949L53.0776 131.102L57.258 132.939C58.4759 133.474 59.7383 133.895 61.0382 134.164C63.8811 134.751 65.701 135.646 65.701 136.654C65.701 138.418 60.0975 139.851 53.1905 139.851C46.2835 139.851 40.6799 138.418 40.6799 136.654C40.6799 135.67 42.4212 134.789 45.158 134.202C46.4648 133.923 47.7374 133.494 48.9587 132.949H48.9519Z" fill="#0C2D41"/>
<path d="M67.476 138.709C71.2323 139.24 82.6857 139.023 83.3323 138.205C84.7212 136.45 81.8305 134.921 74.6533 133.187C74.4583 133.139 73.4525 131.654 73.3362 130.839C72.0704 130.777 69.7305 132.618 68.4647 132.556C68.4134 133.412 67.0245 138.685 67.476 138.709Z" fill="#BDBEC0"/>
<path d="M52.444 140.232C52.4166 143.26 59.912 143.091 62.5256 141.406C63.4014 140.839 63.4664 139.955 62.6317 138.847C61.4138 137.227 60.3875 136.133 59.0602 134.631C58.2631 133.73 57.336 132.652 57.6097 131.475C57.5652 131.665 54.3939 131.385 54.0313 131.468C52.3619 131.855 53.2 131.313 52.9229 132.666C52.4816 134.848 52.4406 140.093 52.4406 140.228L52.444 140.232Z" fill="#BDBEC0"/>
<path d="M81.41 103.834C82.6826 110.753 75.7893 120.511 74.1849 132.645C72.3615 133.684 69.9668 133.508 68.465 132.555C68.1469 121.544 69.9942 112.176 71.8073 108.208C71.9681 107.856 66.2448 105.477 63.9356 104.431C62.1088 103.602 60.2375 102.739 58.852 101.282C56.4334 98.7301 55.9818 94.8663 56.2452 91.3443C56.2692 91.0094 56.3137 90.6502 56.5463 90.412C56.7823 90.1703 57.1518 90.1254 57.4871 90.0943C61.3665 89.749 64.9756 89.9217 69.0295 93.0673C70.8905 94.5106 81.0782 102.038 81.4066 103.834H81.41Z" fill="#533238"/>
<path d="M52.5845 106.654C54.2847 107.704 56.1868 108.564 56.1765 109.731C56.1526 112.476 54.7568 117.652 54.1342 120.324C53.1934 124.354 52.7316 128.501 52.7692 132.641C53.1832 134.305 57.2918 134.747 58.2086 132.703C61.0036 126.471 63.8669 119.734 66.8877 113.609C68.0576 111.24 68.8684 109.565 68.475 107.711C67.9961 105.463 59.7002 98.1773 59.3717 96.7064C59.0433 95.232 59.1665 93.6989 59.2965 92.1934C54.6029 91.7825 49.9059 91.3716 45.2123 90.9607C44.1312 90.8674 42.7423 91.7825 42.496 92.7148C42.1197 94.127 42.4139 98.4466 43.8541 100.805C46.7825 105.594 49.8032 104.942 52.5845 106.658V106.654Z" fill="#684048"/>
<path d="M80.1847 47.6259C80.455 47.4463 80.7663 47.3186 80.9853 47.0768C81.2487 46.7868 81.3752 46.3483 81.7345 46.1929C82.2476 45.9719 83.4142 45.7889 82.795 46.9284C82.4973 47.4774 80.9716 48.4891 81.2966 48.3441C82.1621 48.0264 82.9626 48.1231 83.8007 47.7329C84.2523 47.5223 84.3139 46.0099 84.3583 45.3987C84.4028 44.7875 84.5568 44.0762 85.1383 44.2558C85.5044 44.3697 85.8362 49.1693 85.6378 49.38C84.851 50.2018 83.4518 50.9856 82.9113 51.5208C82.4905 51.9351 83.1371 52.8018 82.4118 53.306C81.7447 53.7652 79.6511 55.3674 78.9806 53.306C78.5461 51.9697 78.9771 48.4269 80.1847 47.6293V47.6259Z" fill="#FFAF66"/>
<path d="M75.2619 68.4226C78.6385 64.7487 77.5164 57.5251 78.3511 52.0833C79.2405 51.4203 81.8542 51.7104 83.1371 52.0833C83.1371 57.9015 84.3036 67.5559 82.0458 71.8721C81.4266 73.0565 80.7424 74.2615 79.6613 75.035C78.0535 76.1814 75.8606 76.1296 73.9962 75.4908C72.1352 74.852 70.4931 73.7056 68.7757 72.7388C67.0379 71.7582 65.1871 70.9433 63.6374 69.6795C60.8527 67.4109 59.2825 60.4187 64.6432 60.2599C68.4952 60.1459 73.2162 65.6223 75.2585 68.4261L75.2619 68.4226Z" fill="#553568"/>
<path d="M40.7959 64.4664C40.009 66.5001 40.6111 68.1679 40.5222 70.3467C40.3785 73.8066 40.2417 77.3217 41.0627 80.6814C41.4766 82.3733 42.13 84.0031 42.4448 85.7158C42.7663 87.4664 42.7321 89.2688 42.4824 91.0298C42.4037 91.5892 42.3045 92.1797 42.4995 92.708C42.8553 93.6817 44.0013 94.0512 45.0037 94.2825C48.671 95.1285 52.4204 95.7914 56.1766 95.6119C60.5042 95.4082 64.6983 94.0995 68.9677 93.3295C69.734 92.7943 64.9823 89.5416 66.4293 82.1523C67.1854 78.2919 67.979 74.4074 68.0543 70.4745C68.109 67.5222 67.5651 64.5976 67.0246 61.6936C66.9117 61.0825 66.7817 60.4368 66.378 59.9672C65.8204 59.318 64.8967 59.1661 64.0483 59.0556C59.5668 58.4686 55.294 56.8215 50.3815 57.6813C47.7541 58.1406 44.7882 58.9175 43.7482 59.5735C42.2087 60.5473 41.634 62.2979 40.7993 64.4595L40.7959 64.4664Z" fill="#553568"/>
<path d="M49.629 59.7526C50.0806 61.0647 50.6621 62.2318 51.4729 63.3575C52.1605 64.3105 52.9132 65.3118 54.1002 65.6053C54.2987 65.6537 54.3671 65.374 54.1823 65.3015C52.0305 64.4382 50.6758 61.7553 49.8787 59.6836C49.8206 59.5282 49.5708 59.5903 49.6256 59.7526H49.629Z" fill="#442B56"/>
<path d="M49.9162 72.4557C50.7748 73.7333 51.9927 75.0627 53.474 75.5772C53.5595 75.6083 53.5903 75.4874 53.5287 75.4425C52.2595 74.4826 51.0485 73.6677 50.1043 72.3418C50.0222 72.2278 49.8341 72.3349 49.9162 72.4523V72.4557Z" fill="#442B56"/>
<path d="M49.9578 75.4914C50.7994 76.182 51.7504 76.9554 52.7767 77.3283C52.8896 77.3698 52.9375 77.2075 52.852 77.1453C51.9557 76.51 50.9807 76.0231 50.1118 75.3325C50.0023 75.2462 49.8484 75.3981 49.9578 75.4879V75.4914Z" fill="#442B56"/>
<path d="M49.1124 88.999C51.2437 89.7379 53.4126 90.3214 55.6363 90.7013C57.3331 90.9913 59.1804 91.3608 60.8841 90.9982C61.0312 90.9671 61.0004 90.7082 60.8464 90.7289C57.0662 91.2157 52.7489 89.9554 49.1637 88.8159C49.0474 88.778 48.9995 88.961 49.1124 88.999Z" fill="#442B56"/>
<path d="M50.3776 57.6884C50.5315 58.2374 51.616 60.5613 51.9204 61.0412C54.0449 64.4182 56.5114 64.9154 58.4956 64.9396C61.7181 64.981 63.911 59.0178 63.8802 58.707C63.8323 58.2443 62.2929 58.4964 62.05 58.0993C61.3453 56.9426 62.1423 52.8785 61.8721 52.913C59.3577 53.2548 53.6207 48.1928 53.2033 51.266C52.9399 53.2065 52.9399 55.2437 51.917 56.7009C51.2568 57.6401 50.3741 57.6884 50.3741 57.6884H50.3776Z" fill="#E89B5B"/>
<path d="M54.6166 53.8379C55.5711 54.9462 58.366 57.4393 60.641 56.4897C61.4894 56.1341 62.2044 55.5125 62.8099 54.8185C64.9617 52.36 64.9207 48.7482 64.972 43.7345C64.9959 41.3555 63.1862 41.0861 60.9865 40.2333C58.4926 39.2664 54.449 39.2837 53.2825 41.7491C51.8491 44.7877 52.458 51.331 54.6132 53.8379H54.6166Z" fill="#FFAF66"/>
<path d="M58.6974 52.084C58.6974 52.084 58.7316 55.309 59.539 55.2434C60.2916 55.1813 61.0271 53.3374 61.0442 52.6054C61.0442 52.6054 59.539 52.7021 58.6974 52.084Z" fill="white"/>
<path d="M53.6519 47.1809C54.0487 44.2804 54.1685 41.1866 55.2632 41.7218C58.1266 43.1237 62.1428 44.163 64.9754 43.7349C65.8922 42.3364 66.4567 40.5858 65.3893 38.8006C64.062 36.5769 55.164 35.1163 53.7408 38.6556C50.7372 38.4035 50.3233 41.2211 50.2378 42.2915C50.012 45.1195 50.727 46.4765 51.0519 48.8866C51.8319 49.0213 52.6632 49.3044 53.3406 49.6049C53.3406 49.2216 53.7511 48.2686 53.6519 47.1843V47.1809Z" fill="#0C2D41"/>
<path d="M54.0996 48.2237C53.7917 47.0428 52.7518 45.6754 51.6981 46.2763C50.3639 47.0359 50.9934 49.2216 51.6741 50.3058C52.0162 50.8514 52.5636 51.3037 53.2033 51.2658C54.6162 51.1794 54.0996 48.2237 54.0996 48.2237Z" fill="#FFAF66"/>
<path d="M58.1646 48.1341C58.4367 48.1341 58.6572 47.9115 58.6572 47.6369C58.6572 47.3623 58.4367 47.1396 58.1646 47.1396C57.8926 47.1396 57.672 47.3623 57.672 47.6369C57.672 47.9115 57.8926 48.1341 58.1646 48.1341Z" fill="#0C2D41"/>
<path d="M60.5862 47.0843C60.3981 47.8854 60.4288 48.6968 60.6717 49.4875C60.7812 49.8397 61.0686 50.2575 60.9728 50.5683C60.7812 51.2002 60.0149 51.0828 59.5394 51.0517C59.447 51.0448 59.3889 51.1449 59.4094 51.2244C59.6489 52.2706 61.0959 51.3763 61.4483 50.8756C61.7186 50.4923 61.5646 50.3128 61.3799 49.9192C60.9591 49.0352 60.8907 48.0995 60.9865 47.1361C61.0104 46.9047 60.6375 46.8598 60.5862 47.0808V47.0843Z" fill="#E89B5B"/>
<path d="M57.2068 45.8271C57.7781 45.4991 58.647 45.3817 59.1807 45.8409C59.6801 46.2725 60.4054 45.5232 59.8991 45.1158C58.972 44.3665 57.6925 44.5806 56.7997 45.2919C56.4952 45.5371 56.8852 46.0101 57.2068 45.8236V45.8271Z" fill="#0C2D41"/>
<path d="M63.0836 48.1338C63.3556 48.1338 63.5762 47.9112 63.5762 47.6366C63.5762 47.362 63.3556 47.1394 63.0836 47.1394C62.8115 47.1394 62.5909 47.362 62.5909 47.6366C62.5909 47.9112 62.8115 48.1338 63.0836 48.1338Z" fill="#0C2D41"/>
<path d="M64.5443 45.7309C64.0996 44.6398 62.9672 44.626 62.0162 45.0403C61.4244 45.2993 61.9341 46.2143 62.5293 45.9278C62.9877 45.7068 63.5898 45.4651 63.9285 45.9934C64.1235 46.2972 64.6948 46.1039 64.5443 45.7309Z" fill="#0C2D41"/>
<path d="M53.0324 47.4847C52.7245 47.3051 52.3106 47.167 51.9924 47.4053C51.7222 47.6055 51.7461 47.9715 51.7427 48.272C51.7324 48.9315 51.9274 49.9466 52.7587 49.9743C52.8956 49.9777 52.9606 49.7671 52.8306 49.7049C52.3687 49.4874 52.1498 49.1766 52.1087 48.6621C52.0985 48.5171 52.0882 48.3376 52.1087 48.1925C52.0814 47.9301 52.2353 47.7678 52.574 47.7091C52.68 47.7471 52.7895 47.7816 52.8956 47.8162C53.0906 47.8783 53.2103 47.5883 53.0358 47.4847H53.0324Z" fill="#E89B5B"/>
<path d="M56.6217 40.1814C58.5409 41.4969 61.1648 42.5535 63.5253 42.1737C63.6553 42.153 63.6039 41.9769 63.4979 41.9631C60.9903 41.635 58.9446 41.3726 56.7278 39.9984C56.6114 39.9258 56.5122 40.1054 56.6217 40.1814Z" fill="#113F56"/>
<path d="M56.9326 38.9904C58.2907 39.1251 59.642 39.3806 60.9352 39.826C62.0778 40.2231 63.1041 40.855 64.2296 41.2763C64.3082 41.3039 64.3733 41.1899 64.3117 41.1347C62.4062 39.4566 59.382 38.8765 56.9326 38.7832C56.7992 38.7798 56.806 38.9766 56.9326 38.987V38.9904Z" fill="#113F56"/>
<path d="M51.6131 44.1937C51.5891 43.4686 51.5549 42.6986 51.791 42.0046C52.0544 41.2208 52.5607 40.9549 53.1936 40.5267C53.2688 40.4749 53.238 40.361 53.1491 40.3541C52.4923 40.3057 51.9415 40.9652 51.6712 41.5039C51.2539 42.3395 51.3052 43.2925 51.3804 44.1937C51.3941 44.3422 51.6199 44.3491 51.6165 44.1937H51.6131Z" fill="#113F56"/>
<path d="M52.694 44.0801C52.7043 43.5277 52.8206 42.9925 53.0703 42.4987C53.3064 42.0291 53.6622 41.7218 54.0077 41.3454C54.124 41.2211 53.9769 41.0312 53.8264 41.1106C52.8274 41.6389 52.3793 43.0166 52.5161 44.0801C52.5298 44.1906 52.6906 44.1975 52.694 44.0801Z" fill="#113F56"/>
<path d="M56.9331 37.6301C59.5775 37.4333 61.5104 38.338 63.8401 39.4153C63.9598 39.4706 64.1069 39.3186 63.9906 39.2185C62.1296 37.5887 59.2867 37.271 56.9297 37.5196C56.8613 37.5266 56.8578 37.637 56.9297 37.6301H56.9331Z" fill="#113F56"/>
<path d="M61.3628 80.5293C61.6741 80.519 65.037 83.2744 64.9754 83.8442C64.8796 84.7178 62.136 83.1985 61.7939 83.1708C61.4484 83.1398 59.7789 83.7061 59.4608 83.8442C58.2839 84.3518 57.4219 83.7302 56.18 83.4091C54.3943 82.943 53.4638 81.6826 54.1959 79.97C56.6385 80.7434 58.2224 80.6433 61.3628 80.5328V80.5293Z" fill="#FFAF66"/>
<path d="M39.424 66.3723C37.7203 70.761 36.8788 75.7884 36.848 80.4983C36.8309 82.9119 37.8914 83.8062 38.4353 83.8407C44.9831 84.2551 51.2161 84.4173 57.7502 83.8407C58.0102 82.0176 57.5073 81.7897 57.7673 79.9665C53.3029 79.8871 47.087 77.2145 43.8029 77.7739C44.446 76.1234 48.2536 70.0289 49.2012 66.3757C49.6767 64.5353 49.8067 62.1044 48.4212 60.8165C46.7517 59.2627 45.2705 59.0969 43.7481 59.5803C40.3887 60.6473 40.139 64.5353 39.4274 66.3723H39.424Z" fill="#5E3C77"/>
<path d="M39.9135 80.0285C40.4266 79.5002 41.015 79.0824 41.6924 78.8027C42.2534 78.5713 42.8726 78.5644 43.4131 78.3193C43.5089 78.2744 43.4781 78.1224 43.3858 78.0983C42.1234 77.7599 40.5019 78.9442 39.7082 79.8213C39.5816 79.9594 39.7835 80.1666 39.9135 80.0285Z" fill="#553568"/>
<path d="M39.7044 78.4233C40.1594 78.2507 40.6144 78.1229 41.0968 78.0677C41.5244 78.0193 41.9589 78.0987 42.3796 78.009C42.4652 77.9917 42.4823 77.857 42.4036 77.8156C41.5928 77.3874 40.3613 77.8087 39.6257 78.2334C39.5299 78.2887 39.5949 78.4648 39.7044 78.4199V78.4233Z" fill="#553568"/>
<path d="M55.8173 81.0097C56.0636 81.0166 56.303 81.0546 56.5391 81.1271C56.7478 81.1892 56.9325 81.3101 57.1549 81.3204C57.2746 81.3273 57.3841 81.1651 57.302 81.058C56.9941 80.654 56.2859 80.5953 55.8173 80.5988C55.5538 80.5988 55.5573 81.0028 55.8173 81.0097Z" fill="#553568"/>
<path d="M55.821 82.014C56.1563 81.9795 56.4778 82.0106 56.8028 82.1073C56.8678 82.128 56.9636 82.1073 57.0115 82.052C57.0526 82.0037 57.0799 81.9657 57.0731 81.9001C57.0662 81.8069 57.0115 81.7171 56.9157 81.6929C56.536 81.5997 56.1597 81.5859 55.7731 81.6446C55.5644 81.6756 55.6123 82.0382 55.8244 82.0175L55.821 82.014Z" fill="#553568"/>
<path d="M55.8168 83.1465C56.046 83.15 56.2718 83.1569 56.501 83.1603C56.7029 83.1638 56.8705 83.1811 57.0313 83.0429C57.086 82.9946 57.086 82.8841 57.0313 82.8392C56.8705 82.7046 56.7029 82.7184 56.501 82.7218C56.2718 82.7253 56.046 82.7322 55.8168 82.7356C55.5534 82.7391 55.5534 83.1396 55.8168 83.1465Z" fill="#553568"/>
<path d="M158.06 129.989C157.376 131.094 154.297 132.63 153.356 132.896C148.434 134.291 148.485 135.458 149.628 136.311C150.267 136.788 152.939 136.688 158.03 136.605C158.642 136.594 163.493 136.159 163.472 135.918C163.26 133.39 161.929 129.568 161.594 126.484C161.574 126.287 161.444 126.104 161.273 126.008C161.139 125.932 160.975 125.935 160.821 125.942C159.678 125.987 158.536 126.028 157.393 126.073C158.153 126.046 158.279 129.644 158.064 129.992L158.06 129.989Z" fill="#0C2D41"/>
<path d="M142.392 130.055C141.581 130.51 137.883 131.912 136.994 132.182C135.389 132.672 132.861 133.708 133.323 135.172C134.558 136.284 137.093 135.821 138.749 135.814C140.836 135.807 149.179 135.621 149.183 135.479C149.19 131.93 148.126 129.443 147.424 126.429C146.029 126.36 144.78 126.222 143.394 126.298C143.083 127.879 144.359 128.946 142.392 130.055Z" fill="#0C2D41"/>
<path d="M142.95 128.96C143.012 129.903 148.171 130.165 148.232 128.629C148.725 116.529 149.624 85.2458 151.072 79.8005C151.492 79.5277 151.67 79.614 151.975 80.0146C152.279 80.4151 154.554 113.373 157.411 129.747C157.534 130.455 161.252 129.789 162.501 129.412C162.385 105.584 164.013 84.6243 163.267 66.2339C161.307 63.9653 152.84 63.6718 148.345 64.0758C145.43 64.3382 140.939 64.4142 139.245 67.2836C139.245 70.1633 139.584 75.1045 139.577 76.0782C139.556 79.5035 139.895 82.6699 140.049 86.0883C140.443 94.8588 142.502 122.261 142.943 128.96H142.95Z" fill="#5E3C77"/>
<path d="M145.068 75.9744C146.235 77.3763 148.082 78.8645 149.964 79.013C150.087 79.0234 150.142 78.8231 150.029 78.7713C149.197 78.3949 148.335 78.1705 147.538 77.6974C146.673 77.1864 145.917 76.5372 145.253 75.7811C145.14 75.6498 144.955 75.8398 145.065 75.971L145.068 75.9744Z" fill="#4C3363"/>
<path d="M149.587 75.011C149.803 75.7879 149.943 76.6753 150.285 77.4004C150.347 77.5317 150.586 77.473 150.566 77.3245C150.466 76.5234 150.114 75.7016 149.885 74.9281C149.827 74.7382 149.536 74.8176 149.587 75.011Z" fill="#4C3363"/>
<path d="M156.666 73.6782C156.95 74.4274 157.456 75.0386 158.154 75.4253C158.711 75.7361 159.666 76.0676 160.254 75.7119C160.34 75.6602 160.326 75.5151 160.227 75.491C159.611 75.3356 159.033 75.453 158.421 75.1457C157.767 74.8176 157.268 74.2686 157.001 73.5815C156.919 73.3743 156.584 73.4606 156.662 73.6747L156.666 73.6782Z" fill="#4C3363"/>
<path d="M158.372 77.0481C158.711 77.1207 159.053 77.1932 159.392 77.2657C159.666 77.3244 159.946 77.4314 160.223 77.3485C160.298 77.3244 160.35 77.207 160.274 77.1517C160.045 76.9722 159.768 76.9618 159.488 76.9135C159.142 76.8548 158.8 76.7961 158.455 76.7374C158.256 76.7028 158.167 77.0033 158.369 77.0481H158.372Z" fill="#4C3363"/>
<path d="M137.969 31.2173C138.013 42.0733 138.872 57.18 138.362 68.1154C138.229 70.9779 140.822 72.29 141.4 72.4938C145.629 73.9785 149.703 74.9592 153.456 72.4938C157.014 70.1561 157.479 69.3654 160.342 66.7412C162.09 65.139 164.081 66.7999 164.071 66.6272C163.479 55.2567 162.066 41.2066 161.478 29.8361C161.447 29.2249 155.998 28.6172 155.385 28.562C153.189 28.3652 150.969 28.4377 148.793 28.7795C144.572 29.4425 140.908 29.8672 137.969 31.2138V31.2173Z" fill="#E6335A"/>
<path d="M173.243 50.0878C173.777 53.4578 169.149 64.1033 165.32 68.1708C164.479 69.0651 163.962 70.4429 163.439 71.5547C163.152 72.1624 162.919 72.8945 162.303 73.1534C161.663 73.4228 160.931 73.0153 160.476 72.487C159.512 71.3648 159.317 69.7247 159.631 68.2744C160.203 65.6433 162.153 66.2096 162.881 64.9216C164.705 61.6897 166.867 51.9593 166.395 51.4379C164.787 49.6562 161.927 43.2648 159.556 39.8429C158.937 38.9486 165.033 35.4542 165.881 36.4418C168.067 38.99 172.597 45.9581 173.25 50.0878H173.243Z" fill="#FFAF66"/>
<path d="M170.629 42.9714C168.991 43.6137 163.326 46.5418 162.481 45.6336C160.89 43.9279 160.78 41.8285 159.549 39.8431C158.317 37.8542 157.435 35.5925 157.383 33.2514C157.342 31.266 158.334 29.17 160.63 29.4255C162.33 29.6154 163.733 31.4524 164.786 32.6817C165.518 33.5345 171.067 42.8022 170.629 42.9749V42.9714Z" fill="#E6335A"/>
<path d="M153.411 29.4017C154.078 32.6233 147.369 33.4831 144.523 32.6785C144.236 32.5957 143.921 32.4748 143.791 32.2055C143.61 31.8326 143.859 31.4079 144.051 31.0419C145.05 29.1013 144.4 26.7498 143.733 24.6677C143.531 24.0393 149.583 20.9765 150.127 22.4613C151.149 25.2409 152.296 27.4922 153.411 29.4052V29.4017Z" fill="#E89B5B"/>
<path d="M139.905 24.8189C140.733 26.3175 141.752 27.7747 143.206 28.6586C144.66 29.5426 146.638 29.729 148.016 28.7311C149.391 27.7367 149.846 25.9032 150.083 24.2147C150.336 22.4019 150.452 20.5442 150.093 18.7487C149.734 16.9531 148.854 15.2163 147.414 14.1045C145.899 12.9339 143.815 12.561 141.992 13.1273C135.79 15.0644 137.483 20.4372 139.902 24.8189H139.905Z" fill="#F9A86B"/>
<path d="M135.348 16.3561C135.519 16.8015 135.116 17.2401 134.955 17.6889C134.613 18.642 135.701 19.7573 136.652 19.4223C137.517 19.1185 138.054 17.9479 138.964 18.0515C139.556 18.1171 139.974 18.7283 140.559 18.8319C142.009 19.0839 142.618 16.287 144.068 16.5426C144.544 16.6254 144.917 17.0467 145.399 17.0916C146.296 17.1745 146.778 16.8706 147.428 17.4956C147.903 17.9514 148.109 20.5342 148.389 21.1315C148.878 22.4022 149.833 20.9174 150.107 21.1315C151.731 22.4022 152.426 19.7434 152.128 19.0943C151.827 18.4451 151.129 17.6648 151.526 16.7325C151.673 16.3837 151.903 15.9418 151.711 15.6137C150.319 13.207 153.144 12.1228 150.319 11.3217C149.173 10.234 149.114 9.58143 147.753 10.3756C147.544 10.4965 147.332 10.6449 147.093 10.6657C146.655 10.7036 146.302 10.3307 145.994 10.0165C145.204 9.20852 143.938 8.57663 142.994 9.1878C142.584 9.45368 142.553 10.3825 140.949 10.0959C138.54 9.6643 139.515 11.1836 137.983 11.263C137.035 11.3114 136.494 10.9937 135.687 11.5565C135.061 11.995 134.219 13.0655 134.059 13.8147C133.693 15.5239 134.9 15.1648 135.352 16.3527L135.348 16.3561Z" fill="#5E3C77"/>
<path d="M150.315 18.1236C148.368 18.1478 148.967 20.848 148.967 20.848C149.675 24.408 151.358 22.1083 151.338 21.0966C151.321 20.3542 151.338 18.1098 150.315 18.1202V18.1236Z" fill="#FFAF66"/>
<path d="M141.711 22.4026C141.711 22.6823 141.485 22.9067 141.212 22.9067C140.938 22.9067 140.712 22.6788 140.712 22.4026C140.712 22.1263 140.938 21.8984 141.212 21.8984C141.485 21.8984 141.711 22.1263 141.711 22.4026Z" fill="#5E3C77"/>
<path d="M146.118 21.135C146.118 21.4147 145.892 21.6391 145.618 21.6391C145.344 21.6391 145.119 21.4112 145.119 21.135C145.119 20.8588 145.344 20.6309 145.618 20.6309C145.892 20.6309 146.118 20.8588 146.118 21.135Z" fill="#5E3C77"/>
<path d="M142.899 22.0013C143.21 22.5055 143.306 23.0407 143.302 23.6277C143.299 24.0558 143.165 24.5082 143.193 24.9294C143.237 25.5993 144.031 25.6373 144.551 25.5026C144.838 25.4267 144.739 25.0572 144.486 25.0227C144.298 24.9985 144.01 25.033 143.843 24.9294C143.634 24.8051 143.716 24.6912 143.726 24.4598C143.744 24.1145 143.754 23.7692 143.726 23.4239C143.682 22.8404 143.528 22.3086 143.196 21.8287C143.073 21.6491 142.779 21.8114 142.899 22.0048V22.0013Z" fill="#E99C5B"/>
<path d="M146.637 25.6133C145.194 26.5283 143.658 26.5905 143.658 26.5905C144.061 27.8197 145.775 28.5586 146.743 27.8577C147.318 27.4433 146.641 25.6133 146.641 25.6133H146.637Z" fill="white"/>
<path d="M139.45 20.9901C139.638 20.7863 139.861 20.6171 140.121 20.5136C140.36 20.4169 140.678 20.41 140.808 20.151C140.86 20.0474 140.856 19.9093 140.767 19.8264C140.476 19.564 140.076 19.7608 139.792 19.9404C139.491 20.1303 139.245 20.3789 139.046 20.6758C138.879 20.921 139.252 21.2076 139.454 20.9901H139.45Z" fill="#5E3C77"/>
<path d="M144.222 19.0878C144.639 18.9842 145.057 18.9255 145.484 18.929C145.816 18.929 146.145 19.0084 146.394 18.746C146.459 18.6803 146.483 18.5595 146.428 18.4766C146.192 18.1244 145.785 18.1728 145.406 18.2142C144.944 18.266 144.502 18.3661 144.065 18.525C143.716 18.6493 143.852 19.181 144.219 19.0878H144.222Z" fill="#5E3C77"/>
<path d="M149.699 20.3784C149.699 20.2403 149.72 20.1022 149.751 19.9641C150.209 19.6084 150.462 19.6015 150.503 19.9364C150.561 20.1333 150.548 20.375 150.558 20.5787C150.579 21.0034 150.678 21.6387 150.233 21.8874C150.045 21.9909 150.212 22.2775 150.401 22.1774C150.797 21.9737 150.91 21.5628 150.938 21.1415C150.972 20.6754 151.01 19.9882 150.787 19.5566C150.626 19.2424 150.301 19.0801 149.963 19.2079C149.477 19.3909 149.388 19.9226 149.381 20.3819C149.381 20.5856 149.682 20.5821 149.692 20.3819L149.699 20.3784Z" fill="#E99C5B"/>
<path d="M136.439 13.8008C135.687 13.8836 135.598 14.8815 136.275 15.1647C136.566 15.2855 136.85 15.2855 137.021 15.5997C137.144 15.8242 137.175 16.0693 137.373 16.2454C137.568 16.4181 137.962 16.5389 138.051 16.2075C138.061 16.1729 138.04 16.1246 137.999 16.1177C137.9 16.1004 137.753 16.1004 137.667 16.0521C137.479 15.9485 137.452 15.7448 137.387 15.5687C137.318 15.3857 137.253 15.213 137.103 15.0784C136.939 14.9333 136.751 14.8988 136.549 14.8332C136.367 14.7745 136.183 14.7158 136.193 14.4775C136.2 14.3049 136.32 14.1771 136.48 14.1426C136.665 14.1012 136.631 13.78 136.436 13.8008H136.439Z" fill="#744E96"/>
<path d="M138.958 13.5557C138.612 14.3499 139.108 15.3132 140.008 15.3547C140.093 15.3581 140.182 15.3374 140.268 15.3305C140.736 15.2891 140.842 15.3374 141.161 15.6413C141.297 15.7725 141.386 15.8795 141.575 15.9451C142.04 16.1143 142.546 15.8485 142.885 15.5411C143.032 15.4065 142.844 15.2131 142.69 15.2856C142.573 15.3374 142.447 15.4341 142.331 15.4721C140.736 15.9762 141.691 15.3996 141.315 15.1233C141.144 14.999 141.106 14.9334 140.89 14.8885C140.723 14.854 140.545 14.8954 140.377 14.9127C139.724 14.9818 138.937 14.564 139.279 13.7456C139.371 13.5281 139.057 13.3347 138.961 13.5557H138.958Z" fill="#744E96"/>
<path d="M142.669 12.6783L142.686 12.6679C142.765 12.6265 142.768 12.4918 142.686 12.4504C142.604 12.4089 142.563 12.402 142.477 12.4297C142.402 12.4538 142.364 12.516 142.354 12.5919C142.323 12.9338 142.515 13.1686 142.813 13.3136C143.021 13.4137 143.237 13.4276 143.466 13.431C143.63 13.4345 143.935 13.393 144.075 13.4724C144.373 13.6347 144.465 14.0146 144.506 14.3115C144.557 14.7086 144.612 15.1506 145.002 15.3508C145.303 15.5062 145.638 15.4544 145.782 15.1333C145.837 15.0125 145.72 14.8571 145.59 14.9399C144.886 15.3785 144.91 14.0733 144.841 13.8212C144.783 13.614 144.694 13.4172 144.53 13.2756C144.373 13.1375 144.178 13.0823 143.976 13.0546C143.808 13.0305 143.64 13.0546 143.469 13.0443C143.415 13.0443 143.356 13.0443 143.302 13.0443C143.038 13.0374 142.823 12.9165 142.659 12.6852L142.518 12.5022C142.518 12.5022 142.511 12.516 142.508 12.5229C142.46 12.6299 142.559 12.7439 142.669 12.6852V12.6783Z" fill="#744E96"/>
<path d="M146.686 12.6749C146.569 13.2067 146.737 13.7798 147.178 14.1148C147.459 14.3289 148.348 14.6258 148.529 14.1631C148.547 14.1217 148.519 14.0699 148.485 14.0492C148.334 13.9559 148.235 14.0319 148.064 14.0423C147.838 14.0561 147.616 14.0008 147.421 13.8869C147 13.6452 146.822 13.1687 146.884 12.6991C146.898 12.5886 146.713 12.5644 146.689 12.6715L146.686 12.6749Z" fill="#744E96"/>
<path d="M147.777 15.8452C147.934 16.1284 148.153 16.3666 148.427 16.5393C148.635 16.6705 148.994 16.8811 149.217 16.705C149.258 16.6705 149.265 16.5945 149.237 16.5496C149.118 16.3597 148.82 16.3701 148.628 16.2665C148.379 16.1318 148.18 15.9385 148.03 15.7002C147.93 15.5414 147.684 15.6829 147.777 15.8487V15.8452Z" fill="#744E96"/>
<path d="M148.824 12.368C149.241 12.3093 149.679 12.5061 149.847 12.9101C150.018 13.3279 149.805 13.5973 149.713 13.9875C149.679 14.1325 149.833 14.2602 149.966 14.1843C150.459 13.8977 150.401 13.0724 150.124 12.6546C149.823 12.2023 149.268 12.0124 148.755 12.1263C148.594 12.1608 148.666 12.3922 148.82 12.3715L148.824 12.368Z" fill="#744E96"/>
<path d="M134.052 52.854C134.428 54.4907 135.882 55.6508 137.274 56.6522C138.629 57.6294 142.587 56.6522 144.284 51.9148C146.316 46.2347 146.898 41.8701 146.624 34.9228C146.597 34.2081 147.548 33.4933 147.513 32.5645C147.431 30.1854 146.925 30.3477 147.065 30.2614C148.085 29.6295 148.396 29.9817 148.348 28.856C147.513 27.789 144.226 27.8305 142.693 30.2786C142.337 30.8484 142.197 31.4975 142.228 32.1708C142.259 32.7993 142.738 33.9664 142.816 34.5913C143.251 38.0581 142.491 40.0366 141.4 42.8404C140.247 45.803 139.765 46.6628 139.132 49.3492C139.255 47.8368 139.152 45.3162 138.944 43.6829C137.657 43.8107 132.892 42.3777 132.824 43.8521C132.728 45.9239 133.771 51.6351 134.052 52.8505V52.854Z" fill="#FFAF66"/>
<path d="M133.545 36.2074C132.372 39.7604 132.204 43.607 132.458 47.3431C135.03 47.2637 136.765 47.2084 139.341 47.129C139.43 45.7064 140.045 39.1424 139.724 36.5561C139.508 34.8331 139.806 30.3166 137.969 31.2213C135.824 32.2779 134.305 33.9181 133.545 36.2108V36.2074Z" fill="#E6335A"/>
<path d="M147.862 34.118C149.466 34.3908 151.457 34.0524 152.836 33.1477C153.596 32.6505 155.032 31.5386 154.971 30.489C154.961 30.299 154.704 30.2611 154.642 30.4441C153.76 33.0683 150.373 34.0938 147.903 33.8141C147.732 33.7934 147.691 34.0904 147.862 34.118Z" fill="#D32F5A"/>
<path d="M161.526 42.4435C160.681 39.7226 159.453 36.6184 160.045 33.749C160.083 33.5694 159.836 33.5038 159.775 33.673C158.759 36.3732 160.418 39.9539 161.287 42.5091C161.338 42.661 161.577 42.5989 161.53 42.4435H161.526Z" fill="#D32F5A"/>
<path d="M157.968 35.7239C158.58 38.1409 159.658 41.1001 161.235 43.0407C161.317 43.1443 161.502 43.0338 161.457 42.9095C161.05 41.8218 160.414 40.8308 159.928 39.7776C159.302 38.4241 158.816 37.0222 158.266 35.641C158.194 35.4615 157.92 35.5236 157.968 35.7239Z" fill="#D32F5A"/>
<path d="M139.878 44.422C140.145 41.9877 140.408 39.284 139.895 36.867C139.867 36.7427 139.683 36.7737 139.679 36.8981C139.601 39.4152 139.857 41.8979 139.642 44.422C139.628 44.5739 139.861 44.5705 139.878 44.422Z" fill="#D32F5A"/>
<path d="M140.445 42.9989C140.558 42.2772 140.675 41.5556 140.777 40.8339C140.866 40.2055 141.041 39.5494 140.969 38.9175C140.952 38.7829 140.787 38.7587 140.74 38.8864C140.507 39.4734 140.5 40.1606 140.425 40.7856C140.336 41.5107 140.261 42.2393 140.182 42.9644C140.165 43.1163 140.425 43.1543 140.449 43.0024L140.445 42.9989Z" fill="#D32F5A"/>
<path d="M143.446 69.2274C146.005 70.0181 148.892 70.6604 151.468 69.5831C152.826 69.0168 153.791 67.9429 154.933 67.0521C156.61 65.7434 158.385 65.4119 160.359 64.856C160.575 64.7973 160.513 64.5038 160.308 64.4831C157.749 64.2448 155.347 65.8711 153.517 67.4837C150.544 70.1045 147.151 69.8558 143.542 68.8718C143.312 68.8096 143.22 69.1583 143.446 69.2274Z" fill="#D32F5A"/>
<path d="M146.011 62.5907C149.152 64.7695 154.003 63.4884 155.337 59.7213C155.402 59.5383 155.149 59.4658 155.05 59.6004C153.965 61.0748 153.011 62.4042 151.194 63.0154C149.463 63.5955 147.688 63.2951 146.186 62.2937C146.001 62.1694 145.83 62.4698 146.011 62.5941V62.5907Z" fill="#D32F5A"/>
<path d="M148.55 55.9992C151.102 55.2015 152.409 51.7106 152.827 49.3005C152.871 49.0519 152.546 48.9621 152.454 49.1969C151.571 51.4482 151.048 54.7872 148.475 55.7195C148.304 55.7816 148.372 56.0544 148.55 55.9992Z" fill="#D32F5A"/>
<path d="M145.067 75.9742C146.234 77.3761 148.081 78.8643 149.963 79.0128C150.086 79.0231 150.141 78.8229 150.028 78.7711C149.197 78.3947 148.334 78.1702 147.537 77.6972C146.672 77.1862 145.916 76.537 145.252 75.7808C145.139 75.6496 144.954 75.8395 145.064 75.9707L145.067 75.9742Z" fill="#4C3363"/>
<path d="M149.586 75.0108C149.802 75.7877 149.942 76.6751 150.284 77.4002C150.346 77.5314 150.585 77.4727 150.565 77.3242C150.466 76.5232 150.113 75.7014 149.884 74.9279C149.826 74.738 149.535 74.8174 149.586 75.0108Z" fill="#4C3363"/>
<path d="M156.665 73.6779C156.949 74.4272 157.455 75.0384 158.153 75.4251C158.711 75.7359 159.665 76.0674 160.254 75.7117C160.339 75.6599 160.325 75.5149 160.226 75.4907C159.61 75.3353 159.032 75.4527 158.42 75.1454C157.767 74.8174 157.267 74.2684 157 73.5812C156.918 73.3741 156.583 73.4604 156.662 73.6745L156.665 73.6779Z" fill="#4C3363"/>
<path d="M158.372 77.0479C158.71 77.1204 159.052 77.1929 159.391 77.2654C159.665 77.3241 159.945 77.4312 160.222 77.3483C160.298 77.3241 160.349 77.2067 160.274 77.1515C160.044 76.9719 159.767 76.9616 159.487 76.9132C159.141 76.8545 158.799 76.7958 158.454 76.7371C158.255 76.7026 158.166 77.003 158.368 77.0479H158.372Z" fill="#4C3363"/>
<path d="M118.524 53.2064C118.243 54.1594 117.884 55.2298 119.618 56.3002C120.354 56.756 121.151 57.16 121.507 57.9887C122.03 59.2007 120.864 60.3954 120.128 61.452C119.085 62.9437 118.797 65.0741 119.403 66.8524C119.564 67.3289 119.786 67.7847 119.865 68.2888C119.943 68.7929 119.865 69.3109 119.745 69.8046C119.181 72.0939 117.532 73.9965 115.523 74.6802C113.515 75.3639 111.213 74.8045 109.633 73.2472C107.607 73.1954 105.627 72.0387 104.416 70.1983C103.205 68.3579 105.209 62.4223 103.314 63.6619C100.618 65.4229 103.728 61.0065 103.714 59.2076C103.704 57.3879 101.706 56.2967 101.809 54.4736C101.857 53.6069 102.732 52.5986 102.726 51.7319C102.719 50.4405 101.881 49.0145 101.86 47.7334C101.805 44.3116 103.988 42.1466 105.113 41.4146C107.662 39.7606 112.674 38.5003 114.795 42.2916C114.795 42.2916 115.924 41.9843 117.47 43.4656C119.116 45.0436 120.08 47.9303 118.524 53.2098V53.2064Z" fill="#E6335A"/>
<path d="M92.2273 133.646C91.7039 135.035 90.4724 136.022 89.1929 136.761C88.7174 137.037 88.2179 137.296 87.8553 137.711C87.4927 138.125 87.3011 138.75 87.5508 139.24C90.7426 138.494 93.9515 137.821 97.1741 137.227C97.3588 137.193 97.5709 137.141 97.6599 136.972C97.742 136.813 97.6735 136.619 97.6085 136.454C96.5378 133.802 96.7533 130.68 95.6859 128.029C95.6312 127.89 94.2833 128.218 94.167 128.132C94.0541 128.049 92.395 127.994 92.2547 127.997C92.2547 127.997 92.826 132.075 92.2307 133.65L92.2273 133.646Z" fill="#E89B5B"/>
<path d="M97.0985 134.817C93.7767 136.778 92.5657 134.371 92.227 133.646C91.4026 133.146 87.7866 136.112 84.954 137.041C83.9345 137.376 83.3324 139.596 84.5058 139.858C87.6908 139.965 93.3457 140.096 98.1864 139.596C98.7714 139.24 97.9982 134.289 97.1019 134.817H97.0985Z" fill="#E6335A"/>
<path d="M100.075 134.361C99.5514 135.749 98.3198 136.737 97.0404 137.476C96.5649 137.752 96.0654 138.011 95.7028 138.425C95.3401 138.84 95.1486 139.465 95.3983 139.955C98.5901 139.209 101.799 138.536 105.022 137.942C105.206 137.907 105.418 137.855 105.507 137.686C105.589 137.527 105.521 137.334 105.456 137.168C104.385 134.516 104.601 131.395 103.533 128.743C103.479 128.605 102.131 128.933 102.014 128.847C101.902 128.764 100.242 128.709 100.102 128.712C100.102 128.712 100.673 132.79 100.078 134.365L100.075 134.361Z" fill="#E89B5B"/>
<path d="M104.946 135.532C101.625 137.493 100.413 135.086 100.075 134.361C99.2503 133.861 95.6344 136.827 92.8018 137.755C91.7823 138.09 91.1802 140.311 92.3536 140.573C95.5386 140.68 101.193 140.811 106.034 140.311C106.619 139.955 105.846 135.003 104.95 135.532H104.946Z" fill="#EF4572"/>
<path d="M88.9258 104.846C88.5803 110.684 90.7628 123.243 91.8234 130.456C93.1336 130.618 95.6035 130.912 96.9001 130.653C96.3151 125.926 96.5101 120.094 96.517 115.543C96.5204 113.564 95.932 109.794 96.9001 108.074C97.6972 106.655 99.5548 105.857 102.558 104.59C105.562 103.323 108.73 102.836 111.874 101.983C118.36 100.222 117.932 93.9619 116.588 92.1594C112.897 92.8673 104.755 93.2609 101.026 93.3887C92.9386 99.2518 89.0592 102.549 88.9258 104.846Z" fill="#09212D"/>
<path d="M97.4367 106.023C97.1459 107.249 99.1814 123.802 99.739 130.739C100.772 131.091 103.201 130.825 104.279 130.653C104.682 123.719 105.62 120.688 105.62 115.964C105.62 112.722 104.59 108.633 105.931 108.036C110.286 106.106 120.262 104.49 123.556 101.137C125.475 99.1861 126.019 96.845 124.808 93.4714C124.442 92.4528 122.047 92.149 121.052 91.745C120.203 91.3997 119.246 91.6172 118.356 91.8382C115.417 92.5702 113.656 91.9556 111.025 93.4749C106.779 95.9265 98.9317 99.7109 97.4333 106.026L97.4367 106.023Z" fill="#0C2D41"/>
<path d="M101.388 77.7741C99.4008 78.5925 93.6125 80.0116 91.4778 79.7976C89.261 79.5766 88.3818 79.6077 87.424 80.1947C86.9724 80.4709 86.4798 82.9915 87.1161 82.7498C87.3624 82.6566 88.0329 81.2478 88.1253 81.4757C88.2382 83.3714 89.0592 84.4867 88.8916 81.9349C88.8574 81.417 89.9487 81.5758 90.3865 81.5827C90.756 81.5896 89.8392 82.9915 90.2087 82.9915C91.3786 82.9915 91.276 82.0109 91.8028 81.9798C94.2215 81.8313 96.0278 82.0109 97.4406 81.9867C100.735 81.9349 103.862 81.5448 104.283 80.7022C106.219 76.8315 103.975 71.2757 103.814 66.9423C103.684 63.3857 100.099 62.5812 100.335 66.7524C100.663 72.5291 101.488 73.8378 101.388 77.781V77.7741Z" fill="#E89B5B"/>
<path d="M123.84 64.9706C123.734 67.1529 123.365 68.4996 122.64 70.561C121.637 73.4096 120.416 75.5332 120.303 78.154C119.882 87.8395 123.724 88.8408 124.809 93.4747C116.862 96.3061 109.205 95.4187 101.022 93.3918C101.402 91.5065 102.155 89.4831 102.859 87.6945C103.202 86.8312 104.922 84.863 104.946 83.9342C105.015 81.013 104.946 78.9861 104.447 77.1319C103.81 74.7908 99.2161 74.4973 102.528 68.9968C102.798 68.5479 102.784 68.2475 102.883 67.1287C102.883 67.1287 101.631 66.9734 100.335 66.7489C100.335 66.7489 99.9413 63.3478 101.806 62.3361C103.178 61.5937 104.926 60.8893 107.303 60.5854C110.683 60.1538 110.649 60.209 114.043 60.5371C114.634 60.5958 118.456 60.9721 120.125 61.4486C122.951 62.2532 123.909 63.4824 123.837 64.9706H123.84Z" fill="#7C71CD"/>
<path d="M117.987 67.6911C117.313 70.0702 115.267 78.0845 114.795 78.0914C108.528 78.1811 105.186 79.766 101.275 79.6279C100.215 79.5899 98.135 79.0444 97.1019 79.2895C96.0687 79.5347 95.5214 81.4269 95.6548 82.4904C96.2124 83.4158 96.6298 80.909 96.8795 80.7501C97.0266 80.6569 96.7393 82.5353 96.8795 82.7149C97.4371 83.4158 97.4371 81.9759 97.639 80.6362C97.6835 80.3358 98.1692 83.2639 98.3813 82.9807C98.5969 82.6941 98.5079 81.161 98.7166 81.1403C99.6745 81.0436 99.1613 82.2038 101.806 82.0346C107.139 81.6962 112.185 84.4448 116.909 83.0014C118.411 82.5422 119.376 80.4152 119.581 79.9629C120.293 78.3641 123.139 71.5998 123.806 69.9839C124.473 68.3679 124.668 65.2015 123.478 63.9239C120.898 61.1581 118.839 64.6732 117.987 67.6876V67.6911Z" fill="#FFAF66"/>
<path d="M123.707 70.2083C124.637 68.3403 125.277 65.8404 124.535 64.5248C123.792 63.2092 123.293 62.0007 120.132 61.4482C117.375 60.9683 117.522 67.187 117.474 68.4232C121.777 66.6863 122.903 69.9218 123.71 70.2083H123.707Z" fill="#7C71CD"/>
<path d="M103.366 66.6936C103.639 65.7233 103.845 64.3249 103.458 63.365C103.414 63.2545 103.263 63.2683 103.253 63.3926C103.212 63.8933 103.325 64.4112 103.321 64.9153C103.318 65.492 103.236 66.0617 103.15 66.6314C103.13 66.773 103.325 66.8352 103.366 66.6901V66.6936Z" fill="#6962BC"/>
<path d="M103.054 66.0931C102.989 65.5959 102.989 65.0434 102.767 64.5876C102.733 64.5186 102.606 64.5289 102.596 64.6118C102.524 65.1159 102.688 65.6373 102.777 66.1345C102.805 66.2899 103.075 66.2554 103.054 66.0965V66.0931Z" fill="#6962BC"/>
<path d="M117.327 67.5396C117.699 67.1356 117.593 66.5796 117.621 66.0617C117.669 65.1778 117.956 64.3594 118.062 63.4962C118.076 63.396 117.922 63.365 117.877 63.4444C117.587 63.9692 117.491 64.5804 117.412 65.1708C117.323 65.8511 117.515 66.8213 117.193 67.4325C117.149 67.5154 117.258 67.6121 117.33 67.5361L117.327 67.5396Z" fill="#6962BC"/>
<path d="M116.427 65.0842C116.417 65.5607 116.441 66.0337 116.506 66.5068C116.557 66.8797 116.585 67.3079 116.8 67.6221C116.879 67.736 117.05 67.6946 117.057 67.553C117.074 67.187 116.916 66.821 116.851 66.4619C116.769 66.0061 116.728 65.5469 116.715 65.0842C116.711 64.8977 116.431 64.8977 116.427 65.0842Z" fill="#6962BC"/>
<path d="M104.956 63.4964C105.004 65.3748 106.16 66.832 107.98 67.2912C109.9 67.7746 112.972 67.2774 113.96 65.3472C114.025 65.2195 113.865 65.0848 113.758 65.1918C111.35 67.6158 105.534 68.0681 105.196 63.4964C105.185 63.3445 104.953 63.3376 104.956 63.4964Z" fill="#6962BC"/>
<path d="M107.046 71.7695C106.441 75.1189 111.819 77.0387 113.827 74.5595C113.923 74.4421 113.799 74.2384 113.652 74.3316C112.667 74.9601 111.764 75.4124 110.55 75.219C109.024 74.9773 107.074 73.6963 107.375 71.8593C107.409 71.6452 107.088 71.552 107.046 71.7695Z" fill="#6962BC"/>
<path d="M104.395 75.6265C105.073 76.0443 106.383 76.1133 106.824 75.295C106.889 75.1741 106.759 75.0533 106.643 75.112C106.325 75.2708 106.075 75.4918 105.713 75.5609C105.309 75.6368 104.912 75.5609 104.556 75.3502C104.378 75.2466 104.221 75.5194 104.395 75.6265Z" fill="#6962BC"/>
<path d="M105.292 90.281C108.945 91.6483 113.365 92.1076 117.087 90.6953C117.268 90.6263 117.2 90.3604 117.005 90.4018C112.965 91.2202 109.318 91.4377 105.35 90.0738C105.22 90.0289 105.165 90.2326 105.292 90.281Z" fill="#6962BC"/>
<path d="M107.871 89.3239C109.267 89.8315 111.001 90.3183 112.489 90.0248C112.599 90.0041 112.606 89.8107 112.489 89.7969C110.933 89.5863 109.452 89.6139 107.922 89.134C107.799 89.096 107.751 89.2825 107.871 89.3273V89.3239Z" fill="#6962BC"/>
<path d="M110.964 65.7205C109.688 66.1073 108.224 66.1556 107.095 65.4374C105.966 64.7192 105.392 63.0618 106.144 61.9499C106.48 61.4527 107.027 61.1178 107.304 60.5826C107.509 60.1889 107.543 59.7331 107.561 59.2912C107.649 57.2367 106.438 53.7077 108.043 52.7755C109.62 51.8604 112.897 52.3991 113.209 53.9633C113.486 55.3617 112.873 59.2048 114.043 60.5342C115.815 62.5542 114.211 64.7295 110.961 65.7171L110.964 65.7205Z" fill="#E89B5B"/>
<path d="M109.01 58.1482C111.347 58.1966 113.755 55.5792 114.385 53.7181C114.655 52.917 114.918 52.1056 115.083 51.2734C115.521 49.0394 115.206 46.5947 113.899 44.7405C111.131 40.8041 104.214 41.6777 103.735 46.9158C103.431 50.2583 104.847 58.0654 109.01 58.1517V58.1482Z" fill="#FFAF66"/>
<path d="M103.948 50.1888C105.409 50.1439 106.705 49.2427 107.796 48.2621C108.888 47.2814 109.907 46.1661 111.228 45.5273C111.409 45.441 111.607 45.3581 111.809 45.3858C112.025 45.4134 112.206 45.5549 112.353 45.7172C113.273 46.7289 113.787 47.9444 114.211 49.2496C114.45 49.9851 114.166 51.0175 114.779 51.4802C114.881 51.5562 114.994 51.6321 115.121 51.6252C115.268 51.6183 115.388 51.5078 115.483 51.3973C116.479 50.2889 116.883 48.7765 117.201 47.3159C117.403 46.3906 117.584 45.4237 117.368 44.5018C117.153 43.5799 116.431 42.7097 115.494 42.6269C114.83 42.5682 114.108 42.8927 113.527 42.5647C113.222 42.3921 113.034 42.0709 112.798 41.812C111.228 40.0648 106.602 41.2111 104.858 42.7788C102.898 44.5467 103.585 50.2026 103.941 50.1922L103.948 50.1888Z" fill="#E6335A"/>
<path d="M116.589 51.7357C116.582 51.0071 116.466 50.1197 115.686 49.8262C114.995 49.5673 114.163 49.9954 113.835 50.579C113.506 51.1625 113.691 53.5451 114.245 53.735C116.048 54.3565 116.589 52.0223 116.589 51.7357Z" fill="#FFAF66"/>
<path d="M110.153 51.2044C110.425 51.2044 110.646 50.9818 110.646 50.7072C110.646 50.4326 110.425 50.21 110.153 50.21C109.881 50.21 109.66 50.4326 109.66 50.7072C109.66 50.9818 109.881 51.2044 110.153 51.2044Z" fill="#0C2D41"/>
<path d="M106.298 50.6825C106.298 50.9553 106.079 51.1798 105.805 51.1798C105.532 51.1798 105.313 50.9588 105.313 50.6825C105.313 50.4063 105.532 50.1853 105.805 50.1853C106.079 50.1853 106.298 50.4063 106.298 50.6825Z" fill="#0C2D41"/>
<path d="M107.383 50.5894C107.184 50.945 107.218 51.2765 107.215 51.6702C107.215 52.0638 107.157 52.2226 106.938 52.5472C106.876 52.637 106.791 52.713 106.763 52.8269C106.671 53.262 107.311 53.8421 107.595 54.0941C107.879 54.3462 108.234 53.8766 107.909 53.6798C107.841 53.6383 107.776 53.6314 107.697 53.6245C107.554 53.6073 107.482 53.7696 107.502 53.8835C107.512 53.9422 107.523 53.9871 107.554 54.0389C107.69 53.9318 107.827 53.8248 107.964 53.7212C107.851 53.6176 107.749 53.5002 107.649 53.3828C107.53 53.2447 107.311 53.0617 107.352 52.8545C107.365 52.7924 107.499 52.6888 107.536 52.6301C107.872 52.088 107.646 51.3318 107.731 50.731C107.759 50.5341 107.502 50.3822 107.389 50.5859L107.383 50.5894Z" fill="#E89B5B"/>
<path d="M109.336 48.3997C109.866 48.2996 110.396 48.3928 110.927 48.3997V48.0441C110.927 48.0441 110.916 48.0441 110.91 48.0441C110.718 48.0441 110.67 48.3376 110.865 48.3859C110.872 48.3859 110.875 48.3859 110.882 48.3894C111.101 48.4377 111.194 48.1097 110.975 48.0475C110.448 47.9025 109.777 47.9647 109.254 48.0924C109.055 48.1408 109.141 48.4343 109.336 48.3963V48.3997Z" fill="#E6335A"/>
<path d="M106.832 55.1853C107.297 55.4822 107.82 55.5996 108.368 55.5064C108.83 55.427 109.462 55.206 109.599 54.7053C109.647 54.5327 109.486 54.3807 109.319 54.4222C108.96 54.5119 108.703 54.802 108.334 54.8918C107.913 54.9954 107.461 54.9608 107.068 54.7744C106.797 54.6466 106.572 55.0195 106.832 55.1818V55.1853Z" fill="#E89B5B"/>
<path d="M114.881 53.5589C115.329 53.5589 115.329 52.8545 114.881 52.8545C114.433 52.8545 114.433 53.5589 114.881 53.5589Z" fill="white"/>
<path d="M114.775 50.8072C115.223 50.2755 115.668 51.1042 115.757 51.484C115.849 51.8811 115.849 52.3127 115.531 52.6062C115.415 52.7133 115.569 52.9239 115.702 52.8307C116.277 52.4198 116.164 51.522 115.925 50.9454C115.689 50.3722 114.946 50.0269 114.522 50.6104C114.413 50.7589 114.655 50.9488 114.775 50.8072Z" fill="#E89B5B"/>
<path d="M103.004 48.9424C104.225 48.711 105.344 48.2104 106.257 47.3437C106.784 46.843 107.167 46.2215 107.738 45.7691C108.559 45.1165 109.497 45.0164 110.482 44.8092C110.66 44.7712 110.622 44.4639 110.437 44.4846C109.326 44.6089 108.197 44.8714 107.352 45.6517C106.756 46.2008 106.336 46.881 105.71 47.4024C104.892 48.0826 103.975 48.4762 102.935 48.6903C102.771 48.7249 102.839 48.9735 103.004 48.9458V48.9424Z" fill="#F7527E"/>
<path d="M103.233 45.707C104.252 45.2823 105.032 44.5882 105.922 43.9563C107.509 42.8307 109.103 42.7927 110.961 43.0482C111.228 43.0862 111.282 42.7098 111.012 42.6753C109.664 42.4992 108.231 42.4474 106.958 43.0206C105.559 43.6525 104.564 44.9094 103.164 45.5447C103.075 45.5861 103.14 45.7484 103.233 45.707Z" fill="#F7527E"/>
<path d="M106.698 41.7948C108.44 41.446 110.075 41.2354 111.785 41.8258C111.953 41.8845 112.073 41.6083 111.908 41.5323C110.225 40.7692 108.368 41.2181 106.657 41.6463C106.561 41.6705 106.603 41.812 106.698 41.7948Z" fill="#F7527E"/>
<path d="M113.116 45.3786C113.673 45.6134 114.135 46.0036 114.467 46.5077C114.748 46.929 114.796 47.3986 114.997 47.844C115.032 47.9234 115.168 47.9027 115.182 47.8198C115.278 47.2846 114.932 46.6389 114.621 46.228C114.248 45.7342 113.745 45.3821 113.171 45.1714C113.041 45.1231 112.989 45.3268 113.112 45.3786H113.116Z" fill="#F7527E"/>
<path d="M114.064 44.3122C114.799 44.6506 115.432 45.1582 115.897 45.8315C116.304 46.422 116.428 47.0953 116.739 47.7237C116.787 47.817 116.903 47.7583 116.913 47.6754C117.098 46.1216 115.422 44.6264 114.159 44.0878C114.033 44.0325 113.937 44.257 114.064 44.3122Z" fill="#F7527E"/>
<path d="M114.751 43.4525C115.87 43.6424 116.79 44.3434 117.429 45.2757C117.984 46.0802 118.203 47.0401 118.709 47.855C118.777 47.9655 118.928 47.8895 118.911 47.7687C118.589 45.7142 116.899 43.4974 114.782 43.2419C114.662 43.2281 114.635 43.4352 114.754 43.4525H114.751Z" fill="#F7527E"/>
<path d="M116.554 54.1563C116.387 54.9263 116.226 55.8137 116.78 56.4664C117.054 56.7909 117.464 56.9256 117.803 57.1604C118.634 57.7439 118.815 58.5105 118.911 59.4566C118.918 59.5257 119.014 59.5464 119.034 59.4739C119.226 58.7971 119.01 58.0443 118.603 57.4815C118.354 57.1293 118.059 56.9567 117.717 56.7184C117.153 56.3248 116.783 56.128 116.701 55.3476C116.66 54.9747 116.742 54.5914 116.807 54.2254C116.835 54.0596 116.592 53.9871 116.554 54.1563Z" fill="#F7527E"/>
<path d="M114.906 55.7965C114.608 56.3283 114.632 56.9015 114.885 57.4505C115.145 58.0133 115.727 58.8006 116.288 59.0595C116.353 59.0906 116.428 59.0388 116.411 58.9629C116.312 58.5451 115.939 58.2619 115.672 57.9408C115.217 57.3952 114.841 56.6736 115.196 55.9692C115.296 55.7758 115.012 55.6031 114.902 55.7965H114.906Z" fill="#F7527E"/>
<path d="M103.407 54.3841C103.192 55.0746 103.322 55.6686 103.667 56.3004C104.249 57.3605 105.699 58.752 104.41 59.9053C104.293 60.0089 104.451 60.2195 104.577 60.1228C105.131 59.7119 105.326 59.0801 105.183 58.3895C104.878 56.9289 103.226 56.114 103.63 54.4428C103.664 54.2977 103.452 54.239 103.407 54.3806V54.3841Z" fill="#F7527E"/>
<path d="M106.144 59.8885C106.257 59.6814 106.342 59.4604 106.38 59.2256C106.407 59.0529 106.452 58.8112 106.277 58.7076C106.25 58.6904 106.205 58.6869 106.178 58.7076C106.045 58.8112 106.069 58.9493 106.051 59.1082C106.031 59.3257 105.973 59.5329 105.877 59.7297C105.791 59.9058 106.045 60.0612 106.144 59.8851V59.8885Z" fill="#F7527E"/>
<path d="M154.523 83.8408H21.094V87.6909H154.523V83.8408Z" fill="#24283F"/>
<path d="M154.523 83.8408H140.907V87.6909H154.523V83.8408Z" fill="#373E5B"/>
<path d="M25.661 87.6943H22.7668V141.125H25.661V87.6943Z" fill="#56AECE"/>
<path d="M32.3387 87.6943H29.4446V137.196H32.3387V87.6943Z" fill="#4198AF"/>
<path d="M145.844 87.6943H142.95V141.125H145.844V87.6943Z" fill="#56AECE"/>
<path d="M152.522 87.6943H149.627V137.196H152.522V87.6943Z" fill="#4198AF"/>
<path d="M95.5321 53.9072H56.3891C55.6447 53.9072 55.0413 54.5163 55.0413 55.2677V76.7277C55.0413 77.4791 55.6447 78.0882 56.3891 78.0882H95.5321C96.2765 78.0882 96.88 77.4791 96.88 76.7277V55.2677C96.88 54.5163 96.2765 53.9072 95.5321 53.9072Z" fill="#AEAEAF"/>
<path d="M95.5324 53.9072H63.7651C63.0228 53.9072 62.4172 54.5149 62.4172 55.2677V66.5243C62.4172 70.3847 65.5167 73.513 69.3413 73.513H95.5324C96.2748 73.513 96.8803 72.9053 96.8803 72.1526V55.2677C96.8803 54.5184 96.2782 53.9072 95.5324 53.9072Z" fill="#BDBEC0"/>
<path d="M75.9604 69.4658C74.7938 69.4658 73.8462 70.4223 73.8462 71.5997V83.8439H78.0745V71.5997C78.0745 70.4223 77.1269 69.4658 75.9604 69.4658Z" fill="#80878E"/>
<path d="M99.5514 82.4941H75.2932V83.8408H99.5514V82.4941Z" fill="#BDBEC0"/>
<path d="M83.8594 82.4941H68.0579V83.8408H83.8594V82.4941Z" fill="#64676C"/>
<path d="M106.14 19.9412C106.14 10.6079 98.6448 3.03906 89.3944 3.03906C80.1441 3.03906 72.6487 10.6045 72.6487 19.9412C72.6487 29.278 80.1441 36.8434 89.3944 36.8434C90.8141 36.8434 92.1894 36.6638 93.5065 36.3289C94.9056 38.9635 97.6116 40.5898 101.026 39.4158C101.026 39.4158 98.2377 37.4822 97.9606 34.4643C102.859 31.5155 106.14 26.1151 106.14 19.9412Z" fill="#92D8FE"/>
<path d="M93.5133 20.9012C93.5133 21.8921 93.113 22.7934 92.4699 23.4425C91.8268 24.0917 90.9339 24.4957 89.9521 24.4957C87.985 24.4957 86.3908 22.8866 86.3908 20.9012C86.3908 18.9157 87.985 17.3066 89.9521 17.3066L90.3181 17.3239H90.3249C91.0878 17.4033 91.7823 17.7279 92.3262 18.2182C93.0549 18.8743 93.5167 19.8342 93.5167 20.9012H93.5133Z" fill="#E6335A"/>
<path d="M92.3231 18.2182L89.9523 20.9012V17.3066L90.3184 17.3239H90.3252C91.0881 17.4033 91.7826 17.7279 92.3265 18.2182H92.3231Z" fill="#FFF252"/>
<path d="M93.5136 20.9007C93.5136 21.8917 93.1133 22.7929 92.4702 23.4421L89.9523 20.9007L92.3231 18.2178C93.0517 18.8738 93.5136 19.8338 93.5136 20.9007Z" fill="#7C71CD"/>
<path d="M84.4645 20.9018C84.4645 21.8928 84.0642 22.7941 83.4211 23.4432C82.9456 23.9232 82.34 24.2685 81.6558 24.4169C81.413 24.4687 81.1598 24.4998 80.9032 24.4998C78.9362 24.4998 77.342 22.8907 77.342 20.9053C77.342 18.9199 78.9362 17.3108 80.9032 17.3108L81.2693 17.3281H81.2761C82.039 17.4075 82.7335 17.732 83.2774 18.2224C84.0061 18.8784 84.4679 19.8383 84.4679 20.9053L84.4645 20.9018Z" fill="#E6335A"/>
<path d="M84.4648 20.901C84.4648 21.8919 84.0645 22.7932 83.4214 23.4423L80.9035 20.901L83.2742 18.218C84.0029 18.8741 84.4648 19.834 84.4648 20.901Z" fill="#7C71CD"/>
<path d="M83.274 18.2185L80.9032 20.9014H77.342C77.342 18.916 78.9362 17.3069 80.9032 17.3069L81.2693 17.3241H81.2761C82.039 17.4036 82.7335 17.7281 83.2774 18.2185H83.274Z" fill="#FFF252"/>
<path d="M83.4214 23.443C82.9458 23.9229 82.3403 24.2682 81.6561 24.4167C81.3653 23.0666 80.9035 20.9016 80.9035 20.9016L83.4214 23.443Z" fill="#5E3C77"/>
<path d="M98.9486 17.3064C99.9305 17.3064 100.823 17.7104 101.466 18.3596C101.942 18.8395 102.284 19.4507 102.431 20.1413C102.483 20.3865 102.513 20.642 102.513 20.9009C102.513 22.8864 100.919 24.4955 98.9521 24.4955C96.985 24.4955 95.3908 22.8864 95.3908 20.9009L95.4079 20.5315V20.5246C95.4866 19.7546 95.8082 19.0536 96.294 18.5046C96.9439 17.7691 97.895 17.303 98.9521 17.303L98.9486 17.3064Z" fill="#7C71CD"/>
<path d="M98.9493 17.3069C99.9311 17.3069 100.824 17.7109 101.467 18.36L98.9493 20.9014L96.2912 18.5085C96.9412 17.773 97.8922 17.3069 98.9493 17.3069Z" fill="#E6335A"/>
<path d="M96.291 18.5076L98.9491 20.9005V24.495C96.9821 24.495 95.3879 22.8859 95.3879 20.9005L95.405 20.531V20.5241C95.4837 19.7541 95.8052 19.0532 96.291 18.5042V18.5076Z" fill="#5E3C77"/>
<path d="M101.467 18.3596C101.943 18.8396 102.285 19.4507 102.432 20.1413C101.094 20.4348 98.9494 20.901 98.9494 20.901L101.467 18.3596Z" fill="#FFF252"/>
<path d="M97.9876 30.9696C93.3385 30.9247 88.6688 30.9592 84.0094 31.049C84.0094 29.2258 83.8965 27.3992 83.6673 25.5934C83.6468 25.438 83.4107 25.4276 83.4176 25.5934C83.4689 27.4131 83.5544 29.2362 83.6571 31.0559C82.6752 31.0766 81.69 31.0939 80.7082 31.1181C80.5611 31.1215 80.5611 31.3494 80.7082 31.3494C81.6968 31.3494 82.6855 31.3563 83.6742 31.3598C83.7084 31.9433 83.7357 32.5234 83.7734 33.1035C83.7802 33.2244 83.9547 33.2244 83.9615 33.1035C83.9889 32.5234 84.006 31.9399 84.0094 31.3598C88.6688 31.377 93.3282 31.3943 97.9876 31.3977C98.2613 31.3977 98.2647 30.9696 97.9876 30.9661V30.9696Z" fill="white"/>
<path d="M84.5499 29.6613C85.0563 29.1745 85.6549 28.401 86.3528 28.2007C87.8341 27.776 87.6801 29.1158 88.5354 29.5785C89.5104 30.1068 89.9825 28.8154 90.5264 28.1938C91.1182 27.5171 91.8606 27.2166 92.6166 27.959C92.7774 28.1179 92.7979 28.3768 93.0066 28.508C93.2256 28.6462 93.424 28.6324 93.6737 28.6151C94.8027 28.5391 96.0855 27.6379 97.1289 26.9059C97.0913 26.9646 97.0502 27.0198 97.0126 27.0785C96.8313 27.3582 96.5645 27.6897 96.5166 28.0246C96.4926 28.1835 96.6842 28.3561 96.8176 28.2007C97.0434 27.9383 97.1734 27.5758 97.3479 27.2753C97.5429 26.9404 97.7515 26.6193 97.9876 26.312C98.0731 26.198 97.9568 26.0116 97.8234 26.0254C97.0639 26.091 96.3113 26.1877 95.5553 26.2774C95.3295 26.3051 95.3226 26.6607 95.5553 26.64C96.0582 26.5917 96.5576 26.5468 97.0605 26.4915C96.2326 27.0233 95.3876 27.555 94.4948 27.9521C93.4137 28.4321 93.335 28.073 92.6645 27.334C91.9119 26.5053 91.0498 26.9473 90.4375 27.6932C89.5035 28.8361 89.1922 29.7856 87.9367 28.325C87.6733 28.0177 87.5467 27.7346 87.1088 27.6586C86.086 27.4791 84.8681 28.7636 84.3447 29.499C84.2557 29.6233 84.4439 29.7546 84.5465 29.6579L84.5499 29.6613Z" fill="white"/>
<path d="M85.0024 11.9033C84.0719 11.9033 83.0969 11.8204 82.1766 11.9033C82.009 11.9206 81.9851 12.1208 82.1082 12.1864C82.0672 12.4489 82.0364 12.7113 82.0193 12.9737C82.0124 12.9875 82.0124 13.0013 82.0193 13.0186C81.9748 13.7644 82.0022 14.5206 81.9816 15.2665C81.9816 15.3528 82.0535 15.4149 82.1322 15.4184C83.1106 15.4943 84.0992 15.4633 85.081 15.4702C85.1597 15.4702 85.2281 15.4011 85.2281 15.3217C85.235 14.2306 85.2795 13.1394 85.1563 12.0518C85.146 11.9689 85.0947 11.8964 85.0024 11.8964V11.9033ZM82.2211 12.2141C82.2656 12.2175 82.3135 12.2175 82.3579 12.221C82.8985 12.7769 83.4048 13.3673 83.9111 13.9543C83.6853 13.9543 83.4595 13.9543 83.2337 13.9612C83.1174 13.7851 82.9498 13.6367 82.7958 13.502C82.6111 13.3328 82.4161 13.1774 82.2211 13.0186C82.2143 12.7493 82.2143 12.4834 82.2211 12.2141ZM82.6521 13.6505C82.7548 13.7541 82.8608 13.8715 82.9737 13.9751C82.7308 13.9889 82.4914 14.0096 82.2553 14.0441C82.245 13.7782 82.2382 13.5124 82.2314 13.2465C82.375 13.3811 82.5153 13.5124 82.6556 13.6505H82.6521ZM82.2587 14.2582C83.1413 14.3273 84.0479 14.2582 84.9339 14.2582C84.9339 14.5655 84.9339 14.8694 84.9339 15.1767C84.0479 15.1767 83.1687 15.156 82.2827 15.1214C82.2793 14.8348 82.2724 14.5448 82.2622 14.2582H82.2587ZM84.3284 12.2244C84.4447 12.4074 84.5576 12.5904 84.6876 12.7631C84.7595 12.8598 84.8313 12.9737 84.9168 13.0704C84.9271 13.3673 84.9339 13.6677 84.9339 13.9647C84.9237 13.9647 84.91 13.9647 84.8997 13.9647C84.6842 13.7299 84.5132 13.3915 84.3284 13.1429C84.1026 12.8321 83.8598 12.5317 83.61 12.2417C83.8495 12.2348 84.089 12.2279 84.3284 12.2244ZM84.7971 12.6042C84.7047 12.4799 84.6192 12.3522 84.5337 12.221C84.6432 12.221 84.7526 12.2175 84.8587 12.2141C84.8758 12.3832 84.8895 12.5524 84.8997 12.7216C84.8621 12.6802 84.8279 12.6422 84.8005 12.6042H84.7971ZM83.5211 12.2451C83.9658 12.7872 84.3592 13.357 84.7013 13.9647C84.5371 13.9647 84.3695 13.9612 84.2019 13.9578C83.6579 13.3535 83.0832 12.7803 82.4845 12.2279C82.8266 12.2451 83.1721 12.252 83.5211 12.2451Z" fill="white"/>
<path d="M89.2478 7.97338C88.3071 7.99065 87.3629 7.92849 86.4221 7.96302C86.251 7.96993 86.2305 8.19782 86.3639 8.25652C86.1518 10.6632 86.1724 13.1217 86.2374 15.5353C86.2374 15.6182 86.2989 15.6665 86.3776 15.6769C87.3629 15.7977 88.3344 15.8081 89.3265 15.815C89.4052 15.815 89.4736 15.746 89.4736 15.6665C89.4839 13.1528 89.5557 10.6252 89.3881 8.1184C89.3847 8.04244 89.3265 7.97338 89.2478 7.97683V7.97338ZM86.511 12.4415C86.6034 12.6003 86.7026 12.7592 86.795 12.9145C86.8737 13.0458 86.966 13.1873 87.0755 13.3082C86.8873 13.322 86.7026 13.3393 86.5213 13.3669C86.5213 13.322 86.5213 13.2806 86.5213 13.2391C86.5179 12.9732 86.5145 12.7074 86.511 12.4449V12.4415ZM87.3116 13.2944C87.2329 13.0837 87.096 12.88 86.9831 12.6936C86.8463 12.4622 86.7026 12.2136 86.5042 12.0306C86.5008 11.6853 86.4939 11.3365 86.4905 10.9913C86.6924 11.378 86.8976 11.7578 87.1234 12.1307C87.3492 12.5071 87.5715 12.9318 87.8555 13.2806C87.6742 13.2806 87.4929 13.2875 87.3116 13.2944ZM88.1736 13.2806C87.9684 12.8213 87.6297 12.407 87.3629 11.9892C87.0721 11.5334 86.7779 11.081 86.4837 10.6252C86.4803 10.2661 86.4803 9.90703 86.4768 9.54792C87.2397 10.7875 88.006 12.0202 88.7278 13.2875C88.5431 13.2875 88.3584 13.2806 88.1736 13.2806ZM89.0118 13.2909C88.3071 11.8925 87.356 10.6183 86.4768 9.32348C86.4768 8.97128 86.47 8.61908 86.47 8.26688C86.5658 8.26688 86.665 8.27033 86.7608 8.27379C87.3047 9.07142 87.7734 9.92429 88.2592 10.7599C88.4815 11.1397 88.8031 12.0755 89.1931 12.3379C89.2068 12.6452 89.2307 12.9698 89.2478 13.2944C89.1692 13.2944 89.0905 13.2944 89.0118 13.2944V13.2909ZM89.1349 9.04379C89.1247 9.36146 89.1281 9.67913 89.1349 9.99681C89.0015 9.7551 88.8339 9.52721 88.6936 9.30622C88.4678 8.94711 88.225 8.60182 87.9786 8.25998C88.1634 8.25652 88.3481 8.25307 88.5328 8.25307C89.2957 8.24962 89.1555 8.27724 89.1349 9.04379ZM87.7529 8.26343C87.9958 8.65361 88.2318 9.04379 88.4678 9.43743C88.6834 9.79653 88.8613 10.2316 89.1452 10.5424C89.1589 10.9636 89.1726 11.3849 89.176 11.8027C89.176 11.8027 89.176 11.7992 89.1726 11.7958C88.9228 11.378 88.6731 10.9602 88.4199 10.5458C87.9479 9.76891 87.4587 8.99545 86.9113 8.27033C87.1918 8.27033 87.4689 8.27033 87.7494 8.25998L87.7529 8.26343ZM89.176 14.786C89.0323 15.4179 88.9057 15.4352 88.3413 15.5146C88.0984 15.5491 87.1405 15.5664 86.9284 15.4594C86.3708 15.1693 86.4734 14.2646 86.511 13.581C87.4176 13.65 88.3515 13.5775 89.2581 13.581C89.2684 14.0091 89.2581 14.4235 89.176 14.786Z" fill="white"/>
<path d="M93.4928 8.97867C92.5521 8.99593 91.6079 8.93723 90.6671 8.97522C90.4961 8.98212 90.4755 9.21002 90.6089 9.26526C90.4174 11.3336 90.4174 13.4606 90.4721 15.5358C90.4721 15.6256 90.5405 15.6808 90.6226 15.6877C91.6113 15.7879 92.5794 15.8086 93.5715 15.8155C93.6502 15.8155 93.7186 15.7464 93.7186 15.667C93.7289 13.4882 93.787 11.3025 93.6399 9.12715C93.6331 9.04773 93.5784 8.97522 93.4928 8.97867ZM93.2739 10.9365C93.1302 10.6603 92.8668 10.4013 92.6855 10.1803C92.4323 9.87298 92.1655 9.57258 91.8918 9.28253C92.1005 9.27908 92.3058 9.27562 92.5144 9.27217C92.5144 9.28598 92.5179 9.29979 92.5281 9.31361C92.8155 9.71415 93.0823 10.132 93.4039 10.5049C93.4073 10.6499 93.4107 10.7949 93.4142 10.9365C93.3663 10.9365 93.3218 10.9365 93.2739 10.9365ZM93.3252 9.27217C93.4791 9.38957 93.3492 9.41374 93.3663 9.68998C93.3765 9.85572 93.3799 10.018 93.3868 10.1837C93.1371 9.8937 92.925 9.57258 92.7026 9.26181C92.901 9.24455 93.226 9.19621 93.3252 9.27217ZM91.6866 9.28253C91.9808 9.59329 92.2579 9.91442 92.5281 10.2459C92.6992 10.4565 92.8531 10.7155 93.0413 10.9296C92.7984 10.9261 92.5521 10.9227 92.3058 10.9227C92.1415 10.6119 91.8918 10.3115 91.7037 10.0284C91.5258 9.76594 91.3308 9.51733 91.1187 9.28598C91.3102 9.28598 91.4984 9.28598 91.69 9.28253H91.6866ZM90.7218 10.1181C90.8655 10.3184 90.9989 10.5221 91.1426 10.7224C91.1939 10.7949 91.2487 10.8743 91.3068 10.9503C91.1118 10.9641 90.9203 10.9848 90.7287 11.0125C90.7287 10.7155 90.7218 10.4185 90.7218 10.1216V10.1181ZM91.601 10.933C91.4813 10.7777 91.341 10.6361 91.2281 10.4772C91.0639 10.2494 90.9032 10.0215 90.7253 9.80392C90.7253 9.80392 90.7218 9.80392 90.7184 9.79702C90.7184 9.62437 90.715 9.44827 90.715 9.27562C90.7697 9.27562 90.8279 9.27562 90.8826 9.27562C91.1905 9.59675 91.4368 9.95585 91.6763 10.3322C91.796 10.5221 91.9123 10.7328 92.056 10.9158C91.9021 10.9158 91.7516 10.9227 91.601 10.9261V10.933ZM92.925 15.5151C92.6581 15.5876 92.2202 15.5462 91.9363 15.5082C91.5052 15.5462 91.1221 15.408 90.7868 15.0938C90.7868 14.9454 90.7834 14.7969 90.78 14.6449C90.6158 13.7714 90.7458 12.7458 90.7355 11.855C90.7355 11.6443 90.7355 11.4303 90.7287 11.2196C91.6147 11.2921 92.5247 11.2196 93.4176 11.2231C93.4278 11.9862 93.4244 12.7527 93.421 13.5158C93.421 14.2099 93.6981 15.2976 92.9215 15.5151H92.925Z" fill="white"/>
<path d="M97.8894 9.79958C97.886 9.7167 97.8244 9.64419 97.7389 9.64765C96.7982 9.66836 95.854 9.60621 94.9132 9.64765C94.7421 9.65455 94.7216 9.87899 94.855 9.93769C94.6771 11.7919 94.7079 13.6703 94.7113 15.5349C94.7113 15.6281 94.7832 15.6868 94.8687 15.6937C95.854 15.7835 96.8289 15.8042 97.8176 15.8146C97.8963 15.8146 97.9647 15.7455 97.9647 15.6661C97.975 13.7083 98.0058 11.7574 97.8894 9.79958ZM94.9884 12.6655C94.9884 12.6172 94.9884 12.5688 94.9884 12.5205C95.1116 12.6552 95.2382 12.7898 95.3613 12.9245C95.4742 13.0453 95.5837 13.18 95.7069 13.3009C95.4708 13.3147 95.2348 13.3354 95.0055 13.3665C95.0021 13.1317 94.9953 12.9003 94.9919 12.6655H94.9884ZM96.0113 13.287C95.8745 13.0902 95.6863 12.9279 95.5187 12.7622C95.3408 12.5826 95.1595 12.3996 94.9816 12.2201C94.9782 11.9024 94.9748 11.5847 94.9713 11.2671C95.2827 11.6711 95.594 12.082 95.8916 12.4998C96.0661 12.7415 96.2234 13.035 96.415 13.2836C96.2816 13.2836 96.1447 13.2836 96.0113 13.2905V13.287ZM96.7195 13.2801C96.5382 12.9245 96.2337 12.5861 96.0045 12.2788C95.6829 11.8506 95.3305 11.4466 94.9713 11.0495C94.9713 10.687 94.9645 10.3279 94.9611 9.96532C95.7582 11.0426 96.4321 12.2684 97.301 13.287C97.1095 13.287 96.9179 13.2801 96.7229 13.2801H96.7195ZM96.6887 9.94115C96.6887 9.94115 96.7229 9.94115 96.7366 9.94115C96.8837 10.2208 97.0376 10.4902 97.2155 10.756C97.3421 10.9425 97.4789 11.1911 97.6739 11.3258C97.6671 11.4915 97.6602 11.6469 97.6637 11.7781C97.6637 11.9197 97.6637 12.0578 97.6637 12.1994C97.4345 11.8334 97.13 11.4846 96.8905 11.1531C96.5997 10.7526 96.3055 10.3555 96.0113 9.95841C96.2371 9.9515 96.4663 9.94805 96.6921 9.9446L96.6887 9.94115ZM97.431 9.9446C97.5166 9.97913 97.5644 9.99294 97.5952 9.99985C97.5781 10.0137 97.5679 10.0482 97.5987 10.1345C97.6671 10.3175 97.6842 10.5661 97.6842 10.8251C97.5952 10.7215 97.5029 10.6214 97.4276 10.5247C97.2771 10.321 97.1231 10.1207 96.9692 9.92043C97.1368 9.90662 97.3147 9.89626 97.431 9.9446ZM95.8745 9.95496C96.1926 10.4004 96.5074 10.8458 96.8187 11.2947C97.0889 11.6849 97.3387 12.1476 97.6602 12.5032C97.6602 12.7657 97.6637 13.0281 97.6637 13.2905C97.6431 13.2905 97.6226 13.2905 97.6021 13.2905C96.8563 12.1372 95.984 11.0185 95.1082 9.95496C95.3613 9.96186 95.6145 9.95841 95.8711 9.95496H95.8745ZM97.5439 15.3726C97.2087 15.7248 95.7068 15.5591 95.3476 15.2759C94.8824 14.9099 95.0192 14.5474 95.009 13.9569C95.009 13.8326 95.0056 13.7049 95.0021 13.5805C95.8847 13.6496 96.7879 13.5805 97.6739 13.5805C97.7047 14.1261 97.8073 15.0895 97.5439 15.3692V15.3726Z" fill="white"/>
<path d="M84.3895 8.90923C84.2903 8.66407 84.0337 8.49142 83.8011 8.39129C83.7566 8.37402 83.7122 8.36021 83.6677 8.3464C83.6061 7.9355 83.5411 7.5246 83.4761 7.1137C83.6745 7.13787 83.8729 7.19311 84.0235 7.32087C84.1124 7.39339 84.239 7.27599 84.1535 7.18966C83.9653 7.0032 83.7053 6.89616 83.4351 6.85127C83.4008 6.61993 83.3632 6.39203 83.3324 6.16069C83.3222 6.08817 83.199 6.10544 83.2058 6.17795C83.223 6.39203 83.2366 6.60957 83.2537 6.8271C83.1272 6.8202 83.0006 6.8202 82.8843 6.83746C82.8774 6.83746 82.8706 6.83746 82.8603 6.84091C82.8159 6.55432 82.7714 6.27118 82.7201 5.98804C82.703 5.89826 82.5524 5.91898 82.5627 6.00876C82.5935 6.30226 82.6174 6.59576 82.6414 6.88926C82.2617 6.99975 81.8375 7.24836 81.8101 7.642C81.769 8.229 82.289 8.4638 82.768 8.53976C82.7919 8.88506 82.8159 9.23035 82.8398 9.57564C82.6243 9.50659 82.419 9.39954 82.224 9.27524C82.1077 9.20273 81.9503 9.3512 82.0325 9.4686C82.2309 9.7621 82.5388 9.89677 82.8706 9.9382C82.8877 10.1696 82.9048 10.4009 82.9219 10.6322C82.9322 10.7738 83.1374 10.7773 83.1408 10.6322C83.1477 10.4078 83.1477 10.1799 83.1443 9.95547C83.2914 9.95547 83.4385 9.94166 83.5822 9.92094C83.6198 10.1557 83.6608 10.3905 83.7122 10.6219C83.7395 10.7531 83.9585 10.7255 83.9482 10.5908C83.9311 10.3491 83.9003 10.1074 83.8764 9.86914C84.28 9.76901 84.5708 9.33049 84.3998 8.90232L84.3895 8.90923ZM83.1169 7.10679C83.1682 7.10334 83.2195 7.10679 83.2743 7.10679C83.3016 7.50733 83.3358 7.90787 83.3735 8.30841C83.264 8.30151 83.1545 8.29806 83.0451 8.2946C83.0074 7.90787 82.9595 7.52114 82.9048 7.13787C82.9766 7.12406 83.0451 7.1137 83.1169 7.11024V7.10679ZM82.5353 8.20137C82.029 7.98039 82.0735 7.49697 82.4977 7.27253C82.5524 7.24491 82.6072 7.22074 82.6653 7.20002C82.6927 7.55567 82.7201 7.91133 82.744 8.26353C82.6722 8.24972 82.6003 8.23245 82.5353 8.20137ZM83.1306 9.65506C83.1203 9.29596 83.0964 8.93685 83.069 8.5812C83.1819 8.5881 83.2948 8.59156 83.4008 8.60882C83.4385 8.96102 83.4795 9.30977 83.5308 9.65851C83.394 9.67578 83.2606 9.67578 83.1306 9.65851V9.65506ZM83.8353 9.57564C83.8011 9.28214 83.76 8.98864 83.7156 8.69514C83.7464 8.70896 83.7772 8.71586 83.8079 8.73313C84.1945 8.95066 84.2082 9.4099 83.8353 9.57564Z" fill="white"/>
<path d="M100.93 14.5065C100.79 14.6239 100.715 14.8069 100.605 14.9553C100.595 14.9692 100.584 14.9795 100.574 14.9933C100.608 13.5604 100.55 12.1274 100.492 10.6979C100.581 10.8325 100.663 10.9672 100.749 11.1019C100.844 11.2503 101.125 11.1571 101.05 10.9741C100.971 10.7773 100.831 10.5943 100.691 10.4389C100.636 10.3802 100.55 10.2801 100.461 10.2145C100.403 10.0453 100.116 10.0591 100.119 10.2663C100.078 10.318 100.041 10.3767 100.01 10.4182C99.8627 10.6185 99.7293 10.8291 99.5924 11.0363C99.5445 11.1122 99.6608 11.2089 99.719 11.1364C99.8319 10.9983 99.9448 10.8602 100.058 10.722C100.065 10.7117 100.095 10.6841 100.13 10.6461C100.184 12.1274 100.218 13.6122 100.249 15.0969C100.119 14.9484 99.979 14.8034 99.8421 14.6722C99.7087 14.5479 99.5171 14.7413 99.6437 14.8725C99.7942 15.0279 99.9208 15.2005 100.061 15.3662C100.143 15.4629 100.239 15.5907 100.379 15.5838C100.537 15.5734 100.677 15.4042 100.769 15.2903C100.933 15.0935 101.125 14.869 101.156 14.6101C101.173 14.4823 101.005 14.4512 100.93 14.5134V14.5065Z" fill="white"/>
<path d="M94.502 6.39887C94.3343 6.12264 93.9888 5.87748 93.7254 5.70483C93.5373 5.58052 93.3731 5.87748 93.5509 6.00524C93.6741 6.09156 93.8281 6.20896 93.9649 6.33327C91.5394 6.24349 89.1002 6.34708 86.6713 6.33672C86.709 6.30219 86.75 6.26766 86.7877 6.23313C86.8971 6.1399 87.01 6.05012 87.1263 5.96035C87.2563 5.85676 87.0853 5.63232 86.9484 5.729C86.7569 5.86712 86.5619 6.00524 86.384 6.16062C86.2642 6.26766 86.165 6.38506 86.2813 6.53699C86.3942 6.68547 86.5756 6.80287 86.7227 6.91681C86.8766 7.03421 87.0476 7.19995 87.2563 7.15161C87.3213 7.13435 87.3555 7.05148 87.3213 6.99278C87.2221 6.83049 87.0374 6.74762 86.8903 6.63022C86.8424 6.59224 86.7637 6.53699 86.6884 6.47829C89.1173 6.56461 91.5599 6.63712 93.9923 6.64058C93.9649 6.67511 93.9375 6.70618 93.9102 6.74071C93.7767 6.90645 93.5886 7.06874 93.6365 7.29318C93.6467 7.34153 93.7049 7.39332 93.7562 7.38641C93.9717 7.35879 94.0573 7.16888 94.1838 7.00659C94.283 6.87883 94.3788 6.75107 94.4815 6.62677C94.5328 6.56461 94.5567 6.47829 94.5088 6.40233L94.502 6.39887Z" fill="white"/>
<path d="M77.7152 12.4105C77.7254 12.6867 77.7596 12.9561 77.8554 13.1978C77.8931 13.291 78.0402 13.3152 78.0675 13.1978C78.1257 12.9457 78.136 12.6798 78.1291 12.4105C78.372 12.4139 78.6388 12.4416 78.8509 12.3311C78.9262 12.2931 78.9262 12.1688 78.8509 12.1308C78.632 12.0169 78.3617 12.0548 78.1154 12.0721C78.1017 11.8304 78.0812 11.5887 78.0812 11.3573C78.0812 11.1433 77.7631 11.1433 77.7528 11.3573C77.7425 11.5852 77.722 11.8338 77.7152 12.0825C77.4791 12.0859 77.2431 12.0894 77.0105 12.0894C76.8189 12.0894 76.8257 12.3691 77.0105 12.3829C77.2465 12.4001 77.4826 12.407 77.7186 12.407L77.7152 12.4105Z" fill="white"/>
<path d="M78.8746 14.6414C78.2896 14.6691 77.7046 14.7071 77.1231 14.745C76.9349 14.7588 76.9315 15.0454 77.1231 15.0454C77.708 15.0489 78.2896 15.0523 78.8746 15.0454C79.1346 15.0454 79.1312 14.6276 78.8746 14.6414Z" fill="white"/>
<path d="M79.4534 27.679C79.6382 27.4683 79.8879 27.2094 79.9016 26.9297C79.905 26.8572 79.8263 26.8226 79.7682 26.8537C79.5253 26.978 79.3679 27.3026 79.2037 27.5374C78.9369 27.382 78.6735 27.2266 78.4032 27.0747C78.2287 26.978 78.0782 27.237 78.2492 27.344C78.4956 27.496 78.7384 27.6548 78.9813 27.8102C78.8069 28.0139 78.6256 28.2142 78.4306 28.4006C78.3279 28.5008 78.4785 28.6493 78.5845 28.556C78.8034 28.3661 79.0053 28.1624 79.2037 27.9518C79.2174 27.9621 79.2311 27.969 79.2448 27.9794C79.5082 28.152 79.775 28.3903 80.1 28.411C80.1787 28.4145 80.2197 28.3247 80.1855 28.2591C80.0384 27.9828 79.7134 27.8378 79.45 27.6824L79.4534 27.679Z" fill="white"/>
<path d="M82.1834 26.833C82.0055 27.123 81.8413 27.42 81.6839 27.7238C81.6052 27.5995 81.506 27.4752 81.4308 27.3647C81.3008 27.1714 81.1639 26.9884 80.9963 26.8261C80.8492 26.6845 80.6371 26.902 80.7739 27.0505C80.9382 27.2266 81.0647 27.4234 81.1845 27.6341C81.2768 27.7895 81.3658 27.9794 81.5095 28.0933C81.4479 28.2211 81.3829 28.3488 81.3247 28.4766C81.116 28.9669 80.8389 29.5297 80.8629 30.0684C80.8697 30.1962 81.0339 30.2445 81.1024 30.134C81.3658 29.7093 81.4445 29.1706 81.6155 28.6976C81.831 28.0968 82.1013 27.527 82.4058 26.9677C82.4879 26.8192 82.2689 26.6914 82.18 26.8364L82.1834 26.833Z" fill="white"/>
<path d="M47.5181 27.2505C47.5181 17.9172 40.0227 10.3484 30.7724 10.3484C21.522 10.3484 14.0266 17.9138 14.0266 27.2505C14.0266 36.5873 21.522 44.1527 30.7724 44.1527C32.1921 44.1527 33.5673 43.9731 34.8844 43.6382C36.2836 46.2728 38.9896 47.8991 42.4037 46.7251C42.4037 46.7251 39.6156 44.7915 39.3385 41.7736C44.2374 38.8248 47.5181 33.4244 47.5181 27.2505Z" fill="#92D8FE"/>
<path d="M36.3831 21.2457L39.1883 18.9529C39.2601 18.8942 39.4346 19.0703 39.3764 19.1429L37.1049 21.9743L36.3831 21.2457Z" fill="#7C71CD"/>
<path d="M34.5488 27.9652L29.3934 32.4817L25.9758 29.0322L30.4505 23.8286C31.2544 23.0172 31.4597 23.0413 32.4483 22.4923C33.3617 21.9813 34.3436 21.5911 35.363 21.3321L36.3962 21.0732C36.9333 20.935 37.419 21.4254 37.2822 21.9675L37.0256 23.0103C36.7725 24.0427 36.3825 25.0337 35.8762 25.9522C35.3322 26.9501 35.3562 27.1538 34.5488 27.9652Z" fill="white"/>
<path d="M35.8768 25.9488C35.8768 25.9488 34.7616 24.4778 34.3305 24.0428C33.8995 23.6077 32.4456 22.4855 32.4456 22.4855C33.359 21.9744 34.3408 21.5843 35.3602 21.3253L36.3934 21.0663C36.9305 20.9282 37.4163 21.4185 37.2794 21.9606L37.0228 23.0034C36.7697 24.0359 36.3797 25.0268 35.8734 25.9453L35.8768 25.9488Z" fill="#E6335A"/>
<path d="M25.9765 29.0283L28.3951 26.2142C28.3951 26.2142 24.4952 24.2874 22.1484 27.1292C21.2966 28.1616 21.4848 28.7935 21.9021 28.7694C22.6 28.7279 24.3515 27.6092 25.9731 29.0283H25.9765Z" fill="#E6335A"/>
<path d="M29.3937 32.4781L32.1818 30.0369C32.1818 30.0369 34.0907 33.9732 31.2752 36.3419C30.2523 37.2017 29.6263 37.0118 29.6503 36.5906C29.6913 35.8862 30.7997 34.1182 29.3937 32.4781Z" fill="#E6335A"/>
<path d="M33.0914 28.1719C32.3046 28.9661 31.0286 28.9661 30.2417 28.1719C29.4549 27.3777 29.4549 26.0898 30.2417 25.2956C31.0286 24.5014 32.3046 24.5014 33.0914 25.2956C33.8782 26.0898 33.8782 27.3777 33.0914 28.1719Z" fill="#E6335A"/>
<path d="M32.6746 27.7506C32.117 28.3134 31.2173 28.3134 30.6597 27.7506C30.102 27.1878 30.102 26.2796 30.6597 25.7168C31.2173 25.154 32.117 25.154 32.6746 25.7168C33.2323 26.2796 33.2323 27.1878 32.6746 27.7506Z" fill="#73CDE5"/>
<path d="M27.5837 33.618L24.8469 30.8557L25.9758 29.0291L29.3934 32.4785L27.5837 33.618Z" fill="#7C71CD"/>
<path d="M25.3879 31.4031L27.0401 33.0707L26.2999 33.8178C26.0943 34.0254 25.758 34.0278 25.55 33.8178L24.6453 32.9047C24.4397 32.6971 24.4397 32.3602 24.6453 32.1526L25.3855 31.4055L25.3879 31.4031Z" fill="#E6335A"/>
<path d="M32.035 26.0206C32.1308 26.1622 32.1855 26.3176 32.1787 26.4902C32.1719 26.6629 32.0521 26.7907 32.0453 26.9564C32.0453 27.0427 32.1308 27.1118 32.2129 27.0876C32.4421 27.022 32.5071 26.7009 32.5105 26.4902C32.514 26.252 32.425 26.0137 32.2505 25.8515C32.1411 25.7513 31.9392 25.8825 32.0316 26.0172L32.035 26.0206Z" fill="white"/>
<path d="M31.6789 27.4058C31.6242 27.3713 31.5695 27.3679 31.5045 27.3644C31.2068 27.3541 31.3163 27.8651 31.5968 27.7132C31.655 27.6821 31.6995 27.651 31.7303 27.5958C31.7679 27.5267 31.7405 27.4473 31.6789 27.4058Z" fill="white"/>
<path d="M24.4504 32.6438C24.4504 32.6438 22.7536 33.1549 22.6236 34.4877C22.4936 35.8205 21.3476 36.5802 21.0807 36.6562C20.8139 36.7321 22.0283 36.7839 22.9041 36.2038C22.9041 36.2038 22.7091 36.5249 22.131 37.105C23.0683 37.1879 25.6546 36.0484 25.8085 34.0147L24.447 32.6404L24.4504 32.6438Z" fill="#FF9750"/>
<path d="M24.8199 33.0134C24.8199 33.0134 23.6293 33.4381 23.6943 34.1494C23.7593 34.8608 23.1299 35.3476 23.1299 35.3476C23.1299 35.3476 24.9704 35.5237 25.504 33.704L24.8199 33.0134Z" fill="#FFF252"/>
<path d="M35.2298 34.0599C38.2334 31.0283 41.2781 28.0311 44.1962 24.9131C44.2851 24.8164 44.1483 24.6783 44.0525 24.7681C40.9633 27.71 37.9939 30.7831 34.9903 33.8182C34.8364 33.9736 35.0758 34.2153 35.2298 34.0599Z" fill="white"/>
<path d="M17.8614 27.6444C21.214 24.2985 24.6726 21.0252 27.8815 17.5411C27.9499 17.4652 27.8439 17.3616 27.772 17.4306C24.3168 20.6695 21.0771 24.1604 17.7622 27.5443C17.6972 27.6134 17.7998 27.717 17.8648 27.6479L17.8614 27.6444Z" fill="white"/>
<path d="M27.2044 23.3417C29.6607 20.8971 32.2333 18.5076 34.5322 15.911C34.6382 15.7902 34.474 15.6244 34.3543 15.7315C31.7817 18.0518 29.4144 20.6485 26.9923 23.1277C26.8589 23.2658 27.0676 23.4764 27.201 23.3383L27.2044 23.3417Z" fill="white"/>
<path d="M28.6782 41.7424C29.9029 40.8619 30.9087 39.5809 31.935 38.4794C32.0342 38.3723 31.8802 38.2204 31.7776 38.3205C30.6863 39.3564 29.4171 40.3716 28.5482 41.6077C28.4935 41.6872 28.6029 41.7977 28.6816 41.7424H28.6782Z" fill="white"/>
<path d="M20.0033 20.8177C21.7857 19.3779 23.3149 17.5616 24.8954 15.9042C24.9946 15.8006 24.8406 15.6418 24.738 15.7454C23.0959 17.3372 21.2965 18.8841 19.8699 20.6831C19.7912 20.7798 19.9076 20.9006 20.0068 20.8212L20.0033 20.8177Z" fill="white"/>
<path d="M35.8077 38.8319C38.1066 36.0351 40.7681 33.5697 43.262 30.9558C43.3407 30.8764 43.221 30.7555 43.1388 30.8315C40.5492 33.3521 38.1066 36.0385 35.3356 38.3554C35.0072 38.6317 35.5306 39.16 35.8042 38.8285L35.8077 38.8319Z" fill="white"/>
<path d="M34.9632 19.112C36.0887 17.9795 37.204 16.84 38.3124 15.6832C38.391 15.6004 38.2679 15.4761 38.1858 15.5555C37.0432 16.6708 35.9142 17.7999 34.7887 18.9359C34.6758 19.0499 34.8503 19.2225 34.9632 19.112Z" fill="white"/>
<path d="M28.8296 15.8319C29.6061 15.0447 30.4032 14.2712 31.149 13.4563C31.2653 13.3286 31.0874 13.149 30.9609 13.2664C30.1501 14.0191 29.3838 14.8202 28.6072 15.6075C28.4635 15.7525 28.6859 15.9804 28.833 15.8354L28.8296 15.8319Z" fill="white"/>
<path d="M18.5256 33.677C19.3808 32.8207 20.2395 31.9609 21.0947 31.1045C21.2487 30.9526 21.0092 30.7109 20.8587 30.8663C20.0103 31.7295 19.1584 32.5962 18.31 33.4594C18.1732 33.5976 18.3853 33.8151 18.5256 33.677Z" fill="white"/>
<path d="M24.9429 40.2994C25.8289 39.2497 26.7526 38.238 27.6694 37.2125C27.7515 37.1192 27.625 36.9915 27.5326 37.0743C26.5166 37.9997 25.5142 38.932 24.4742 39.8263C24.1492 40.106 24.6658 40.6274 24.9429 40.2994Z" fill="white"/>
<path d="M39.2221 25.3965C40.3853 23.8875 41.8152 22.6169 43.0741 21.1908C43.1665 21.0838 43.0263 20.9387 42.9202 21.0354C41.5073 22.3061 40.2484 23.7494 38.7534 24.9234C38.4148 25.1893 38.9587 25.7383 39.2221 25.3965Z" fill="white"/>
<path d="M165.001 16.9022C165.001 7.56885 172.497 0 181.747 0C190.997 0 198.493 7.5654 198.493 16.9022C198.493 26.2389 190.997 33.8043 181.747 33.8043C180.327 33.8043 178.952 33.6248 177.635 33.2898C176.236 35.9244 173.53 37.5507 170.116 36.3767C170.116 36.3767 172.904 34.4431 173.181 31.4252C168.282 28.4764 165.001 23.076 165.001 16.9022Z" fill="#92D8FE"/>
<path d="M177.108 11.2842C177.108 10.4555 176.844 9.65443 176.362 8.99146L176.372 8.98456L176.184 8.76357C175.455 7.89688 174.388 7.39966 173.259 7.39966C173.119 7.39966 172.979 7.40656 172.842 7.42383C171.874 7.53087 170.977 8.00738 170.334 8.76357L170.146 8.98456L170.156 8.99146C169.674 9.65443 169.411 10.459 169.411 11.2842C169.411 12.1095 169.667 12.8933 170.136 13.5493L170.126 13.5563L170.307 13.7772C171.039 14.6612 172.113 15.1688 173.256 15.1688C173.423 15.1688 173.588 15.155 173.748 15.1342C174.563 15.0272 175.322 14.6646 175.914 14.0915C176.017 13.9913 176.112 13.8877 176.205 13.7772L176.386 13.5563L176.376 13.5493C176.844 12.8933 177.101 12.0991 177.101 11.2842H177.108ZM175.596 13.6978C175.562 13.7289 175.527 13.76 175.497 13.7911C175.445 13.8394 175.39 13.8877 175.336 13.9326C175.298 13.9637 175.26 13.9913 175.219 14.0189C175.165 14.0604 175.11 14.0984 175.052 14.1363C175.011 14.164 174.97 14.1881 174.925 14.2123C174.867 14.2468 174.809 14.2779 174.747 14.309C174.703 14.3297 174.658 14.3539 174.614 14.3711C174.556 14.3953 174.498 14.4195 174.439 14.4402C174.641 14.1605 174.816 13.8118 174.949 13.4043C175.189 13.4768 175.414 13.5666 175.62 13.6702C175.613 13.6771 175.603 13.6875 175.596 13.6978ZM171.774 14.3055C171.713 14.2745 171.651 14.2434 171.593 14.2089C171.552 14.1847 171.511 14.1605 171.47 14.1363C171.412 14.0984 171.354 14.0569 171.296 14.0155C171.258 13.9879 171.22 13.9602 171.186 13.9326C171.128 13.8877 171.073 13.8394 171.018 13.7876C170.988 13.7565 170.953 13.7289 170.923 13.6978C170.912 13.6909 170.906 13.6806 170.899 13.6702C171.101 13.5666 171.326 13.4768 171.569 13.4043C171.703 13.8083 171.877 14.1605 172.079 14.4402C172.021 14.4195 171.963 14.3953 171.904 14.3711C171.86 14.3504 171.819 14.3297 171.774 14.309V14.3055ZM170.947 8.84299C170.977 8.81191 171.012 8.78429 171.046 8.75666C171.101 8.70832 171.152 8.65998 171.21 8.61855C171.248 8.59092 171.285 8.5633 171.323 8.53568C171.378 8.49769 171.432 8.45626 171.491 8.42173C171.532 8.39756 171.573 8.37339 171.614 8.34922C171.672 8.31469 171.73 8.28361 171.792 8.25599C171.836 8.23527 171.877 8.21455 171.922 8.19383C171.973 8.16966 172.024 8.1524 172.076 8.13168C171.881 8.40101 171.713 8.73595 171.579 9.12613C171.347 9.05362 171.125 8.97075 170.926 8.87061C170.933 8.86371 170.94 8.8568 170.947 8.84989V8.84299ZM174.727 8.24908C174.788 8.28016 174.847 8.31123 174.908 8.34576C174.949 8.36993 174.99 8.39065 175.028 8.41828C175.086 8.45626 175.144 8.49424 175.202 8.53568C175.24 8.5633 175.274 8.58747 175.312 8.61509C175.37 8.65998 175.425 8.71178 175.483 8.76012C175.514 8.78774 175.544 8.81191 175.575 8.84299C175.582 8.84989 175.589 8.8568 175.596 8.86716C175.397 8.96729 175.175 9.05362 174.942 9.12268C174.809 8.73249 174.641 8.39756 174.446 8.12823C174.501 8.14895 174.552 8.16966 174.604 8.19038C174.648 8.2111 174.689 8.22836 174.73 8.24908H174.727ZM175.26 11.0287C175.243 10.5177 175.178 10.0377 175.072 9.60263C175.384 9.50941 175.671 9.39201 175.924 9.25044C176.311 9.76492 176.543 10.383 176.591 11.0287H175.257H175.26ZM173.509 7.95558C173.868 8.10406 174.214 8.55985 174.453 9.24008C174.152 9.29878 173.834 9.33676 173.509 9.35057V7.95558ZM173.009 9.35057C172.684 9.33676 172.366 9.29878 172.065 9.24008C172.305 8.55985 172.65 8.10406 173.009 7.95558V9.35057ZM173.009 9.8547V11.0252H171.757C171.774 10.5453 171.833 10.1102 171.925 9.72349C172.271 9.796 172.637 9.84089 173.009 9.8547ZM173.009 11.5328V12.6619C172.633 12.6758 172.264 12.7206 171.915 12.7932C171.829 12.4168 171.771 11.9921 171.757 11.5328H173.009ZM173.009 13.1661V14.6025C172.643 14.4506 172.291 13.981 172.052 13.2766C172.356 13.2144 172.678 13.1764 173.009 13.1626V13.1661ZM173.509 13.1661C173.841 13.1799 174.162 13.2179 174.467 13.28C174.227 13.9844 173.875 14.454 173.509 14.6059V13.1695V13.1661ZM173.509 12.6619V11.5328H174.761C174.747 11.9955 174.689 12.4168 174.604 12.7932C174.255 12.7206 173.889 12.6758 173.509 12.6619ZM173.509 11.0252V9.8547C173.882 9.84089 174.248 9.796 174.593 9.72349C174.686 10.1102 174.744 10.5453 174.761 11.0252H173.509ZM171.443 9.59918C171.337 10.0343 171.272 10.5142 171.255 11.0252H169.92C169.968 10.3795 170.201 9.76492 170.587 9.24698C170.844 9.38855 171.131 9.50595 171.439 9.59918H171.443ZM171.255 11.5294C171.272 12.0231 171.333 12.4893 171.432 12.914C171.118 13.0107 170.823 13.1315 170.567 13.2766C170.194 12.769 169.972 12.1613 169.924 11.5294H171.258H171.255ZM175.086 12.914C175.185 12.4893 175.247 12.0231 175.264 11.5294H176.598C176.55 12.1613 176.328 12.769 175.955 13.2766C175.695 13.1315 175.404 13.0107 175.089 12.914H175.086Z" fill="#7C71CD"/>
<path d="M177.21 22.2546H176.8C176.755 22.1234 176.704 21.9956 176.642 21.8713L176.933 21.5778C177.022 21.4881 177.022 21.3396 176.933 21.2463L175.962 20.2657C175.873 20.1759 175.726 20.1759 175.633 20.2657L175.342 20.5592C175.219 20.4971 175.093 20.4418 174.963 20.4004V19.986C174.963 19.8583 174.86 19.7512 174.73 19.7512H173.355C173.228 19.7512 173.122 19.8548 173.122 19.986V20.4004C172.992 20.4453 172.866 20.4971 172.743 20.5592L172.452 20.2657C172.363 20.1759 172.216 20.1759 172.123 20.2657L171.152 21.2463C171.063 21.3361 171.063 21.4846 171.152 21.5778L171.443 21.8713C171.381 21.9956 171.326 22.1234 171.285 22.2546H170.875C170.748 22.2546 170.642 22.3582 170.642 22.4894V23.8775C170.642 24.0052 170.745 24.1123 170.875 24.1123H171.285C171.33 24.2435 171.381 24.3713 171.443 24.4956L171.152 24.7891C171.063 24.8788 171.063 25.0273 171.152 25.1205L172.123 26.1012C172.212 26.191 172.359 26.191 172.452 26.1012L172.743 25.8077C172.866 25.8698 172.992 25.9251 173.122 25.9665V26.3809C173.122 26.5086 173.225 26.6157 173.355 26.6157H174.73C174.857 26.6157 174.963 26.5121 174.963 26.3809V25.9665C175.093 25.9216 175.219 25.8698 175.342 25.8077L175.633 26.1012C175.722 26.191 175.869 26.191 175.962 26.1012L176.933 25.1205C177.022 25.0308 177.022 24.8823 176.933 24.7891L176.642 24.4956C176.704 24.3713 176.759 24.2435 176.8 24.1123H177.21C177.337 24.1123 177.443 24.0087 177.443 23.8775V22.4894C177.443 22.3616 177.34 22.2546 177.21 22.2546ZM175.124 23.1834C175.124 23.7877 174.638 24.2746 174.042 24.2746C173.447 24.2746 172.961 23.7843 172.961 23.1834C172.961 22.5826 173.447 22.0923 174.042 22.0923C174.638 22.0923 175.124 22.5826 175.124 23.1834Z" fill="#FFF252"/>
<path d="M181.565 25.9833C181.415 25.9833 181.343 25.8003 181.446 25.6933C181.565 25.5724 181.565 25.3756 181.446 25.2548L181.097 24.9026C180.977 24.7817 180.782 24.7817 180.662 24.9026C180.556 25.0096 180.375 24.9336 180.375 24.7817C180.375 24.6091 180.238 24.4709 180.067 24.4709H179.574C179.403 24.4709 179.266 24.6091 179.266 24.7817C179.266 24.9336 179.085 25.0062 178.979 24.9026C178.859 24.7817 178.664 24.7817 178.545 24.9026L178.196 25.2548C178.076 25.3756 178.076 25.5724 178.196 25.6933C178.302 25.8003 178.226 25.9833 178.076 25.9833C177.905 25.9833 177.768 26.1215 177.768 26.2941V26.7913C177.768 26.964 177.905 27.1021 178.076 27.1021C178.226 27.1021 178.298 27.2851 178.196 27.3921C178.076 27.513 178.076 27.7098 178.196 27.8307L178.545 28.1829C178.664 28.3037 178.859 28.3037 178.979 28.1829C179.085 28.0758 179.266 28.1518 179.266 28.3037C179.266 28.4764 179.403 28.6145 179.574 28.6145H180.067C180.238 28.6145 180.375 28.4764 180.375 28.3037C180.375 28.1518 180.556 28.0793 180.662 28.1829C180.782 28.3037 180.977 28.3037 181.097 28.1829L181.446 27.8307C181.565 27.7098 181.565 27.513 181.446 27.3921C181.34 27.2851 181.415 27.1021 181.565 27.1021C181.736 27.1021 181.873 26.964 181.873 26.7913V26.2941C181.873 26.1215 181.736 25.9833 181.565 25.9833ZM179.824 27.7167C179.181 27.7167 178.661 27.1919 178.661 26.5427C178.661 25.8936 179.181 25.3687 179.824 25.3687C180.467 25.3687 180.987 25.8936 180.987 26.5427C180.987 27.1919 180.467 27.7167 179.824 27.7167Z" fill="#E6335A"/>
<path d="M186.105 25.5584V24.0701C185.541 23.9389 185.127 23.7387 184.864 23.4693C184.6 23.2 184.467 22.8754 184.467 22.4921C184.467 22.1089 184.617 21.7774 184.915 21.515C185.213 21.2525 185.609 21.1006 186.105 21.0592V20.6206C186.105 20.4445 186.246 20.303 186.42 20.303C186.595 20.303 186.735 20.4445 186.735 20.6206V21.0592C187.193 21.1041 187.559 21.2318 187.83 21.4424C187.919 21.5115 188.001 21.5909 188.069 21.6772C188.288 21.95 188.09 22.3195 187.693 22.3609H187.676C187.446 22.3886 187.241 22.2781 187.125 22.1158C187.032 21.9915 186.906 21.8982 186.738 21.8395V23.2276C187.429 23.383 187.901 23.5798 188.155 23.825C188.404 24.0701 188.531 24.3844 188.531 24.7676C188.531 25.1958 188.374 25.5549 188.055 25.8484C187.741 26.1419 187.299 26.3215 186.738 26.3871V26.7324C186.738 26.9085 186.598 27.05 186.424 27.05C186.249 27.05 186.109 26.9085 186.109 26.7324V26.4043C185.609 26.356 185.206 26.2006 184.894 25.9451C184.73 25.8104 184.593 25.6447 184.494 25.4479C184.344 25.1613 184.593 24.8367 184.973 24.8022C185.223 24.7814 185.449 24.8988 185.561 25.0853C185.599 25.144 185.64 25.1992 185.688 25.251C185.815 25.3892 185.955 25.4893 186.112 25.548L186.105 25.5584ZM186.105 21.8326C185.934 21.881 185.801 21.9604 185.698 22.0743C185.596 22.1883 185.548 22.3126 185.548 22.4507C185.548 22.575 185.592 22.6924 185.685 22.7995C185.777 22.9065 185.917 22.9928 186.105 23.0619V21.8326ZM186.731 25.6067C186.947 25.5722 187.125 25.4927 187.258 25.3615C187.395 25.2303 187.46 25.0749 187.46 24.8988C187.46 24.74 187.402 24.6053 187.289 24.4879C187.176 24.374 186.988 24.2842 186.728 24.2221V25.6067H186.731Z" fill="#FFF252"/>
<path d="M181.983 5.28997C180.409 5.84244 179.363 6.97501 178.34 8.20771C178.134 7.63452 177.874 7.09932 177.539 6.57447C177.399 6.35693 177.07 6.54684 177.194 6.77819C177.539 7.42389 177.799 8.09722 177.991 8.80507C178.039 8.98462 178.295 9.0744 178.425 8.92247C178.825 8.45632 179.181 7.95565 179.605 7.51367C180.351 6.74021 181.237 6.22917 182.147 5.68361C182.349 5.56276 182.219 5.2071 181.983 5.28997Z" fill="white"/>
<path d="M194.606 18.632C192.947 18.7563 191.473 20.027 190.559 21.3944C190.371 20.9697 190.132 20.5829 189.824 20.2135C189.66 20.0167 189.389 20.2964 189.547 20.4932C189.899 20.9317 190.139 21.3771 190.313 21.9123C190.371 22.085 190.6 22.123 190.7 21.9641C191.692 20.3516 193.043 19.6576 194.668 18.853C194.771 18.8012 194.723 18.6251 194.61 18.632H194.606Z" fill="white"/>
<path d="M193.012 6.58833C191.353 6.71264 189.878 7.98332 188.965 9.35069C188.777 8.92597 188.537 8.53924 188.229 8.16978C188.065 7.97296 187.795 8.25265 187.952 8.44947C188.305 8.88799 188.544 9.33342 188.719 9.86863C188.777 10.0413 189.006 10.0793 189.105 9.92042C190.097 8.3079 191.448 7.61386 193.073 6.80932C193.176 6.75753 193.128 6.58143 193.015 6.58833H193.012Z" fill="white"/>
<path d="M183.304 17.3479C181.744 17.3962 180.16 18.6807 179.079 19.8237C178.963 19.4715 178.85 19.1193 178.747 18.7636C178.665 18.477 178.227 18.5979 178.306 18.8879C178.439 19.3817 178.586 19.8685 178.75 20.352C178.805 20.5177 179.021 20.6006 179.151 20.459C179.763 19.7926 180.44 19.2021 181.21 18.7222C181.901 18.2906 182.702 18.0523 183.372 17.6C183.475 17.5309 183.444 17.3444 183.304 17.3514V17.3479Z" fill="white"/>
<path d="M186.056 11.0495L185.309 11.804L187.254 13.767L188.001 13.0126L186.056 11.0495Z" fill="#5E3C77"/>
<path d="M187.077 13.8351L188.883 15.6583C189.157 15.9345 189.605 15.9345 189.878 15.6583C190.152 15.382 190.152 14.9297 189.878 14.6535L188.072 12.8303L187.077 13.8351Z" fill="#E6335A"/>
<path d="M186.762 8.31082C187.912 9.471 187.912 11.3529 186.762 12.513C185.613 13.6732 183.748 13.6732 182.599 12.513C181.449 11.3529 181.449 9.471 182.599 8.31082C183.748 7.15063 185.613 7.15063 186.762 8.31082Z" fill="#5E3C77"/>
<path d="M186.226 8.85309C187.077 9.71287 187.077 11.1113 186.226 11.9711C185.374 12.8309 183.988 12.8309 183.136 11.9711C182.285 11.1113 182.285 9.71287 183.136 8.85309C183.988 7.99331 185.374 7.99331 186.226 8.85309Z" fill="#73CDE5"/>
<path d="M183.683 9.73007C183.974 9.49872 184.313 9.3537 184.689 9.35025C184.857 9.35025 185.021 9.38132 185.175 9.44002C185.315 9.49182 185.418 9.59195 185.568 9.5885C185.626 9.5885 185.661 9.53671 185.65 9.48146C185.582 9.10164 184.911 9.01531 184.607 9.03258C184.183 9.05675 183.779 9.25702 183.56 9.63339C183.512 9.71626 183.618 9.78187 183.683 9.73007Z" fill="white"/>
<path d="M185.969 10.2968C186.044 10.3866 186.034 10.4867 186.068 10.5903C186.102 10.6904 186.184 10.756 186.287 10.6904C186.53 10.5282 186.338 10.169 186.15 10.0586C185.996 9.96877 185.863 10.1725 185.969 10.2968Z" fill="white"/>
<path d="M168.58 16.753C168.562 16.753 168.542 16.7565 168.521 16.7668C167.991 17.0016 167.646 17.5506 167.943 18.1169C168.21 18.6279 168.932 18.9663 169.466 18.6728C169.965 18.4001 170.037 17.6231 169.801 17.1535C169.602 16.753 168.952 16.3904 168.58 16.753ZM169.253 18.3172C168.911 18.4898 168.443 18.2447 168.279 17.9201C168.094 17.5506 168.357 17.1915 168.662 17.0051C168.682 16.9913 168.699 16.9774 168.71 16.9602C169.048 16.8842 169.353 16.9291 169.51 17.3055C169.643 17.6231 169.592 18.1549 169.257 18.3206L169.253 18.3172Z" fill="white"/>
<path d="M172.274 18.6352C172.161 18.4314 171.932 18.276 171.761 18.1207L171.183 17.5889C171.183 17.5889 171.166 17.5751 171.155 17.5716L171.309 17.4508C171.518 17.2851 171.764 17.1331 171.928 16.9225C171.98 16.8569 171.918 16.7706 171.839 16.8051C171.607 16.919 171.412 17.1193 171.213 17.2851C171.053 17.4197 170.892 17.5509 170.731 17.6856C170.731 17.6614 170.724 17.6373 170.724 17.6165C170.693 17.2298 170.676 16.8431 170.618 16.4598C170.594 16.2975 170.345 16.3424 170.341 16.4978C170.334 16.8983 170.372 17.3023 170.392 17.7029C170.413 18.0551 170.386 18.4383 170.509 18.7698C170.55 18.8769 170.721 18.901 170.752 18.7698C170.817 18.4867 170.782 18.1863 170.752 17.8893C170.844 17.8168 170.933 17.7443 171.025 17.6718C171.025 17.689 171.036 17.7063 171.049 17.7201C171.234 17.9066 171.419 18.093 171.603 18.2761C171.768 18.4383 171.932 18.6662 172.137 18.7698C172.223 18.8147 172.322 18.7249 172.274 18.6317V18.6352Z" fill="white"/>
<path d="M191.795 11.6949C191.671 11.9366 191.562 12.1852 191.459 12.4338C191.381 12.3682 191.288 12.3095 191.216 12.2646C191.001 12.123 190.768 12.0125 190.525 11.9297C190.371 11.8779 190.32 12.1092 190.46 12.1679C190.679 12.2611 190.891 12.382 191.076 12.5339C191.158 12.5995 191.24 12.6928 191.329 12.7618C191.319 12.786 191.309 12.8102 191.302 12.8343C191.165 13.2107 190.977 13.625 190.984 14.029C190.984 14.1775 191.179 14.2259 191.258 14.105C191.456 13.7839 191.521 13.3764 191.637 13.0173C191.767 12.6099 191.911 12.2093 192.048 11.8053C192.099 11.6569 191.866 11.5567 191.795 11.6983V11.6949Z" fill="white"/>
<path d="M193.892 13.9634C193.69 13.8736 193.502 13.8909 193.283 13.8909C193.173 13.8909 192.65 13.9461 192.605 13.9012C192.561 13.8563 192.605 13.4247 192.619 13.2797C192.752 13.29 192.882 13.297 193.016 13.3142C193.18 13.3349 193.327 13.3971 193.481 13.3177C193.529 13.2935 193.536 13.2175 193.498 13.1796C193.372 13.0587 193.201 13.0794 193.033 13.0691C192.9 13.0622 192.77 13.0656 192.636 13.0656C192.65 12.8584 192.674 12.6513 192.701 12.4475C192.985 12.4717 193.266 12.4993 193.55 12.5235C193.652 12.5339 193.656 12.3647 193.55 12.3612C193.269 12.3508 192.989 12.3405 192.708 12.3301C192.687 12.1851 192.469 12.1299 192.434 12.2991C192.376 12.5718 192.335 12.8481 192.301 13.1243C192.294 13.145 192.291 13.1623 192.294 13.183C192.291 13.2279 192.28 13.2728 192.277 13.3211C192.256 13.5421 192.164 13.9323 192.308 14.1326C192.431 14.3087 192.691 14.2603 192.872 14.2603C193.207 14.2603 193.58 14.3225 193.892 14.1878C193.974 14.1498 193.977 14.0014 193.892 13.9634Z" fill="white"/>
<path d="M196.067 13.6251C195.948 13.3074 195.554 13.0519 195.26 12.9241C195.13 12.8689 194.942 12.8481 194.829 12.7584C194.699 12.6548 194.679 12.6513 194.795 12.4856C194.921 12.3026 195.209 12.1679 195.428 12.2059C195.63 12.2439 195.718 11.94 195.513 11.8917C195.038 11.7743 193.861 12.3924 194.439 12.9552C194.648 13.1589 194.962 13.1693 195.212 13.2832C195.534 13.4317 195.937 13.7321 195.592 14.0601C195.38 14.2639 195.041 14.2431 194.788 14.3502C194.682 14.3951 194.627 14.5574 194.754 14.6195C195.246 14.8716 196.3 14.2328 196.067 13.6251Z" fill="white"/>
</g>
<defs>
<clipPath id="clip0_1_2345">
<rect width="198" height="148" fill="white" transform="translate(0.493164)"/>
</clipPath>
</defs>
</svg>
