<svg xmlns="http://www.w3.org/2000/svg" width="24" height="24" viewBox="0 0 24 24" fill="none">
<path fill-rule="evenodd" clip-rule="evenodd" d="M6.32999 9.33001C6.54092 9.11934 6.82686 9.001 7.12499 9.001C7.42311 9.001 7.70905 9.11934 7.91999 9.33001L12 13.41L16.08 9.33001C16.183 9.21948 16.3072 9.13083 16.4452 9.06934C16.5832 9.00785 16.7321 8.97479 16.8832 8.97213C17.0343 8.96946 17.1843 8.99725 17.3244 9.05383C17.4645 9.11041 17.5917 9.19463 17.6985 9.30146C17.8054 9.40828 17.8896 9.53553 17.9462 9.67562C18.0028 9.8157 18.0305 9.96574 18.0279 10.1168C18.0252 10.2679 17.9921 10.4168 17.9307 10.5548C17.8692 10.6928 17.7805 10.817 17.67 10.92L12.795 15.795C12.584 16.0057 12.2981 16.124 12 16.124C11.7019 16.124 11.4159 16.0057 11.205 15.795L6.32999 10.92C6.11931 10.7091 6.00098 10.4231 6.00098 10.125C6.00098 9.82689 6.11931 9.54095 6.32999 9.33001Z" fill="white"/>
</svg>