<svg xmlns="http://www.w3.org/2000/svg" width="25" height="24" viewBox="0 0 25 24" fill="none">
    <path d="M22.0307 7.28055L10.0307 19.2806C9.96102 19.3503 9.8783 19.4056 9.78726 19.4433C9.69621 19.4811 9.59861 19.5005 9.50005 19.5005C9.40149 19.5005 9.30389 19.4811 9.21285 19.4433C9.1218 19.4056 9.03908 19.3503 8.96943 19.2806L3.71943 14.0306C3.5787 13.8898 3.49963 13.699 3.49963 13.4999C3.49963 13.3009 3.5787 13.11 3.71943 12.9693C3.86016 12.8286 4.05103 12.7495 4.25005 12.7495C4.44907 12.7495 4.63995 12.8286 4.78068 12.9693L9.50005 17.6896L20.9694 6.2193C21.1102 6.07857 21.301 5.99951 21.5001 5.99951C21.6991 5.99951 21.8899 6.07857 22.0307 6.2193C22.1714 6.36003 22.2505 6.55091 22.2505 6.74993C22.2505 6.94895 22.1714 7.13982 22.0307 7.28055Z" fill="#39AB1D"/>
</svg>