<svg xmlns="http://www.w3.org/2000/svg" width="19" height="18" viewBox="0 0 19 18" fill="none">
    <path d="M5.27176 0H12.8318C15.7118 0 18.0518 2.34 18.0518 5.22V12.78C18.0518 14.1644 17.5018 15.4922 16.5229 16.4711C15.5439 17.45 14.2162 18 12.8318 18H5.27176C2.39176 18 0.0517578 15.66 0.0517578 12.78V5.22C0.0517578 3.83557 0.601721 2.50784 1.58066 1.5289C2.5596 0.549963 3.88733 0 5.27176 0ZM5.09176 1.8C4.23246 1.8 3.40835 2.14136 2.80073 2.74897C2.19311 3.35659 1.85176 4.1807 1.85176 5.04V12.96C1.85176 14.751 3.30076 16.2 5.09176 16.2H13.0118C13.8711 16.2 14.6952 15.8586 15.3028 15.251C15.9104 14.6434 16.2518 13.8193 16.2518 12.96V5.04C16.2518 3.249 14.8028 1.8 13.0118 1.8H5.09176ZM13.7768 3.15C14.0751 3.15 14.3613 3.26853 14.5723 3.4795C14.7832 3.69048 14.9018 3.97663 14.9018 4.275C14.9018 4.57337 14.7832 4.85952 14.5723 5.0705C14.3613 5.28147 14.0751 5.4 13.7768 5.4C13.4784 5.4 13.1922 5.28147 12.9813 5.0705C12.7703 4.85952 12.6518 4.57337 12.6518 4.275C12.6518 3.97663 12.7703 3.69048 12.9813 3.4795C13.1922 3.26853 13.4784 3.15 13.7768 3.15ZM9.05176 4.5C10.2452 4.5 11.3898 4.97411 12.2337 5.81802C13.0777 6.66193 13.5518 7.80653 13.5518 9C13.5518 10.1935 13.0777 11.3381 12.2337 12.182C11.3898 13.0259 10.2452 13.5 9.05176 13.5C7.85828 13.5 6.71369 13.0259 5.86978 12.182C5.02586 11.3381 4.55176 10.1935 4.55176 9C4.55176 7.80653 5.02586 6.66193 5.86978 5.81802C6.71369 4.97411 7.85828 4.5 9.05176 4.5ZM9.05176 6.3C8.33567 6.3 7.64892 6.58446 7.14257 7.09081C6.63622 7.59716 6.35176 8.28392 6.35176 9C6.35176 9.71608 6.63622 10.4028 7.14257 10.9092C7.64892 11.4155 8.33567 11.7 9.05176 11.7C9.76784 11.7 10.4546 11.4155 10.9609 10.9092C11.4673 10.4028 11.7518 9.71608 11.7518 9C11.7518 8.28392 11.4673 7.59716 10.9609 7.09081C10.4546 6.58446 9.76784 6.3 9.05176 6.3Z" fill="#123248"/>
</svg>