<svg xmlns="http://www.w3.org/2000/svg" width="227" height="185" viewBox="0 0 227 185" fill="none">
    <path d="M226.559 3.22461C226.559 4.69737 225.365 5.89128 223.893 5.89128C222.42 5.89128 221.226 4.69737 221.226 3.22461C221.226 1.75185 222.42 0.557943 223.893 0.557943C225.365 0.557943 226.559 1.75185 226.559 3.22461ZM3.59863 180L5.98538 185H0.211868L2.59863 180H3.59863ZM223.893 3.72461H19.0986V2.72461H223.893V3.72461ZM3.59863 19.2246V180.5H2.59863V19.2246H3.59863ZM19.0986 3.72461C10.5382 3.72461 3.59863 10.6642 3.59863 19.2246H2.59863C2.59863 10.1119 9.98593 2.72461 19.0986 2.72461V3.72461Z" fill="url(#paint0_linear_1_2341)"/>
    <defs>
        <linearGradient id="paint0_linear_1_2341" x1="380.019" y1="-29.916" x2="161.117" y2="327.177" gradientUnits="userSpaceOnUse">
            <stop stop-color="#8FBDFB"/>
            <stop offset="1" stop-color="#8FBDFB" stop-opacity="0"/>
        </linearGradient>
    </defs>
</svg>