<svg xmlns="http://www.w3.org/2000/svg" width="206" height="184" viewBox="0 0 206 184" fill="none">
    <path d="M0.30013 3.08398C0.30013 4.55674 1.49404 5.75065 2.9668 5.75065C4.43956 5.75065 5.63346 4.55674 5.63346 3.08398C5.63346 1.61123 4.43956 0.417318 2.9668 0.417318C1.49404 0.417318 0.30013 1.61123 0.30013 3.08398ZM202.324 178.99L199.937 183.99H205.711L203.324 178.99H202.324ZM2.9668 3.58398H186.824V2.58398H2.9668V3.58398ZM202.324 19.084V179.49H203.324V19.084H202.324ZM186.824 3.58398C195.385 3.58398 202.324 10.5236 202.324 19.084H203.324C203.324 9.97129 195.937 2.58398 186.824 2.58398V3.58398Z" fill="url(#paint0_linear_1_2339)"/>
    <defs>
        <linearGradient id="paint0_linear_1_2339" x1="-138.355" y1="-29.8981" x2="88.2444" y2="306.309" gradientUnits="userSpaceOnUse">
            <stop stop-color="#8FBDFB"/>
            <stop offset="1" stop-color="#8FBDFB" stop-opacity="0"/>
        </linearGradient>
    </defs>
</svg>