<svg xmlns="http://www.w3.org/2000/svg" width="19" height="18" viewBox="0 0 19 18" fill="none">
    <path d="M17.4509 1.16677C17.2179 0.973139 16.9368 0.846244 16.6374 0.799566C16.338 0.752888 16.0316 0.788171 15.7507 0.901666L1.08716 6.82156C0.773657 6.95059 0.506798 7.1719 0.321986 7.45611C0.137174 7.74033 0.0431467 8.07402 0.0523779 8.41291C0.0616091 8.7518 0.173663 9.07988 0.373673 9.35361C0.573682 9.62734 0.852193 9.83379 1.17225 9.94556L4.13834 10.9774L5.79116 16.4448C5.81384 16.5177 5.84661 16.5871 5.88853 16.651C5.89508 16.6608 5.90408 16.6673 5.91063 16.678C5.95896 16.745 6.01717 16.8043 6.08327 16.8539L6.14055 16.8948C6.21816 16.946 6.30394 16.9837 6.3942 17.0061L6.40484 17.0069L6.40975 17.0093C6.46441 17.0205 6.52007 17.0259 6.57585 17.0257L6.59058 17.0233C6.67437 17.0218 6.75743 17.0074 6.83686 16.9807C6.85486 16.9731 6.87232 16.9649 6.88923 16.9562C6.94861 16.9318 7.00491 16.9004 7.05697 16.8629L7.18134 16.7573L9.3922 14.3166L12.6897 16.8711C12.9798 17.0973 13.3372 17.2203 13.7051 17.2205C14.0907 17.22 14.4644 17.087 14.7635 16.8437C15.0627 16.6004 15.2691 16.2617 15.3481 15.8843L18.018 2.77869C18.0784 2.48384 18.0575 2.17813 17.9576 1.89422C17.8578 1.61031 17.6826 1.35887 17.4509 1.16677ZM6.89987 11.2376C6.78678 11.3508 6.7094 11.4948 6.67731 11.6516L6.42366 12.8822L5.78216 10.7605L9.10827 9.02833L6.89987 11.2376ZM13.6928 15.5774L9.79558 12.5582C9.63259 12.4322 9.42805 12.3723 9.22282 12.3905C9.0176 12.4087 8.82679 12.5036 8.68852 12.6564L7.97993 13.4378L8.23031 12.2211L14.0258 6.42554C14.1633 6.28719 14.2469 6.10426 14.2614 5.90974C14.276 5.71522 14.2206 5.52191 14.1052 5.36464C13.9898 5.20738 13.822 5.09652 13.632 5.05205C13.4421 5.00758 13.2425 5.03242 13.0693 5.1221L4.75201 9.45217L1.7041 8.33692L16.4151 2.45303L13.6928 15.5774Z" fill="#123248"/>
</svg>